<?xml version="1.0" encoding="UTF-8"?>
<svg id="layout" xmlns="http://www.w3.org/2000/svg" viewBox="0 0 1000 1000">
  <defs>
    <style>
      .cls-1, .cls-2 {
        stroke-width: 0px;
      }

      .cls-2 {
        fill: #fff;
      }
    </style>
  </defs>
  <path class="cls-2" d="m232.14,223.28h-.01v.04s0-.01.01-.02c0,0,.01-.02.01-.03h-.01Zm381.19,46.67h0s.01,0,.01,0h-.01Zm-.01.04v-.02s.01,0,.01-.01h-.01v.03Zm18.41-122.7h.03c.2-.17.39-.32.58-.48-.21.16-.42.31-.61.48Zm-399.59,75.99h-.01v.04s0-.01.01-.02c0,0,.01-.02.01-.03h-.01Z"/>
  <path class="cls-1" d="m966.59,442.78c-19.15,32.16-47.31,56.16-78.72,77.13-2.59,1.72-3.99,1.8-5.75-1.12-7.14-11.89-14.65-23.61-21.8-35.5-.59-.98-.05-3.7.8-4.14,15.27-7.89,18.3-22.68,5.79-34.26-4.91-4.53-5.38-8.72-4.86-14.31,6.22-67.43,1.58-133.91-21.09-198.52-25.2-71.84-67.63-132.25-132.81-177.21-1.2-.82-2.16-1.96-3.22-2.95,1.43.48,2.93.84,4.28,1.48,105.9,50.71,172.21,131.27,200.51,240.27,5.49,21.14,9.49,42.58,7.32,68.85.87,6.59,1.9,17.4,3.93,28.05.61,3.17,3.73,7.86,6.29,8.24,3.14.47,7.79-2.12,10.24-4.7,14.8-15.55,16.91-34.03,12.62-53.77-.74-3.41-1.25-6.88-1.87-10.31,2.77,2.55,5.72,4.92,8.25,7.66,28.68,31.08,32.34,67.78,10.1,105.12Z"/>
  <path class="cls-1" d="m872.27,524.96c-7.51,5.65-15.88,10.38-22.86,16.53-8.68,7.63-7.14,13.11,3.95,17.08,3.14,1.12,4.39,1.98,3.4,5.48-22.41,79.86-52.01,156.81-102.5,225.07-20.99,28.37-45.63,53.65-79.07,69.07-12.59,5.8-26.74,8.57-40.21,12.6-1.39.42-3.04.08-4.57.08.87-1.16,1.55-2.49,2.61-3.46,30.4-27.59,55.11-59.3,75.54-94.07,39.77-67.67,59.11-140.53,60.05-217.84,0-9.78.18-19.57-.08-29.35-.1-3.55.77-5.33,4.62-6.58,26.96-8.81,52.96-19.52,75.79-36.15,2.77-2.01,4.2-1.62,5.76,1.16,6.56,11.71,13.37,23.29,19.71,35.11.63,1.16-.74,4.22-2.13,5.27Z"/>
  <path class="cls-1" d="m254.7,50.99c-.78,1.21-1.44,2.52-2.38,3.62-62.7,72.99-99.2,157.31-119.4,248.65-8.78,39.68-13.85,79.8-15.04,120.34-.05,1.93-1.36,5.14-2.75,5.52-9.53,2.53-14,8.83-14.93,17.54-.98,9.4,1.69,17.69,10.24,23.53q7.75,5.29,2.34,12.8c-5.53,7.74-11.13,15.45-16.44,23.31-2.08,3.08-3.98,4.05-7.76,2.36-25.31-11.22-45.56-27.24-57.1-52.12-10.7-23.07-18.74-46.72-19.08-71.83.08-24.69,7.19-46.31,26.47-63.29,2.13-1.88,4.77-3.24,7.18-4.84-.77,2.51-1.33,5.08-2.32,7.49-5.38,13.15-9.13,26.48-5.89,40.74,2.1,9.28,7.25,16.71,14.68,23.01,4.79,4.05,8.61,3.08,10.76-1.81,3.11-7.16,7.21-14.65,7.46-22.11,2.83-84.28,39.34-155.89,91.68-221.57,26.06-32.72,55.67-62.35,88.5-89.06,1.11-.91,2.52-1.53,3.8-2.27Z"/>
  <path class="cls-1" d="m321.02,863.18c-1.73-.16-3.55-.07-5.2-.52-29.18-7.96-53.25-23.92-74.62-43.78-34.8-32.37-58.49-71.62-76.96-113.97-22.55-51.74-35.71-105.86-44.79-161.02-.11-.64-.21-1.28-.45-2.99.51-.69,1.35-2.13,2.53-3.25,4.53-4.32,4.17-8.89-.37-12.44-4.53-3.54-10.04-5.91-14.88-9.13-1.36-.9-3.08-3.54-2.63-4.35,5.46-9.53,11.24-18.89,17.1-28.22,1.31-2.08,2.93-3.98,5.5-.55,13.17,17.61,31.9,25.62,54,26.88,6.04.35,6.71,2.64,6.86,7.55,2.74,88.72,21.64,173.8,64.56,253.28,17.55,32.5,39.52,62.1,66.25,88.46,1.21,1.19,2.08,2.69,3.1,4.05Z"/>
  <path class="cls-1" d="m856.88,378.84c-1,14.45-2.28,32.67-3.52,50.9-.23,3.45-1.02,5.85-5.2,7.29-11.28,3.86-16,10.88-14.73,22.13.65,5.76,2.39,11.53,4.57,16.95,1.53,3.8,1.31,5.64-2.63,7.66-9.26,4.77-18.38,9.82-27.27,15.17-3.52,2.12-5.6,1.34-8.28-1.04-15.02-13.32-18.59-31.51-8.41-49.37,14.5-25.47,21.91-52.93,26.17-81.24,9.48-63.18-2.75-123.4-28.71-181.57-15.89-35.62-36.29-68.78-61.27-99.38-.92-1.12-1.57-2.44-2.35-3.67,1.53.74,3.22,1.28,4.57,2.25,36.92,26.51,64.6,60.14,84.78,99.48,24.64,48.04,36.25,99.22,40.28,152.16.98,12.8,1.24,25.63,2.01,42.28Z"/>
  <path class="cls-1" d="m177.47,270.21c-8.45,50.06-9.22,100.04,4.66,149.54.54,1.88.95,3.86,1.9,5.56,9.62,17.01,5.86,32.63-6.47,46.55-5.96,6.74-13.72,12.08-20.88,17.78-1.21.97-4.32,1.49-5.3.74-5.85-4.49-11.47-9.27-16.85-14.24-2.68-2.48-2.61-4.95.91-7.51,7.7-5.63,10.22-13.62,9.85-22.58-.41-10.01-5.39-15.6-15.85-16.19-5.13-.29-5.28-2.45-5.26-6.08.51-67.52,11.46-133.45,33.95-197.51,17.17-48.87,41.44-94.26,76.42-134.04,1.17-1.34,2.34-2.69,3.62-3.93.33-.31,1.06-.26,2.15-.5-1.02,1.95-1.64,3.09-2.24,4.27-28.96,56.69-50.09,115.83-60.61,178.13Z"/>
  <path class="cls-1" d="m340.74,610.76c-1.97,29.19-7.61,57.58-14.97,85.72-.26,1.02-.77,2-1.16,2.99-.45-.89-1.14-1.75-1.31-2.69-13.15-78.35-58.58-138.4-119.23-189.91-5.1-4.33-9.96-5.84-17-5.69-7.91.17-15.96-2.53-23.83-4.44-2.79-.68-3.33-2.48-.18-4.35,15.6-9.3,26.87-22.22,34.2-38.17,1.88-4.09,3.22-3.19,6.19-1.07,13.36,9.53,26.62,19.23,40.54,27.95,6.77,4.24,14.71,7.19,22.52,9.39,4.91,1.38,6.97,3.5,8.49,7.83,5.92,17.03,13.45,33.46,25.78,47.21,6.15,6.83,13.54,13.03,21.43,17.98,7.21,4.54,12.34,9.98,13.99,17.67,2.1,9.74,3.07,19.7,4.53,29.57Z"/>
  <path class="cls-1" d="m797.09,503.64c-.99.51-1.98,1.02-2.96,1.54-16.12,8.66-33.13,16.11-48.22,26.17-64.38,42.89-104.47,101.88-124.79,173.52-.85,3.02-2.3,5.89-3.45,8.84-1.42-2.92-3.51-5.73-4.1-8.8-2.02-10.43-3.52-20.94-5.21-31.44,1.77-35.74,12.31-69.19,25.74-101.96.87-2.09,3.6-3.77,5.86-5.01,19.29-10.67,37.79-22.42,52.32-38.73,5.68-6.37,9.48-14.23,14.47-21.2,1.76-2.45,4.15-4.95,6.88-6.28,14.82-7.25,30.25-13.47,44.63-21.44,7.29-4.03,12.81-10.95,19.11-16.6.8-.71,1.5-1.53,2.24-2.3.3,1.14.76,2.26.89,3.41.95,7.96.73,16.26,3.14,23.79,1.71,5.34,6.89,9.7,10.62,14.43.69.87,1.88,1.38,2.83,2.06Z"/>
  <path class="cls-1" d="m254.73,846.69c-1.07-.14-2.23-.09-3.22-.44-20.55-7.21-39.54-17.21-57.26-29.35-24.39-16.71-45.08-36.86-61.62-60.77-.78-1.14-1.09-2.56-1.61-3.85,1.28.26,2.56.63,3.87.76,5.65.55,11.29,1.32,16.96,1.46,4.72.12,5.41-1.55,2.32-5.38-12.84-15.86-25.68-31.73-37.96-47.98-21.61-28.67-42.49-57.88-57.21-90.41-5.06-11.2-7.11-23.65-10.36-35.55-.34-1.27.48-2.83,1-5.41,2.02,2.31,2.93,3.56,4.06,4.61,12.26,11.36,24.17,23.11,37.01,33.87,7.54,6.33,16.78,10.39,27.33,11.25,1.93.16,4.28,3.2,5.23,5.38,13.76,31.98,26.11,64.54,41.22,95.92,19.98,41.49,45.43,79.97,78.44,113.54,3.27,3.33,6.77,6.48,10.1,9.78.73.72,1.13,1.71,1.69,2.57Z"/>
  <path class="cls-1" d="m825.46,740.52c-.55.61-.85,1.41-1.28,2.12.99.21,2.17.86,2.93.55,3.96-1.63,7.8-3.54,11.72-5.29,1.29-.59,2.7-.99,4.04-1.49-.5,1.16-.8,2.45-1.53,3.47-7.11,9.84-13.62,20.17-21.57,29.38-28.92,33.53-64.88,58.63-105.64,77.73-1.33.63-2.93.77-4.4,1.14.89-1.34,1.57-2.89,2.68-4.02,36.81-37.58,69.1-78.34,95.34-123.26,15.6-26.71,28.26-54.6,36.51-84.23.76-2.75,3.22-5.71,5.78-7.29,20.58-12.74,40.61-26.14,57.02-43.71,4.53-4.86,8.27-10.38,12.41-15.58.65-.81,1.5-1.46,2.26-2.19.22.95.44,1.91.58,2.49-4.09,22.88-11.69,44.24-21.53,64.92-17.68,37.21-41.79,70.35-70.7,100.45-1.54,1.61-3.14,3.17-4.62,4.82Z"/>
  <path class="cls-1" d="m614.48,364.38c-1.68,7.82-3.3,15.67-5.08,23.46-.99,4.33-2.57,3.49-4.99.64-4.46-5.24-9.01-10.43-14-15.2-9.12-8.67-19.59-14.55-32.25-18.72-22.02-7.29-42.63-18.07-60.12-33.27-10.06-8.75-13.94-20.16-14.58-32.69-.11-1.97,1.22-4.01,1.9-6.02,1.6,1.07,3.38,1.95,4.76,3.22,10.92,10.2,23.28,14.99,39.17,12.78,6.96-.97,15.06,1.21,21.8,3.89,20.57,8.12,37.89,20.86,53.02,36.34,7.03,7.21,11.54,15.17,10.37,25.57Z"/>
  <path class="cls-1" d="m477.53,298c-2.6,5.55-4.18,11.82-7.95,16.49-14.97,18.53-33.35,33.28-56.07,42.84-22.16,9.31-37.13,24.86-44.5,46.9-.69,2.08-2.23,3.9-3.38,5.85-.77-2.21-2.06-4.37-2.21-6.62-.99-14.73-1.82-29.48-2.48-44.24-.07-1.75.8-3.88,1.95-5.31,14.33-17.85,29.48-35.15,49.55-47.41,8.03-4.92,17.62-8,26.94-10.43,11.24-2.92,23.06-3.93,31.92-12.31.33-.31,2.92.61,3.03,1.2.77,4.05,1.17,8.16,1.69,12.25.51.27,1.02.54,1.53.8Z"/>
  <path class="cls-1" d="m439.91,70c-1.27-.32-2.6-.49-3.77-1-35.29-15.13-61.28-38.21-77.99-69h18.06c1.82,9.38,6.83,17.61,12.91,25.33,13.18,16.76,30.02,29.8,47.85,41.79,1.12.76,1.96,1.91,2.94,2.88Z"/>
  <path class="cls-1" d="m569.91,433.98c-13.65-4.49-25.7-.61-36.28,7.98-11.06,8.98-18.71,20.49-23.48,33.22-6.27,16.73-10.98,33.97-16.37,51-.5,1.58-1.06,3.15-1.58,4.73-.45-1.59-1.22-3.19-1.31-4.8-1.35-26.04-2.61-52.07-3.91-78.11.28,0,.55-.01.83-.01,0-25.63-.01-51.25.05-76.88,0-1.32.81-2.62,1.25-3.94.59,1.12,1.27,2.21,1.75,3.37,9.07,21.43,26.87,33.05,52.65,32.33,17.76-.5,29.52,9.71,31.49,26.78.45,3.92.65,6.24-5.09,4.35Z"/>
  <path class="cls-1" d="m740.96,224.52c-21.25,7.57-31.75,24.43-41.05,42.4-3.33,6.42-6.69,12.86-10.41,19.09-1.2,2-3.63,3.34-4.64,4.23-9.18-1.2-16.43-2.21-23.69-3.07-4.87-.59-6.89,1.58-9.63,5.81-7.37,11.35-16.41,21.71-24.91,32.39-.7.89-2.32,1.12-3.52,1.66-.04-1.21-.29-2.45-.1-3.63,1.99-11.58,4.68-23.15-.69-34.63-.22-.48,1.4-2.47,2.32-2.57,28.97-3.55,49.9-20.38,70.53-37.92,8.69-7.38,17.8-14.35,27.09-21.05,3.55-2.56,8.12-3.83,12.22-5.71,1.1-.51,2.15-1.1,3.22-1.65-1.35-.07-2.94-.63-4-.13-6.09,2.87-12.71,5.22-17.97,9.18-12.73,9.58-24.84,19.9-37.12,30.02-15.71,12.95-33.31,22.2-54.06,25.34-1.66.26-3.44-.12-5.16-.2.81-1.48,1.31-3.26,2.5-4.37,1.6-1.46,3.66-3.29,5.64-3.42,5.81-.39,7.94-4.05,10.17-8.24,2.88-5.43,6.53-10.5,9.23-16.01,4.37-8.92,11.65-13.96,21.27-17.08,10.17-3.28,20.22-7.04,29.87-11.49,3.71-1.71,7.18-5.46,8.97-9.06,4.37-8.83,7.69-18.11,11.47-27.2.39-.93,1.02-1.75,1.53-2.62,1.05.73,2.5,1.24,3.05,2.22,6.48,11.46,12.86,22.98,19.09,34.56.37.71-.47,2.87-1.22,3.13Z"/>
  <path class="cls-1" d="m347.3,282.43c-5.39,10.45-3.11,21.3-2.28,32.08.14,1.85.1,3.73.14,5.59-1.82-1.14-4.02-1.96-5.38-3.46-9.2-10.24-18.45-20.39-22.91-33.71-.78-2.36-5.67-3.49-6.99-4.24-8.86.94-15.24,1.55-21.6,2.32-4.15.5-6.36-.69-8.25-4.7-6.84-14.45-13.25-29.27-22.07-42.6-4.69-7.1-13.72-11.83-21.31-16.92-7.51-5.04-7.97-4.74-3.32-12.52,5.43-9.07,11.12-17.99,16.87-26.87.85-1.32,2.7-2.05,4.07-3.04.52,1.37,1.03,2.73,1.54,4.1,3.52,9.41,6.77,18.93,10.73,28.18,1.18,2.75,3.95,5.58,6.75,6.91,10.43,4.92,21.03,9.58,31.85,13.7,8.53,3.24,14.98,8.02,18.63,16.2,2.13,4.79,5.08,9.26,7.41,13.97,2.81,5.64,4.87,11.76,12.97,12.51,1.17.12,2.49,1.27,3.26,2.26,1.29,1.68,2.2,3.62,3.27,5.44-1.99-.08-4.04.08-5.97-.29-21.16-4.02-38.42-14.68-53.86-28.48-11.17-9.98-22.07-20.29-33.87-29.56-5.79-4.56-13.34-7.1-20.15-10.45-.63-.31-1.73.24-2.61.38.63.34,1.27.69,1.9,1.03,6.49,3.51,13.72,6.2,19.33,10.69,12.08,9.66,23.37,20.19,34.89,30.45,15.5,13.83,33.09,23.91,54.19,27.97,1.16.21,3.03,2.56,2.77,3.07Z"/>
  <path class="cls-1" d="m483.81,466.58c-1.09,20.63-2.17,41.26-3.32,61.89-.07,1.06-.74,2.09-1.13,3.13-.41-.97-.99-1.88-1.21-2.87-4.69-21.57-10.13-43.01-21.45-62.37-5.15-8.8-11.76-17.18-19.25-24.29-10.07-9.53-22.88-12.59-36.79-7.87-4.22,1.42-4.59.05-4.35-3.38,1.42-20.07,15.97-28.56,31.01-28.09,9.08.29,18.64-1.91,27.36-4.73,10.32-3.33,16.41-11.42,19.63-21.3.4-1.23,1-2.39,1.51-3.58.65,1.24,1.75,2.44,1.88,3.75,1.93,17.48,4.2,34.97,5.39,52.51.84,12.34.17,24.78.17,37.17.18,0,.34.01.52.01Z"/>
  <path class="cls-1" d="m611.88,290.77c-.06.3-.18.9-.3,1.51-.84-.55-1.79-.99-2.53-1.65-13.44-11.72-26.23-24.19-40.45-35.01-12.85-9.78-27.78-15.32-45.19-14.04-8.23.6-16.88-1.07-25.01-2.98-10.13-2.38-13.18-6.99-13.62-16.92-.41-9.54-.83-19.09-1.29-28.63-.17-3.3.12-5.09,4.35-2.82,14.95,8.1,30.95,12.39,48.36,12.95,5.79.18,12.15,2.86,17.06,6.05,28.83,18.67,48.14,44.08,57.6,76.07.48,1.66.65,3.41,1.03,5.46Z"/>
  <path class="cls-1" d="m616.26,335.09c.15,1.67-1.11,3.46-1.73,5.21-1.27-1.14-2.57-2.25-3.8-3.42-11.56-11.06-22.35-22.97-34.86-32.98-13.08-10.5-28.77-14.38-46.57-14.05-11.86.21-23.94-4.6-35.66-7.99-5.61-1.62-8.43-6.32-7.92-12.36.29-3.46.04-6.95.04-10.43h.17v-14.32c4.1,1.46,8.1,3.86,12.3,4.19,8.56.68,17.22.03,25.82.33,6.71.22,14.29-.68,19.96,1.91,32.89,15.03,55.98,39.25,69.94,71.17,1.69,3.9,1.91,8.46,2.31,12.76Z"/>
  <path class="cls-1" d="m462.51,377.38c-11.28,9.24-24.42,15.17-38.78,18.8-26.03,6.57-37.32,22.25-34.5,47.68.21,1.8-.11,3.64-.19,5.47-1.98-.91-4.37-1.41-5.86-2.79-10.19-9.4-14.02-29.6-7.11-41.3,5.46-9.23,11.61-18.2,18.48-26.53,7.06-8.54,16.6-13.72,28.17-16.13,17.36-3.62,29.59-14.98,41.05-27.03,2.3-2.42,4.21-5.14,6.44-7.63,1.53-1.7,3.29-3.2,4.94-4.79.87,2.19,2.09,4.32,2.53,6.59,1.03,5.31,1.69,10.69,2.5,16.06,1.44,14.34-7.55,23.29-17.66,31.58Z"/>
  <path class="cls-1" d="m600.01,412.22c-1.82,8.34-6.3,16.16-9.78,24.17-.33.74-1.57,1.12-2.38,1.67-.14-.81-.29-1.62-.41-2.43-.03-.21,0-.43,0-.64.32-28.83-18.2-46.22-51.44-45.27-18.42.52-31.93-8.1-38.73-24.06-4.39-10.31-6.18-21.62-9.13-32.47.36-.14.73-.29,1.09-.43.43-3.58.87-7.16,1.29-10.73,2.42,2.47,4.92,4.88,7.28,7.42,16.43,17.8,36.08,29.9,60.89,35.44,16.78,3.76,30.94,13.66,39.12,28.63,2.89,5.26,3.48,12.78,2.2,18.71Z"/>
  <path class="cls-1" d="m473.37,208.63c0,3.9.03,7.82,0,11.74-.15,14.06-7.95,25.15-22.66,25.71-30.93,1.19-49.77,19.49-68.29,39.11-3.98,4.2-7.52,8.75-11.31,13.11-.55.63-1.32,1.08-1.98,1.62.04-.8-.15-1.66.14-2.35,7.62-18.4,14.55-37.09,23.19-55.05,7.3-15.19,19.18-25.75,37.78-29.25,14.61-2.73,26.26-11.92,37.58-20.89,1.36-1.08,2.96-1.92,4.44-2.87.37,1.81.99,3.62,1.05,5.43.15,4.56.06,9.13.06,13.7Z"/>
  <path class="cls-1" d="m409,505.08c-.04,1.36-2.32,2.98-3.93,3.96-21.61,13.04-28.94,29.43-21.74,52.84,3.18,10.28,9.12,19.77,13.83,29.61.81,1.71,1.65,3.42,2.49,5.12-2.17-.33-4.53-.25-6.48-1.04-13.01-5.39-23.14-14.24-30.04-25.76-6.84-11.44-10.25-24.13-10.37-40.61.66-23.05,14.54-41.9,36.96-55.7,1.79-1.1,6.41-.2,8.31,1.33,9.77,7.91,11.24,18.95,10.98,30.25Z"/>
  <path class="cls-1" d="m626.66,536.32c-.98,19.55-9.01,39.34-29.36,53.34-3.12,2.15-6.53,4.03-10.03,5.56-2.15.94-4.73.97-7.11,1.41.99-2.04,2.08-4.03,2.97-6.11,4.95-11.58,11.45-22.84,14.44-34.86,4.8-19.28-3.32-35.23-21.25-45.32-5.01-2.83-6.48-5.9-5.85-10.97,1.02-8.3,2.66-16.33,8.8-22.81,3.99-4.2,7.88-5.46,13.58-1.66,21.72,14.44,34.09,35.16,33.8,61.42Z"/>
  <path class="cls-1" d="m755.81,294.5c-2.16.69-4.26,1.55-6.34,2.44-.54.22-.89.84-1.33,1.27.62.07,1.29.29,1.87.17,4.55-.89,4.37,2.32,4.26,4.8-.25,5.2-.91,10.37-1.4,15.55-2.5,5.68-5.02,11.36-7.54,17.04-1.42,1.21-2.83,2.44-4.26,3.66.08-1.71.34-3.43.19-5.12-.8-8.8-1.64-17.6-2.6-26.37-.4-3.55-2.04-3.49-4.69-1.33-12.82,10.46-21.49,23.58-27.68,38.32-1.02,2.43-2.43,4.84-2.72,7.36-1.18,9.83-7.9,13.76-17.11,15.71-11.17,2.35-22.31,4.87-33.32,7.82-3.44.93-6.92,2.98-9.51,5.38-9.29,8.66-18.17,17.71-27.31,26.52-1.03.98-2.68,1.38-4.04,2.06.43-1.29.55-2.75,1.29-3.85,15.86-23.23,32.78-45.63,56.62-62.31,3.66-2.56,7.75-4.64,11.82-6.58,32.93-15.68,55.69-40.71,72.62-71.07,1.47-2.62,1.87-5.78,2.83-8.67.62-1.88,1.35-3.72,2.04-5.58.98,1.92,2.37,3.75,2.85,5.77,1.72,7.39,3.88,14.79,4.48,22.3.74,8.97-1.98,11.75-11.02,14.7Z"/>
  <path class="cls-1" d="m353.14,403.21c-1.35-.55-3.08-.76-3.99-1.68-8.53-8.76-17.28-17.38-25.2-26.62-3.58-4.18-7.36-6.46-12.75-7.79-11.95-2.94-23.7-6.59-35.56-9.88-6.22-1.72-9.48-5.09-11.07-11.53-4.61-18.74-13.72-35.38-28.35-49.09-3.65-3.41-5.57-3.75-6.18,1.65-1.02,9.21-2.45,18.4-2.82,27.63-.17,4.03-.91,3.47-3.36,1.7-1.54-4.52-3.08-9.04-4.61-13.57-1.44-6.55-3.32-13.07-4.11-19.69-.3-2.59-2.34-7.76,4.32-7.35-.15-.65-.08-1.68-.48-1.89-1.6-.84-3.32-1.48-5.02-2.09-8.61-3.03-11.97-6.66-10.62-15.07,1.4-8.72,4.58-17.2,7.06-25.75.22-.77.98-1.4,1.49-2.09.37.68.99,1.32,1.1,2.04,3.63,22.46,18.09,39.08,33.32,55.16,7.03,7.42,14.65,14.4,22.53,21,4.18,3.49,9.3,6.14,14.35,8.43,12.46,5.67,23.17,13.66,31.45,23.82,13.01,15.94,24.87,32.73,37.17,49.2.72.98.91,2.31,1.35,3.49Z"/>
  <path class="cls-1" d="m476.78,558.84c-1.14-.98-2.38-1.88-3.41-2.95-6.75-6.92-13.92-13.15-23.95-15.68-1.6-.4-2.89-2.89-3.76-4.66-2.97-6.08-4.97-12.72-8.74-18.28-2.97-4.39-7.39-9.13-12.27-10.84-7.15-2.49-8.46-5.99-8.68-12.64-.52-14.91-4.47-28.57-21.71-34.37-.81-.27-1.76-1.91-1.61-2.73,1.22-6.48,11.95-13.97,20.18-13.54,7.41.78,13.69,5.47,17.94,11.67,7.58,11.06,15.53,22.21,20.76,34.31,9.29,21.47,16.66,43.66,24.76,65.56.47,1.28.33,2.75.48,4.14Z"/>
  <path class="cls-1" d="m579.36,457.99c-.73.48-1.46,1.25-2.37,1.55-17.25,5.76-20.87,19.52-21.72,34.38-.34,6.05-.89,9.57-8.16,12.25-11.65,4.3-16.62,15.09-20.07,25.87-1.65,5.17-4.25,7.7-9.6,10.12-7.19,3.24-13.07,9.13-19.52,13.85-1,.74-2.06,1.42-3.1,2.13.04-1.06-.15-2.17.17-3.13,9.81-30.79,19.73-61.56,37.46-89.28,4.42-6.92,10.26-13.46,16.82-18.59,10.25-8.02,25.33-2.81,29.37,9.19.14.42.34.81.72,1.67Z"/>
  <path class="cls-1" d="m691.86,166.97c-2.98-4.87-7.85-8.75-12.15-12.81-2.27-2.14-2.98-.99-3.57,1.74-1.23,5.69-3.07,11.28-4.83,16.85-1.72,5.46-5.48,7.89-11.67,9.18-17.28,3.62-31.03,12.72-36.99,28.97-2.96,8.1-8.1,12.04-15.7,14.67-2.36.82-4.91,1.39-6.98,2.66-1.32.8-2.98,2.93-2.69,4.01,3.26,11.74,6.77,23.41,10.47,35.03.54,1.72,2.42,3.06,3.68,4.56.63-.62,1.27-1.26,1.89-1.87v.03-.02s.01,0,.01-.01h.01s0-.03,0-.03c0,0,0-.01.01-.01.2-.35.42-.68.65-1.02.25-.36.51-.73.74-1.09.49-.73.89-1.48,1.01-2.26,2.41-14.77,12.39-24.39,26.12-28.57,12.25-3.73,16.73-10.98,18.95-21.48,2.39-11.4,7.32-21.45,17.94-28.18,2.84-1.8,5.8-3.48,8.48-5.51,5.15-3.89,8.06-9.23,4.61-14.84Zm-10.36-4.75c-.86,4.02-1.15,8.35-3.02,11.94-6.43,12.34-14.28,23.13-27.87,30.24-24.88,13.02-39.83,32.38-36.78,61.06.15,1.42-.29,2.89-.49,4.4-4.18-31.89,6.42-51.85,36.4-67.62,16.8-8.84,25.89-22.65,30.13-39.91.22-.9.73-1.72,1.11-2.58.19.82.69,1.71.52,2.47Z"/>
  <path class="cls-1" d="m374.77,226.64c-3.75,11.61-7.69,23.15-12.04,34.56-.65,1.67-3.7,2.53-5.63,3.77-.05-.19-.23-.45-.15-.58.19-.34.48-.62.76-.92h0c.38-7.99,2.06-16.14.91-23.89-3.22-21.56-18.15-35.36-36.8-46.15-15.1-8.7-22.28-22.36-26.57-37.87-.41-1.52-.74-3.05-1.11-4.57-.2,1.69-.46,3.41-.57,5.12-.05.84.02,1.76.26,2.58,4.6,14.68,11.56,27.88,25.96,36.14,20.54,11.79,35.84,27.06,37.75,51.13.46,5.8.13,11.66.17,17.5-.98-1.44-2.62-2.78-2.8-4.3-2-16.96-14.1-25.9-29.06-31.66-7.25-2.78-11.17-6.36-12.11-13.64-.54-4.27-2.75-8.33-3.41-12.6-1.72-11.32-9.38-18.56-18.38-24.83-5.5-3.82-11.39-7.55-10.33-14.85,1.1-7.65,6.95-12.39,13.75-16.08,2.51-1.34,3.47-1.17,3.61,1.92.15,3.44.87,6.88,1.73,10.24,2.29,8.75,6.25,14.83,17.09,17.48,17.79,4.35,29.45,16.27,34.13,33.41,1.68,6.14,6.99,7.59,11.64,10.05,2.79,1.47,6.06,2.12,8.75,3.72,1.3.78,2.8,3.18,2.45,4.32Z"/>
  <path class="cls-1" d="m351.4,393.81c-1.06-1.37-2.13-2.73-3.19-4.1-10.73-13.79-20.9-28.02-32.37-41.23-9.64-11.1-21.16-20.51-36.24-24.87-.85-.24-1.72-.68-2.38-1.24-22.84-18.97-44.79-38.71-57.57-65.55-2.49-5.24-3.25-11.23-4.66-16.9-.19-.74.44-1.68.81-2.91.83.89,1.17,1.18,1.4,1.53.51.73.95,1.49,1.42,2.23,6.3,9.83,10.83,21.47,19.4,28.97,8.38,7.34,20.65,10.92,31.57,15.34,19.15,7.76,33.8,19.89,42.3,37.98,5.13,10.9,14.2,17.9,24.09,24.25,4.72,3.03,6.41,6.53,7.13,12.1,1.28,10.03,4.66,19.82,7.15,29.72.4,1.55.77,3.11,1.14,4.67Z"/>
  <path class="cls-1" d="m757.69,252.56c-3.3,7.31-5.83,15.07-10.04,21.88-14.14,22.88-34.5,40.42-56.21,56.6-3.44,2.56-8.45,3.16-12.5,5.07-16.63,7.79-29.07,20.3-40.58,33.63-7.39,8.55-14.02,17.72-21.03,26.57-.72.9-1.77,1.55-2.68,2.34.22-1.01.39-2.02.65-3.02,2.94-11.32,5.79-22.67,8.97-33.93.52-1.84,2.06-3.96,3.77-4.88,14.51-7.89,25.42-18.96,33.06-32.98,8.61-15.85,24.31-22.98,40.34-29.73,6.07-2.57,11.95-5.69,18.24-7.55,10.29-3.03,17.21-9.04,22.09-17.99,3.36-6.15,7.77-11.79,11.8-17.6.55-.8,1.62-1.28,2.45-1.91.19.98.4,1.95.59,2.92.37.2.74.38,1.1.57Z"/>
  <path class="cls-1" d="m476.32,252.44c0,3.04.19,6.1-.04,9.13-.78,10.75-7.68,19.55-18.19,21.03-24.67,3.47-45.07,15.26-64.57,28.78-10.15,7.04-19.53,15.05-29.3,22.6-.76.57-1.77.85-2.68,1.28.18-.8.19-1.67.55-2.39,9.89-19.64,20.29-38.99,36.3-54.97,5.97-5.98,12.95-9.62,22.02-10.69,18.59-2.19,33.48-12.21,48.07-22.54,2.27-1.62,4.8-2.92,7.21-4.37.22,2.74.48,5.48.67,8.23.08,1.31.01,2.61.01,3.92h-.06Z"/>
  <path class="cls-1" d="m582.94,224.34c-1.72-1.01-3.92-1.65-5.06-3.04-15.44-18.84-35.81-27.81-60.76-27.72-15.74.07-26.74-6.32-32.12-20.77-3.38-9.1-4.69-18.89-6.92-28.39.3-.09.62-.2.92-.29.37-3.17.73-6.35,1.09-9.53,2.39,2.1,4.94,4.09,7.17,6.33,11.93,12,26,21.22,41.33,28.8,15.96,7.89,30.94,17.14,42.83,30.07,5.01,5.44,8.57,12.17,12.3,18.57.83,1.42-.45,3.94-.76,5.97Z"/>
  <path class="cls-1" d="m472.9,149.83c-.37,3.37-.77,8.12-1.44,12.85-1.88,13.02-7.25,22.56-21.78,27.81-13.5,4.88-25.78,12.98-38.11,20.41-4.14,2.49-6.66,7.36-10.08,11.01-1.07,1.15-2.7,1.83-4.06,2.72-.76-1.21-2.32-2.59-2.12-3.62,1.43-6.92,1.4-14.92,5.28-20.38,8.36-11.76,18.74-22.25,28.48-33.13,1.24-1.37,3.44-2.06,5.31-2.82,14.57-5.86,27.76-13.34,35.95-26.91.39-.63,1.22-.99,1.84-1.48.25.78.67,1.57.7,2.36.07,3.25.03,6.52.03,11.18Z"/>
  <path class="cls-1" d="m589.54,0c-6.9,8.59-13.8,17.17-20.81,25.67-1.93,2.34-4.22,4.35-5.81-.82-.37-1.23-4.36-2.22-6.57-2.05-12.44,1-24.2,4.1-34.88,10.63-2.79,1.71-6.49,2.07-9.78,3.05,1.17-2.69,1.79-5.77,3.59-8,7.78-9.61,15.77-19.06,23.79-28.48h50.47Z"/>
  <path class="cls-1" d="m565.78,34.18c-1.02,1.38-1.27,2.1-1.76,2.35-11.21,5.42-13.22,16.56-17.98,25.96-.88,1.75-1.05,3.89-2.15,5.46-1.9,2.69.04,11.48-8.46,4.86-1.73-1.36-6.22-.09-9.23.67-7.28,1.84-14.38,4.28-21.67,6.06-2.21.54-5.54.44-6.97-.8-1.07-.94-.39-4.28.25-6.36,2.39-7.68,4.97-15.32,7.73-22.89.69-1.89,1.93-4.39,3.59-5.07,15.79-6.45,31.89-11.99,49.43-11.83,2.23.01,4.46.95,7.22,1.59Z"/>
  <path class="cls-1" d="m570.27,185.86c-.56,3.5-2.17,4.23-5.53,1.67-22.47-17.1-45.07-34.03-67.62-51.03-1.03-.77-1.91-1.72-2.85-2.59,1.1-.4,2.21-.81,4.36-1.59,15.92,2.72,32.58,5.55,49.22,8.41,6.82,1.16,10.68,5.18,12.63,11.39,2.89,9.15,6.18,18.19,9.12,27.33.65,2.02.99,4.35.66,6.41Z"/>
  <path class="cls-1" d="m536.25,82.98c-.62,4.96-1.02,9.96-1.97,14.87-.32,1.63-1.68,3.79-3.16,4.4-14.9,6.16-29.91,12.08-44.93,17.97-1.38.54-3.03.4-4.55.57.67-1.32,1.43-2.61,1.98-3.97,1.71-4.22,3.21-8.51,5.02-12.69,1.62-3.76,2.64-8.3,5.52-10.92,9.86-8.92,22.33-13.41,35.45-16.05,4.21-.85,7.29.9,6.64,5.81Z"/>
  <path class="cls-1" d="m653.57,144.23c-1.22.14-2.49.59-3.66.4-5.46-.81-10.88-1.67-15.74.99-.4.22-.81.47-1.21.74-.21.14-.41.3-.62.44-.19.16-.39.31-.58.48-8.97,4.4-17.97,8.81-26.96,13.23-9.04,1.01-18.05,2.14-27.11,2.89-1.9.16-3.92-1.15-5.89-1.78,2.01-1.14,4.26-3.47,5.98-3.16,4.21.77,5.78-.84,7.86-3.9,1.88-2.78,5.03-5.18,8.17-6.72,6.08-2.98,12.34-6.03,18.92-7.56,7.13-1.66,10.63-4.35,11.13-11.8.55-8.12,6.22-9.96,12.62-4.26,5.79,5.17,10.61,11.33,15.78,17.12.67.76.89,1.91,1.32,2.89Z"/>
  <path class="cls-1" d="m403.27,157.13c-1.84.47-3.67,1.27-5.54,1.36-12.19.61-23.47-2.68-34.32-7.6-2.67-1.2-5.39-2.3-8.09-3.43-3.69-2.44-7.39-4.9-11.09-7.34-5.64-1.04-11.27-2.13-16.92-3.12-1.68-.3-3.41-.35-5.1-.52.84-1.46,1.43-3.15,2.59-4.33,5.1-5.25,9.9-10.88,15.7-15.34,6.44-4.99,12.17-2.77,11.95,4.96-.23,8.29,4.36,10.17,11.07,12.44,10.87,3.68,22.27,7.08,28.11,18.19.52.98,4.1.2,5.94.94,2.09.85,3.81,2.49,5.71,3.8Z"/>
  <path class="cls-1" d="m141,450.19c.3,9.92-7.92,18.14-18.28,18.29-10.19.14-18.93-8.06-18.9-17.77.01-9.56,8.24-17.4,18.35-17.54,10.22-.12,18.54,7.4,18.83,17.01Z"/>
  <path class="cls-1" d="m650.54,146.75c-.69.34-1.36.87-2.09.98-14.27,2.06-23.76,10.35-31.32,21.33-1.16,1.68-2.9,3.89-4.68,4.17-11.89,1.83-19.45,9.01-25.89,17.81-1,1.37-2.31,2.52-3.48,3.77-.54-1.62-.98-3.26-1.61-4.83-2.82-7.1-5.56-14.23-8.61-21.24-1.35-3.09-1.36-3.38,2.68-3.73,9.82-.82,19.52-2.9,29.26-4.48,9-4.41,17.99-8.83,26.96-13.23,5.38-.44,10.8-.91,16.21-1.27.84-.05,1.72.46,2.57.72Z"/>
  <path class="cls-1" d="m401.32,164.82c-3.7,7.18-6.48,14.77-9.68,22.18-.37.86-.91,1.67-1.36,2.51-.61-.6-1.36-1.12-1.8-1.81-6.4-10.17-14.06-18.74-27.32-20.92-1.33-.22-2.53-2.3-3.4-3.72-6.84-11.09-15.74-19.68-29.47-22.67-.81-.17-1.54-.72-2.3-1.08.89-.38,1.84-1.15,2.7-1.07,5.2.52,10.37,1.24,15.55,1.88,3.7,2.44,7.4,4.9,11.09,7.34,12.77,8.88,27.17,12.99,42.87,12.73,4.79-.09,5.34.38,3.14,4.64Z"/>
  <path class="cls-1" d="m458.56,130.36c-8.69.29-17.49,5.33-26.37,10.29-2.13,1.19-5.01,1.16-7.55,1.7.47-2.78.37-5.81,1.57-8.28.96-2,3.29-3.58,5.31-4.92,10.63-7.13,16.96-16.78,19.27-28.88.32-1.71.61-3.46,1.27-5.05.45-1.07,1.55-1.91,2.37-2.85.92.85,2.3,1.54,2.71,2.59,3.63,9.1,7.47,18.16,10.46,27.47,2.27,7.05.83,8.26-9.02,7.94Z"/>
  <path class="cls-1" d="m483.12,90.14c-1.94,7.56-4.13,16.16-6.44,24.73-.25.9-1.27,1.62-1.94,2.42-.98-.82-2.46-1.48-2.86-2.51-2.1-5.48-4.04-11.03-5.83-16.62-.99-3.11-.78-6.78-2.46-9.43-5.37-8.51-2.79-15.98,2.1-23.52,2.27-3.5,4.02-7.3,6.38-10.73.33-.48,3.96.12,4.07.6,2.41,11.19,4.53,22.43,6.97,35.06Z"/>
  <path class="cls-1" d="m550.54,133.79c-1.46.76-2.9,1.51-3.96,2.05-19.8-7.57-39.87-6.54-59.7-7.34-.94-.04-1.84-.68-2.77-1.03.69-.48,1.31-1.1,2.06-1.42,15.7-6.52,31.38-13.08,47.21-19.3.88-.35,4.54,2.78,4.33,3.21-4.97,10.67,3.74,14.64,10.29,19.77,1.2.95,1.71,2.69,2.53,4.06Z"/>
  <path class="cls-1" d="m870.17,458.85c-.14,8.8-7.53,15.51-16.88,15.29-8.96-.22-16.03-7.13-15.93-15.58.11-8.66,7.73-15.56,16.95-15.33,8.94.24,15.97,7.17,15.86,15.62Z"/>
  <path class="cls-1" d="m457.81,144.63c-4.48,3.64-9.38,6.88-14.4,9.86-12.99,7.68-26.74,14.44-34.35,28.05-.28.5-.96.8-1.46,1.19-.23-.69-.78-1.46-.66-2.09,3.08-14.78,8.06-28.66,23.13-36.4,7.58-3.89,15.72-6.78,23.62-10.13,2.64,1.38,5.74,2.08,6.12,3.46.51,1.78-.48,4.84-1.99,6.07Z"/>
  <path class="cls-1" d="m500.51,19.74c.59,8.04,1.28,16.07,1.69,24.13.07,1.4-.94,2.87-1.51,4.28-3.71,9.11-7.43,18.23-11.2,27.31-.44,1.07-1.2,2.02-1.82,3.03-.77-1.01-2.05-1.93-2.24-3.03-.76-4.28-.77-8.7-1.8-12.9-1.11-4.52-3.15-8.83-4.59-13.28-.41-1.25-.8-3.09-.14-3.98,6.62-9.1,13.41-18.07,20.26-27,.59-.77,1.83-1.07,2.77-1.59.22.95.43,1.91.65,2.86-.69.05-1.38.12-2.06.17Z"/>
  <path class="cls-1" d="m533.15,0c-8.11,9.21-15.32,19.16-22.96,28.78-1.01,1.28-2.27,2.39-3.42,3.59-.73-1.73-2.33-3.59-2.02-5.13,1.04-5.25,1.43-11.28,4.48-15.38,3.03-4.06,6.25-7.99,9.57-11.86h14.35Z"/>
  <path class="cls-1" d="m241.66,229.17c-2.77,5.2-5.97,10.17-9.05,15.22-.51.82-1.24,1.53-1.87,2.3-.26-.81-.83-1.65-.74-2.43.65-7,1.42-13.97,2.15-20.93v-.05h.01c.77-.82,1.53-1.65,2.31-2.48,2.72.73,5.81.99,7.99,2.45.84.55.14,4.15-.8,5.91Z"/>
  <path class="cls-1" d="m741.54,254.56c.03.93-.87,1.89-1.33,2.83-.61-.85-1.29-1.67-1.8-2.57-2.63-4.77-4.97-9.69-7.87-14.28-1.93-3.04-3.45-5.38.32-8.26,3.71-2.86,6.03-1.12,8.45,1.45.29.3.76.46,1.14.68l.04.31c.37,6.62.81,13.23,1.06,19.85Z"/>
  <path class="cls-1" d="m224.5,329.37c-.83-.25-2.09-.27-2.39-.8-3.32-5.68-7.32-11.18-9.44-17.26-2.19-6.28-2.74-13.14-3.51-19.78-.19-1.66,1.5-3.53,2.32-5.29.69,1.71,1.73,3.37,2.01,5.14.94,5.98,1.42,12.03,2.5,17.97.3,1.68,2.12,3.11,3.25,4.65,1.53,4.53,3.07,9.05,4.61,13.57.21.6.43,1.2.65,1.8Z"/>
  <path class="cls-1" d="m652.04,161.51c-.55,2.74-.59,5.03-1.51,6.91-.77,1.57-2.59,2.65-3.95,3.96-.78-1.23-1.6-2.42-2.32-3.67-1.66-2.83-3.16-5.77-4.94-8.53-1.79-2.78-3.6-5.56.77-7.47,3.54-1.54,7.52-2.73,9.74,1.92,1.1,2.31,1.58,4.87,2.21,6.88Z"/>
  <path class="cls-1" d="m290.55,187.06c-2.48,3.85-4.73,7.82-7.15,11.71-.59.95-1.44,1.79-2.17,2.68-.43-1.16-1.25-2.34-1.22-3.49.08-4.28.45-8.57.7-12.85.62-1.66,1.24-3.33,1.86-4.99,2.46-2.68,4.9-4.18,8.54-1.28,4.06,3.22,1.18,5.51-.55,8.21Z"/>
  <path class="cls-1" d="m692.83,208.18c.01.78-.54,1.57-.84,2.35-.69-.72-1.57-1.33-2.05-2.15-2.37-4.17-4.55-8.41-6.95-12.56-1.47-2.55-4.31-4.73-.61-7.77,3.38-2.78,6.07-2.02,8.74.76.43.93.88,1.87,1.32,2.81.14,5.52.33,11.05.39,16.57Z"/>
  <path class="cls-1" d="m335.49,153.05c-1.4,2.69-3.16,5.22-4.84,7.79-.77,1.19-1.69,2.3-2.54,3.45-.52-1.33-1.18-2.61-1.55-3.98-.32-1.16-.29-2.4-.41-3.62-.21,1.01-.34,2.04-.72,3-.07.2-1.29.34-1.46.13-2.52-3.28.07-13.44,3.88-15.38.76-.39,1.64-.54,2.86-.91,2.2,1.24,5.05,2.1,6.47,3.96.74.97-.76,3.79-1.68,5.56Z"/>
  <path class="cls-1" d="m747.76,337.34c-.98,1.28-2.46,2.22-3.71,3.3.43-1.62.85-3.25,1.28-4.87,2.52-5.68,5.03-11.36,7.54-17.04,1-5.71,1.93-11.41,3.03-17.09.25-1.28,1.16-2.44,1.76-3.64.85,1.2,2.43,2.39,2.48,3.62.43,13.29-4.2,25.1-12.37,35.72Z"/>
  <path class="cls-1" d="m745.01,253.78c-.3.46-.84.76-1.28,1.12-.05-.86-.04-1.72-.19-2.57-.99-5.88-2.02-11.75-3.05-17.63l-.04-.31c-.56-1.51-1.11-3.03-1.68-4.54,1.51.76,3.37,1.2,4.47,2.31,4.69,4.78,5.53,16.1,1.77,21.62Z"/>
  <path class="cls-1" d="m234.46,220.8c-.78.84-1.54,1.66-2.31,2.47h-.01c-.73,2.96-1.46,5.91-2.2,8.88-.73,2.96-1.46,5.93-2.2,8.89-.19.78-.39,1.55-.59,2.34-.37-.5-.84-.95-1.11-1.49-3.25-6.31-1.29-17.72,3.84-21.67,1.47-1.15,3.69-3.83,4.59.59Z"/>
  <path class="cls-1" d="m283.67,176.74c-.37,1.12-.74,2.26-1.11,3.39-.62,1.66-1.24,3.33-1.86,4.99-.72,3.9-1.42,7.81-2.17,11.71-.14.71-.47,1.38-.72,2.09-.4-.5-.89-.93-1.17-1.48-2.93-5.63-1.07-16.45,3.54-19.82.88-.65,2.31-.61,3.49-.89Z"/>
  <path class="cls-1" d="m695.7,208.49c-.29.24-.65.39-.98.59-.01-.61.03-1.24-.05-1.85-.73-5.21-1.49-10.42-2.23-15.62-.44-.94-.89-1.88-1.32-2.81-.34-.98-.67-1.96-1-2.95.81,0,1.76-.26,2.42.04,5.61,2.59,7.86,18.79,3.16,22.6Z"/>
  <path class="cls-2" d="m613.33,269.96s.01-.07.01-.1c0,.03.01.05.01.08l-.03.05v-.03Z"/>
</svg>