<?xml version="1.0" encoding="UTF-8"?>
<svg id="layout" xmlns="http://www.w3.org/2000/svg" viewBox="0 0 1000 1000">
  <defs>
    <style>
      .cls-1, .cls-2 {
        stroke-width: 0px;
      }

      .cls-2 {
        fill: #fff;
      }
    </style>
  </defs>
  <path class="cls-1" d="m634.34,851.32c-25.62-4.09-49.55-17.12-75.2-21.89-26.39-4.9-53.01-3.02-79.11,2.61-53.08,11.44-105.68,22.72-159.27,31.84-49.66,8.46-102.29,14.25-151.28-1.58-42.98-13.89-81.23-59.65-79.63-106.24-3.3-74.69,91.3-119.73,154.36-94.1,25.71,10.45,69.53,48.77,53.19,80.73-7.54,14.75-29.25,23.02-45.02,21.38-14.98-1.56-39.82-14.54-44.04-30.23,11.94,2.1,31.68,9.33,41.43-1.19,11.23-12.13-3.89-20.95-14.59-25.29-18.09-7.36-51.67-10.77-60.42,12.17-8.3,21.8,5.9,48.69,24.6,59.82,28.11,16.72,61.04,10.67,90.21.68,31.69-10.85,63.21-26.1,97.28-26.98,35.5-.91,61.07,19.83,94.42,26.22,30.47,5.84,60.69-3.64,89.89,10.43,23.83,11.5,55.14,35.31,63.19,61.6Z"/>
  <path class="cls-1" d="m579.38,226.62c-6.47,8.3-16.3,6.12-25.85,6.12-19.12-1.77-35.43-7.54-55.09-7.11-10.08.22-19.4.29-28.96,3.97-10.22,3.93-17.38,7.93-28.52,4.27-15.79-5.16-32.95-25.71-51.19-20.33-7.99,2.36-12.8,10.44-20.53,13.73-9.2,3.92-18.64,2.9-28.23,1.41-21.08-3.31-42.31-6.01-63.25-10.07-20.31-3.92-39.02-14.42-56.96-24.51-17.96-10.11-32.86-23.34-48.08-37.1-15.16-13.69-31.26-26.81-43.9-42.87,30.5,8.37,59.74,22.77,89.27,34.16,13.3,5.13,24.98,7.75,39.09,9.7,12.64,1.75,30.6,8.22,42.92,5.27-18.12-12.16-37.96-19.74-55.35-33.55-17.62-13.99-34.56-28.91-51.6-43.6-7.77-6.72-17.67-13.19-24.04-21.25-7.38-9.34-11.55-23.15-16.59-33.99-4.75-10.19-10.11-20.47-15.24-30.87h18.08c5.01,6.03,10.32,11.72,16.43,16.35,2.61,1.97,26.19,18.81,28.53,17,4.72-3.68-.18-26.12-.05-31.65,16.93,9.57,22.42,37.88,35.71,52.48,15.81,17.37,35.76,27.42,57.15,36.17,23.99,9.81,47.79,20.03,71.6,30.23,10.84,4.65,22.1,11.16,33.94,12.45,11.4,1.25,25.28-3.04,36.18.6,20.21,6.77,29.09,30.8,51.83,30.87,13.51.03,20.86.76,31.77-6.06,9.42-5.88,18.11-7.69,29.23-6.96,22.35,1.48,34.84,13.77,37.57,36.23,1.21,9.91.7,30.47-5.87,38.91Z"/>
  <path class="cls-1" d="m460.27,374.17c-15.89,4.64-34.94,3.33-51.41,4.39-19.94,1.28-39.89,2.56-59.84,3.84-18.78,1.2-37.55,2.4-56.33,3.61-18.21,1.16-38.98,5.46-57,2.03,4.04-4,8.48-7.41,12.73-11.2-28.14-4.77-60.92,1.87-88-6.76,8.35-8.34,19.33-13.46,28.05-21.38-24.86-8.17-53.8-2.53-78.37-11.5,14.15-9.99,33.14-11.7,47.43-21.4-22.64-11.24-50.47-11-72.91-22.75,26.17-9.99,57.04-7.78,84.14-14.94-36.61-28.55-80.81-36.01-102.08-81.84-9.38-20.19-12.26-43.22-11.19-65.34.92-18.97,8.39-48.35,21.12-63.13.61,8.6-5.14,18.73-7.42,26.88-2.97,10.6-5.13,21.48-6.12,32.47-1.79,19.83-.19,41.21,7.13,59.89,12.63,32.24,48.67,57.14,83.72,49.78,10.1-.55,20.27-.72,30.29-2.23-12.59-20.58-32.53-36.28-43.89-57.62,27.53,9.01,50.84,28.7,78.08,38.35-2.06-4.32-4.28-8.55-6.42-12.84,30.89,10.8,59.93,31.66,91.62,39.53-.79-2.97-1.33-5.99-1.59-9.06,16,7.27,24.65,19.77,30.82,35.29,6.09,15.28,11.02,41.32,22.68,53.12,11.67,11.81,35.98,18.12,50.93,25.32,16.98,8.18,39.7,14.95,53.8,27.49Z"/>
  <path class="cls-1" d="m574.76,747.3c-8.38,9.81-25.83,13.41-38.26,13.3-22.74.64-28.94-23.74-48.88-30.35-22.27-7.37-42.8,7.53-65.55,5.55-41.48-3.62-93.59-36.14-93.24-82.23.19-23.8,17.71-38.77,29.55-57.5,9.89-15.64,26.65-48.05,1.84-59.01-14.05-6.21-47.92.9-47.11,19.93.41,9.63,7.11,17.7,17.1,16.85,15.73-1.33,10.52-11.25,3.77-18.85,9.82-2.44,21.27.57,20.51,12.97-.65,10.56-12.85,17.37-21.72,20.46-19.24,6.71-41.89-.35-53.14-17.73-30.25-46.73,39.53-83.87,77.64-83.7,24.1.11,50.38,14.94,69.58,28.61,18.28,13.01,34.18,31.85,39.41,54.14,6.17,26.23-19.3,46.17-31.23,67.02-10.48,18.32-13.9,40.05,10.14,48.87,22.15,8.12,53.32,10.36,67.29,32.55,6.31,10.01,6.26,18.38,18.41,23.19,14.76,5.85,29.68,1.79,43.89,5.91Z"/>
  <path class="cls-1" d="m641.9,498.03c-1.54,11.38-1.61,24.41-4.91,35.4-2.85,9.51-10.78,14.53-18.08,21.11-6.95,6.26-15.1,11.79-17.33,21.29-2.25,9.52,1.67,21.39-2.08,30.45-2.72,6.59-12.8,16.32-20.28,17.23-8.3,1.02-17.03-6.74-24.35-9.66-20.62-8.25-43.66-7.37-65.47-7.57-12.79-.13-16.87,3.16-14.74-9.68,1.69-10.13,1.85-19.42-1.07-29.39-5.08-17.32-18.07-36.23-31.17-48.57-8.17-7.69-10.77-12.37-16.79-21.71-5.21-8.1-12.73-13.05-19.45-19.64-15.08-14.77-20.21-39.74-10.43-58.93,7.27,12.17,3.86,26.53,17.74,33.91,12.44,6.6,25.41,17.95,38.51,22.04,14.04,4.38,19.16-.55,12.83-14.39-5.54-12.12-20.32-15.69-25.94-27.89,11.25.68,20.64,4.41,29.78,11.01,3.98,2.86,8.62,6.16,11.24,10.36,2.31,3.67,2.02,8.81,4.45,12.17,4.69,6.5,19.3,10.05,27.5,7.73,10.19-2.89,18.66-15.83,27.62-21.54,18.47-11.76,43.94-12.21,64.8-7.31,7.43,1.75,20.83,4.59,25.94,10.21,5.48,6.05,11.01,34.91,11.7,43.37Z"/>
  <path class="cls-1" d="m800.03,283.07c2.99,9.9-1.59,9.6-11.01,6.47-12.88-4.3-25.64-12.31-37.84-18.23-21.83-10.57-44.19-17.66-58.24-38.14-26.92-39.2-43.6-83.86-61.65-127.52-9.53-23.03-19.11-46.03-28.54-69.09-4.72-11.53-10.57-23.9-14.94-36.56h31.82c8.33,8.14,16.48,16.37,24.66,23.79,20.7,18.77,47.56,37.36,64.22,59.76-10.43-.11-20.84-2.75-31.11-4.5-10.31-1.75-12.22-3.45-11.33,7.14,1.86,22.24,9.25,38.85,22.36,56.42.24-8.3-4.65-28.29-1.55-35.06,3.89-8.53,17.97-3.02,27.16-2.08,15.07,1.53,18.2,5.87,28.42,17.05,9.27,10.15,20.42,20.35,27.93,31.84-12.08-.08-24.12-3.75-36.02-5.68-12.88-2.09-11.91-.21-10.91,12.9,1.74,22.87,1.1,41.58,20.68,57.25,1.94-8.26.81-17.84.81-26.33h-1.94c0-4.2-2.74-24.14,1.29-26.87,5.14-3.47,27.15,4.98,33.63,6.3,13.86,2.83,17.77,5.55,26.73,16.45,7.38,8.96,16.21,17.99,21.9,28.1-11.38-.89-22.48-4.9-33.6-7.29-12.82-2.76-11,.28-10.56,13.33.41,11.48.1,22.8,4.58,33.53,3.76,9.03,10.22,17.65,13.05,27.02Z"/>
  <path class="cls-1" d="m568.13,101.95c-8.65,12.89-24.7,23.37-36.37,33.63-12.03,10.58-21.21,20.15-36.59,24.47-18.45.51-33.9-16.96-48.16-26.31-15.98-10.49-35.56-4.81-53.49-10.34-22.39-6.91-44.14-17.77-65.86-26.57-10.59-4.29-15.31-5.71-20.6-15.69-5.7-10.76-13.23-23.77-15.58-35.69,8.77,2.09,47.47,25.65,52.79,20.41,2.96-2.91-1.63-21.32-2.01-25.77-.93-10.85-3.64-23.65-.95-34.22,9.06,5.46,15.54,14.6,22.62,22.44,3.23,3.58,16.31,22.3,20.86,21.82,5-.54,11.85-24.05,13.99-28.91,2.98-6.79,5.69-14.16,8.87-21.22h14.48c1.98,6.74,3.46,13.72,5.29,20.19,1.41,4.96,4.79,28.74,9.33,29.94,3.82,1,20.36-18.56,22.98-21.11,8.47-8.2,17.1-19.16,27.53-24.61,3.21,23.84-7.15,48.71-5.3,72.76,18.05-8.88,34.28-26.02,53.62-31.41-1.25,10.93-6.04,21.54-9.55,31.96-1.49,4.37-12.61,27.43-9.86,30.7,5.42,6.42,42.07-7.72,51.96-6.47Z"/>
  <path class="cls-1" d="m832.72,467.94c-1.01,9.03-8.62,17.03-14.1,24.02-7.57,9.65-16.35,14.79-27.94,18.43-9.39,2.94-19.72,1.48-23.56,11.22-8.7,22.05,18.11,30.42,22.75,48.61,4.23,16.62-1.55,6.99-11.24,10.98-9.7,4.01-11.83,22.82-17.54,30.36-3.85-8.92,2.72-19.96,4.49-28.69,2.56-12.57-4.76-19.56-5.95-31.51-1.15-11.64,2.18-24.61,2.96-36.31.3-4.43-.4-12.39,1.47-16.62,2.22-5.01,6.29-4.53,8.5-8.28,2.99-5.08,4.5-.13,1.85-7.65-1.38-3.9-5.86-7.35-7.49-11.68-4.1-10.9-4.7-24.06-6.73-35.5-4.09-22.98-6.66-51.26-36.54-53.88,1.03,3.42,5.78,13.74,9.21,15.02,1.58.6,5.95-1.34,8.8-.92,11.54,1.72,12.55,15.47,7.79,24.29-1.92,3.57-5.32,1.78-6.42,6.03-1.11,4.31,2.93,13.3,3.49,18.05.65,5.63-2.22,36.85,1.86,39.4,1.04.65,7.61-2.71,8.58-2.96.7,9.04-1.5,15.01-4.12,22.95-2.32,7.03-.44,14.61-3.76,21.89-3.63,7.96-11.44,11.35-10.62,21.08.88,10.32,10.06,17.98,6.84,29.09-1.62,5.55-9.96,10.65-9.48,16.38.72,8.79,12.49,7.57.16,13.13-11.02,4.96-4.39-2.31-9.42-4.06-8.06-2.83-18.56,2.93-27.17,2.74,6.26-7.13,15.59-11.13,21.84-18.22,5.64-6.41,6.26-14.18,7.91-22.38,3.36-16.79,9.54-30.46,1.15-46.2-11.77-22.14,10.7-27.46,10.5-47.93-.08-7.52-7.94-17.03-11.66-23.53-5.3-9.26-10.75-18.43-16.37-27.48-8.2-13.2-18.81-37.42-31.65-46.34-12.43-8.64-32.38-2.62-41.69-15.65-10.4-14.53-16.92-36.76-23.81-53.35-6.52-15.67-3.36-38.29,2.13-54.2,14.98,24.71,17.86,64.95,42.9,81.36,9.38,6.14,32.08,16.16,43.42,8.95,9.48-6.02-5.61-22.85-9.29-31.86,12.28,1.29,20.85,7.02,29.63,15.24,9.56,8.94,11.14,12.71,12.49,25.54-.3,10.6,3.1,26.72,18.85,23.5,8.29-1.7,12.77-15.82,12.98-22.88.33-11.17-6.74-19.77-9.83-29.97,12.12,2.39,19.46,6.79,26,17.23,4.43,7.07,15.16,19.38,16.09,27.54.71,6.21-3.66,17.15-6.94,22.33-4.64,7.35-13.16,7.84-18.07,14.28-5.12,6.72-2.96,14.21-2.15,22.31,1.45,14.59.43,30.48,10.39,41.94,2.5,2.89,9.54,10.24,13.13,11.22,6.59,1.78,7.15-1.95,11.2-7.76,8.85-12.69,11.12-22.89,16.38-36.78,4.28,6.62,8.68,29.65,7.8,37.48Z"/>
  <path class="cls-1" d="m947.38,191.09c2.37-13.64,1.67-28.34-2.4-41.67-8.58,9.23-14.47,28.31-29.23,29.51-11.09.91-16.22-9.32-15.12-19.08,1.38-12.27,8.84-13.9,17.04-19.94,12.13-8.94,14.77-25.57,16.45-39.42-8.49,11.04-12.55,21.33-28.81,16-11.42-3.75-9.25-14.83-3.72-24.78,6.41-11.53,18.6-16.69,25.71-27.14,2.09-3.08,4.04-6.45,5.74-10,4.23-8.85,6.91-18.82,6.35-28.19-4.55,4.4-11.73,7.22-12.94.26-.68-3.94,6.37-18.06,7.37-22.3-12.26,5.77-21.56,10.79-27.26,23.65-3.42,7.7-3.4,18.16-6.68,26.58-1.4,3.64-3.43,6.89-6.61,9.37-.77-3.07-.93-6.21-1.02-9.37-.11-3.5-.12-7.02-.75-10.5-1.87,2.09-3.86,6.07-6.06,10.5-4.54,9.15-9.93,20.21-16.9,20.42-9.18.28-12.26-12.83-12.45-20.42-.01-.75,0-1.44.03-2.06.65-11.45,7.06-17.55,13.84-25.65,7.05-8.44,3.45-12.28.08-21.86-.32-.92-.94-2.77-1.78-5h-47.09c1.52,5.54,1.96,12.16,1.68,16.63-.79,12.87-9,27.24-21.36,32.3-11.15,4.58-32-1.19-39.06-11.29-2.9-4.16-5.48-16.38-4.57-21.31.95-5.19,5.23-5.19,6.18-8.6.92-3.3-1.7-5.23-3.27-7.73h-34.12c-2.97,7.54-8.55,12.12-18.76,8.91-5.94-1.87-9.21-5.03-10.97-8.91h-20.74c-.14.7-.27,1.38-.38,2.07-1.93,11.75.34,33.5,10.24,41.31.32-5.06-4.58-26.18,3.56-28.14,2.35-.57,7.03,5.17,9.01,6.51,7.97,5.35,10.01,4.94,18.6,1.71-4.96-6.58,1.3-9.71,8.77-9.01,7.93.72,4.63,0,8.45,7.24,3.85-5.04,4.47-11.97,7.71-17.49,2.96,9.21-1.49,18.96.44,28.01.74,3.51,1.29,6.66,4.92,8.45,2.12,1.05,5.85-.79,7.08-.1,4.41,2.48,4.73,7.78,3.7,14.01-1.52,9.2-6.01,20.43-4.69,27.61,8.12-5.87,13.26-12.76,23.09-16.17,9.18-3.19,19.1-2.76,28.24-6.1,3.7-1.36,7.2-3.14,10.39-5.34,4.35-2.98,8.15-6.73,11.17-11.2,5.44-8.03,7.93-17.59,17.57-21.92-1.37,10.43-5.57,22.95-11.5,33.12-2.04,3.5-4.29,6.73-6.69,9.5-11.4,13.11-26.83,10.81-40.52,18.96,6.36,6.68,24.19,13.98,33.12,16.1-1.96-15.93,2.11-13.09,13.53-23.28,7.03-6.27,8.23-14.01,11.8-21.28.79-1.61,1.7-3.2,2.81-4.75.85,1.55,1.52,3.14,2.05,4.75,4.01,12.27-.45,26.24-2.65,38.44.46,13.94,7.68,10.4,18.8,5.58-2.88-3.52-5.16-6.92-7.59-10.73,7.5-3.61,13.69-2.88,21.59-4.87,6.91-1.75,12.07-5.84,18.93-7.46-1.23,10-7.29,17.19-8.69,26.67-.97,6.56,2.26,12.09-3.38,16.86-6.06,5.12-8.16,1.81-12.19,9.26-1.33,2.45,1.17,4.5-1.14,7.2-2.42,2.83-8.9,2.63-12.3,3.28-9.97,1.91-25.08-.8-19.13,12.36,7.19,15.91,26.93,1.3,35.6-6.96,3.46-3.31,11.66-14.24,17.72-12.34,6.02,1.86,3.94,8.45,1.93,12.88-3.48,7.69-11.26,10.59-9.33,19.87,1.15,5.51,10.7,22.19,15.64,24.53,9.1,4.29,17.42-6.82,25.5-4.89,9.42,2.26-2.71,6.77-6.05,7.86-7.05,2.28-19.93,7-27.48,5.17-7.61-1.86-12.66-10.37-19.37-14.08,2.72,5.97,7.75,14.66,12.31,19.41,5.78,6,7.13,4.37,14.8,4.04-1.58,5.71-9.53,26.76-14.91,29.58-5.65,2.97-12.82-10.76-18.8-13.38.75,8.09,8.56,17.57,11.66,25.39-3.88-.41-7.57-.85-11.47-.78,7.59,12.94,22.67,15.39,35.92,9.92-20.37-14.32-1.76-30.88,15.53-36.66,16.73-5.6,25.1,9.99,37.41-8.92-12.97-2.32-11.92-10.39-10.13-20.71Zm-38.8-139.87c.02-.2.05-.42.08-.65.06-.44.15-.93.25-1.45.05-.26.11-.53.18-.8.13-.56.29-1.15.47-1.78.07-.26.15-.51.24-.76.09-.26.19-.51.3-.76,0,0,.01,0,.01,0,.15-.33.31-.66.48-.99,0,0,0,0,0,0,.18-.32.37-.65.57-.97,1.13-1.77,2.64-3.4,4.29-4.66.24-.18.48-.36.72-.52.22-.15.43-.29.65-.43.3-.19.61-.37.92-.53,2.76-1.43,5.56-1.68,7.31.16.07.07.14.15.2.23s.13.16.19.25c.03.03.06.07.08.11.1.14.19.29.28.44.03.07.07.14.11.21.03.07.07.14.1.21.09.2.18.41.25.63.15.43.27.91.37,1.44.17.9.24,1.94.22,3.14-2.54,2.89-8.36,8.5-12.76,10.85-2.08,1.1-3.84,1.48-4.8.49-.06-.06-.11-.12-.16-.18-.07-.1-.14-.2-.19-.31-.28-.51-.43-1.24-.43-2.2,0-.35.02-.73.06-1.15Z"/>
  <path class="cls-1" d="m301.56,676.77c-9.68-4.72-17.21-13.46-26.63-18.93-9.29-5.39-19.38-9.29-29.71-12.22-21.26-6.03-43.45-7.6-65.2-11.02-19.91-3.14-41.99-6.21-58.3-19.09-13.37-10.56-27.99-34.18-26.35-51.8,1.09-38.35,29.8-71.21,68.84-73.46,21.29-1.22,45.04,6.05,61.62,19.55,12.17,9.91,28.16,35.26,22.52,51.71-14.59-6.54-26.29-19.07-41.53-24.26-14.24-4.85-31.94-3.57-46.3.2-28.67,7.52-30.54,36.02-7.47,53.11,23.66,17.54,59.73,15.67,86.64,26.76,22.78,9.39,57.95,32.59,61.87,59.46Z"/>
  <path class="cls-1" d="m526.14,352.05c-1.55,7.6-.34,16.85-2.44,23.98-4.32,14.58-17.76,10.4-28.46,5.56-17.69-8-35.07-16.83-52.57-25.24-14.87-7.13-29.74-14.26-44.64-21.32-14.15-6.7-35.76-11.79-43.65-26.38-17.69-32.71,41.4-1.49,53.51-9.53,17.15-11.34.81-60.87-20.8-53.42-5.81,2-21.86,22.21-11.72,26.43,8.95,3.72,6.89-22.92,20.65-16.49,7.44,3.47,9.88,29.32,3.23,34.91-6.92,5.81-34.47-1.65-42.88-3.55-41.77-9.43,8.7-50.9,24.46-59.92,14.67-8.38,23.17-4.45,33.37,7.38,13.22,15.33,16.52,25.83,19.88,45.21-.85,8.4-2.31,14.73,4.54,20.37,10.3,8.48,29.01,12.26,41.24,17.29,8.3,3.41,16.61,6.82,24.91,10.2,5.88,2.4,15.94,4.1,20.5,8.57,5.23,5.13,2.31,8.96.87,15.95Z"/>
  <path class="cls-1" d="m348.6,468.58c-1.31,11.22-22.59,12.47-30.72,14.99-11.99,3.72-24.13,8.03-35.57,13.24-8.51,3.88-18.82,15.22-27.28,14.99-9.69-.27-25.8-14.29-34.71-19.28-26.73-14.95-46.67-19.44-77.04-11.21-4.72,1.28-25.97,15.84-29.26,13.98-5.82-3.29-7-33.45-8.18-39.74,2.56-11.08,1.49-24.94,9.56-34.08,10.2-11.57,20.39-3.23,31.8,1.97,25.14,11.47,52.37,18.01,78.44,26.94,10.65,3.64,20.66,8.95,32.13,9.33,14.38.49,26.16-6.4,39.14-11.34,8.22-3.14,21.79-10.94,30.39-7.53,5.54,2.19,22.13,20.69,21.3,27.74Z"/>
  <path class="cls-1" d="m934.78,846.4c-25.55-5.03-49.9-18.16-75.04-25.22-27.22-7.64-48.19-.12-74.98,2.52-26.54,2.61-43.82-4.29-66.41-16.47-21.33-11.5-44.13-13.69-67.95-13.69-22.3,2.3-51.05-3.38-67.39-19.79,15.77-5.2,32.59-2.76,47.25-11.51,13.83-8.25,24.93-20.11,41.04-24.23,40.6-10.41,57.74,26.08,82.7,49.15,25.97,24,66.68,7.69,98.02,12.52,25.34,3.9,73.61,19.31,82.73,46.72Z"/>
  <path class="cls-1" d="m325.79,409.12c-.91,22.57-14.88,23.52-34.53,29.67-10.76,3.37-24.53,9.99-35.93,9.05-12.72-1.04-27.09-7.44-39.33-11.03-27.1-7.97-54.19-16.05-81.26-24.13-10.46-3.12-16.5-3.91-20.23-14.63-3.89-11.19-2.01-23.6,1.34-34.62,4.29-14.11,8.99-15.04,23.06-13.66,7.16.69,29.07-.96,26.38,8.43-3.26,11.42-19.15,12.88.3,19.24,12.51,4.09,25.34,7.42,37.99,11.11,12.24,3.58,25.41,9.18,38.01,11.05,10.8,1.6,22.13-.69,32.97-1.69,12.68-1.17,28.67-5.12,41.36-3.71,10.09,1.11,9.88,5.09,9.88,14.92Z"/>
  <path class="cls-1" d="m639.61,715.86c-50.07,27.2-95.62-24.4-142.32-32.07-18.84-3.1-45.22-12.12-40.76-36.93,4.13-23.04,34.13-30.63,53.71-29.54,14.94-2.17,33.17,4.87,44.98,13.98,11.78,9.1,15.33,23.98,18.47,37.91,3.17,14.07,5.03,24.81,18.14,33.21,14.59,9.35,31.68,8.82,47.79,13.43Z"/>
  <path class="cls-1" d="m892.41,692.39c-5.13,12.31-8.74,25.89-19.4,34.67-5.3,4.36-11.31,6.58-17.63,8.96-4.91,1.86-13.7,7.84-18.66,8.01-11.6.43-8.52-26.6-11.1-36.76-3.95-15.54-25.14-11.47-38.78-15.24-21.36-5.9-5.53-15.8,5.53-25.89,11.67-10.66,23.66-25.61,39.46-29.58,10.35-2.61,35.17-6.69,42.71,1.5,4.8,5.24,6.81,19.24,9.12,26.03,3.14,9.24,6.4,18.08,7.82,27.74l.94.56Z"/>
  <path class="cls-1" d="m115.83,681.75c-15.66,13.1-48.47,52.9-65.87,23.25-15.62-26.6-4.15-61.33,10.76-85.11,7.18-11.44,12.78-22.3,13.76-36.12,1.01-14.09-7.86-27.27-7.05-40.16,13.53,4.15,22.8,22.09,25,35.07,3.27,19.27-7.76,33.44-14.28,50.61-2.88,7.56-5.04,19.8-.24,27.3,4.67,7.29,10.71,5.74,20.09,5.1,30.71-2.06,4.24-18.03-4.86-27.89,4.39-1.79,7.38-1.54,12.07-1.54.14-.51.28-1.02.43-1.51,12.11,3.43,28.48,4.43,29.91,20.22,1.23,13.56-10.55,23.14-19.7,30.79Z"/>
  <path class="cls-1" d="m925.2,597.25c-4.35,20.88-12.3,45.92-22.02,64.88-6.53-8.66-9.2-28.76-17.25-35.39-7.47-6.15-21.55-2.35-31.13-2-6.05.21-16.43,2.46-19.3-4.53-2.67-6.53,7.48-22.89,9.74-28.36,9.5-22.98,25.87-28.6,47.82-37.91,13.46-5.72,15.09-6.03,20.52,8.1,4.37,11.41,9.92,23.11,11.63,35.21Z"/>
  <path class="cls-1" d="m931.11,365.35c-12.94-1.73-24.33-9.67-36.86-12.88-16.52-4.23-11.27,10.52-22.22,18.9-10.74,8.21-12.64-2.11-16.9-12.37-5.19-12.5-12.13-25.75-13.66-39.21,1.8-12.91-1.05-30.35,13.38-33.37,12.71-2.65,27.83,2.18,38.24,9.24,22.16,15.03,35.43,43.5,38.03,69.68Z"/>
  <path class="cls-1" d="m932.81,564.53c-6.7-6.39-11.34-16.39-16.15-24.29-6.86-11.27-7.93-12.83-20.26-7.86-12.27,4.93-34.55,22.07-34.01.16,3.75-17.44,4.76-36.16,17.03-49.97,5.96-6.7,13.05-12.88,20.03-18.51,10.3-8.32,12.73-4.49,22.14,3.83,23.88,21.12,27.44,69.11,11.23,96.66Z"/>
  <path class="cls-1" d="m928.04,451.06c-10.28-5.71-16.64-13.36-27.51-6.33-4.81,3.12-20.5,20.85-27.52,17.97-7.74-3.18-5.34-25.63-5.63-31.38-3.15-14.67,2.08-28.94,8.62-41.86,5.85-11.58,8.24-20.93,21.96-17.11,12.16,3.39,28.64,8.8,34.2,21.27,5.3,11.87,3.66,27.92,4.47,40.58.82,12.85,6.44,25.21-8.59,16.86Z"/>
  <path class="cls-1" d="m816.51,736.09c-3.27,7.79-15.69,2.12-24.33,2.26-15.28.24-28.42,6.74-43.25,8.61-12.23,1.54-15.54-4.43-26.36-10.84-5.56-3.3-24.44-8.03-24.68-15.6-.55-16.74,59.62-22.72,70.53-23.35,8.98,1.27,33.65.44,41.06,5.99,5.78,4.33,9.66,26.69,7.02,32.95Z"/>
  <path class="cls-1" d="m805.82,841.24c-15.4,27.37-59.6,22.28-86.46,24.51-20.43-3.53-49.78-2.68-64.21-19.71-16.6-19.58-3.8-36.75,20.67-30.08,22.64,6.16,37.76,25.38,61.89,30.04,10.7,2.07,21.67,2.35,32.52,1.74,11.87-.67,24.18-6.92,35.57-6.51Z"/>
  <path class="cls-1" d="m878.06,268.68c-11.01,3.61-33.29-3.75-42.3,2.32-7.96,5.35-3.67,21.08-8.33,30.23-11.28-7.44-20.1-24.56-26.78-36.2-8.04-13.98-8.72-27.4-9.73-43.15,9.94-3.53,36.97,5.16,46.56,10.46,13.65,7.52,30.99,24.31,40.59,36.35Z"/>
  <path class="cls-1" d="m96.78,527.22c-3.94,8.17-3.95,15.07-12.54,14.21-5.03-.51-11.47-5.72-14.63-9.36-11.52-13.25-12.09-40.4-15.54-56.95,7.41-18.06,21.6-41.76,36.5-54.59-.09,22.16-11.13,39.31.18,60.83,3.5,6.67,12.98,13.43,15.18,20.04,2.9,8.72-5.24,17.7-9.15,25.82Z"/>
  <path class="cls-1" d="m447.46,758.5c-7.66.26-15.9-4.4-23.55-5.91-8.95-1.78-18.05-2.61-27.16-2.92-17.79-.61-36.23,2.41-53.86-.64-14.6-2.53-29.85-10.89-37.24-24.2-6.56-11.78-5.95-31.61,11.63-31.94,13.47-.24,25.37,8.24,30.58,20.42,5.18,12.12,6.17,16.61,20.51,20.06,22.84,5.5,64.94,1.7,79.1,25.13Z"/>
  <path class="cls-1" d="m871.86,782.71c-15.99-4.67-29.79-10.35-46.84-7.38-14.42,2.52-29.85,14.92-44.93,12.03-13.77-2.63-15.13-15.66-6.41-25.38,9.31-10.37,24.35-11.75,37.28-13.02,23.87-.57,51.14,11.98,60.9,33.76Z"/>
  <path class="cls-1" d="m594.96,393.15c-4.41,5.97-7.22,12.86-8.91,20.04-1.35,5.74.43,18.26-3.02,22.8-4.1,5.4-17.29,4.02-23.46,4.54-16.99,3.75-4.7-34.93-1.54-40.87,6.24-11.73,24.31-29.79,39.35-23.27,11.26,4.89,2.19,10.51-2.42,16.76Z"/>
  <path class="cls-1" d="m678.66,417.09c-6.49,3.37-13.69,4.36-20.24,7.7-8.08,4.12-12.75,10.08-19.06,16.14-5.53,5.31-8.24,6.59-15.86,5.22-2.87-.52-21.37-5.15-22.79-8.09-10.47-21.5,79.36-56,77.96-20.97Z"/>
  <path class="cls-1" d="m702.04,487.68c-1.67,8.66-3.72,6.04-11.21,3.76-8.65-2.62-14.3-2.86-23.3-1.29-5.62.98-15.69,5.04-20.44.97-3.18-2.73-4.97-19.67-4.55-23.92.99-9.98,5.87-9.14,15.87-11.09,13.78,1.26,28.95,3.44,38.02,15.19,3.13,4.06,6.65,11.02,5.62,16.37Z"/>
  <path class="cls-1" d="m699.39,545.84c-2.75,9.46-5.45,7.42-11.93,3.19-5.9-3.85-9.44-7.79-16.61-9.88-6.49-1.89-20.64.27-25.68-4.24-6.58-5.9-.74-28.68,10.43-27.14,14.14,2.06,31.15,5.82,39.47,18.69,3.27,5.05,6.09,13.23,4.31,19.37Z"/>
  <path class="cls-1" d="m212.47,588.76c-.2-.55-.39-1.08-.6-1.62-17.88.21-30.83-19.17-35.06-34.66,12.01-3.14,40.44,12.78,52.02,18.02,22.27,10.07-3.78,13.71-16.37,18.27Z"/>
  <path class="cls-1" d="m657.58,283.69c-3.19,9.44-4.7,5.75-11.64-1.22-9.13-9.16-10.9-13.57-12.29-26.24.48-.05.95-.1,1.42-.14-1.31-11.79-3.69-24.02-3.53-35.87,7.26,8.73,11.54,20.66,16.82,30.7,5.43,10.3,13.35,20.53,9.21,32.77Z"/>
  <path class="cls-1" d="m907.08,0c-5.28,5.86-7.52,6.14-10.11,0h10.11Z"/>
  <path class="cls-1" d="m790.76,32.01c-9.04,12.66-16.37-19.19-16.25-24.39.46-2.43.75-5.05,1.22-7.62h5.77c.92,3.75,1.46,7.69,3.12,11.09,2.4,4.91,10.9,14.27,6.14,20.92Z"/>
  <path class="cls-1" d="m718.11,60.59c-6.1-12.18-.55-22.77,6.28-32.21,5.71,11.45,5.81,23.15-6.28,32.21Z"/>
  <path class="cls-1" d="m823.21,123.13c-.03.21-.06.42-.09.64-2.49-.54-4.98-1.07-7.46-1.61,9.35-4.39,15.07-12.31,21.47-20.35,8.81,18.21,4.62,21.33-13.92,21.33Z"/>
  <path class="cls-1" d="m421.07,431.07c-.95,2.25-1.23,2.92-1.51,3.6-14.28-6.77-14.48-14.21-11.66-27.84,6.1,3.46,10.14,17.81,13.17,24.24Z"/>
  <path class="cls-1" d="m700.47,588.18c-.54-2.57-1.08-5.14-1.62-7.7-1.11-7.04,8.76-15.72,13.94-8.57,4.89,6.77-8.55,13.82-12.32,16.27Z"/>
  <path class="cls-1" d="m462.2,419.89c6.98.46,19.3,6.49,23.05,12.36,1.61,14.52-21.47-4.5-23.05-12.36Z"/>
  <path class="cls-1" d="m875.18,175.14c-7.4-.71-17.07-.05-23.97-3.04,5.92-6.05,32.61-13.57,23.97,3.04Z"/>
  <path class="cls-1" d="m386.92,473.94c-2.35.65-4.72,1.3-5.25,1.45-4.76.12-14.21-8.38-10.52-13.38,5.22-7.08,14.26,9.32,15.77,11.93Z"/>
  <path class="cls-1" d="m956.94,118.91c-.98,6.2-1.31,21.87-11.05,13.82-7.46-6.16,4.23-12.42,10.55-15.49.24.83.5,1.67.5,1.67Z"/>
  <path class="cls-1" d="m669.18,383.88c-3.46,1.33-20.29,7.75-20.69-1.94-.07-1.72,10.66-3.87,11.32-4.05,4.21,1,6.12,3.19,9.37,6Z"/>
  <path class="cls-1" d="m687.73,302.24c-1.16,5.71-1.5,12.5-4.62,17.49-7.34-6.74-11.04-21.76,4.62-17.49Z"/>
  <path class="cls-1" d="m803.83,436.42c-5.65-1.36-7.53-2.1-11.26-6.49,1.16-4.43,2.02-7.73,2.88-11.03,3.54,5.88,6.19,11.05,8.37,17.52Z"/>
  <path class="cls-1" d="m810.45,10.39c-2.13,2.41-3.59,4.06-5.04,5.71-2.98-4.95-5.29-10.13-4.83-16.03,5.27.43,7.08,6.22,9.87,10.33Z"/>
  <path class="cls-2" d="m908.66,50.57c.06-.44.14-.93.25-1.45-.1.52-.19,1.01-.25,1.45Z"/>
  <path class="cls-2" d="m909.56,46.54c-.18.63-.34,1.22-.47,1.78.13-.56.28-1.15.46-1.78.15-.51.33-1.02.55-1.52-.21.51-.4,1.01-.54,1.52Z"/>
  <path class="cls-2" d="m908.95,54.57h5.15c-2.08,1.1-3.84,1.48-4.8.49-.06-.06-.11-.12-.16-.18-.07-.1-.14-.2-.19-.31Z"/>
  <path class="cls-2" d="m925.06,37.06c.37.39.69.87.96,1.45-.27-.58-.6-1.06-.96-1.45Z"/>
  <path class="cls-2" d="m926.64,40.58c-.1-.53-.22-1.01-.37-1.44.15.43.28.91.37,1.44Z"/>
</svg>