<?xml version="1.0" encoding="UTF-8"?>
<svg id="Layer_1" data-name="Layer 1" xmlns="http://www.w3.org/2000/svg" viewBox="0 0 1000 817">
  <defs>
    <style>
      .cls-1 {
        stroke-width: 0px;
      }
    </style>
  </defs>
  <g id="Layer_3" data-name="Layer 3">
    <g>
      <path class="cls-1" d="m971.22,537.55v-.26c0-.26,0-.51-.02-.77.02-.38,0-.77-.04-1.18-.02-.13-.02-.26-.04-.38-.04,1.38-.04,2.87.02,4.53v.05c-.15,2.92-.49,4.38,0,3.23.02-.51.04-1.05.04-1.56.06-1.23.06-2.43.04-3.66Zm-71.25-287.43c-.36.33-.69.72-1.03,1.13v.03c.34-.41.67-.79,1.03-1.15Zm-71.08,402.1h-.02v15.47c0-5.23,0-10.35.02-15.47Zm-144.54-522.79c.13.41-.19.79-3.82-.36,1.24,1.66,2.49,3.41,3.84,5.25,0-2.1.39-3.84-.02-4.89Zm-40.84-10.4c-.97-1.95-1.83-4.58-3.09-7.17-.39,3.41-.65,5.69-.95,8.43.21-1.05.79-1.82,4.04-1.26Z"/>
      <path class="cls-1" d="m932.76,220.1c-.94,2.46-1.74,4.56-2.88,7.58-2.99-5.12-4.96-8.48-7.3-12.47-1.37.59-3.31,1.41-6.06,2.56-7.3-2.43-12.84-12.83-23.3-16.37,2.49,4.1,4.04,5.87,4.81,8.12.99,2.82,1.09,6.22,2.04,9.07.79,2.33,2.28,4.2,3.03,6.86-5.75-3.64-9.98-9.2-13.08-16.96-2.94-7.3-6.72-13.96-10.26-21.21-4.87.74-5.58,11.19-12.3,10.22-1.55-3.1-3.48-6.92-5.41-10.76-.58.54-1.18,1.05-1.76,1.56.69-1.69,1.37-3.36,2.17-5.28-3.54-4.46-7.06-9.22-10.84-13.55-3.35-3.87-4.9-9.5-8.98-12.52.41-.85.84-1.69,1.25-2.56,5.11.92,10.2,1.82,15.22,2.71,1.83-2.2,3.41-4.1,5.41-6.51,1.87,2.38,3.56,4.53,5.46,6.97,10.09-13.11,22.05-17.8,35.61-19.31,0-3.56-.75-7.71.19-10.94,1.16-4-3.13-6.58-.43-11.06,1.38-2.28.24-7.4.24-11.14,1.89-4.99,3.76-9.91,5.86-15.42-.51-1.82-1.1-4.05-2.11-7.71,0-6.45,1.24-15.06-.37-22.54-1.44-6.71-.99-13.06-1.52-19.57-.6-7.48,1.38-14.11,3.48-20.95-9.04-3.48-18.49-4.25-27.44-8.22-3.05-1.36-6.92-.61-9.36-2.89-4.04-3.79-7.17-1.33-10.76.23-7.97,3.43-16.08,5.99-24.72,5.05-.22,1.61-.37,2.79-.62,4.61h37.32c10.8,10.65,19.43,21.92,20.53,42.11-2.79,6.68-4.17,16.98-11.06,23.28-1.55-3-2.84-5.53-4.19-7.99-1.22-2.2-2.51-4.33-4.77-8.2-2.25-1.66-6.57-2.59-8.52-9.48-.99-3.56-5.13-5.3-7.5-8.35-4.55-5.84-8.81-12.06-13.31-18.01-.95-1.28-2.32-1.97-5.3-4.43,1.1,4.2,1.24,6.2,2.02,7.4,6.96,10.6,14.26,20.85,21.05,31.66,5.26,8.4,9.94,17.47,14.88,26.25,1.53,17.78-1.16,33.68-12.95,44.9.67,1.18,1.16,2.02,1.87,3.23-2.3,1-4.57,2-7.15,3.12-.6-1.31-1.85-2.92-2.06-4.76-.54-5.07-2.21-9.14-4.85-12.65-7.21-9.66-11.29-20.98-10.26-35.19.24-3.3.04-6.68.04-10.27-1.18-.26-2.02-.44-2.83-.59-.36.87-.88,1.56-.88,2.25-.06,6.4-1.65,14.06.39,18.88,2.28,5.43,0,11.24,2.98,16.49,1.82,3.2.34,9.89.34,12.45,1.85,6.56,3.07,10.89,4.55,16.06-5.18.87-9.26,1.41-13.81-3.87.86,9.99,1.55,17.98,2.32,26.69,6.1,9.35,7.88,20.7,4.38,34.17-3.61-.97-7.64,1.77-11.36-2.2-2.66,2.69-6.16,3.18-7.07,10.25-.95,7.43-7.77,9.45-12.52,11.99-4.08,2.18-8.08-1.36-11.17-5.74-2.83-4-5.73-7.86-8.7-11.94-3.07.9-6.72-1.95-9.98,3.56-1.01-4-1.74-7.4-2.73-10.65-1.12-3.64-3.22-6.58-3.24-11.01-.02-3.53-.88-7.04-1.48-11.45.3-.49,1.1-1.69,2.38-3.66,3.2,0,7.17-1.2,10.46.33,3.24,1.54,5.99,3.18,9.88.77-9.41-8.09-19.01-13.37-30.06-14.29-.19-1-.37-2.15-.73-4.1-5.58-2.38-12.46,2.18-17.2-3.15-1.55-3.28-2.68-5.61-3.44-7.25-2.47,3.36-4.81,6.51-7.64,10.35,7.8,9.86,13.92,21.16,13.76,36.78l6.18,8.45c1.16.15,2.64.33,4.7.56,3.61,5.99,7.47,12.4,11.14,18.49v8.79c-1.12.41-1.97.72-3.14,1.13v14.29c-2.62.31-4.96.61-7.36.92-1.89,3.77-3.74,7.48-5.43,10.83-.82,5.69-1.65,11.17-2.26,15.42-5.97,3.64-10.99,6.68-16.06,9.78-1.05,2.77-1.93,6.25-3.52,8.94-.65,1.13-2.79.67-4.7,1-1.38-8.32,2.99-14.01,4.59-20.44,1.52-6.15,5.61-11.12,8.8-16.98-6.21-.36-20.17,8.79-32.4,28.43v7.2c-6.61,11.86-16.6,14.88-26.93,16.93-3.2.64-6.33-.79-9.73,2.07-2.11,1.77-6.46,2.23-9.39-1.95-1.25-1.74-3.61-1.97-5.97-3.15v22.05c-1.59,1.02-2.88,1.84-4.59,2.95.75,1.84,1.44,3.51,2.32,5.61-1.78.38-3.5.74-5.09,1.08-2.55,5.87,3.33,3.33,3.18,8.25-1.87,1.95-4.34,4.51-6.85,7.07-1.33,11.96-5.41,22.49-9.17,33.22-1.29,3.71-4.25,7.25-1.55,12.99,7.45-17.01,14.71-33.6,22.35-51.05,1.87-.85,4.62-2.1,8.05-3.66v20.06c3.01-4.12,4.94-6.45,6.59-9.12,1.38-2.25,1.83-5.07,4.47-6.43,2.4-1.26,4.04-5.12,6.4-8.35-3.16-1.51-6.1-2.89-8.96-4.25,4.08-6.12,10.16-9.3,16.1-8.27-.75,4.23-1.5,8.53-2.21,12.52,3.13,3.79,6.23,5.51,9.69,7.09,4.02,1.87,7.94,4.66,11.47,8.58,5.58,6.12,10.87,5.23,15.81-1.46.67-.87.67-2.66,1.22-5.15-3.42,2.38-5.88,4.1-8.61,6.02-8.29-5.81-16.51-11.58-24.83-17.42.88-3.18,1.97-7.07,2.96-10.63,10.24-1.36,19.82-2.61,28.65-3.77,6.08,6.2,1.98,14.29,3.99,20.82,1.89,6.2,2.56,13.11,3.93,20.54,4.19,4.41,9.54,6.92,17.57,8.25-10.82-8.3-14.11-20.11-17.41-34.22,5.2,1.33,8.96.03,13.34,2.56,5.28,3.05,10.37-2.69,14.32-7.2,4.21-4.79,8.95-7.56,13.81-10.94.64-3.71,4.14-6.99,1.38-12.6-1.8,3.02-3.5,5.92-5.3,8.96-1.59-1.1-2.62-1.79-3.63-2.51-3.09,4.76-6.34,9.78-9.26,14.29-13.85,3.69-16.53,4.71-24.11-1.59.99-2.79,2-5.63,3.01-8.45h3.41c3.28-7.45,6.42-14.65,10.54-24.03v-12.93c5.09-5.97,9.21-12.99,7.62-22.67,2.41-3.51,4.55-6.61,6.63-9.63h6.44c-.67-9.14,1.87-17.21,4.85-26.05,5.05,8.09,9.94,15.91,14.73,23.59,9.69-.72,16.43,8.25,25.3,13.96-3.71-12.17-12.02-16.34-16.88-25.1-5.03-8.99-12.3-15.65-19.37-24.28h7.71c12.2,16.65,13.59,17.6,25.45,17.31,5.13-3.46,9.81-6.61,14.07-9.48.36-4.56.6-7.74.92-11.91,2.04,5.33,3.65,9.58,5.15,13.52,3.33-.59,6.14-1.74,8.83-1.38,2.81.38,5.56,3.36,8.27,3.15,3.74-.26,2.43,7.91,6.63,5.89,2.34-6.28-2.51-9.99-3.22-15.42,2.17-3.66,2.02-10.81,8.57-9.66,1.55,2.13,3.67,4.99,6.27,8.58,2.45-3.15,4.64-5.94,6.85-8.79,3.91-.23,4.21,4.74,5.61,8.58,1.5-1.23,2.47-2.02,3.97-3.25,3.07,13.22,9.98,24.67,10.24,39.96l2.38,3.25v.03c.34-.41.67-.79,1.03-1.15.34-.36.69-.67,1.03-.97,6.38-5.35,13.89-1.66,21.52-3.36-2.11-3.59-4.14-5.92-6.92-8.2-2.56-2.07-5.37-5.1-6.44-10.19-.82-4-3.33-7.35-5.65-12.17,8.14,2.92,14,9.22,20.31,15.65h7c2.21-2.48,4.12-5.17,1.95-10.78Zm-208.88,95.33c-4.49,0-8.25-.33-11.96.1-3.35.38-6.64,1.64-11.7,2.97,3.89-3.71,6.21-5.92,8.59-8.2,5.11-.05,10.52,1.13,15.07-6.17v11.3Zm23.06-26.18c-1.42,8.38-6.19,10.99-8.81,16.11-.99-2.61-1.78-4.69-2.56-6.74,1.46-1.28,3.13-2.82,4.83-4.23,1.83-1.51,3.71-2.92,6.55-5.15Zm145.6-207.03c1.98-5.4,4.25-11.5,7.13-19.26v29.07c-2.34-3.2-4.59-6.3-7.13-9.81Z"/>
      <path class="cls-1" d="m805.18,623.76c-6.46-.54-8.35,1.13-9.99,7.89-.37,1.51-1.07,2.89-1.24,4.41-1.03,8.58-6.34,12.06-10.95,17.19h-11.55c-1.53-2.61-3.56-6.02-5.82-9.91h-6.53c-3.31,3.28-6.48,6.4-10.22,10.09-.84-2.07-1.87-4.61-2.9-7.15-.34.44-.66.87-.99,1.31-.73-4.28-.84-9.04-2.36-12.7-2.04-4.89-2.79-8.81.06-13.47.62-1,.62-3.84,0-4.94-3.63-6.51-3.54-14.32-3.99-23.28-4.42,4.35-7.95,7.84-12.11,11.91-.62-6.56-3.18-11.91-2.68-18.65.24-3.36-1.16-6.94-1.7-10.45-1.85-11.65-3.59-23.33-7.67-34.04-.22-.59-.99-.77-1.82-1.36-2.88,1.18-2.34,5.33-1.38,6.81,3.89,5.84,5.22,12.55,5.33,20.16.04,1.23,1.4,2.43,1.65,2.79-1.82,9.58-3.41,18.01-5.18,27.41.49,1.82,1.25,4.82,2.19,8.4-3.09,1.66-5.73,3.1-8.85,4.79-.62-2.02-1.03-3.38-1.74-5.71-12.86-4.17-18.75-18.83-23.92-34.37,1.98-9.09,3.93-17.83,5.82-26.56,1.89-8.76,3.84-17.49,5.6-26.28,1.7-8.55,6.76-15.93,5.15-27.84-4.19,9.58-6.98,17.57-9.26,26.3-2.13,8.07-4.36,16.39-7.3,23.97-3.14,8.14-6.64,15.85-7.56,25.18q-7.97-3.97-18.43-18.42c0-3.97.24-8.22-.06-12.42-.69-10.25,2.51-18.9,5.73-27.51,1.35-3.61,3.54-5.81,6.48-7.86,9.53-6.66,19.63-11.58,29.31-19.08-2.83-1.36-5.18-1.43-7.86.26-3.97,2.51-8.61,2.77-12.52,4.94-4.36,2.46-8.52.36-12.13,1.56-9.94,13.88-21.19,24.59-33.76,34.32,9.94,9.17,11.64,24.08,15.38,37.37,2.4,8.48,3.99,17.39,6.18,27.07,3.84,5.66,9.02,11.45,12.39,18.8,3.13,6.86,4.34,15.37,6.4,23.13,4.94.77,9.25-5.2,14.58-1.26-1.37,7.84-6.46,9.53-11.19,12.37-.11,1.79-.22,3.82-.39,6.38h-5.86c-8.05,18.62-20.49,32.02-26.73,51.79,5.17-7.07,10.67-13.73,15.38-21.31,4.47-7.15,9.94-12.76,15.18-20.67.11,7.27-3.05,11.63-4.6,16.78-1.63,5.38-2.96,10.96-4.42,16.39.77.49,1.29.79,1.78,1.08,6.94-8.91,13.85-17.83,20.74-26.66-2.1-1.87-4.02-3.59-6.25-5.56,3.86-7.4,5.97-15.91,13.06-18.36.75.59,1.98,1.54,2.62,2.02,3.41-6.53,6.49-12.45,9.11-17.49,2.73,1.08,4.66,1.84,6.34,2.51,1.52-3.23,2.77-5.87,4.29-9.09,1.63,1.41,2.83,2.46,4.34,3.77,4.55-3.64,9.25-7.43,15.5-12.42-1.7,8.25-2.62,14.32-4.25,20-1.55,5.51-3.84,10.6-5.9,16.14,1.53,1.05,2.79,1.9,4.55,3.1-2.15,5.63-4.3,11.19-6.77,17.6-4.14-2.31-7.82-4.35-12.37-6.89,0,3.74.07,6.58-.02,9.43-.07,2.05.19,4.74-.64,5.97-3.99,5.92-2.9,13.14-3.07,18.77-1.83,4.87-3.28,8.68-5.45,14.45v-26.25c-2.04,1.95-3.26,2.59-3.89,3.79-3.97,7.53-7.82,15.21-11.87,23.15h-6.08c-1.16,4.56-2.19,8.68-3.18,12.63-1.8.15-3.28.28-4.88.41.79,2.59,1.4,4.64,2.21,7.3,1.29,0,2.83.41,4.21-.1,1.33-.51,2.49-1.92,3.2-2.51,5.05-9.76,9.83-19.03,14.62-28.28.43.2.86.44,1.29.67-.47,4.33-.75,8.76-1.48,13.01-.73,4.23-1.74,8.38-2.94,12.4-1.22,4.15-2.79,8.09-4.83,13.88,8.4-5.63,15.81-9.22,24.27-9.12-.49-7.2-1.2-14.34-1.42-21.54-.24-7.66-.06-15.37-.06-23.05,4.27-1.59,4.45-7.5,6.48-11.45,3.09,1.02,6.23,2.05,8.98,2.97,2.17-5.12,4.04-9.5,5.82-13.65,5.13,1.79,6.21,7.4,8.78,12.76v11.55c2.98-3.92,4.77-7.02,6.51-10.76,1.63-3.46,5.18-5.17,7.17-7.02,3.39-1.74,6.08-3.1,9.19-4.69-.86-3.84-1.63-7.22-2.4-10.6.28-.31.56-.59.86-.87,1.24,2.02,2.49,4.05,4.23,6.89,1.22.69,3.28,2.33,5.5,3,9.11,2.77,20.64-4.84,24.76-16.37,1.76-4.94,3.07-10.17,4.88-16.26,1.01-.9,2.86-2.54,5.32-4.74Zm-138.02-53.63c-1.22,3.28-2.6,7.02-4.38,11.86-2.1-4.99-4.3-9.63-5.95-14.63-.54-1.61.41-4.12.8-7.25,3.8,4,6.79,7.15,9.53,10.01Z"/>
      <path class="cls-1" d="m738.04,211.67c-1.95-3.33-3.57-6.12-5.24-8.94-3.24,0-6.85-1.36-9.3.36-2.68,1.9-5.11,2.02-7.79,2.2-5.82-10.12-6.21-11.06-7.32-17.65h-2.71c.67,5.66,1.31,11.09,1.93,16.34-1.95,1.15-3.28,1.92-4.92,2.92-2.55-.79-5.52-1.72-8.48-2.64-.04-.97-.07-1.79-.13-3.28,1.87-.51,3.78-1.05,5.71-1.56-2.15-6.1-8.61-4.2-9.84-11.68h-4.81c-12.18-9.91-20.55-24-28.45-38.42,0-.72-.11-1.43.02-1.54,1.24-.97,2.51-1.82,4.19-3.02-.77-1.77-1.46-3.41-2.28-5.3,6.38-3.12,10.48,3.59,16.41,6.2.32-1.31.9-3.71,1.48-6.15.49.72.99,1.41,1.5,2.13,5.82-2.82,10.41,2.23,15.12,5.05,2.88,1.72,3.87,6.76,4.79,11.17,1.03,4.89,2.53,9.63,5.37,13.93-.56-5.35-1.35-10.65-1.63-16.01-.28-5.46-.06-10.94-.06-16.21-5.6-2.36-11.19-2.2-16.19-3.97-5.95-2.13-11.68-1.64-17.5-1.95-8.57-.46-15.44-6.81-22.55-12.06-.73-.54-1.31-1.43-1.85-2.56-.97-1.95-1.83-4.58-3.09-7.17-.39,3.41-.65,5.69-.95,8.43-.04.18-.06.38-.07.59-8.38-12.32-16.49-24.28-24.59-36.24.41,8.02,4.21,14.55,2.64,20.87-8.4,10.48-17.46,17.06-26.65,23.69l4.02,5.51c-5.2,11.88-14,17.65-24.29,24.49,3.33,1.66,5.02,2.51,6.89,3.43,0,.03.22.79.04,1.2-1.74,4.05-3.54,8.02-4.32,13.09,8.05-8.53,16.1-17.08,23.71-25.15,12.22.03,23.56-5.51,36.66-1.56-3.05.97-4.79,1.54-6.49,2.07-.11,1-.19,1.79-.36,3.59,5.32,1.72,10.8.15,15.05.79,6.64,3.43,10.2,9.94,14.15,15.65,3.71,5.35,6.89,11.4,10.29,17.14-2.64,2.95-5.24,5.81-7.82,8.71-3.14,3.1-6.72.46-10.18-3-11.57,17.67-26.16,25.08-43.49,22.82-.15,1.84-.24,3-.37,4.71h7c4.49,8.55,8.98,17.14,13.66,26.07-1.1,2.87-2.3,6.02-3.76,9.78-1.38.23-2.83.46-4.88.79-4.29,4.92-6.16,14.34-12.63,17.72h-6.12c-1.82,5.33-3.24,10.6-8.91,10.14-3.05-3.66-6.46-7.76-10.33-12.4-1.61.69-4.08,1.72-6.89,2.89-1.91-6.3-3.69-12.12-5.52-18.19-5.28,3.92-.69,13.19-6.31,17.06.73.59,1.46,1.15,2.17,1.74-7.67,8.48-15.35,16.98-23.86,26.38,2.34.26,3.78.44,5.6.64,5.18-9.86,13.36-13.91,21.45-19.06v-12.14c2.41,4.05,4.27,7.17,5.9,9.89,2.19-.87,4.06-1.61,5.67-2.28,4.04,3.94,6.25,10.04,11.47,12.06-3.99,9.32-10.76,14.93-16.38,25.02,2.58-1.33,3.82-1.79,4.94-2.61,5.13-3.66,9.34-9.27,15.31-11.42,2.83-1,5.78-3.69,7.58-9.04,3.41-10.22,9.58-17.9,16.68-23.92,1.53-1.31,2.77-3.28,4.59-5.48,1.53.61,3.46,1.36,5.67,2.23l1.93-2.64c-.66-2.41-1.27-4.61-1.59-5.76,2.38-3.25,4.32-5.89,6.27-8.53,1.82-10.76-3.52-18.34-4.73-26.69.86-.85,1.46-1.79,1.8-1.66,6.74,2.69,12.39-2.87,17.99-5.69,6.51-3.28,12.73-.87,19-2.05,3.33,5.48,9.13-.36,12.48,5.1,5.75-.26,9.88,4.43,14.32,8.4,1.4,1.26,3.24,1.64,4.7,2.36,8.16-13.42,13.74-15.19,39.54-19.75Z"/>
      <path class="cls-1" d="m714.69,367.81c-.65-.44-1.16-1-1.68-1.1-.94-.18-1.87-.05-2.81-.05-4.06,0-8.14.41-12.16-.13-3.48-.46-6.89-1.95-10.16-2.95-3.05,7.91-6.92,14.88-8.44,22.72-1.63,8.4-6.92,13.96-7.8,22.87-.97.46-2.34.56-3.07,1.56-5.18,6.99-11.57,9.3-18.6,9.84-3.13.23-6.21,1.72-10.07,2.87v-16.55c-2.56,4.51-4.47,7.89-5.9,10.4-5.63,2.23-9.17-2.36-13.55-4.89-1.93,3.1-3.84,6.2-6.51,10.5-.3,2.87-.79,7.5-1.29,12.5h2.86c2.96-3.61,5.48-6.69,8.14-9.94,1.87,2.43,3.56,4.64,5.45,7.09-1.8,3.59-3.44,6.86-5.5,10.94-2.68-.79-5.99-1.79-9.73-2.92v14.16l-3.18,4.35c-.39-1.64-.75-3.1-1.33-5.46-3.39,3.69-8.2,4.56-8.95,11.83-4.06,1.9-4.62,8.84-8.61,11.12-.39-1.49-.79-2.97-1.14-4.25-6.38,6.15-12.82,12.35-19.63,18.9-1.38,18.34-11.79,30.84-19.52,45.13.6.87.79,1.26,1.05,1.46.15.13.51.08.64-.08,9.86-13.47,19.73-26.97,29.81-40.78,2.02,5.35-2.04,6.43-2.88,9.48l2.56,3.51c5.37-11.81,11.29-23.1,18.66-32.81.43-.56,1.63-.08,2.73-.08-2.1,4.25-3.52,8.89-6.01,11.78-4.25,4.89-4.21,12.01-4.66,17.8-.79,10.17-3.22,19.47-4.66,29.17-7.64-1.82-10.78-11.12-16.96-16.47-4.15,13.93-9.56,26.43-12.39,40.49-3.41,16.9-9.69,32.81-9.49,50.74,1.76,4.53,6.49,6.12,5.58,13.73-2.53,3.28-5.18,8.55-8.83,10.91-3.95,2.54-5.45,7.02-5.76,11.14-.94,11.88-5.54,20.95-10.57,30.76-.73-3.28-1.31-5.94-1.91-8.63-.54,0-1.09-.03-1.65-.03-1.63,6.48-3.28,12.96-5.28,20.9,3.52-1.2,6.4-2.15,9.4-3.18,4.36-7.2,7.49-15.91,13.72-23.85-1.01,5.92-1.65,9.6-2.36,13.73,4.6-3.23,8.59-6.02,14.32-9.99,2.88-11.6,9.75-23.49,13.16-38.21-1.29,1.74-2.58,3.48-3.87,5.23-.39-.36-.79-.74-1.18-1.13,2.71-7.66,5.41-15.32,8.18-23.21-1.05-.64-1.82-1.13-3.05-1.9-1.03,6.48-4.81,8.55-9.21,11.24-1.57-3.02-3.22-6.17-4.19-8.04,2.36-12.88,4.06-25,6.87-36.63,2.71-11.19,6.55-21.87,9.86-32.66,7.73.44,9.64,10.17,14.02,16.29,1.37-1.41,2.28-2.38,4.04-4.2,1.7,2.36,3.57,4.92,5.63,7.74,0-5.66-.36-11.58.07-17.39.66-8.76,1.33-17.62,5.88-24.84,1.03-1.64.94-4.56,1.57-6.76.65-2.31,1.57-4.46,3.03-6.4.69,5.23-3.35,9.94-.45,14.83,2.04-4.69,4.14-9.48,6.77-15.5.04-15.11-1.57-32.3,6.04-47.77h10.56c.04.36.07.69.11,1.05-1.8.72-3.67,1.28-5.39,2.23-.8.46-1.37,1.72-3.33,4.3,5.63-1.46,9.79-2.54,14.67-3.79-.52-3.02-1.01-6.02-1.52-8.89.41-3.77.75-7.74,1.29-11.63.56-3.89,1.35-7.71,1.91-10.94,6.48-1.26,12.37-3.18,18.3-3.36,6.14-.18,10.97-5.74,17.57-5.69,5.54-16.16,11.08-32.27,16.64-48.46h23.84c.11-1.56.21-2.71.3-3.82Zm-159,285.82c-.69,7.5-.67,7.53-5.84,11.63-.37.31-.86.33-1.52.56v-6.56c1.22-1.05,2.43-2.15,3.72-3.15,1.05-.82,2.15-1.49,3.63-2.48Z"/>
      <path class="cls-1" d="m942.94,499.64s-.24-1.13-.67-3.38c-3.84,3.12-7.28,5.94-11.44,9.32-.6-1.64-1.31-3.56-2.77-7.48v-20.95c-2.02-.18-4.08-.33-6.66-.56-1.8-2.41-3.93-5.3-6.76-9.12-2.3,6.28-4.17,11.4-6.36,17.34-5.22-4.71-12.6-1.77-17.76-9.48,2.13-8.79-3.16-15.5-4.42-23.74-1.27-8.43-3.5-16.6-4.6-25.46,4.17,4.48,8.25,8.66,10.61,14.98,5.03-1.9.51-4.87.84-7.2.56-.23,1.27-.87,1.65-.61,4.79,3.36,9.62,6.61,11.4,14.5.34,1.49,1.25,2.74,1.82,3.92,1.37-1.54,2-2.23,2.4-2.69,5.48,4.64,7.8,13.27,14.93,19.77-1.7-7.3-2.73-11.6-3.95-16.8.65-1.77,1.67-4.46,2.83-7.5-.54-.79-1.35-1.95-2.11-3.1-8.07,4.25-13.64.44-18.68-12.55-3.22-1.28-6.29-2.48-10.22-4.02-4.1-4.99-8.89-10.81-8.07-19.82-4.38-8.25-8.48-15.75-12.35-23.49-.75-1.54-.58-3.92-.82-5.92,1.44-.95,2.71-1.79,3.97-2.64-6.59-20.08-8.31-35.37-5.69-49.95-5.65-10.17-9.28-22.54-11.23-38.42-.52-4.3-.52-11.55.15-13.73-4.14-6.58-11.32-5.63-15.89-11.42-4.3-5.46-8.95-10.42-14.47-14.5,1.2,2.77,2.4,5.53,4.29,9.84-4.19-2.46-7.45-4.35-11.83-6.94,8.07,16.52,17.42,28.94,26.93,41.01,6.51,8.25,10.46,17.14,8.96,29.58-.13,1.18.07,2.46.11,4.02.86.31,1.72.56,3.33,1.1.64,3.53,1.76,7.68,2.06,11.94.47,6.53-.54,13.22,1.87,19.49.62,1.59.09,4,.09,5.81-1.38.51-2.23.79-3.18,1.15.02.56-.11,1.43.11,1.72,3.91,4.74,3.33,11.96,4.62,17.83,2.56,11.78,5.84,23.26,8.2,35.14,1.72,8.79,2.94,17.83,5.2,26.43,3.01,11.32,1.57,23.13,1.98,35.99,1.61,1.79,3.78,4.15,4.77,5.25,1.39,6.53,2.36,11.09,3.31,15.52h2.84c-.24-4.97,1.91-10.04-.84-15.73,3.57,2.02,7.17,4.05,10.52,5.92-.67,7.5-4.06,11.14-6.91,15.34-9.9,14.57-21.34,26.41-33.93,36.22-.92.72-1.55,2.07-2.88,3.89,8.29,2.13,11.79-8.63,18.96-9.91-.22,1.95-.07,3.84-.66,5.17-.79,1.77-1.95,3.53-3.28,4.51-4.42,3.2-7.06,9.86-12.52,11.83.52.95.99,1.79,1.44,2.61-1.44,1.26-4.15,5.3-5.61,8.71,6.49-3.07,10.35-9.55,14.75-15.14,4.59-5.84,9.43-11.3,14.13-16.9-1.05-2.54-1.76-4.25-2.81-6.81,4.6-5.3,9.4-10.27,13.7-15.93,4.02-5.28,7.5-11.32,11.43-17.34,2.96,10.12,5.61,19.18,8.4,28.74-16.02,23.03-26.8,31.27-37.21,34.71-3.59,17.47-15.55,24.31-26.87,34.94,2.94-.33,4.85.13,6.23-.82,8.72-6.07,17.42-12.11,24.11-22.44,5.32-8.22,11.14-15.8,19.03-19.88.19,1.26.37,2.43.64,4.1,1.44-.79,2.86-1.59,4.27-2.36.32.97.8,1.9.67,2.13-6.59,11.12-13.23,22.18-21.02,35.14,2.62-1.49,4.08-1.77,4.92-2.89,7.15-9.55,14.47-18.88,21.09-29.05,4.27-6.53,8.07-13.68,10.85-21.92,3.05-8.96,7.04-17.44,11.19-25.61,2.17-4.23,5.58-7.27,8.83-11.4Zm-17.84-13.4c-1.97.54-2.81.79-4.06,1.15,2.41,8.94,2.04,16.98-1.1,24.82-1.5-.95-2.99-1.92-4.34-2.79-1.52-6.45-3.03-12.86-4.53-19.29,1.63-4.48,3.22-8.81,4.88-13.42,3.03,3.18,5.73,5.97,9.15,9.53Z"/>
      <path class="cls-1" d="m971.14,534.63c-.02.1-.02.2-.02.33-.04,1.38-.04,2.87.02,4.53.04-.59.06-1.23.07-1.95v-.26c0-.26,0-.51-.02-.77.02-.61-.02-1.23-.06-1.9Z"/>
      <path class="cls-1" d="m971.14,542.77c.04-.05.06-.13.09-.2-.02-.46-.04-.92-.06-1.36-.02-.56-.04-1.13-.04-1.66-.15,2.92-.49,4.38,0,3.23Z"/>
      <path class="cls-1" d="m1000,542.28c-1.57-5.28-2.02-8.94-3.52-11.27-2.43-3.77-3.54-8.27-5.24-12.45-3.54-8.68-6.76-17.88-11.36-25.43-4.06-6.63-4.27-14.73-6.74-21.87-1.59-4.61-1.57-10.22-2.13-14.29-4.81-10.14-9.26-19.54-14.6-30.79,2.81.23,4.79-.18,5.02.49,2.94,8.84,9.47,13.7,12.74,22.18,1.38,3.59,3.48,6.63,5.75,9.45-9.98-36.99-26.11-67.75-48.7-92.21-1.97,2.79.32,3.07.47,4.3.11,1.13-.13,2.31-.41,6.76-1.35-4.79-2.02-7.17-2.68-9.53-.54.54-1.1,1.08-1.65,1.64-.26,1-.95,2.38-.71,2.95,9.69,21.39,19.48,42.7,29.25,64.01,1.24,9.81,5.69,18.06,6.61,28.35.65,7.33,1.44,14.63,1.52,22.03.07,6.68-1.14,12.68-4.3,18.06-1.78,3.02-2.73,6.94-4.04,10.45-1.18,3.12-4.21,2.71-5.54,6.86-1.33,4.2-5.56,6.68-9.94,11.45,4.42-.79,7.43,1.41,9.86-2.87,1.03,2.87,2.04,5.69,3.01,8.4-.86,1.31-1.48,2.23-1.82,2.71,1.46,9.27,2.9,18.24,4.51,28.4,2.56-6.66,4.83-12.55,7-18.16-2.69-3.1-4.79-5.51-6.05-6.97v-13.83c.9-.23,1.74-.46,2.94-.79.36,2.51.67,4.87,1.01,7.35.45-.15,1.1-.13,1.29-.49,2.15-4.76,4.23-9.58,6.57-14.93.66,1.36,1.16,2.71,1.57,4.05.22.69.39,1.36.54,2.02.52,2.2.79,4.3.9,6.22.06-2.54.22-4.64.47-6.38v-.03c-.15-.03-.3-.08-.45-.1-.75-5.12,2.15-6.53,4.36-10.04.28-.44.56-.92.8-1.43v25.97c-.09-.2-.19-.44-.26-.64-.02-.05-.04-.08-.04-.13-.07-.15-.13-.33-.19-.51-.02-.03-.02-.05-.02-.05-.09-.28-.17-.59-.24-.87-.17-.74-.3-1.51-.37-2.28-.45-3.74.13-5.23-3.97,4.51,3.84,19.24,7.6,27.46,11.88,35.27.67,1.18,1.33,2.33,2,3.53,1.07-9.63,1.89-17.26,2.96-27.12-2.13,3.43-3.11,5.02-3.59,5.81-2.38-3.2-4.62-6.22-7.45-10.07,1.18-7.4,2.69-16.83,4.36-27.23.95.61,2.38,1,3.28,2.15,3.61,4.69,7.04,9.66,10.65,14.37.73.95,1.93,1.28,4.68,3Z"/>
      <path class="cls-1" d="m978.4,218.2c-3.5-15.32-6.23-31.09-5.32-48.61-7.07-4.15-15.05-5.05-22.23-9.76,2.34,4.35,4.66,8.71,7.04,13.17v10.25c-8.07,8.68-16.94,2.18-25.88,3.23,3.99,2.02,8.07,3.84,11.98,6.12,4.23,2.46,8.33,5.35,13.19,8.5-1.78,3.12-2.96,5.25-4.53,8.02-7.75-5.02-14.49-11.53-23.24-13.5-1.4.49-4.19,2.72-5.78,1.64-2.32-1.56-4.08-3.12-7.22-.9,3.86,7.48,10.29,10.27,14.67,16.42,4.45,6.3,10.31,10.71,16.3,16.73.71-2.33,1.2-3.94,1.68-5.56,3.89-3.07,5.8,1.77,8.7,5.2v-12.09c2.77-2.89,2.13-9.71,7.15-9.14.54,5.84,1.09,11.78,1.74,19.08-4.49,5.87,3.11,13.29.21,20.98-3.14,2.51-6.57,5.25-10.82,1.05-1.18-1.15-3.46-.18-5.97-.18,5.65,6.79,10.57,12.73,15.07,18.13,1.82,11.24-2.04,18.47-7.45,24.43-3.42,3.74-7.37,6.56-10.93,10.12-1.01,1.02-1.46,3.12-2.41,5.23,4.06-.79,7.43-1.43,11.23-2.18,2.06-3.53,4.3-7.94,6.94-11.83,2.51-3.66,3.84-9.02,8.35-10.42.82-13.75,3.72-25.38,7.94-36.83-2.69-8.81-3.28-17.93-.39-27.28Z"/>
      <path class="cls-1" d="m823.03,484.01v-14.5c-1.05-.13-1.89-.26-3.13-.44v6.97c-6.59,15.73-16.41,22.16-27.72,27.07-2.25-10.68-2.98-21.67-9.53-30.81,3.61-.44,5.95-.69,8.52-.97v-8.99l-3.2-4.38c1.48-2.84,2.94-5.69,4.47-8.66.04.03.77.28.82.72.82,6.35,1.57,12.73,2.88,19.03,1.33-12.5.65-25,.95-37.09-1.18-1.54-2.06-2.66-2.58-3.36-2.79,8.17-5.61,16.42-8.59,25.13-2.51,0-4.62.23-6.7-.08-1.52-.2-2.98-1.1-4.51-1.72-.06,1.15-.09,2-.13,2.82,3.8,4.69,10.5,2.97,13.01,11.71-2.32,0-5,1.15-6.4-.18-7.75-7.33-18.58-5.46-24.33-14.83-1.35-8.53-2.28-14.42-3.57-22.62-2.02,8.68-5.84,14.39-4.44,22.82,1.09-1.33,1.74-2.15,3.01-3.71.13,2.71.22,4.71.36,7.43,8.96,7.17,18.21,14.57,28.22,22.59-.41,5.48-.86,11.45-1.42,18.98.39.36,1.93,1.77,3.82,3.48-3.52,3.71-5.26,8.43-9.64,10.4-.32-4.1-.58-7.58-1.01-12.99-2.66,8.89-4.73,15.8-6.89,22.98.82,2.18,1.74,4.64,2.9,7.74,3.18-2.74,6.34-5.48,9.45-8.14,4.49,2.02,8.87,4,13.49,6.1-1.67,1.64-4.3,2.92-4.88,5.17-.64,2.56.54,5.99,1.07,10.01-2.62,5.38-5.71,11.73-8.91,18.26,4.3,3.46-.13,6.84-.47,11.96,3.44-2.92,4.98-5.76,6.51-9.71,4.15-10.76,10.78-18.62,18.6-26.18-3.35-.15-6.27-1.79-8.91,2.38-.77-1.33-1.52-2.61-2.45-4.23,2.71-2.97,6.31-5.53,8.42-9.55,2.11-4,2.71-9.45,3.65-13.04,4.96-3.41,9.96,1.59,13.25-4.56-2.15-6.45-1.8-12.83,1.07-18.9,1.59-1.36,3.35-2.79,4.92-4.12Z"/>
      <path class="cls-1" d="m830.1,380.18c-2.23-3.41-.09-7.48-1.87-10.53-4.19,1.02-2.26,6.71-3.95,9.71-1.8,3.2-3.5,6.53-5.37,10.07h-11.55c-5.5-4.58-6.34-14.34-10.24-21.82-.6-5.07,1.16-11.19-2.06-16.44.69-1.61,1.4-3.33,1.8-4.25-2.56-3.53-4.9-6.79-7.9-10.91h-13.49l-3.31,4.53c4.1.31,7.65.56,12.22.87-.99,2.54-1.4,5.33-2.55,6.15-4.64,3.3-9.1,7.76-14.92,6.38-2.1-.49-4.32-.08-6.36-.08-3.89-5.28-7.41-11.09-14.6-9.96,3.72,5.81,6.85,10.71,9.81,15.29,9.9-1.31,19.16,2.41,28.07-3.23,4.38,3.61,7.13,8.81,9.49,15.39-12.67,1.08-25.17,2.2-36.38-11.83-.62,3.94-.95,6.1-1.44,9.14-1.93,1.74-4.38,4-6.68,6.1-1.8,9.66,1.25,17.78,3.56,26.87-2.49-.67-4.75-1.26-7.34-1.95.17,1.36.09,2.23.34,2.48,1.91,1.9,3.76,4.87,5.84,5.28,7.99,1.51,12.58,8.12,16.28,17.16,1.4,3.41,4.08,5.81,6.18,8.68-2.15-11.27-6.27-20.13-10.52-24.87-2.86-8.58-4.79-14.32-7.09-21.26,2.21-3.05,4.98-6.86,6.4-8.84,11.1-4.84,19.35,2.33,28.09,4.35,3.89.9,7.15,6.94,10.35,10.27-.94,4.46-1.63,7.79-2.49,11.86h11.58c.92,1.82,1.97,3.89,3.07,6.07,1.25-.92,2.23-1.26,2.73-2.07,3.35-5.56,6.61-11.22,11.27-19.18v15.24c2.25-4.46,3.44-6.86,5.67-11.27.39-2.95.32-8.91-2.64-13.4Z"/>
      <path class="cls-1" d="m977.88,596.92c-1.7-9.12-3.69-18.16-3.67-27.94-5.41,9.96-3.78,23.36-9.45,32.07-1.72-2.41-3.82-5.3-6.72-9.35-.67-6.53-.09-14.34,4.88-20.77.94-1.2.51-4.38.84-8.14q-8.85,13.81-10.01,21.03c-2.6,3.59-5.63,5.76-9.47,5.76-1.1,0-2.55.49-3.24,1.51-3.5,5.15-8.01,6.56-13.51,6.12,1.52,5.56,2.69,9.94,3.91,14.37-1.46,1.13-3.24,2.54-4.81,3.77-1.8,14.39,1.78,28.92-2.58,42.93h-24.97c-1.7,9.09-10.12,11.68-19.43,13.88-.07,1.08-.15,2.23-.28,4.53,2.47-.51,4.6-.97,6.16-1.28.99.79,2.32,1.84,3.57,2.87q-3.67,6.22-16.69,10.6h17.7c1.44-5.12,3.09-10.96,4.75-16.88,5.2-1.31,10.42-2.59,15.83-3.94.3-1.05.71-2.51,1.18-4.1h12.3c7.8-11.14,15.01-21.95,22.66-32.14,7.26-9.66,17.26-12.55,26.18-18.24-.75-3-1.5-5.99-2.4-9.66,2.49-2.41,4.83-4.69,7.24-6.99Zm-34.27,25.38c.84.28,1.67.59,2.69.92l-12.3,16.83v-14.27c1.97-2.07,4.49-4.76,7.37-7.81-.71-3.33-1.53-7.09-2.43-11.32,2.34-2.41,3.26-7.04,7.45-6.97,1.55,8.22-2.34,15.09-2.79,22.62Z"/>
      <path class="cls-1" d="m916.47,699.68c-1.2.51-2.53.72-3.59,1.59-7.99,6.53-15.89,13.34-23.92,19.77-4.25,3.41-8.67,6.35-13.1,9.22-.97.64-2.32.1-3.37.1,1.5-12.45,2.51-24.43,7.04-35.78-4.53-.36-5.84,4.17-7.86,6.86-1.76,2.36-2.88,5.61-4.47,8.89-.67-2.28-1.12-3.74-1.57-5.25-.43.36-1.01.59-1.27,1.1-5.88,11.53-14.32,18.85-22.81,26.07-3.48,2.95-7.28,5.46-10.26,9.2-2.69,3.36-4.62,7.91-7.92,10.53-.75.59-1.5,1.15-3.05,2.36-.32-2.95-1.25-5.56-.67-7.25,2.06-6.1,4.64-11.88,6.89-17.47.94-7.94,1.83-15.6,2.81-23.74-7.43-8.96-14.75-17.8-23.13-27.92.64,3.2.62,5.28,1.37,6.45,2.25,3.51,5.71,6.15,6.96,10.17,1.35,4.33,4.42,4.82,6.06,7.84,1.55,2.89,2.98,5.92,4.21,8.4-1.61,5.4-3.13,10.53-5.17,17.42.77,5.99-3.37,12.93-3.42,20.06-.07,7.53-6.16,12.6-3.39,21.34,6.1-5.92,12.03-11.12,17.52-17.14,5.54-6.07,11.44-11.06,18.53-13.91.47.54,1.35,1.51,2.3,2.56,4.21-4.76,8.12-9.2,12.07-13.68,3.89,5.51-3.01,9.99-.02,15.44,1.83.15,3.93.31,6.4.49.26,2.25.52,4.61.86,7.56,15.08-17.85,29.85-35.45,45.98-51.28Z"/>
      <path class="cls-1" d="m984.67,374.67c-11.79-20.21-23.66-40.57-36.08-61.86-.9.33-2.81,1.05-4.83,1.79-2.51-8.5-8.2-13.98-13.74-19.72-2.49-2.59-4.6-5.84-6.96-8.89-.69,1.43-1.87,3.87-3.13,6.45-7.64-8.02-15.08-15.83-22.53-23.67,3.71,14.06,10.67,24.77,16.51,36.6,1.2-1.72,2.28-3.23,3.5-4.94,7.9,6.63,12.69,16.6,16.56,28.79-1.89,1.9-3.91,3.92-6.48,6.51,9.11,11.53,18.12,22.92,27.14,34.32.39-.41.8-.79,1.2-1.18-4.38-14.91-8.78-29.84-13.57-46.15,4.66,2.28,5,7.81,8.31,9.94,3.2,2.05,5.41,6.89,8.07,10.53l7.92,10.83c2.66,3.64,5.43,7.09,7.9,10.91,1.97,3.02,3.5,6.56,5.35,9.73,1.2,2.07,2.64,3.79,4.87,0Z"/>
      <path class="cls-1" d="m844.46,57.56c-2.38-9.07-4.29-16.21-9.66-21.59v22.21c-3.11,2.95-5.2,5.2-7.5,7.02-2.23,1.77-4.68,3.02-7,4.58-2.34,1.56-4.62,3.28-6.94,4.89-2.17,1.51-4.38,2.95-7.17,4.82,1.27-9.43,7.99-10.86,12.71-18.31-4.81,1.97-7.97,3.28-11.42,4.69-4.66-5.33-9.86-15.03-11.57-21.92-.6.05-1.22.13-2.02.2-2.79,12.88,2.94,25.05,1.1,37.98h3.26c2.56-7.81-1.12-15.16-1.37-23.46,2.92,4.87,5.15,8.61,7.34,12.24-1.14,2.82-2.38,5.94-3.52,8.76,1.59,6.89,5.91,4.89,9.47,5.3-1.37,3.56-2.4,6.28-3.72,9.73v20.13c-6.38,2.23-12.86,4.48-19.91,6.94-1.37-11.6-5.39-20.34-11.64-27.28-.17-2-.34-4.02-.54-6.4-.77-.26-1.61-.51-2.36-.77-3.61,4.41,1.57,9.71-1.27,15.14,2.28,1.28,4.6,2.56,7.65,4.28,3.16,4.35,3.56,6.15,4.04,21.72,8.38-2.46,16.97-7.27,25.17-4.61,7.95,2.59,16.56,4.64,23.67,13.19,1.24-3.1,2.26-5.74,3.37-8.53-1.8-3.71-3.56-7.4-5.37-11.04-1.63-3.2-3.31-6.35-6.05-9.04.32,2.92.66,5.84,1.07,9.48-.6.08-2.04.26-3.44.41-1.85-2.31-3.63-4.53-5.52-6.86.92-2.25,1.63-3.97,2.38-5.79-1.46-5.51-5.37-10.09-3.11-17.88,7-10.09,16.11-18.57,25.45-26.61-.84-1.95-1.53-3.59-3.01-7.07,2.86,1.33,4.32,2.02,7.43,3.46Z"/>
      <path class="cls-1" d="m640.13,373.31c-8.44-10.89-18.04-15.55-29.83-14.24-.26-3.48-.52-6.97-.86-11.45-6.59,4.84-9.98,12.81-15.18,18.39-3.82,1.13-6.7,2.74-8.03,6.28-4.55,12.19-12.65,20.57-17.89,32.02-.64,1.41-1.42,2.71-1.68,3.2h-6.29c-1.16-2.66-2.21-5.05-3.39-7.74-.9,1.08-1.65,1.66-2.11,2.56-4.1,7.89-6.1,17.16-7.73,26.23-2.17,12.12-5.86,24.05-4.59,37.01.11,1.18.36,2.31.88,5.51,3.11-20.13,5.63-38.39,11.45-57.07.54,3.1.75,4.28,1.03,5.92h10.07c1.35-5.71,4.88-9.17,8.8-11.24,6.31-1.74,12.33-3.64,18.43-5.02,6.44-1.49,13.19-1.38,19.35-4.02,6.34-2.71,12.58-1.82,19.71-2.36-.49-2.61-.95-4.99-1.57-8.27,2.75-4.56,5.95-9.89,9.43-15.7Zm-3.65,1.26c-6.06,7.48-11.38,11.6-16.88,13.24-.17,1.08-.34,2.25-.62,4.07-6.66,1.79-13.51,3.64-20.36,5.51-2.86.79-5.67,2.13-8.55,2.46-3.56.38-7.13-.26-10.46,2.51-.75.64-2.38-.69-4.72-1.49,6.79-10.68,12.73-20.03,18.38-28.92,2.04-.15,3.48-.26,3.48-.26,2.77-4.35,4.64-7.3,6.77-10.68.56,2.18.95,3.66,1.48,5.69,5.32-.18,10.5-5.38,16.24-1.36,4.87,3.41,11.73,1.1,15.23,9.22Z"/>
      <path class="cls-1" d="m741.39,170.56c-.86-3.36-.94-5.51-1.76-6.56-4.44-5.63-8.2-12.19-13.59-16.67-3.13-2.59-6.25-6.48-7.73-12.04-.67-2.54-2.88-4.28-4.29-6.53-2.34-3.71-4.57-7.53-6.85-11.32,1.5-2.41,2.79-4.53,4.1-6.66-3.2-3.69-6.08-7.02-8.95-10.32-9.58-1.08-19,.41-28.45,4.33v-10.01c1.09,1.26,1.72,2,2.92,3.38.07-1.92.6-3.97.13-4.53-3.63-4.51-6.31-9.76-7.71-16.24h-7.52c-6.34-8.22-12.76-16.08-22.4-22.16,1.72,5.3,3.86,7.07,5.71,9.22,3.71,4.3,7.26,8.86,11.02,13.09,3.29,3.74,6.48,7.45,9.15,12.24,2.86,5.15,4.27,10.68,4.49,16.67.21,5.76,1.72,10.19,4.6,14.09,2.06,2.74,4.08,5.53,6.25,8.53,1.24,1.66,2.49,3.41,3.84,5.25,0-2.1.39-3.84-.02-4.89-.02-.05-.04-.1-.06-.15-1.8-3.74-3.86-7.25-5.88-10.76-2.17-3.77-1.46-6.86,1.33-10.01,6.14-1.23,12.61-2.48,17.74-3.51,2.84,2,4.4,3.1,6.57,4.61-2.45.67-4.36,1.2-6.98,1.9,3.97,8.84,9.53,14.34,14.11,21.03,4.47,6.51,9.08,12.91,13.89,18.98,4.87,6.12,10.05,11.78,16.32,19.06Z"/>
      <path class="cls-1" d="m883.37,591.08c-5.45-.69-6.98,5.17-10.37,8.07-1.01-.64-2.21-1.43-2.99-1.97-4.06,6.2-7.88,12.01-11.85,18.06h-8.7c-.95,3.48-1.89,6.81-3.09,11.17-4.96-11.06-9.66-21.51-14.35-31.97-.45.2-.88.41-1.33.64.22,2.25.15,4.69.73,6.76,2.08,7.38,4.98,14.39,6.4,21.95,1.42,7.68.86,15.65-4.53,22.33-.77-2.23-1.53-4.51-2.62-7.71-6.89,12.52-4.94,27.02-12.6,39.34,3.14-1.66,4.55-1.95,5.48-3,1.91-2.15,3.59-4.71,5.32-7.07,0-5.23,0-10.35.02-15.47,1.53-1.74,2.36-1.82,2.86-1.18.19.2.34.56.45.95.04.13.07.28.11.41.11.41.21.87.28,1.31.19.87.39,1.72.77,2.13,4.88-6.12,9.79-12.24,15.93-19.93.6-3.41,1.63-9.22,2.64-14.91,1.5,1.87,3.14,3.92,4.4,5.51-.26,2.87-.52,5.61-.8,8.43l2,2.74c.39-.23,1.1-.36,1.22-.77,3.48-13.6,9.38-25.1,16.6-35.4,2.55-3.64,5.35-6.94,8.03-10.42Z"/>
      <path class="cls-1" d="m702.49,405.82c-1.97-.38-2.96-1.05-3.65-.67-2.64,1.51-5.24,3.23-7.79,5.07-9.11,6.56-17.29,14.75-23.88,25.59-1.03-1.08-1.93-2.02-3.24-3.38-1.48,3.84-2.45,7.5-4.12,10.42-1.67,2.97-1.42,7.68-5.61,8.73-2.55.64-4.55,5.38-6.64,8.09-.17,13.83-7.64,23.95-9.11,37.01,5.54-6.53,6.36-17.11,11.12-24.18,5.02-7.48,6.87-18.36,13.83-23.41.71,1.61,1.52,3.43,3.13,7.02,6.49-25.2,20.98-37.22,35.97-50.3Z"/>
      <path class="cls-1" d="m736.98,119.57c-1.29-17.01-6.85-29.56-13.03-41.44-2.47-1.02-4.66-1.95-7.02-2.95v-12.35c-1.78-1.36-3.42-2.61-6.66-5.07,1.24,5.25,2.15,8.07,2.49,10.99s.07,5.94.07,8.55c2.19,5.94,4.27,11.58,6.23,16.9,1.24-.08,2.55-.15,4.7-.31.24-.9.62-2.38.99-3.92,5.48,8.3,5.84,20.16,12.22,29.58Z"/>
      <path class="cls-1" d="m806.39,142.21v-10.19c-3.01-1.28-5.73-2.41-10.72-4.53,5.15,11.3,9.21,20.23,13.4,29.46q.84-6.2-2.68-14.73Z"/>
    </g>
    <g>
      <path class="cls-1" d="m29.85,542.58c0,.51.02,1.05.04,1.56.5,1.15.16-.31,0-3.23v-.05c.06-1.66.06-3.15.02-4.53-.02.13-.02.26-.04.38-.04.41-.06.79-.04,1.18-.02.26-.02.51-.02.77v.26c-.02,1.23-.02,2.43.04,3.66ZM104.65,252.64v-.03c-.35-.41-.7-.79-1.07-1.13.37.36.72.74,1.07,1.15Zm72.56,416.42v-15.47s-.02,0-.02,0c.02,5.12.02,10.25.02,15.47ZM326.84,135.69c1.4-1.84,2.69-3.59,3.97-5.25-3.76,1.15-4.09.77-3.95.36-.43,1.05-.02,2.79-.02,4.89Zm46.49-14.04c-.31-2.74-.58-5.02-.99-8.43-1.3,2.59-2.19,5.23-3.2,7.17,3.37-.56,3.97.2,4.19,1.26Z"/>
      <path class="cls-1" d="m71.65,232.25h7.25c6.53-6.43,12.6-12.73,21.03-15.65-2.4,4.82-5,8.17-5.85,12.17-1.1,5.1-4.01,8.12-6.67,10.19-2.89,2.28-4.98,4.61-7.17,8.2,7.91,1.69,15.68-2,22.29,3.36.35.31.72.61,1.07.97.37.36.72.74,1.07,1.15v-.03l2.46-3.25c.27-15.29,7.42-26.74,10.6-39.96,1.55,1.23,2.56,2.02,4.11,3.25,1.45-3.84,1.76-8.81,5.81-8.58,2.29,2.84,4.55,5.63,7.09,8.79,2.69-3.59,4.88-6.45,6.49-8.58,6.78-1.15,6.63,5.99,8.88,9.66-.74,5.43-5.76,9.14-3.33,15.42,4.34,2.02,2.98-6.15,6.86-5.89,2.81.2,5.66-2.77,8.57-3.15,2.79-.36,5.7.79,9.15,1.38,1.55-3.94,3.22-8.2,5.33-13.52.33,4.17.58,7.35.95,11.91,4.42,2.87,9.26,6.02,14.57,9.48,12.29.28,13.72-.67,26.36-17.31h7.98c-7.33,8.63-14.85,15.29-20.06,24.28-5.04,8.76-13.64,12.93-17.48,25.1,9.19-5.71,16.16-14.68,26.2-13.96,4.96-7.68,10.02-15.5,15.25-23.59,3.08,8.84,5.72,16.9,5.02,26.05h6.67c2.15,3.02,4.36,6.12,6.86,9.63-1.65,9.68,2.62,16.7,7.89,22.67v12.93c4.26,9.37,7.52,16.57,10.91,24.03h3.53c1.05,2.82,2.09,5.66,3.12,8.45-7.85,6.3-10.62,5.28-24.96,1.59-3.02-4.51-6.4-9.53-9.59-14.29-1.05.72-2.11,1.41-3.76,2.51-1.86-3.05-3.62-5.94-5.48-8.96-2.85,5.61.78,8.89,1.43,12.6,5.04,3.38,9.94,6.15,14.3,10.94,4.09,4.51,9.36,10.25,14.83,7.2,4.53-2.54,8.43-1.23,13.82-2.56-3.41,14.11-6.82,25.92-18.02,34.22,8.31-1.33,13.86-3.84,18.2-8.25,1.41-7.43,2.11-14.34,4.07-20.54,2.07-6.53-2.17-14.63,4.13-20.82,9.15,1.15,19.07,2.41,29.67,3.77,1.03,3.56,2.15,7.45,3.06,10.63-8.62,5.84-17.13,11.6-25.72,17.42-2.83-1.92-5.37-3.64-8.91-6.02.56,2.48.56,4.28,1.26,5.15,5.12,6.68,10.6,7.58,16.38,1.46,3.66-3.92,7.71-6.71,11.88-8.58,3.59-1.59,6.8-3.3,10.04-7.09-.74-4-1.51-8.3-2.29-12.52,6.14-1.02,12.44,2.15,16.67,8.27-2.97,1.36-6.01,2.74-9.28,4.25,2.44,3.23,4.15,7.09,6.63,8.35,2.73,1.36,3.2,4.17,4.63,6.43,1.71,2.66,3.7,4.99,6.82,9.12v-20.06c3.55,1.56,6.4,2.82,8.33,3.66,7.91,17.44,15.43,34.04,23.14,51.05,2.79-5.74-.27-9.27-1.61-12.99-3.9-10.73-8.12-21.26-9.5-33.22-2.6-2.56-5.16-5.12-7.09-7.07-.16-4.92,5.93-2.38,3.29-8.25-1.65-.33-3.43-.69-5.27-1.08.91-2.1,1.63-3.77,2.4-5.61-1.76-1.1-3.1-1.92-4.75-2.95v-22.05c-2.44,1.18-4.88,1.41-6.18,3.15-3.04,4.17-7.54,3.71-9.73,1.95-3.53-2.87-6.76-1.43-10.08-2.07-10.7-2.05-21.05-5.07-27.89-16.93v-7.2c-12.66-19.65-27.11-28.79-33.55-28.43,3.29,5.87,7.54,10.83,9.11,16.98,1.65,6.43,6.18,12.12,4.75,20.44-1.98-.33-4.19.13-4.86-1-1.65-2.69-2.56-6.17-3.64-8.94-5.25-3.1-10.45-6.15-16.63-9.78-.64-4.25-1.49-9.73-2.35-15.42-1.74-3.36-3.66-7.07-5.62-10.83-2.48-.31-4.9-.61-7.62-.92v-14.29c-1.22-.41-2.09-.72-3.26-1.13v-8.79c3.8-6.1,7.79-12.5,11.53-18.49,2.13-.23,3.66-.41,4.86-.56l6.4-8.45c-.17-15.62,6.16-26.92,14.24-36.78-2.93-3.84-5.35-6.99-7.91-10.35-.79,1.64-1.96,3.97-3.57,7.25-4.9,5.33-12.04.77-17.81,3.15-.37,1.95-.56,3.1-.76,4.1-11.43.92-21.38,6.2-31.12,14.29,4.03,2.41,6.88.77,10.23-.77,3.41-1.54,7.52-.33,10.83-.33,1.32,1.97,2.15,3.18,2.46,3.66-.62,4.41-1.51,7.91-1.53,11.45-.02,4.43-2.19,7.38-3.35,11.01-1.03,3.25-1.78,6.66-2.83,10.65-3.37-5.51-7.15-2.66-10.33-3.56-3.08,4.07-6.09,7.94-9.01,11.94-3.2,4.38-7.34,7.91-11.57,5.74-4.92-2.54-11.98-4.56-12.97-11.99-.95-7.07-4.57-7.56-7.33-10.25-3.86,3.97-8.02,1.23-11.76,2.2-3.62-13.47-1.78-24.82,4.53-34.17.79-8.71,1.51-16.7,2.4-26.69-4.71,5.28-8.93,4.74-14.3,3.87,1.53-5.17,2.79-9.5,4.71-16.06,0-2.56-1.53-9.25.35-12.45,3.08-5.25.72-11.06,3.08-16.49,2.11-4.82.47-12.47.41-18.88,0-.69-.54-1.38-.91-2.25-.83.15-1.71.33-2.93.59,0,3.59-.21,6.97.04,10.27,1.07,14.22-3.16,25.54-10.62,35.19-2.73,3.51-4.46,7.58-5.02,12.65-.21,1.84-1.51,3.46-2.13,4.76-2.67-1.13-5.02-2.13-7.4-3.12.74-1.2,1.24-2.05,1.94-3.23-12.21-11.22-15-27.12-13.41-44.9,5.12-8.79,9.96-17.85,15.41-26.25,7.03-10.81,14.59-21.05,21.8-31.66.81-1.2.95-3.2,2.09-7.4-3.08,2.46-4.5,3.15-5.48,4.43-4.65,5.94-9.07,12.17-13.78,18.01-2.46,3.05-6.74,4.79-7.77,8.35-2.02,6.89-6.49,7.81-8.82,9.48-2.35,3.87-3.68,5.99-4.94,8.2-1.4,2.46-2.73,4.99-4.34,7.99-7.13-6.3-8.57-16.6-11.45-23.28,1.14-20.18,10.08-31.45,21.26-42.11h38.64c-.25-1.82-.41-3-.64-4.61-8.95.95-17.35-1.61-25.6-5.05-3.72-1.56-6.96-4.02-11.14-.23-2.52,2.28-6.53,1.54-9.69,2.89-9.26,3.97-19.05,4.74-28.41,8.22,2.17,6.84,4.22,13.47,3.6,20.95-.54,6.51-.08,12.86-1.57,19.57-1.67,7.48-.39,16.09-.39,22.54-1.05,3.66-1.67,5.89-2.19,7.71,2.17,5.51,4.11,10.42,6.07,15.42,0,3.74-1.18,8.86.25,11.14,2.79,4.48-1.65,7.07-.45,11.06.97,3.23.19,7.38.19,10.94,14.05,1.51,26.43,6.2,36.88,19.31,1.98-2.43,3.72-4.58,5.66-6.97,2.07,2.41,3.7,4.3,5.6,6.51,5.19-.9,10.47-1.79,15.76-2.71.43.87.87,1.72,1.3,2.56-4.22,3.02-5.83,8.66-9.3,12.52-3.91,4.33-7.56,9.09-11.22,13.55.83,1.92,1.53,3.59,2.25,5.28-.6-.51-1.22-1.02-1.82-1.56-2,3.84-3.99,7.66-5.6,10.76-6.96.97-7.69-9.48-12.73-10.22-3.66,7.25-7.58,13.91-10.62,21.21-3.22,7.76-7.6,13.32-13.55,16.96.78-2.66,2.33-4.53,3.14-6.86.99-2.84,1.09-6.25,2.11-9.07.79-2.25,2.4-4.02,4.98-8.12-10.83,3.53-16.57,13.93-24.13,16.37-2.85-1.15-4.86-1.97-6.28-2.56-2.42,4-4.46,7.35-7.56,12.47-1.18-3.02-2.02-5.12-2.98-7.58-2.25,5.61-.27,8.3,2.02,10.78Zm214.28,73.25c4.71,7.3,10.31,6.12,15.6,6.17,2.46,2.28,4.86,4.48,8.9,8.2-5.23-1.33-8.64-2.59-12.11-2.97-3.84-.44-7.73-.1-12.38-.1v-11.3Zm-17.09-9.73c1.76,1.41,3.49,2.95,5,4.23-.81,2.05-1.63,4.12-2.66,6.74-2.71-5.12-7.66-7.74-9.13-16.11,2.95,2.23,4.88,3.64,6.78,5.15ZM103.9,93.41v-29.07c2.98,7.76,5.33,13.86,7.38,19.26-2.64,3.51-4.96,6.61-7.38,9.81Z"/>
      <path class="cls-1" d="m207.25,629.87c1.88,6.1,3.24,11.32,5.06,16.26,4.26,11.53,16.2,19.13,25.64,16.37,2.31-.67,4.44-2.31,5.7-3,1.8-2.84,3.1-4.87,4.38-6.89.31.28.6.56.89.87-.79,3.38-1.59,6.76-2.48,10.6,3.22,1.59,6.01,2.95,9.52,4.69,2.05,1.84,5.74,3.56,7.42,7.02,1.8,3.74,3.66,6.84,6.74,10.76v-11.55c2.66-5.35,3.78-10.96,9.09-12.76,1.84,4.15,3.78,8.53,6.03,13.65,2.85-.92,6.1-1.95,9.3-2.97,2.09,3.94,2.29,9.86,6.71,11.45,0,7.68.19,15.39-.06,23.05-.23,7.2-.97,14.34-1.47,21.54,8.76-.1,16.43,3.48,25.14,9.12-2.11-5.79-3.74-9.73-5-13.88-1.24-4.02-2.29-8.17-3.04-12.4-.76-4.25-1.05-8.68-1.53-13.01.45-.23.89-.46,1.34-.67,4.96,9.25,9.9,18.52,15.14,28.28.74.59,1.94,2,3.31,2.51,1.43.51,3.02.1,4.36.1.83-2.66,1.47-4.71,2.29-7.3-1.67-.13-3.2-.26-5.06-.41-1.03-3.94-2.09-8.07-3.29-12.63h-6.3c-4.19-7.94-8.18-15.62-12.29-23.15-.66-1.2-1.92-1.84-4.03-3.79v26.25c-2.25-5.76-3.74-9.58-5.64-14.45-.17-5.63.95-12.86-3.18-18.77-.85-1.23-.58-3.92-.66-5.97-.1-2.84-.02-5.69-.02-9.43-4.71,2.54-8.53,4.58-12.81,6.89-2.56-6.4-4.79-11.96-7.02-17.6,1.82-1.2,3.12-2.05,4.71-3.1-2.13-5.53-4.5-10.63-6.1-16.14-1.69-5.69-2.64-11.76-4.4-20,6.47,4.99,11.34,8.79,16.05,12.42,1.57-1.31,2.81-2.36,4.5-3.77,1.57,3.23,2.87,5.87,4.44,9.09,1.74-.67,3.74-1.43,6.57-2.51,2.71,5.05,5.91,10.96,9.44,17.49.66-.49,1.94-1.43,2.71-2.02,7.34,2.46,9.53,10.96,13.53,18.36-2.31,1.97-4.3,3.69-6.47,5.56,7.13,8.84,14.28,17.75,21.47,26.66.5-.28,1.05-.59,1.84-1.08-1.51-5.43-2.89-11.01-4.57-16.39-1.61-5.15-4.88-9.5-4.77-16.78,5.43,7.91,11.09,13.52,15.72,20.67,4.88,7.58,10.58,14.24,15.93,21.31-6.45-19.77-19.34-33.17-27.67-51.79h-6.07c-.17-2.56-.29-4.58-.41-6.38-4.9-2.84-10.17-4.53-11.59-12.37,5.52-3.94,9.98,2.02,15.1,1.26,2.13-7.76,3.39-16.26,6.63-23.13,3.49-7.35,8.86-13.14,12.83-18.8,2.27-9.68,3.91-18.6,6.4-27.07,3.88-13.29,5.64-28.2,15.93-37.37-13.02-9.73-24.67-20.44-34.96-34.32-3.74-1.2-8.04.9-12.56-1.56-4.05-2.18-8.86-2.43-12.97-4.94-2.77-1.69-5.21-1.61-8.14-.26,10.02,7.5,20.48,12.42,30.35,19.08,3.04,2.05,5.31,4.25,6.71,7.86,3.33,8.61,6.65,17.26,5.93,27.51-.31,4.2-.06,8.45-.06,12.42q-10.83,14.45-19.09,18.42c-.95-9.32-4.57-17.03-7.83-25.18-3.04-7.58-5.35-15.91-7.56-23.97-2.36-8.73-5.25-16.73-9.59-26.3-1.67,11.91,3.57,19.29,5.33,27.84,1.82,8.79,3.84,17.52,5.79,26.28,1.96,8.73,3.97,17.47,6.03,26.56-5.35,15.55-11.45,30.2-24.77,34.37-.74,2.33-1.16,3.69-1.8,5.71-3.24-1.69-5.97-3.12-9.17-4.79.97-3.59,1.76-6.58,2.27-8.4-1.84-9.4-3.49-17.83-5.37-27.41.25-.36,1.67-1.56,1.71-2.79.12-7.61,1.49-14.32,5.52-20.16.99-1.49,1.55-5.63-1.43-6.81-.85.59-1.65.77-1.88,1.36-4.22,10.71-6.03,22.39-7.95,34.04-.56,3.51-2.02,7.09-1.76,10.45.52,6.74-2.13,12.09-2.77,18.65-4.3-4.07-7.97-7.56-12.54-11.91-.47,8.96-.37,16.78-4.13,23.28-.64,1.1-.64,3.94,0,4.94,2.95,4.66,2.17,8.58.06,13.47-1.57,3.66-1.69,8.43-2.44,12.7-.35-.44-.68-.87-1.03-1.31-1.07,2.54-2.13,5.07-3,7.15-3.88-3.69-7.15-6.81-10.58-10.09h-6.76c-2.34,3.89-4.44,7.3-6.03,9.91h-11.96c-4.77-5.12-10.27-8.61-11.34-17.19-.17-1.51-.89-2.89-1.28-4.41-1.71-6.76-3.66-8.43-10.35-7.89,2.54,2.2,4.46,3.84,5.5,4.74Zm147.29-68.39c.41,3.12,1.4,5.63.83,7.25-1.71,4.99-3.99,9.63-6.16,14.63-1.84-4.84-3.28-8.58-4.53-11.86,2.83-2.87,5.93-6.02,9.86-10.01Z"/>
      <path class="cls-1" d="m271.26,213.04c2.02-3.33,3.7-6.12,5.43-8.94,3.35,0,7.09-1.36,9.63.36,2.77,1.9,5.29,2.02,8.06,2.2,6.03-10.12,6.43-11.06,7.58-17.65h2.81c-.7,5.66-1.36,11.09-2,16.34,2.02,1.15,3.39,1.92,5.1,2.92,2.64-.79,5.72-1.72,8.78-2.64.04-.97.08-1.79.14-3.28-1.94-.51-3.91-1.05-5.91-1.56,2.23-6.1,8.91-4.2,10.19-11.68h4.98c12.62-9.91,21.28-24,29.46-38.42,0-.72.12-1.43-.02-1.54-1.28-.97-2.6-1.82-4.34-3.02.79-1.77,1.51-3.41,2.36-5.3-6.61-3.12-10.85,3.59-17,6.2-.33-1.31-.93-3.71-1.53-6.15-.5.72-1.03,1.41-1.55,2.13-6.03-2.82-10.78,2.23-15.66,5.05-2.98,1.72-4.01,6.76-4.96,11.17-1.07,4.89-2.62,9.63-5.56,13.93.58-5.35,1.4-10.65,1.69-16.01.29-5.46.06-10.94.06-16.21,5.79-2.36,11.59-2.2,16.76-3.97,6.16-2.13,12.09-1.64,18.12-1.95,8.88-.46,15.99-6.81,23.35-12.06.76-.54,1.36-1.43,1.92-2.56,1.01-1.95,1.9-4.58,3.2-7.17.41,3.41.68,5.69.99,8.43.04.18.06.38.08.59,8.68-12.32,17.07-24.28,25.47-36.24-.43,8.02-4.36,14.55-2.73,20.87,8.7,10.48,18.08,17.06,27.6,23.69l-4.17,5.51c5.39,11.88,14.5,17.65,25.16,24.49-3.45,1.66-5.19,2.51-7.13,3.43,0,.03-.23.79-.04,1.2,1.8,4.05,3.66,8.02,4.48,13.09-8.33-8.53-16.67-17.08-24.55-25.15-12.66.03-24.4-5.51-37.97-1.56,3.16.97,4.96,1.54,6.72,2.07.12,1,.19,1.79.37,3.59-5.5,1.72-11.18.15-15.58.79-6.88,3.43-10.56,9.94-14.65,15.65-3.84,5.35-7.13,11.4-10.66,17.14,2.73,2.95,5.43,5.81,8.1,8.71,3.26,3.1,6.96.46,10.54-3,11.98,17.67,27.09,25.08,45.04,22.82.16,1.84.25,3,.39,4.71h-7.25c-4.65,8.55-9.3,17.14-14.15,26.07,1.14,2.87,2.38,6.02,3.9,9.78,1.43.23,2.93.46,5.06.79,4.44,4.92,6.38,14.34,13.08,17.72h6.34c1.88,5.33,3.35,10.6,9.22,10.14,3.16-3.66,6.69-7.76,10.7-12.4,1.67.69,4.22,1.72,7.13,2.89,1.98-6.3,3.82-12.12,5.72-18.19,5.47,3.92.72,13.19,6.53,17.06-.76.59-1.51,1.15-2.25,1.74,7.95,8.48,15.89,16.98,24.71,26.38-2.42.26-3.91.44-5.79.64-5.37-9.86-13.84-13.91-22.21-19.06v-12.14c-2.5,4.05-4.42,7.17-6.1,9.89-2.27-.87-4.21-1.61-5.87-2.28-4.19,3.94-6.47,10.04-11.88,12.06,4.13,9.32,11.14,14.93,16.96,25.02-2.67-1.33-3.95-1.79-5.12-2.61-5.31-3.66-9.67-9.27-15.85-11.42-2.93-1-5.99-3.69-7.85-9.04-3.53-10.22-9.92-17.9-17.27-23.92-1.59-1.31-2.87-3.28-4.75-5.48-1.59.61-3.59,1.36-5.87,2.23l-2-2.64c.68-2.41,1.32-4.61,1.65-5.76-2.46-3.25-4.48-5.89-6.49-8.53-1.88-10.76,3.64-18.34,4.9-26.69-.89-.85-1.51-1.79-1.86-1.66-6.98,2.69-12.83-2.87-18.62-5.69-6.74-3.28-13.18-.87-19.67-2.05-3.45,5.48-9.46-.36-12.93,5.1-5.95-.26-10.23,4.43-14.83,8.4-1.45,1.26-3.35,1.64-4.86,2.36-8.45-13.42-14.22-15.19-40.95-19.75Z"/>
      <path class="cls-1" d="m295.76,373h24.69c5.76,16.19,11.49,32.3,17.23,48.46,6.84-.05,11.84,5.51,18.2,5.69,6.14.18,12.25,2.1,18.95,3.36.58,3.23,1.4,7.04,1.98,10.94.56,3.89.91,7.86,1.34,11.63-.52,2.87-1.03,5.87-1.57,8.89,5.06,1.26,9.36,2.33,15.19,3.79-2.03-2.59-2.62-3.84-3.45-4.3-1.78-.95-3.72-1.51-5.58-2.23.04-.36.08-.69.12-1.05h10.93c7.89,15.47,6.22,32.66,6.26,47.77,2.73,6.02,4.9,10.81,7.02,15.5,3-4.89-1.18-9.6-.47-14.83,1.51,1.95,2.46,4.1,3.14,6.4.66,2.2.56,5.12,1.63,6.76,4.71,7.22,5.41,16.09,6.09,24.84.45,5.81.08,11.73.08,17.39,2.13-2.82,4.07-5.38,5.83-7.74,1.82,1.82,2.77,2.79,4.19,4.2,4.53-6.12,6.51-15.85,14.52-16.29,3.43,10.78,7.4,21.46,10.21,32.66,2.91,11.63,4.67,23.74,7.11,36.63-1.01,1.87-2.71,5.02-4.34,8.04-4.55-2.69-8.47-4.76-9.53-11.24-1.28.77-2.07,1.26-3.16,1.9,2.87,7.89,5.66,15.55,8.47,23.21-.41.38-.81.77-1.22,1.13-1.34-1.74-2.67-3.48-4.01-5.23,3.53,14.73,10.64,26.61,13.62,38.21,5.93,3.97,10.06,6.76,14.83,9.99-.74-4.12-1.4-7.81-2.44-13.73,6.45,7.94,9.69,16.65,14.21,23.85,3.1,1.02,6.09,1.97,9.73,3.18-2.07-7.94-3.78-14.42-5.47-20.9-.58,0-1.14.03-1.71.03-.62,2.69-1.22,5.35-1.98,8.63-5.21-9.81-9.98-18.88-10.95-30.76-.33-4.12-1.88-8.61-5.97-11.14-3.78-2.36-6.53-7.63-9.15-10.91-.95-7.61,3.95-9.2,5.78-13.73.21-17.93-6.3-33.83-9.83-50.74-2.93-14.06-8.53-26.56-12.83-40.49-6.4,5.35-9.65,14.65-17.56,16.47-1.49-9.71-4.01-19-4.83-29.17-.47-5.79-.43-12.91-4.83-17.8-2.58-2.89-4.05-7.53-6.22-11.78,1.14,0,2.38-.49,2.83.08,7.64,9.71,13.76,21,19.32,32.81l2.66-3.51c-.87-3.05-5.08-4.12-2.98-9.48,10.45,13.81,20.66,27.3,30.87,40.78.14.15.5.2.66.08.27-.2.47-.59,1.09-1.46-8-14.29-18.78-26.79-20.21-45.13-7.05-6.56-13.72-12.76-20.33-18.9-.37,1.28-.78,2.77-1.18,4.25-4.13-2.28-4.71-9.22-8.91-11.12-.78-7.27-5.76-8.14-9.26-11.83-.6,2.36-.97,3.82-1.38,5.46l-3.29-4.35v-14.16c-3.88,1.13-7.31,2.13-10.08,2.92-2.13-4.07-3.84-7.35-5.7-10.94,1.96-2.46,3.7-4.66,5.64-7.09,2.75,3.25,5.37,6.33,8.43,9.94h2.97c-.52-4.99-1.03-9.63-1.34-12.5-2.77-4.3-4.75-7.4-6.74-10.5-4.53,2.54-8.2,7.12-14.03,4.89-1.47-2.51-3.45-5.89-6.1-10.4v16.55c-3.99-1.15-7.19-2.64-10.43-2.87-7.29-.54-13.9-2.84-19.26-9.84-.76-1-2.17-1.1-3.18-1.56-.91-8.91-6.4-14.47-8.08-22.87-1.57-7.84-5.58-14.8-8.74-22.72-3.39,1-6.92,2.48-10.52,2.95-4.17.54-8.39.13-12.6.13-.97,0-1.94-.13-2.91.05-.54.1-1.07.67-1.74,1.1.1,1.1.19,2.25.31,3.82Zm168.1,284.48c1.34,1,2.6,2.1,3.86,3.15v6.56c-.68-.23-1.18-.26-1.57-.56-5.35-4.1-5.33-4.12-6.05-11.63,1.53,1,2.67,1.66,3.76,2.48Z"/>
      <path class="cls-1" d="m68.24,512.41c4.3,8.17,8.43,16.65,11.59,25.61,2.89,8.25,6.82,15.39,11.24,21.92,6.86,10.17,14.44,19.49,21.84,29.05.87,1.13,2.38,1.41,5.1,2.89-8.06-12.96-14.94-24.03-21.76-35.14-.14-.23.37-1.15.7-2.13,1.45.77,2.93,1.56,4.42,2.36.27-1.66.47-2.84.66-4.1,8.18,4.07,14.21,11.65,19.71,19.88,6.92,10.32,15.93,16.37,24.96,22.44,1.43.95,3.41.49,6.45.82-11.72-10.63-24.11-17.47-27.83-34.94-10.78-3.43-21.94-11.68-38.53-34.71,2.89-9.55,5.64-18.62,8.7-28.74,4.07,6.02,7.67,12.06,11.84,17.34,4.46,5.66,9.42,10.63,14.19,15.93-1.09,2.56-1.82,4.28-2.91,6.81,4.86,5.61,9.88,11.06,14.63,16.9,4.55,5.58,8.55,12.06,15.27,15.14-1.51-3.41-4.32-7.45-5.81-8.71.47-.82.95-1.66,1.49-2.61-5.66-1.97-8.39-8.63-12.97-11.83-1.38-.97-2.58-2.74-3.39-4.51-.6-1.33-.45-3.23-.68-5.17,7.42,1.28,11.05,12.04,19.63,9.91-1.38-1.82-2.03-3.18-2.98-3.89-13.04-9.81-24.88-21.64-35.14-36.22-2.95-4.2-6.45-7.84-7.15-15.34,3.47-1.87,7.19-3.89,10.89-5.92-2.85,5.69-.62,10.76-.87,15.73h2.95c.99-4.43,2-8.99,3.43-15.52,1.03-1.1,3.28-3.46,4.94-5.25.43-12.86-1.07-24.67,2.05-35.99,2.34-8.61,3.6-17.65,5.39-26.43,2.44-11.88,5.83-23.36,8.49-35.14,1.34-5.87.74-13.09,4.79-17.83.23-.28.1-1.15.12-1.72-.99-.36-1.86-.64-3.29-1.15,0-1.82-.54-4.23.1-5.81,2.5-6.28,1.45-12.96,1.94-19.49.31-4.25,1.47-8.4,2.13-11.94,1.67-.54,2.56-.79,3.45-1.1.04-1.56.25-2.84.12-4.02-1.55-12.45,2.54-21.34,9.28-29.58,9.84-12.06,19.53-24.49,27.89-41.01-4.53,2.59-7.91,4.48-12.25,6.94,1.96-4.3,3.2-7.07,4.44-9.84-5.72,4.07-10.52,9.04-14.98,14.5-4.73,5.79-12.17,4.84-16.45,11.42.7,2.18.7,9.43.16,13.73-2.02,15.88-5.78,28.25-11.63,38.42,2.71,14.57.93,29.86-5.89,49.95,1.3.85,2.62,1.69,4.11,2.64-.25,2-.08,4.38-.85,5.92-4.01,7.74-8.26,15.24-12.79,23.49.85,9.02-4.11,14.83-8.35,19.82-4.07,1.54-7.25,2.74-10.58,4.02-5.21,12.99-10.99,16.8-19.34,12.55-.79,1.15-1.63,2.31-2.19,3.1,1.2,3.05,2.25,5.74,2.93,7.5-1.26,5.2-2.33,9.5-4.09,16.8,7.38-6.51,9.79-15.14,15.47-19.77.41.46,1.07,1.15,2.48,2.69.58-1.18,1.53-2.43,1.88-3.92,1.84-7.89,6.84-11.14,11.8-14.5.39-.26,1.12.38,1.71.61.35,2.33-4.34,5.3.87,7.2,2.44-6.33,6.67-10.5,10.99-14.98-1.14,8.86-3.45,17.03-4.77,25.46-1.3,8.25-6.78,14.96-4.57,23.74-5.35,7.71-12.98,4.76-18.39,9.48-2.27-5.94-4.21-11.06-6.59-17.34-2.93,3.82-5.14,6.71-7,9.12-2.67.23-4.81.38-6.9.56v20.95c-1.51,3.92-2.25,5.84-2.87,7.48-4.3-3.38-7.87-6.2-11.84-9.32-.45,2.25-.7,3.38-.7,3.38,3.37,4.12,6.9,7.17,9.15,11.4Zm18.8-34.32c1.72,4.61,3.37,8.94,5.06,13.42-1.55,6.43-3.12,12.83-4.69,19.29-1.4.87-2.95,1.84-4.5,2.79-3.26-7.84-3.64-15.88-1.14-24.82-1.3-.36-2.17-.61-4.21-1.15,3.55-3.56,6.34-6.35,9.48-9.53Z"/>
      <path class="cls-1" d="m29.88,536c.02.1.02.2.02.33.04,1.38.04,2.87-.02,4.53-.04-.59-.06-1.23-.08-1.95v-.26c0-.26,0-.51.02-.77-.02-.61.02-1.23.06-1.9Z"/>
      <path class="cls-1" d="m29.88,544.14c-.04-.05-.06-.13-.1-.2.02-.46.04-.92.06-1.36.02-.56.04-1.13.04-1.66.16,2.92.5,4.38,0,3.23Z"/>
      <path class="cls-1" d="m0,543.66c1.63-5.28,2.09-8.94,3.64-11.27,2.52-3.77,3.66-8.27,5.43-12.45,3.66-8.68,7-17.88,11.76-25.43,4.21-6.63,4.42-14.73,6.98-21.87,1.65-4.61,1.63-10.22,2.21-14.29,4.98-10.14,9.59-19.54,15.12-30.79-2.91.23-4.96-.18-5.19.49-3.04,8.84-9.81,13.7-13.2,22.18-1.43,3.59-3.6,6.63-5.95,9.45,10.33-36.99,27.04-67.75,50.43-92.21,2.03,2.79-.33,3.07-.48,4.3-.12,1.13.14,2.31.43,6.76,1.4-4.79,2.09-7.17,2.77-9.53.56.54,1.14,1.08,1.71,1.64.27,1,.99,2.38.74,2.95-10.04,21.39-20.17,42.7-30.29,64.01-1.28,9.81-5.89,18.06-6.84,28.35-.68,7.33-1.49,14.63-1.57,22.03-.08,6.68,1.18,12.68,4.46,18.06,1.84,3.02,2.83,6.94,4.19,10.45,1.22,3.12,4.36,2.71,5.74,6.86,1.38,4.2,5.76,6.68,10.29,11.45-4.57-.79-7.69,1.41-10.21-2.87-1.07,2.87-2.11,5.69-3.12,8.4.89,1.31,1.53,2.23,1.88,2.71-1.51,9.27-3,18.24-4.67,28.4-2.66-6.66-5-12.55-7.25-18.16,2.79-3.1,4.96-5.51,6.26-6.97v-13.83c-.93-.23-1.8-.46-3.04-.79-.37,2.51-.7,4.87-1.05,7.35-.47-.15-1.14-.13-1.34-.49-2.23-4.76-4.38-9.58-6.8-14.93-.68,1.36-1.2,2.71-1.63,4.05-.23.69-.41,1.36-.56,2.02-.54,2.2-.81,4.3-.93,6.22-.06-2.54-.23-4.64-.48-6.38v-.03c.16-.03.31-.08.47-.1.78-5.12-2.23-6.53-4.52-10.04-.29-.44-.58-.92-.83-1.43v25.97c.1-.2.19-.44.27-.64.02-.05.04-.08.04-.13.08-.15.14-.33.19-.51.02-.03.02-.05.02-.05.1-.28.17-.59.25-.87.17-.74.31-1.51.39-2.28.47-3.74-.14-5.23,4.11,4.51-3.97,19.24-7.87,27.46-12.31,35.27-.7,1.18-1.38,2.33-2.07,3.53-1.1-9.63-1.96-17.26-3.06-27.12,2.21,3.43,3.22,5.02,3.72,5.81,2.46-3.2,4.79-6.22,7.71-10.07-1.22-7.4-2.79-16.83-4.52-27.23-.99.61-2.46,1-3.39,2.15-3.74,4.69-7.29,9.66-11.03,14.37-.76.95-2,1.28-4.84,3Z"/>
      <path class="cls-1" d="m22.36,219.58c3.62-15.32,6.45-31.09,5.5-48.61,7.33-4.15,15.58-5.05,23.02-9.76-2.42,4.35-4.83,8.71-7.29,13.17v10.25c8.35,8.68,17.54,2.18,26.8,3.23-4.13,2.02-8.35,3.84-12.4,6.12-4.38,2.46-8.62,5.35-13.66,8.5,1.84,3.12,3.06,5.25,4.69,8.02,8.02-5.02,15-11.53,24.07-13.5,1.45.49,4.34,2.72,5.99,1.64,2.4-1.56,4.22-3.12,7.48-.9-3.99,7.48-10.66,10.27-15.19,16.42-4.61,6.3-10.68,10.71-16.88,16.73-.74-2.33-1.24-3.94-1.74-5.56-4.03-3.07-6.01,1.77-9.01,5.2v-12.09c-2.87-2.89-2.21-9.71-7.4-9.14-.56,5.84-1.12,11.78-1.8,19.08,4.65,5.87-3.22,13.29-.21,20.98,3.26,2.51,6.8,5.25,11.2,1.05,1.22-1.15,3.59-.18,6.18-.18-5.85,6.79-10.95,12.73-15.6,18.13-1.88,11.24,2.11,18.47,7.71,24.43,3.55,3.74,7.64,6.56,11.32,10.12,1.05,1.02,1.51,3.12,2.5,5.23-4.21-.79-7.69-1.43-11.63-2.18-2.13-3.53-4.46-7.94-7.19-11.83-2.6-3.66-3.97-9.02-8.64-10.42-.85-13.75-3.86-25.38-8.22-36.83,2.79-8.81,3.39-17.93.41-27.28Z"/>
      <path class="cls-1" d="m183.26,485.39v-14.5c1.09-.13,1.96-.26,3.24-.44v6.97c6.82,15.73,17,22.16,28.7,27.07,2.33-10.68,3.08-21.67,9.86-30.81-3.74-.44-6.16-.69-8.82-.97v-8.99s3.31-4.38,3.31-4.38c-1.53-2.84-3.04-5.69-4.63-8.66-.04.03-.79.28-.85.72-.85,6.35-1.63,12.73-2.98,19.03-1.38-12.5-.68-25-.99-37.09,1.22-1.54,2.13-2.66,2.67-3.36,2.89,8.17,5.81,16.42,8.9,25.13,2.6,0,4.79.23,6.94-.08,1.57-.2,3.08-1.1,4.67-1.72.06,1.15.1,2,.14,2.82-3.93,4.69-10.87,2.97-13.47,11.71,2.4,0,5.17,1.15,6.63-.18,8.02-7.33,19.24-5.46,25.19-14.83,1.4-8.53,2.36-14.42,3.7-22.62,2.09,8.68,6.05,14.39,4.59,22.82-1.12-1.33-1.8-2.15-3.12-3.71-.14,2.71-.23,4.71-.37,7.43-9.28,7.17-18.86,14.57-29.23,22.59.43,5.48.89,11.45,1.47,18.98-.41.36-2,1.77-3.95,3.48,3.64,3.71,5.45,8.43,9.98,10.4.33-4.1.6-7.58,1.05-12.99,2.75,8.89,4.9,15.8,7.13,22.98-.85,2.18-1.8,4.64-3,7.74-3.29-2.74-6.57-5.48-9.79-8.14-4.65,2.02-9.19,4-13.97,6.1,1.72,1.64,4.46,2.92,5.06,5.17.66,2.56-.56,5.99-1.1,10.01,2.71,5.38,5.91,11.73,9.22,18.26-4.46,3.46.14,6.84.48,11.96-3.57-2.92-5.16-5.76-6.74-9.71-4.3-10.76-11.16-18.62-19.26-26.18,3.47-.15,6.49-1.79,9.22,2.38.79-1.33,1.57-2.61,2.54-4.23-2.81-2.97-6.53-5.53-8.72-9.55-2.19-4-2.81-9.45-3.78-13.04-5.14-3.41-10.31,1.59-13.72-4.56,2.23-6.45,1.86-12.83-1.1-18.9-1.65-1.36-3.47-2.79-5.1-4.12Z"/>
      <path class="cls-1" d="m175.93,381.55c2.31-3.41.1-7.48,1.94-10.53,4.34,1.02,2.34,6.71,4.09,9.71,1.86,3.2,3.62,6.53,5.56,10.07h11.96c5.7-4.58,6.57-14.34,10.6-21.82.62-5.07-1.2-11.19,2.13-16.44-.72-1.61-1.45-3.33-1.86-4.25,2.66-3.53,5.08-6.79,8.18-10.91h13.97s3.43,4.53,3.43,4.53c-4.24.31-7.93.56-12.66.87,1.03,2.54,1.45,5.33,2.64,6.15,4.81,3.3,9.42,7.76,15.45,6.38,2.17-.49,4.48-.08,6.59-.08,4.03-5.28,7.67-11.09,15.12-9.96-3.86,5.81-7.09,10.71-10.16,15.29-10.25-1.31-19.85,2.41-29.07-3.23-4.53,3.61-7.38,8.81-9.83,15.39,13.12,1.08,26.07,2.2,37.67-11.83.64,3.94.99,6.1,1.49,9.14,2,1.74,4.53,4,6.92,6.1,1.86,9.66-1.3,17.78-3.68,26.87,2.58-.67,4.92-1.26,7.6-1.95-.17,1.36-.1,2.23-.35,2.48-1.98,1.9-3.9,4.87-6.05,5.28-8.28,1.51-13.02,8.12-16.86,17.16-1.45,3.41-4.22,5.81-6.4,8.68,2.23-11.27,6.49-20.13,10.89-24.87,2.97-8.58,4.96-14.32,7.35-21.26-2.29-3.05-5.16-6.86-6.63-8.84-11.49-4.84-20.04,2.33-29.09,4.35-4.03.9-7.4,6.94-10.72,10.27.97,4.46,1.69,7.79,2.58,11.86h-12c-.95,1.82-2.03,3.89-3.18,6.07-1.3-.92-2.31-1.26-2.83-2.07-3.47-5.56-6.84-11.22-11.67-19.18v15.24c-2.33-4.46-3.57-6.86-5.87-11.27-.41-2.95-.33-8.91,2.73-13.4Z"/>
      <path class="cls-1" d="m30.41,605.28c-.93,3.66-1.71,6.66-2.48,9.66,9.24,5.69,19.59,8.58,27.11,18.24,7.93,10.19,15.39,21,23.47,32.14h12.73c.48,1.59.91,3.05,1.22,4.1,5.6,1.36,11.01,2.64,16.4,3.94,1.72,5.92,3.43,11.76,4.92,16.88h18.33q-13.49-4.38-17.29-10.6c1.3-1.02,2.67-2.07,3.7-2.87,1.61.31,3.82.77,6.38,1.28-.14-2.31-.21-3.46-.29-4.53-9.63-2.2-18.35-4.79-20.12-13.88h-25.85c-4.52-14.01-.81-28.53-2.67-42.93-1.63-1.23-3.47-2.64-4.98-3.77,1.26-4.43,2.48-8.81,4.05-14.37-5.7.44-10.37-.97-13.99-6.12-.72-1.02-2.21-1.51-3.35-1.51-3.97,0-7.11-2.18-9.81-5.76q-1.2-7.22-10.37-21.03c.35,3.77-.1,6.94.87,8.14,5.16,6.43,5.76,14.24,5.06,20.77-3,4.05-5.17,6.94-6.96,9.35-5.87-8.71-4.19-22.1-9.79-32.07.02,9.78-2.03,18.83-3.8,27.94,2.5,2.31,4.92,4.58,7.5,6.99Zm25.1-4.23c4.34-.08,5.29,4.56,7.71,6.97-.93,4.23-1.78,7.99-2.52,11.32,2.98,3.05,5.6,5.74,7.64,7.81v14.27s-12.73-16.83-12.73-16.83c1.07-.33,1.92-.64,2.79-.92-.47-7.53-4.5-14.39-2.89-22.62Z"/>
      <path class="cls-1" d="m86.49,701.05c1.24.51,2.62.72,3.72,1.59,8.28,6.53,16.45,13.34,24.77,19.77,4.4,3.41,8.97,6.35,13.57,9.22,1.01.64,2.4.1,3.49.1-1.55-12.45-2.6-24.43-7.29-35.78,4.69-.36,6.05,4.17,8.14,6.86,1.82,2.36,2.98,5.61,4.63,8.89.7-2.28,1.16-3.74,1.63-5.25.45.36,1.05.59,1.32,1.1,6.09,11.53,14.83,18.85,23.62,26.07,3.6,2.95,7.54,5.46,10.62,9.2,2.79,3.36,4.79,7.91,8.2,10.53.78.59,1.55,1.15,3.16,2.36.33-2.95,1.3-5.56.7-7.25-2.13-6.1-4.81-11.88-7.13-17.47-.97-7.94-1.9-15.6-2.91-23.74,7.69-8.96,15.27-17.8,23.95-27.92-.66,3.2-.64,5.28-1.41,6.45-2.33,3.51-5.91,6.15-7.21,10.17-1.4,4.33-4.57,4.82-6.28,7.84-1.61,2.89-3.08,5.92-4.36,8.4,1.67,5.4,3.24,10.53,5.35,17.42-.79,5.99,3.49,12.93,3.55,20.06.08,7.53,6.38,12.6,3.51,21.34-6.32-5.92-12.46-11.12-18.14-17.14-5.74-6.07-11.84-11.06-19.19-13.91-.48.54-1.4,1.51-2.38,2.56-4.36-4.76-8.41-9.2-12.5-13.68-4.03,5.51,3.12,9.99.02,15.44-1.9.15-4.07.31-6.63.49-.27,2.25-.54,4.61-.89,7.56-15.62-17.85-30.91-35.45-47.62-51.28Z"/>
      <path class="cls-1" d="m15.87,376.05c12.21-20.21,24.5-40.57,37.36-61.86.93.33,2.91,1.05,5,1.79,2.6-8.5,8.49-13.98,14.22-19.72,2.58-2.59,4.77-5.84,7.21-8.89.72,1.43,1.94,3.87,3.24,6.45,7.91-8.02,15.62-15.83,23.33-23.67-3.84,14.06-11.05,24.77-17.09,36.6-1.24-1.72-2.36-3.23-3.62-4.94-8.18,6.63-13.14,16.6-17.15,28.79,1.96,1.9,4.05,3.92,6.71,6.51-9.44,11.53-18.76,22.92-28.1,34.32-.41-.41-.83-.79-1.24-1.18,4.53-14.91,9.09-29.84,14.05-46.15-4.83,2.28-5.17,7.81-8.6,9.94-3.31,2.05-5.6,6.89-8.35,10.53l-8.2,10.83c-2.75,3.64-5.62,7.09-8.18,10.91-2.03,3.02-3.62,6.56-5.54,9.73-1.24,2.07-2.73,3.79-5.04,0Z"/>
      <path class="cls-1" d="m161.07,58.93c2.46-9.07,4.44-16.21,10-21.59v22.21c3.22,2.95,5.39,5.2,7.77,7.02,2.31,1.77,4.84,3.02,7.25,4.58,2.42,1.56,4.79,3.28,7.19,4.89,2.25,1.51,4.53,2.95,7.42,4.82-1.32-9.43-8.28-10.86-13.16-18.31,4.98,1.97,8.26,3.28,11.82,4.69,4.83-5.33,10.21-15.03,11.98-21.92.62.05,1.26.13,2.09.2,2.89,12.88-3.04,25.05-1.14,37.98h-3.37c-2.66-7.81,1.16-15.16,1.41-23.46-3.02,4.87-5.33,8.61-7.6,12.24,1.18,2.82,2.46,5.94,3.64,8.76-1.65,6.89-6.12,4.89-9.81,5.3,1.41,3.56,2.48,6.28,3.86,9.73v20.13c6.61,2.23,13.31,4.48,20.62,6.94,1.41-11.6,5.58-20.34,12.05-27.28.17-2,.35-4.02.56-6.4.79-.26,1.67-.51,2.44-.77,3.74,4.41-1.63,9.71,1.32,15.14-2.36,1.28-4.77,2.56-7.93,4.28-3.28,4.35-3.68,6.15-4.19,21.72-8.68-2.46-17.58-7.27-26.07-4.61-8.24,2.59-17.15,4.64-24.52,13.19-1.28-3.1-2.34-5.74-3.49-8.53,1.86-3.71,3.68-7.4,5.56-11.04,1.69-3.2,3.43-6.35,6.26-9.04-.33,2.92-.68,5.84-1.1,9.48.62.08,2.11.26,3.57.41,1.92-2.31,3.76-4.53,5.72-6.86-.95-2.25-1.69-3.97-2.46-5.79,1.51-5.51,5.56-10.09,3.22-17.88-7.25-10.09-16.69-18.57-26.36-26.61.87-1.95,1.59-3.59,3.12-7.07-2.97,1.33-4.48,2.02-7.69,3.46Z"/>
      <path class="cls-1" d="m382.42,390.39c-.64,3.28-1.12,5.66-1.63,8.27,7.38.54,13.84-.36,20.41,2.36,6.38,2.64,13.37,2.54,20.04,4.02,6.32,1.38,12.56,3.28,19.09,5.02,4.05,2.07,7.71,5.53,9.11,11.24h10.43c.29-1.64.5-2.82,1.07-5.92,6.03,18.67,8.64,36.93,11.86,57.07.54-3.2.79-4.33.91-5.51,1.32-12.96-2.5-24.9-4.75-37.01-1.69-9.07-3.76-18.34-8-26.23-.48-.9-1.26-1.49-2.19-2.56-1.22,2.69-2.31,5.07-3.51,7.74h-6.51c-.27-.49-1.09-1.79-1.74-3.2-5.43-11.45-13.82-19.82-18.53-32.02-1.38-3.53-4.36-5.15-8.31-6.28-5.39-5.58-8.9-13.55-15.72-18.39-.35,4.48-.62,7.97-.89,11.45-12.21-1.31-22.15,3.36-30.89,14.24,3.6,5.81,6.92,11.14,9.77,15.7Zm9.79-23.67c5.95-4.02,11.32,1.18,16.82,1.36.54-2.02.95-3.51,1.53-5.69,2.21,3.38,4.15,6.33,7.02,10.68,0,0,1.49.1,3.6.26,5.85,8.89,12,18.24,19.03,28.92-2.42.79-4.11,2.13-4.88,1.49-3.45-2.77-7.15-2.13-10.83-2.51-2.98-.33-5.89-1.66-8.86-2.46-7.09-1.87-14.19-3.71-21.09-5.51-.29-1.82-.47-3-.64-4.07-5.7-1.64-11.2-5.76-17.48-13.24,3.62-8.12,10.74-5.81,15.78-9.22Z"/>
      <path class="cls-1" d="m267.79,171.94c.89-3.36.97-5.51,1.82-6.56,4.59-5.63,8.49-12.19,14.07-16.67,3.24-2.59,6.47-6.48,8-12.04.7-2.54,2.98-4.28,4.44-6.53,2.42-3.71,4.73-7.53,7.09-11.32-1.55-2.41-2.89-4.53-4.24-6.66,3.31-3.69,6.3-7.02,9.26-10.32,9.92-1.08,19.67.41,29.46,4.33v-10.01c-1.12,1.26-1.78,2-3.02,3.38-.08-1.92-.62-3.97-.14-4.53,3.76-4.51,6.53-9.76,7.98-16.24h7.79c6.57-8.22,13.22-16.08,23.2-22.16-1.78,5.3-3.99,7.07-5.91,9.22-3.84,4.3-7.52,8.86-11.41,13.09-3.41,3.74-6.71,7.45-9.48,12.24-2.97,5.15-4.42,10.68-4.65,16.67-.21,5.76-1.78,10.19-4.77,14.09-2.13,2.74-4.22,5.53-6.47,8.53-1.28,1.66-2.58,3.41-3.97,5.25,0-2.1-.41-3.84.02-4.89.02-.05.04-.1.06-.15,1.86-3.74,3.99-7.25,6.09-10.76,2.25-3.77,1.51-6.86-1.38-10.01-6.36-1.23-13.06-2.48-18.37-3.51-2.95,2-4.55,3.1-6.8,4.61,2.54.67,4.52,1.2,7.23,1.9-4.11,8.84-9.86,14.34-14.61,21.03-4.63,6.51-9.4,12.91-14.38,18.98-5.04,6.12-10.41,11.78-16.9,19.06Z"/>
      <path class="cls-1" d="m120.78,592.45c5.64-.69,7.23,5.17,10.74,8.07,1.05-.64,2.29-1.43,3.1-1.97,4.21,6.2,8.16,12.01,12.27,18.06h9.01c.99,3.48,1.96,6.81,3.2,11.17,5.14-11.06,10-21.51,14.86-31.97.47.2.91.41,1.38.64-.23,2.25-.16,4.69-.76,6.76-2.15,7.38-5.16,14.39-6.63,21.95-1.47,7.68-.89,15.65,4.69,22.33.79-2.23,1.59-4.51,2.71-7.71,7.13,12.52,5.12,27.02,13.04,39.34-3.26-1.66-4.71-1.95-5.68-3-1.98-2.15-3.72-4.71-5.5-7.07,0-5.23,0-10.35-.02-15.47-1.59-1.74-2.44-1.82-2.97-1.18-.19.2-.35.56-.47.95-.04.13-.08.28-.12.41-.12.41-.21.87-.29,1.31-.19.87-.41,1.72-.79,2.13-5.06-6.12-10.14-12.24-16.49-19.93-.62-3.41-1.69-9.22-2.73-14.91-1.55,1.87-3.26,3.92-4.55,5.51.27,2.87.54,5.61.83,8.43l-2.07,2.74c-.41-.23-1.14-.36-1.26-.77-3.6-13.6-9.71-25.1-17.19-35.4-2.64-3.64-5.54-6.94-8.31-10.42Z"/>
      <path class="cls-1" d="m308.08,407.19c2.03-.38,3.06-1.05,3.78-.67,2.73,1.51,5.43,3.23,8.06,5.07,9.44,6.56,17.91,14.75,24.73,25.59,1.07-1.08,2-2.02,3.35-3.38,1.53,3.84,2.54,7.5,4.26,10.42,1.72,2.97,1.47,7.68,5.81,8.73,2.64.64,4.71,5.38,6.88,8.09.17,13.83,7.91,23.95,9.44,37.01-5.74-6.53-6.59-17.11-11.51-24.18-5.19-7.48-7.11-18.36-14.32-23.41-.74,1.61-1.57,3.43-3.24,7.02-6.72-25.2-21.72-37.22-37.25-50.3Z"/>
      <path class="cls-1" d="m272.37,120.94c1.34-17.01,7.09-29.56,13.49-41.44,2.56-1.02,4.83-1.95,7.27-2.95v-12.35c1.84-1.36,3.55-2.61,6.9-5.07-1.28,5.25-2.23,8.07-2.58,10.99s-.08,5.94-.08,8.55c-2.27,5.94-4.42,11.58-6.45,16.9-1.28-.08-2.64-.15-4.86-.31-.25-.9-.64-2.38-1.03-3.92-5.68,8.3-6.05,20.16-12.66,29.58Z"/>
      <path class="cls-1" d="m200.49,143.58v-10.19c3.12-1.28,5.93-2.41,11.1-4.53-5.33,11.3-9.53,20.23-13.88,29.46q-.87-6.2,2.77-14.73Z"/>
    </g>
  </g>
</svg>