<?xml version="1.0" encoding="UTF-8"?>
<svg id="layout" xmlns="http://www.w3.org/2000/svg" viewBox="0 0 1000 1000">
  <defs>
    <style>
      .cls-1, .cls-2 {
        stroke-width: 0px;
      }

      .cls-2 {
        fill: #fff;
      }
    </style>
  </defs>
  <path class="cls-2" d="m238.17,646.55h.07s.03-.04.05-.06c-.04.02-.08.04-.12.06Zm7.62,52.36s-.01.01-.01.02c.05-.05.1-.09.15-.15-.05.04-.09.08-.14.12Zm220.31-74.06c-.06.04-.12.08-.17.12.06-.04.11-.08.17-.11t.01-.01h-.01Zm-.67.46s-.04.03-.06.04c.02-.01.04-.02.06-.03h.01s-.01-.01-.01-.01Zm1.89-1.4s.06-.05.09-.07h0s-.06.05-.09.07Zm5.51,30.93c.08.06.16.14.25.2h0c-.08-.07-.16-.14-.25-.2Zm61.52-31.09c-.41,1.5.13.28,0,0h0Zm164.07,71.75h0c-1.71,2.36-3.43,4.71-5.15,7.1,1.74-2.37,3.45-4.72,5.17-7.08,4.24-.97,7.89-1.74,11.05-2.25-3.16.49-6.82,1.25-11.07,2.23Zm21.84-2.6c.52.1,1.02.23,1.49.38-.47-.17-.96-.29-1.49-.38Zm2.18.63c.44.19.86.4,1.25.63-.39-.24-.81-.46-1.25-.63Zm1.26.65c.39.24.75.51,1.09.8-.34-.3-.71-.57-1.09-.8Zm-189.35-70.43c-.41,1.5.13.28,0,0h0Z"/>
  <path class="cls-1" d="m110.77,371.2s.07-.09.1-.14c0-.01.01-.02.01-.03l-.11.17Zm135.02,327.71s-.01.01-.01.02c.05-.05.1-.09.15-.15-.05.04-.09.08-.14.12Zm258.61-271.05c9.93-4.22,19.95-10.93,23.03-24.1-26.19,3.16-49.79,6.47-70.06,20.74-7.78,5.47-18.06,8.11-27.2,12.04-.6-1.12-1.21-2.25-1.81-3.37,6.48-3.3,13.35-6.12,19.28-10.08,3.35-2.24,5.13-6.35,7.61-9.61-3.96-1.82-7.76-4.76-11.9-5.21-7.68-.84-15.56-.24-21.42-.24,7.15-7.85,14.47-15.07,20.69-22.98,4.6-5.85,7.78-12.6,11.58-18.96-9.22-.45-18.44-.93-27.67-1.31-.75-.03-1.49.78-2.29.89-4.32.59-8.67,1.09-15.12,1.89,10.41-8.06,18.35-14.21,26.29-20.36,1.04-.75,2.08-1.5,3.12-2.24,0-.01.01-.01.01-.01h.01c.53-1.23,1.07-2.46,1.61-3.67,1.65-3.69,3.29-7.4,4.9-11.11,2.62-6.09-.7-9.42-7.02-8.41-7.79,1.25-15.29,4.07-22.79,6.49-4.03,1.31-7.82,3.24-14.89,6.22,8.81-17.29,21.06-30.28,16.96-49.77-17.04,12.5-31.95,23.42-46.85,34.35,7.32-20.02,18.72-38.48,8.47-63.64-9.06,10.46-16.04,18.51-23.01,26.57-.78-.42-1.55-.84-2.31-1.26,10.43-30.07,20.86-60.14,31.29-90.2,1.29.31,2.59.63,3.89.96-2.19,9.16-4.26,18.33-6.59,27.47-5.59,21.84-5.64,21.83-.23,26.28,17.75-25.19,29.45-52.45,36.66-81.5,7.17-28.84,12.12-57.77,10.97-87.57-4.48,2.34-7.87,4.81-9.8,7.98-18.42,30.25-36.88,60.48-54.57,91.08-3.15,5.44-3.4,12.41-4.08,18.76-1.52,14.19-1.78,28.51-3.97,42.61-1.2,7.76-5.28,15.16-8.05,22.72.15-19.72,4.68-38.54,5.67-57.51,1.25-23.65-8.29-42.93-21.39-51.15.19,2.07,1.22,4.62.45,6.62-1.47,3.84-5.2,7.21-5.78,11.04-1.61,10.49-1.05,21.27-3.18,31.64-7.38,36.07-11.37,73.28-24.47,107.69-15.88,41.72-39.97,80.93-59.76,121.52-2.61,5.34-3.83,15.26-.47,18.04,6.66,5.53,16.82,5.31,25.64-.21-17.3-12.96-18.55-18.72-8.42-26.09,6.57,7.69,13.16,15.42,20.28,23.77-.41.51-1.94,2.41-3.68,4.57,9.28,3.07,21.11,3.3,20.12,14.82-1.14,13.05-1.83,26.72-6.74,38.81-9.82,24.19-32.7,39.92-52.41,57.52-.23.2-1.41-.45-2.95-.98,4.43-7.35,14.45-12.64,6.68-23.65-21.04-29.83-49.24-50.88-87.35-60.55-34.29-8.7-62.99-25.39-88.02-47.55-2.62-2.32-4.42-5.38-6.6-8.11,9.27,3.9,15.88,9.71,23.21,14.67,7.77,5.25,16.01,10.01,24.42,14.42,7.47,3.91,15.46,7.05,23.22,10.54.92-1.25,1.84-2.49,2.75-3.74-32.23-18.68-58.49-42.14-76.55-72.25,2.08-.52,3.67-.43,4.17.27,40.11,55.88,103.91,81.7,168.77,106.12,6.86,2.58,11.03,1.22,9.26-6.45-2.56-11.05-8.03-19.56-21.37-23.08-13.79-3.64-27.17-8.51-40.79-12.67-29.54-9.03-55.83-23-74.97-45.09-17.01-19.63-34.84-39.55-39.22-65.32-5.04-29.64,7.21-56.28,18.85-83.98,2.67,1.59,5.14,2.25,5.84,3.62,12.05,23.28,25.73,46.08,35.07,70.22,5.61,14.48,2.17,30.67-8.54,44.22-.82,3.31-1.28,6.73-2.56,9.88-7.42,18.31,4.4,35.23,27.36,38.55.14-1.09.65-2.26.37-3.24-8.65-29.74-.98-53.62,29.67-70.57,3.73-2.06,5.62-10.96,4.15-15.63-6.11-19.44-16.23-36.92-31.32-52.67-10.16-10.61-17.61-24.06-23.15-37.28-6.95-16.6,1.17-26.74,20.84-28.04,13.1-.87,22.8-6.6,27.12-16.19,9.77-21.69,20.85-43.66,25.03-66.45,4.64-25.33,14.15-46.46,35.75-63.12,2.83-2.2,6.22-3.81,9.35-5.68-.96-1.2-1.92-2.38-2.89-3.58-16.71,3.13-32.56,8.46-46.38,18.02-13.54,9.36-17.52,21.63-13.06,36.45,1,3.33.52,7.37-.49,10.78-5.53,18.55-19.66,30.88-38.39,38.7-15.7,6.56-32.21,11.56-48.4,17.17-17.88,6.19-23.58,14.89-20.4,31.82.76,4.11,2.53,8.07,3.15,12.18,2.37,15.64,2.7,30.69-8.92,44.49-5.86,6.97-8.88,15.83-13.51,23.66-4.23,7.15-7.28,18.18-13.72,20.2-10.84,3.4-13.31,9.57-12.92,16.75.8,14.61,1.87,29.53,6.02,43.58,5.48,18.55-.06,36.29-1.42,54.31-.28,3.66-5.01,8.11-8.99,10.28-7.01,3.82-5.76,7.3-1.85,11.96,6.02,7.17,11.85,14.46,18.85,23.03-4.92-.61-8.1-1.02-11.29-1.43-.58.87-1.17,1.75-1.76,2.63,13.54,10.57,28.5,20.03,40.28,31.99,18.04,18.31,40.82,30.12,63.26,42.92,10.56,6.01,20.51,13.7,28.52,22.29,11.76,12.6,14.45,27.95,9.76,43.95-2.83,9.69-15.42,18.36-24.86,17.58.51-.59.88-1.32,1.52-1.7,14.47-8.57,17.08-15.11,12.39-29.48-4.14-12.74-14.23-5.28-21.92-5.23-12.14.05-16.62-3.57-18.27-15.81-.14-1.03-.7-2.17-1.47-2.93-7.05-6.84-14.2-13.6-23.9-22.84-1.69,7.08-5.03,12.5-3.48,16.34,3.56,8.74,8.86,17.09,14.68,24.87,5.62,7.48,12.78,14.05,19.26,21.03-20.3-8.49-31.26-23.71-39.34-41.15-2.02-4.35-4.92-8.38-7.43-12.55-1.55.55-3.09,1.11-4.64,1.66.72,3.65.32,7.91,2.33,10.85,14.09,20.61,27.95,41.41,43.47,61.16,6.36,8.08,15.93,14.79,25.49,19.99,5.69,3.1,8.28,4.88,7.01,10.87-4.07,19.17,2.81,34.91,19.17,47.79,12.69,9.99,20.05,22.17,18.65,38.04-.3,3.33,3,9.82,5.03,9.96,22.42,1.45,35.64,16.81,52.31,26.75,8.44,5.04,15.88,5.43,22.71-1.18,6.49-6.27,12.19-13.2,17.73-19.31,3.46,4.37,5.65,9.1,9.59,11.78,23.54,15.94,49.46,28.03,78.19,34.4,5.79,1.28,15.58.45,18.62-2.92,8.6-9.58,13.64-4.71,20.28,1.04,11.67,10.11,23.72,19.87,35.61,29.78.83-.57,1.66-1.14,2.49-1.71-.44-3.05-.87-6.1-.98-6.88,9.43,0,18.3.75,26.77-.54,2.1-.31,2.93-7.25,3.43-8.62-8.14-2.21-15.48-2.27-19.26-5.58-11.02-9.66-20.55-20.65-30.83-31-2.62-2.64-5.48-6.18-8.9-6.93-12.7-2.83-25.64-4.91-38.6-6.64-2.07-.27-4.68,2.68-6.86,4.05-15.18-14.38-30.37-28.79-45.58-43.2-1.02.39-2.06.78-3.08,1.17v16.74c-5.06-3.76-8.03-5.97-12.05-8.97-.78,3.06-2.24,5.38-1.49,6.42,7.55,10.51,15.46,20.81,23.28,31.17-.62.56-1.24,1.11-1.85,1.68-11.21-10.75-22.42-21.49-37.21-35.66,9.36-6.14,19.15-12.57,28.94-18.99-.9-1.26-1.79-2.52-2.69-3.78-4.18.59-8.46.82-12.51,1.83-13.81,3.42-27.42,7.55-41.34,10.57-9.18,2-17.91-.6-20.27-9.41-2.68-9.97-2.67-20.32,6.71-28.42,2.77-8.83,8.19-17.82-6.95-23.11-2.8-.98-2.65-8.7-3.94-13.61-10.54-3.33-19.5-14.55-34.39-4.25-.12-1.13-.24-2.28-.36-3.42,2.16-4.45,4.32-8.91,6.85-14.12-11.95-3.76-32.19,12.52-34.25-12.64,3.79-.89,7.57-1.79,13.22-3.12-1.29,4.78-2.1,7.75-3.76,13.88,13.05-3.11,24.31-5.8,35.61-8.48q2.32,16.18,20.51,16.39l-.16.12s.08-.04.12-.06c9.91-5.32,10.09-13.55,9.61-22.72-1.17-22.61,6.33-43.51,19.6-62.43,3-4.28,11.15-7.49,17.03-7.63,3.16-.06,8.06,7.07,9.5,11.62,3.16,9.99,4.6,20.4,6.75,30.64,1.34.27,2.69.53,4.03.8,2.31-5.99,7.01-12.17,6.45-17.95-1.2-12.21-3.67-24.67-8.35-36.15-4.72-11.58-4.82-21.57,4.24-30.72,14.97-15.15,30.47-29.89,45.48-44.54-.5,1.74-.56,4.92-2.23,7.16-7.68,10.31-14.24,21.88-24.16,30.16-16.32,13.63-20.42,28-11.18,45.82,1.06,2.06,1.51,4.37,2.62,6.4,12.22,22.26,4.96,41.45-12.82,58.02-8.24,7.68-12.55,15.18-7.92,25.22,2.03,4.39,5.48,8.26,8.29,12.36,5.22-3.77,12.38-6.63,15.19-11.51,3.94-6.86,4.42-15.26,6.79-22.9,4.9-15.76,9.66-31.88,26.25-41.55,16.16-9.42,33.56-17.42,41.31-34.73.05-.12.77-.01,2.19-.01,6.95,21.35-3.21,35.49-25.42,45.47,13.57,6.34,25.54,5.06,37.11-.34,11.98-5.59,13.34-15.41,12.61-26.34-1.17-17.36-2.38-34.77-2-52.14.43-18.97,6.67-23.04,26.88-24.04,13.82-.68,27.84-2.52,41.12-5.89,6.77-1.72,12.11-7.96,19.85-13.39-26.1-13.65-53.67-9.44-80.97-9.3,4.84-2.87,9.99-3.79,14.82-5.44,21.27-7.28,42.94-13.88,63.46-22.6Zm-351.18,214.4c-6.86-12.34.14-17.22,12.36-19.64-3.86,6.13-7.73,12.27-12.36,19.64Zm70.82-73.13c-13.66,11.6-27.59,22.95-40.03,33.21-11.31-18.26-22.07-35.66-32.85-53.04,18.19,8.37,26.02,24.7,36.95,38.65,36.28-17.21,20.44-42.13-6.47-56.6-14.67-7.9-31.95-11.9-47.94-17.89-9.47-3.54-18.73-7.52-28.08-11.31.31-.51.6-1.01.91-1.52,27.8,7.13,55.77,13.81,83.36,21.54,22.01,6.16,29.71,23.46,36.35,40.94.62,1.63-.64,4.7-2.2,6.01Zm159.49-128.14c-.98,11.74-4.45,23.31-6.83,34.95-1.37-.19-2.74-.37-4.11-.56.96-8.9,2.21-17.77,2.81-26.68,1.03-15.23-3.92-20.04-20.81-20.37-11.86-.24-23.74.18-35.59-.21-21.67-.7-32.49-11.03-26.56-29.45,9.04-28.12,21.17-55.46,31.99-83.14,1.26.3,2.52.6,3.78.92-6.8,24.3-12.66,48.85-20.71,72.82-6.57,19.56.03,30.38,22.86,31.55,10.95.56,22.02-.6,32.95.09,13.78.88,21.25,7.81,20.23,20.07Z"/>
  <path class="cls-1" d="m903.9,415.64c-2.32,2.02-3.51,5.14-5,7.86-7.43,13.43-4.32,20.47,12.28,27.94,13.97,6.3,19.19,4.83,26.82-8.91,8.16-14.69,20.99-23.43,38.91-26.37,3.92-.63,7.89-1,14.96-1.86-24.47-27.25-31.78-58.04-41.44-88.27-2.66-8.33-12.18-16.27-20.77-21.44-14.69-8.83-31.7-14.55-46.68-23.06-16.18-9.18-28.96-21.55-33.73-39.18,16.9,16.79,31.66,35.97,60.3,39.28-1.37-2.77-2.43-5.19-3.75-7.51-6.85-12.08-1.47-21.34,13.23-23.8,3.89-.65,7.35-3.34,11-5.09-3.62-3.29-6.7-8.52-10.99-9.49-10.46-2.37-21.48-2.77-32.27-3.96-.18.49-.37.99-.54,1.48,7.14,3.39,14.29,6.79,21.44,10.2-.67,1-1.33,2.01-2,3.02-7.13-2.75-14.36-5.33-21.38-8.26-25.37-10.63-39.95-30.66-36.58-50.84,2.44-14.56-2.55-25.97-15.96-34.54-25.38-16.21-45.06-36.5-57.44-62.39-7.54-15.75-21.73-25.95-39.14-32.36-5.53-2.03-11.94-2.14-17.95-3.13-.15.87-.3,1.76-.45,2.64,5.7,2.05,11.41,4.09,17.11,6.14-19.68-.84-38.83-5.7-61.53,1.51,5.91,4.26,9.14,7.79,13.28,9.32,8.59,3.16,17.81,4.92,26.47,7.93,6.16,2.13,15.96,4.53,16.94,8.28,2.52,9.76,10.78,11.55,18.16,15.52,11.68,6.26,23.7,12.45,28.14,25.31-8.59-5.25-15.62-12.52-24.43-16.99-12.59-6.39-26.23-14.49-39.86-15.2-29.17-1.52-53.03-14.09-64.27-38.41-4.82-10.43-10.64-20.73-17.85-29.95-6.76-8.64-14.62-17.39-26.17-20.18,8.48,13.61,17.26,26.4,24.55,39.82,4.77,8.8,7.17,18.6,11,27.83,9.89,23.89,20.91,30.32,49.4,30.97,15.37.35,30.69,2.14,44.75,3.18,3.97,11.14-2.53,11.94-9.1,13.52-12.64,3.01-15.3,8.04-10.68,18.53,9.2-13.9,16.8-16.17,33.24-8.82,22.9,10.24,40.43,26.08,42.45,49.11,2.29,26.21.84,52.84-1.4,79.12-1.21,14.2,1.43,23.56,16.14,30.92,21.99,11.01,31.35,29.74,21.08,50.3-9.81,19.64-24.71,37.64-39.68,54.75-10.08,11.52-13.34,13.24-2.28,24.09,16.18,15.87,34.34,30.12,51.6,45.12,13.28,11.53,29.39,21.48,39.12,35.05,20.94,29.24,10.97,62.95-33.02,69.1,7.9-8.83,19.77-17.74,24.97-29.09,5.36-11.72,5.06-25.86-2.9-39.15-6.04,16.42-16.41,27.41-36.1,28.41-16.23.83-32.6,8.85-48.77-1.84,7.64-1.55,15.37-1.59,23.1-1.54,16.78.11,32.62-3.75,44.37-14.25,5.44-4.88,9.32-14.03,8.6-20.78-.86-8-8.99-13.81-18.58-15.25-5.56,10.69-10.73,20.64-17.13,32.93,5.2-3.02,9.39-4.84,12.71-7.52,3.81-3.09,6.85-6.94,11.89-12.21-1.47,15.31-16.26,30.62-29.54,30.99-16.38.46-32.88-.41-49.25-1.54-33.34-2.32-66.62-5.41-99.97-7.66-5.74-.4-11.71,1.8-21.48,3.48,5.97,4.61,8.5,8.3,11.3,8.46,14.75.81,17.41,11.96,16.89,19.98-.83,12.91,5.82,12.51,16.26,13.31,17.56,1.34,34.94,4.6,52.39,7.05-.21,1.31-.43,2.62-.65,3.93-14.82-1.64-29.62-3.29-45.26-5.03.83,3.73,1.22,5.46,1.42,6.39-24.98,1.4-49.09,2.51-73.13,4.22-10.58.76-14.82,6.03-10.54,15.48,7.53-1.57,14.75-3.06,21.95-4.56-2.6,6.71-6.44,10.69-9.71,14.99-1.79,2.37-3.18,5.22-3.8,8.03-1.33,6.18-.35,13.28-3.45,18.51-4.18,7.03-3.2,11.68,2.3,17.16,15.56,15.48,30.88,31.18,46.22,46.85,5.74,5.86,10.48,5.07,17.18.25,12.12-8.72,25.32-16.22,38.09-24.21,2.82-1.77,5.73-3.44,9.21-5.54-18.35-15.05-39.86-9.49-59.46-11.9,33.68-10.88,62.37,4.95,92.77,13.27-25.72,4.08-51.19,7.92-68.8,27.44,1.81,1,3.62,1.99,5.41,2.98.01,0,.01.01.02.01,4.24-.97,7.89-1.74,11.05-2.25.45-.07.89-.14,1.32-.2.8-.11,1.56-.21,2.29-.28,2.4-.24,4.46-.27,6.22-.04.33.04.63.08.93.15.52.1,1.02.23,1.49.38.24.07.47.16.69.25.44.19.86.4,1.25.63h.01c.39.25.75.52,1.09.81t.01.01c.17.16.34.31.49.48.64.67,1.21,1.46,1.69,2.38.2.4.39.81.57,1.26.16.41.31.82.45,1.27.15.45.29.91.41,1.39.91,3.55,1.38,8.24,1.74,14.3.07,1.13-.31,2.49.25,3.37,1.74,2.76,3.53,7.28,5.85,7.56,3.95.48,9.09-.85,12.29-3.07,3.06-2.13,4.57-6.25,6.26-9.7,7.95-16.22,20.84-28.18,37.91-37.07,3.98-2.08,6.29-6.72,9.94-10.82,16.55-1.85,35.51-6.86,53.7-5.19,19.04,1.75,28.19-6.26,37.62-17.54,15.2-18.17,30.57-36.22,45.99-54.23,7.95-9.28,16.17-18.39,24.27-27.56-1.12-.94-2.22-1.86-3.33-2.79-23.08,17.59-41.03,41.45-71.92,49.51,8.92-7.44,18.62-13.99,27.71-21.16,2.22-1.75,2.73-5.45,3.52-8.37.83-3.09-.2-7.23,1.73-9.34,17.29-18.91,31.1-38.71,27.07-64.77-.68-4.35,1.02-8.99,1.69-13.48,2.61-17.67-4.29-26.28-23.62-29.42-4.16-.68-8.35-1.43-12.57-1.73-29.1-2.12-51.99-15.08-71.76-33.12-3.33-3.04-7.6-10.16-6.33-11.47,6.76-7.02.99-13.55.95-20.22-.05-6.54.7-13.1,1.09-19.64,3.96,12.23,5.14,24.56,9.15,36.11,4.24,12.23,15.22,19.72,29.11,24.39-11.68-24.94-26.12-48.93-11.83-75.61,1.35-.1,2.7-.21,4.05-.3v18.8c3.54-3.62,5.54-5.66,8.07-8.25-.41,19.2-8.53,38.45,11.21,55.18,4.5-5.96,7.38-11.38,11.84-15.38,15.83-14.2,18.11-46.65,3.36-61.61-2.81-2.86-7.39-4.34-11.14-6.45-2.04,3.12-4.11,6.22-6.1,9.36-1.31,2.08-2.5,4.22-3.75,6.35.75-15.95-8.09-27.21-19.39-37.5-5.35-4.87-11.05-9.48-15.95-14.69-7.62-8.11-14.71-16.63-22.03-24.97.88-.66,1.77-1.32,2.65-1.98,3.12,2.33,6.26,4.63,9.35,6.99,24.12,18.46,48.59,36.57,72.2,55.53,12.24,9.82,23.7,20.6,34.16,31.94,8.54,9.26,6.66,13.8-5.33,21.6,1.95-15.87-1.62-22.71-15.92-29.77-.34,1.99-1.07,3.83-.88,5.59,1.89,17.26-3.29,32.18-17.41,44.5Zm-137.31,225.29c-5.03-.44-10.32-.38-14.97-1.87-2.91-.93-4.83-4.31-7.19-6.59,2.72-1.38,5.35-3.81,8.18-3.99,18.1-1.15,36.27-1.66,54.38-2.68,10.1-.57,20.44-.72,30.17-2.85,12.68-2.78,23.69-3.35,32.2,9.04-33.74,11.64-68.06,11.95-102.76,8.94Z"/>
  <path class="cls-1" d="m792.25,716.77c6.84-9.96.68-17.75-4.63-26.18-22.99,7.66-21.36,31.86-37.66,44.28,7.08-2.4,14.16-4.82,23.93-8.15-4.82,11.89-11.66,16.19-23.34,15.84-19.46-.59-40.31-4.18-52.58,15.3-.09.16-.78.02-1.77.02-2.99-5.37-6.07-11-9.24-16.59-21.32-37.54-51.95-68.86-83.02-99.97-7.15-7.16-14.96-9.83-24.83-6.89-18.07,5.4-36.04,11.09-53.95,16.92-2.94.96-5.34,3.22-9.38,5.73,10.07,11.91,19.53,23.13,28.99,34.34-17.28-8.24-28.59-20.81-33.86-37.09-1.42-4.39-.97-11.4,2.09-14.24,3.14-2.91,10.51-2.88,16.04-2.91,6.29-.02,12.59,1.32,19.53,2.14-2.85-7.47-4.88-12.75-6.91-18.03,13.12,9.72,22.53,11.72,37.46,7.02,7.3-2.29,14.87-3.87,22.31-5.77.32-.91.63-1.81.95-2.73-13.85-2.35-27.69-4.7-41.54-7.07-.05-.58-.1-1.18-.14-1.77,11.49-.8,22.98-1.59,36.61-2.53-3.47-4-4.88-7.37-7.01-7.78-19.38-3.85-38.85-7.39-58.42-10.36-1.99-.3-7.22,4.35-6.8,5.5,3.3,9.08-3.34,20.92,8.77,27.65-13.44,1.44-25.14,2.67-36.81,3.91-1.48-2.07-3.1-4.35-4.73-6.63-3.02,1.75-7.32,2.89-8.79,5.38-2.69,4.55-3.78,9.86-5.41,14.9-1.39,4.27-2.61,8.58-3.9,12.89-.44.33-.82.7-1.15,1.11h0c3.53,8.21,7.05,16.42,11.12,25.92-12.44-7.38-22.36-2.62-32.85,3.01-12.3,6.6-25.54,11.78-38.21,17.87-6.8,3.26-10.01,1.01-14.37-4.15-4.76-5.64-11.67-12.9-18.32-13.52-12.57-1.15-26.03.7-38.3,3.85-5.64,1.46-14.12,10.52-12.94,13.36,2.68,6.48,9.61,14.25,16.53,15.96,9.23,2.27,9.03,5.37,8.01,11.74-3.68,23.26,12.55,40.93,38.72,42.19,9.71.47,19.77,1.4,29.13-.27,11.9-2.11,19.41,1.59,25.54,9.81,12.32,9,24.92,17.71,36.88,27.07,17.61,13.79,39.06,12.55,52.9-4.34,5.19-6.32,8.68-13.82,12.38-21.01,5.7-11.06,27.27-23.4,40.81-22.27-11.08,10.43-36.77,8.93-30.9,31.17-1.55.87-2.84,1.3-3.63,2.12-2.54,2.63-4.88,5.41-7.31,8.13,3.28.57,6.54,1.31,9.84,1.7,11.3,1.3,22.66,2.23,33.91,3.74,33.78,4.54,66.96-25.44,61.59-55.67,6.31,5.71,13.56,10.81,18.62,17.29,7.89,10.07,17.26,13.84,30.56,10.39,13.85-3.58,27.64-7.64,41.77-9.92,17.78-2.87,31.3-9.79,40-24.41,4.52-7.62,14.98-13.37,6.65-23.81-.64-.81.19-3.03,1.01-4.21Zm-257.89-93.03c.13.28-.41,1.5,0,0h0Zm-86.1,135.02c6.77-4.46,13.56-8.94,20.97-13.82,1.44,12.07-.81,13.81-20.97,13.82Zm58.13-38.9c.93,6.06,1.59,10.35,2.51,16.35-8.09-1.39-13.28-2.29-20.4-3.51,6-4.31,10.9-7.82,17.9-12.84Zm12.62,63.99c-11.7,3.96-30.75-4.07-39.29-18.12,19.71,12.5,38.5,20.31,50.01-7.99,3.21,11.32-2.3,23.27-10.71,26.11Zm14.83-39.32c4.62-4.82,8.4-10.62,13.98-14.28,16.83-11.03,17.53-12.96,5.34-28.65-.94-1.22-1.65-2.56-3.51-5.46,4.02-.95,6.66-1.57,9.29-2.2,9.83,32.14,9.43,33.05-25.1,50.58Zm116.5,4.08c-.72-.56-1.43-1.11-2.17-1.65-.36-.27-.73-.53-1.11-.78-.75-.52-1.51-1-2.31-1.44-4.01-2.2-8.43-3.79-12.68-5.65-2.06,4.31-4.83,8.47-6.04,12.95-2.73,10.18-3.6,20.85-7.44,30.63-1.95,4.94-8.72,8.38-13.3,12.49-1.36-.91-2.72-1.81-4.08-2.73,3.02-7.96,4.83-16.51,9.33-23.73,7.12-11.44,2.55-26.64,15.18-36.29.68-.51-2.76-6.72-5.53-9.16-9.31-8.18-18.64-16.48-29.04-23.44-5.72-3.83-13.61-5.09-21.41-7.81,1.64-4.59,3.37-11.22,11.11-5.95.86.58,1.72,1.17,2.58,1.76.86.58,1.71,1.17,2.57,1.76,1.72,1.18,3.43,2.35,5.14,3.54.85.59,1.7,1.19,2.55,1.78,5.87,4.11,11.67,8.29,17.29,12.64.87.68,1.74,1.35,2.6,2.03,2.44,1.91,4.83,3.86,7.17,5.85.79.67,1.56,1.32,2.32,1.99.77.67,1.53,1.33,2.29,2.02.57.5,1.13,1.01,1.68,1.51.35.31.69.62,1.03.94,1.25,1.17,2.49,2.33,3.69,3.51.73.7,1.44,1.4,2.15,2.12,1.52,1.53,3.03,3.08,4.49,4.67.47.5.93,1.01,1.39,1.53,2.81,3.11,5.5,6.33,8.03,9.68.6.79,1.2,1.59,1.78,2.39,1.19,1.62,2.33,3.28,3.44,4.97-.92-.69-1.82-1.4-2.72-2.11Z"/>
  <path class="cls-1" d="m496.64,118.28c-6.91,45.27-28.76,85.22-55.77,123.23-8.4,11.83-17.08,23.57-26.66,34.63-5.06,5.84-12.33,10.13-18.6,15.13-1.25-.96-2.51-1.92-3.76-2.88,9.64-16.49,19.28-32.97,28.93-49.47-.83-.5-1.66-1.01-2.49-1.51-8.55,10.47-17.12,20.93-25.67,31.39-1.36-.36-2.71-.73-4.07-1.09.68-7.94-.55-16.49,2.37-23.7,10.62-26.24,20.91-52.78,34.55-77.81,16.84-30.91,36.87-60.44,55.65-90.51,1.37-2.19,3.77-3.86,7.47-7.55,9.75,17.28,10.59,33.56,8.05,50.15Z"/>
  <path class="cls-1" d="m238.17,646.55h.07s.03-.04.05-.06c.01-.02.02-.04.04-.06l-.16.12Zm111.21,90.77c-.74-3.59-3.57-7.09-6.3-10.06-5.14-5.58-11.85-10.19-15.98-16.25-4.33-6.37-8.43-9.97-17.19-7.61-7.09,1.91-14.45,3.06-23.33,4.88,1.73-26.45,4.52-51.13,4.62-75.81.08-24.75-2.53-49.52-4.09-76.72-7.72,4.41-13.17,5.8-15.09,8.92-13.25,21.47-23.14,43.98-19.94,69.18,1.55,12.14.8,13.33-13.81,12.69-1.58,2.13-3.15,4.26-4.72,6.39,1.04-.17,2.09-.32,3.14-.49,1.93,4.71,3.83,9.44,5.81,14.14.83,1.99,1.29,4.41,2.84,5.79,13.54,11.93,13.71,14.38.61,26.41-1.25,4.79-3.94,9.73-3.34,14.33.64,4.98,3.17,12.57,7.01,13.83,7.27,2.38,16.39,2.46,24.15.98,16.1-3.05,31.8-7.73,48.69-12.01,1.15,3.37,2.04,6.5,3.27,9.51,1.97,4.82,3.24,10.22,6.62,14.13,2.32,2.69,7.63,4.15,11.75,4.4,1.71.11,5.69-4.64,5.29-6.63Zm-74.35-158.61c1.5.44,3,.87,4.49,1.31-3.24,8.22-6.5,16.43-9.75,24.65-1.13-.31-2.25-.61-3.37-.93,2.88-8.34,5.75-16.69,8.63-25.03Zm5.9,77.99c-1.3.63-2.59,1.27-3.89,1.89-3.16-5.74-6.33-11.49-10.87-19.71,10.31,5.31,15.93,9.86,14.76,17.81Z"/>
  <path class="cls-1" d="m462.6,671.93c-9.46,6.37-19.8,8.3-30.87,2.87-7.43-3.64-14.76-7.55-22.51-10.52-7.09-2.72-14.71-4.34-22.11-6.43-.37.91-.74,1.81-1.11,2.71,7.19,2.97,14.47,5.77,21.56,8.93,4.5,2,9.08,4.12,12.98,6.9,4.32,3.09,11.49,6.6,4.38,12.43-5.43,4.45-10.99,8.76-19.37,1.23-7.65-6.88-18.21-11.18-27.94-16.87,4.47-.83,9.68-1.8,14.88-2.78-.12-1.42-.26-2.83-.38-4.25-9.91.61-20.75-.78-29.42,2.47-7.1,2.65-15.33,7.31-21.76,9.83-11.37,4.47-26.61,1.55-40.11.56-1.4-.1-4.52-9.73-2.57-11.97,3.47-3.99,9.91-6.88,15.67-8.06,8.34-1.73,17.17-1.53,25.8-2.15-.03-1.24-.06-2.49-.08-3.72-4.66-.28-9.31-.55-14.94-.88,5.27-18.29,10.35-35.86,15.41-53.41l3.25,1.12c-1.59,25.69,8.58,34.27,37.95,35.9,13.01.73,25.9,5.23,38.52,8.92,13.58,3.96,26.85,8.81,40.1,13.62,3.16,1.14,7.75,3.4,8.04,5.55.34,2.49-2.67,6.19-5.37,8.01Z"/>
  <path class="cls-1" d="m552.26,265.92c-5.35,37.04-32.16,60.46-62.4,81.22-9.37,6.42-19.65,16.14-35.94,8.95,8.38-6.45,15.63-12.04,22.88-17.63-.85-.95-1.69-1.89-2.54-2.83-11.8,7.07-23.6,14.13-37.42,22.41-.71-5.36-1.07-8.11-1.43-10.86,1.04-.75,2.08-1.5,3.12-2.24,0-.01.01-.01.01-.01h.01c1.71-2.28,3.6-4.49,5.5-6.71.74-.85,1.46-1.72,2.18-2.57.86-1.02,1.7-2.05,2.51-3.09.19-.26.39-.51.58-.77.42-.55.83-1.11,1.23-1.68.32-.47.63-.93.94-1.39,1.22-1.87,2.27-3.8,3.05-5.81,3.57-9.2,8.37-15.86,17.93-20.63,19.58-9.78,38.6-20.46,58.13-30.32,6.34-3.2,13.57-5.02,21.66-6.05Z"/>
  <path class="cls-1" d="m518.29,200.68c-5.08,3.19-9.18,5.1-12.31,7.86-22.64,19.92-44.88,40.19-67.66,59.97-12.22,10.61-14.69,23.84-16.31,38.75,4.06-.8,6.83-1.35,9.52-1.89-3.74,4.13-7.49,8.27-12.6,13.9,13.89.68,23.95-.62,32.79-7.98,23.48-19.54,43.58-41.46,57.8-67.16,7.08-12.81,14.97-26.2,8.78-43.44Zm-54.4,75.33c-.51.54-1.01,1.09-1.5,1.65-.32.35-.62.7-.93,1.05-1.61,1.82-3.15,3.68-4.72,5.55-.39.47-.78.93-1.17,1.39-.99,1.19-2,2.36-3.03,3.53-.62.71-1.25,1.42-1.89,2.1-.51.56-1.04,1.12-1.58,1.66-1.36,1.42-2.79,2.78-4.3,4.07-.2.18-.41.35-.61.52-.48.42-.98.82-1.49,1.21-.2.17-.41.32-.61.48-.39.3-.79.59-1.2.87-.32.24-.64.46-.98.68-.41.28-.82.55-1.25.81-.4.26-.81.5-1.23.75-.02.01-.04.02-.06.03-.31.18-.61.36-.93.53-.06.04-.13.08-.2.1-.21.12-.43.24-.64.34-.43.23-.86.45-1.3.66-.64.32-1.32.62-2.01.92,9.78-11.23,19.58-22.45,29.36-33.69,1.32,1.01,2.64,2.02,3.96,3.03-.57.58-1.14,1.17-1.68,1.76Z"/>
  <path class="cls-1" d="m110.77,371.2s.01-.05.02-.08c.03-.03.06-.05.09-.08l-.11.17Z"/>
  <path class="cls-1" d="m114.79,351.12c-.63,6.71-2.62,13.34-4,20-4.07,3.45-8.15,6.91-12.22,10.36-4.11-4.51-9.36-8.52-12.12-13.62-9.27-17.17-10.47-35.52-7.12-54.28-1.04-.19-2.1-.37-3.15-.56-1.23,5.77-2.98,11.51-3.55,17.33-.62,6.21-.14,12.52-1.99,18.82-8.08-14.03-6.12-28.91-4.04-43.44,1.34-9.29,4.94-18.4,8.27-27.37,1.17-3.13,4.53-5.63,6.89-8.41,2.65,2.65,6.4,4.95,7.67,8.06,1.66,4.02,1.35,8.68,1.89,13.15,25.14,14.31,25.64,36.79,23.46,59.94Z"/>
  <path class="cls-1" d="m528.39,356.73c-11.28,18.97-26.29,35.16-45.86,47.79-2.05,1.32-4.48,3.33-6.57,3.18-4.6-.33-9.1-1.84-13.64-2.86,2-2.86,3.85-5.8,6.05-8.53,1.12-1.4,2.83-2.42,4.29-3.62-.4-.78-.8-1.56-1.19-2.34-11.85,4.43-23.7,8.88-35.55,13.31-.81-1.33-1.62-2.65-2.41-3.97,22.12-14.74,31.55-42.89,64.99-45.95,7.65-.7,14.75-5.72,22.44-6.83,7.42-1.07,11.57,2.91,7.46,9.82Z"/>
  <path class="cls-1" d="m738.92,733.18c-.72.88-1.43,1.76-2.15,2.64-6.43-.93-12.84-1.85-18-2.6-5.51,3.52-10.79,6.9-15.9,10.16-17.39-14.79-16.43-27.75,1.93-39.05,10.03-6.17,14.92-4.47,17.98,6.11,2.59,8.97-.86,21.04,16.14,22.75Z"/>
  <path class="cls-1" d="m467.43,623.81h0c-2.02,1.7-4.04,2.83-6.1,3.55-5.83,2.04-11.96.75-19.16-1.01-12.11-2.95-25.38-2.37-38.17-2.75-5.2-.15-10.45,1.2-17.57,2.1,11.73-12.23,12.2-12.28,48.48-8.43,6.69-3.83,11.34-8.74,15.43-8.39,9.04.77,17.06,4.83,17.08,14.92Z"/>
  <path class="cls-1" d="m467.43,623.88v-.05c.05-.04.1-.08.15-.12l-.15.18Z"/>
  <path class="cls-1" d="m447.16,780.78s-.04,0-.06.01c-.04-.04-.07-.09-.11-.14l.17.12Z"/>
  <path class="cls-1" d="m460.58,809.58c-5.08-.28-10.58.42-15.09-1.16-4.01-1.38-8.34-4.74-10.01-8.21-2.65-5.48-3.19-11.78-4.63-17.73,5.41-.57,10.83-1.14,16.24-1.7,4.27,5.08,9.44,9.76,12.42,15.38,2,3.77.82,8.9,1.06,13.41Z"/>
  <path class="cls-1" d="m461.91,644.53c-3.42,1.97-7.83,6.28-10.11,5.53-14.17-4.74-27.87-10.61-41.73-16.12.73-1.73,1.44-3.45,2.16-5.18,4.84.35,9.76.3,14.49,1.14,9.07,1.61,18.28,3.1,26.89,5.94,3.49,1.15,5.58,5.69,8.3,8.69Z"/>
  <path class="cls-1" d="m698.46,695.51c-2.29,3.13-4.57,6.27-6.91,9.47-2.33,3.19-4.71,6.46-7.16,9.84-9.65-9.46-7.12-14.39,8.64-22.3,1.81,1,3.62,1.99,5.41,2.98.01,0,.01.01.02.01Z"/>
  <path class="cls-1" d="m467.58,623.7s-.01.07-.01.11c-.05.02-.09.04-.14.06l.15-.18Z"/>
  <path class="cls-1" d="m476.2,619.79c-.68,11.84-1.32,22.97-1.96,34.12-.44.33-.82.7-1.15,1.11h0c-.92-.71-1.74-1.44-2.45-2.17-8.38-8.65-3.81-19.11-3.07-29.03,2.82-1.31,5.65-2.63,8.63-4.03Z"/>
  <path class="cls-1" d="m133.24,578.88c-4.34,2.46-10.05,2.99-16.28,1.74,4.56-3.62,9.13-7.24,16.56-13.14,0,5.15,1.41,10.46-.28,11.4Z"/>
  <path class="cls-2" d="m238.17,646.55l.16-.12s-.03.04-.04.06c-.02.02-.04.04-.05.06h-.07Z"/>
  <path class="cls-2" d="m245.94,698.78c-.05.05-.1.09-.15.15t.01-.02c.05-.04.09-.08.14-.12Z"/>
  <path class="cls-2" d="m650.34,748.6c.9.71,1.8,1.43,2.72,2.11-.92-.68-1.82-1.39-2.72-2.11Z"/>
  <path class="cls-2" d="m653.58,751.11l-.16.12c-.11-.17-.23-.34-.34-.51.16.14.33.26.5.38Z"/>
  <path class="cls-2" d="m431.74,305.14c.17-.07.35-.15.51-.22-.11.12-.21.25-.33.37l-.18-.16Z"/>
</svg>