<?xml version="1.0" encoding="UTF-8"?>
<svg id="Layer_1" data-name="Layer 1" xmlns="http://www.w3.org/2000/svg" viewBox="0 0 401 526.05">
  <defs>
    <style>
      .cls-1 {
        stroke-width: 0px;
      }

      .cls-2 {
        stroke: #231f20;
        stroke-miterlimit: 10;
      }
    </style>
  </defs>
  <g id="Layer_3" data-name="Layer 3">
    <g>
      <path class="cls-2" d="m11.81,320.47c.58.57,1.21.92,1.82,1.36-1.04,2.25-4.14,2.74-5.61.88-1.53-1.93-2.39-6.51-1.82-9.87.18-1.08.51-2.04.7-3.12.16-.92.21-1.93.32-3.02,1.83.95,2.3,2.21,2.02,5.64-.26,3.19.7,6.29,2.58,8.13h0Z"/>
      <path class="cls-2" d="m382.42,357.45c-.97.79-1.88,1.37-2.67,2.21-.94,1-1.73,2.35-2.67,3.34-1.86,1.96-4.29,2.47-6.37,1.66-1.2-.46-2.28-1.37-3.06-2.68-.19-.33-.37-.7-.53-1.12-1.57-4.02-1.68-11.89-.05-15.47.56,1.55,1.03,3.22,1.69,4.66.64,1.4,1.37,2.5,2.15,3.31.72.76,1.5,1.25,2.28,1.48,1.18.34,2.41.08,3.6-.8,3.06-2.27,4.32-1.46,5.64,3.41h0Z"/>
      <path class="cls-2" d="m393.9,312.84c.58,3.36-.28,7.94-1.81,9.87-1.48,1.86-4.58,1.37-5.62-.88.61-.44,1.24-.79,1.82-1.36,1.88-1.84,2.84-4.94,2.58-8.13-.28-3.43.19-4.69,2.02-5.64.11,1.1.16,2.1.32,3.02.19,1.08.51,2.03.7,3.12h0Z"/>
      <path class="cls-2" d="m101.56,505.71c-2.07,11.07-6.98,17.79-13.8,18.02-6.24.22-11.92-6.78-14.39-18.46,9.86,13.57,18.88,12.24,22.27-2.16-2.28.96-4.76,1.99-7.24,3.02-.12-.51-.25-1.01-.38-1.51,5.24-7.35,7.6-16.81,7.98-27.72,4.95,3.1,7.36,19.14,5.56,28.82h0Z"/>
      <path class="cls-1" d="m49.17,387.35c-.23.78-.51,1.45-.83,1.99-2.14,3.59-6.52,4.12-9.44,1.03-.94-.99-1.73-2.35-2.67-3.35-.79-.85-1.7-1.42-2.67-2.21,1.31-4.87,2.58-5.68,5.64-3.41,1.98,1.47,4.06,1.21,5.86-.65.79-.81,1.52-1.93,2.17-3.34.66-1.44,1.13-3.1,1.69-4.66,1.52,3.34,1.53,10.4.26,14.6h0Z"/>
      <path class="cls-2" d="m368.22,38.46c9.24-2.18,17.71.9,25.65,7.28,2.39,1.92,4.6,4.31,6.63,7.1V.5H.5v57.97c2.9-5.28,6.31-9.63,10.18-12.73,7.95-6.38,16.42-9.45,25.66-7.28,2.5.59,3.48,2.58,3.9,6.56.96,9.36-.8,16.63-4.9,21.83-2.53,3.21-5.31,5.92-8.12,8.42-5.82,5.19-6.76,8.37-5.45,20.01.1.94.2,1.87.39,3.67-6.96-6.5-10.13-15.98-10.66-29.44-7.13,17.14-4.2,33.78,6.83,42.28,9.65,7.43,19.26,6.02,28.75,2.71,5.19-1.81,10.22-4.54,15.4-6.42,9.46-3.42,15.75,1.85,20.18,17.47,6.63,23.34,6.43,46.44,1.58,69.25-.73-4.64-1.35-9.32-2.21-13.91-3.12-16.51-11.03-25.55-20.46-21.77-9.5,3.8-18.68,9.31-28,14.07-.44.23-.87.49-1.31.71-12.97,6.06-23.58,2.89-31.76-14.18v108.74c2.18-4.86,5.48-8.61,9.67-10.24-1.16,4.51-2.55,8.85-3.4,13.45-1.52,8.27.34,14.88,4.64,19.52,2.09,2.25,4.39,4.17,6.74,5.6,10.97,6.69,15.61,20.54,16.64,38.51.36,6.24.15,12.59.72,18.77.84,9.11,4.06,13.78,7.76,12.21,3.19-1.35,4.69-8.81,3.33-16.69-.17-1-.44-1.96-.67-2.93.24-.4.49-.8.74-1.2,1.52,2.45,3.33,4.58,4.5,7.41,3.24,7.85,3.8,16.69,3.22,25.7-.02.06-.04.13-.06.2-1.02,3.69-1.86,7.21-2.54,10.6-1,5.04-1.62,9.76-1.88,14.18-1.22,20.75,5.56,34.87,18.22,45.39.43.35.88.65,1.32.99,9.25,7.26,18.73,13.87,27.7,21.98,8.9,8.05,11.04,23.03,6.22,37.66-1.34,4.06-2.91,7.91-4.38,11.85,13.7-9.92,23.95-25.26,29.05-48.43.54-2.45.93-4.78,1.17-7,22.33,12.66,46.32,19.54,71.29,19.54,29.32,0,57.28-9.49,82.79-26.66-.28,3.8-.04,8.04.7,12.8,3.7,23.87,12.98,40.76,26.02,52.8-1.22-4.16-2.56-8.24-3.65-12.5-3.92-15.32-.9-29.89,8.43-36.49,9.41-6.65,19.24-11.73,28.88-17.49.45-.28.92-.5,1.37-.79,17.92-11.46,25.49-31.22,17.92-67.64-1.13-5.42-2.66-10.53-4.53-15.27-.35-.9-.72-1.79-1.1-2.66-.87-1.59-1.66-3.25-2.38-5.01-3.52-8.57-5.19-19.06-5.48-30.96-.24-9.89.71-19.45,4.7-27.37,1.33-2.64,3.26-4.47,4.92-6.66.22.44.44.87.67,1.31-.28.93-.61,1.84-.84,2.81-1.82,7.62-.78,15.27,2.32,17.13,3.58,2.15,7.07-1.99,8.44-10.92.94-6.05,1.11-12.41,1.84-18.56,2.09-17.72,7.54-30.77,18.86-35.69,2.42-1.06,4.82-2.59,7.04-4.51,1.18-1.02,2.22-2.21,3.07-3.54v-83.62c-7.62,11.46-17.04,13.09-28.21,7.87-.44-.21-.87-.47-1.31-.71-9.32-4.76-18.51-10.27-28.01-14.07-9.42-3.78-17.34,5.26-20.45,21.77-.87,4.58-1.48,9.27-2.21,13.91-4.85-22.8-5.05-45.91,1.58-69.25,4.44-15.61,10.72-20.89,20.19-17.47,5.18,1.87,10.22,4.61,15.4,6.42,9.49,3.31,19.09,4.7,28.74-2.71,11.04-8.49,13.96-25.14,6.84-42.28-.54,13.46-3.7,22.94-10.66,29.44.19-1.79.29-2.73.39-3.67,1.31-11.64.37-14.82-5.45-20.01-2.81-2.5-5.59-5.21-8.12-8.42-4.11-5.2-5.87-12.48-4.9-21.83.41-3.97,1.39-5.96,3.9-6.56h0ZM59.33,105.77c-2.04.93-4.46-.03-6.76-1.43,3.84-2.09,7.67-4.29,11.54-6.24,4.58-2.3,8.64-.39,12.57,7.43-6.43-3.63-11.88-2.25-17.35.24h0Zm18.42,103.3c-4.07,7.12-10.94,8.03-17.72,1.73,12.54-.47,17.98-11.53,13.92-26.46-1.1,3.28-2.3,6.83-3.5,10.39-.31-.25-.61-.49-.92-.75.27-11.52-2.32-21.48-6.86-30.34,4.66-3.11,13.33,6.63,16.38,16.11,3.49,10.86,3.16,21.53-1.29,29.32h0Zm247.76-29.32c3.04-9.49,11.71-19.23,16.38-16.11-4.55,8.86-7.14,18.82-6.87,30.34-.3.26-.61.5-.92.75-1.2-3.55-2.4-7.11-3.5-10.39-4.06,14.92,1.37,25.99,13.92,26.46-6.78,6.3-13.65,5.39-17.72-1.73-4.45-7.78-4.78-18.45-1.28-29.32h0Zm19.71-73.98c-5.47-2.5-10.92-3.86-17.35-.24,3.93-7.82,7.98-9.74,12.57-7.43,3.88,1.95,7.7,4.15,11.54,6.24-2.3,1.4-4.72,2.37-6.76,1.43h0Z"/>
    </g>
  </g>
</svg>