<?xml version="1.0" encoding="UTF-8"?>
<svg xmlns="http://www.w3.org/2000/svg" viewBox="0 0 1001 823.93">
  <defs>
    <style>
      .cls-1, .cls-2 {
        stroke-width: 0px;
      }

      .cls-3, .cls-4 {
        stroke: #231f20;
        stroke-miterlimit: 10;
      }

      .cls-4 {
        fill: #231f20;
      }

      .cls-2 {
        fill: #fff;
      }
    </style>
  </defs>
  <g id="Layer_1" data-name="Layer 1">
    <path class="cls-3" d="m840.48,798.07c-7.89,17.51-23.08,26.98-38.59,25.13-16.95-2.02-28.15-13.64-31.61-31.3-3.02-15.44,5.4-39.74,18.18-43.35-.73,17.02,3.71,32.27,15.65,44.94-.39.76-.78,1.51-1.17,2.26-6-2.21-12.01-4.41-17.54-6.44,6.27,23.15,28.51,27.4,55.08,8.76Z"/>
    <path class="cls-3" d="m919.79,59.65c23.09-3.39,44.27,1.4,64.13,11.34,5.97,2.99,11.51,6.71,16.58,11.07V.5H.5v90.33c7.24-8.22,15.78-15,25.44-19.83,19.87-9.94,41.05-14.73,64.14-11.34,6.26.92,8.71,4.02,9.74,10.22,2.41,14.58-2,25.92-12.26,34.02-6.32,5-13.27,9.22-20.29,13.12-14.54,8.08-16.9,13.05-13.62,31.18.26,1.46.5,2.92.98,5.72-17.4-10.13-25.33-24.9-26.66-45.88-17.82,26.71-10.51,52.64,17.08,65.88,24.13,11.57,48.15,9.38,71.87,4.23,12.97-2.82,25.56-7.08,38.51-10,23.66-5.33,39.38,2.88,50.46,27.22,16.57,36.37,16.07,72.36,3.96,107.9-1.83-7.23-3.37-14.53-5.53-21.67-7.79-25.73-27.58-39.82-51.14-33.93-23.74,5.92-46.71,14.51-70.01,21.93-1.1.36-2.18.77-3.28,1.1-32.42,9.45-58.96,4.5-79.39-22.1v169.44c5.46-7.58,13.7-13.41,24.18-15.96-2.9,7.03-6.37,13.79-8.49,20.96-3.79,12.89.86,23.19,11.61,30.42,5.23,3.51,10.97,6.5,16.85,8.73,27.43,10.42,39.03,32.01,41.6,60,.89,9.73.38,19.62,1.8,29.24,2.1,14.2,10.16,21.47,19.39,19.02,7.98-2.11,11.72-13.73,8.32-26-.43-1.56-1.11-3.05-1.67-4.57.61-.62,1.23-1.25,1.85-1.87,3.8,3.82,8.33,7.13,11.25,11.55,8.09,12.23,9.5,26,8.06,40.04-.06.1-.1.21-.15.31-2.55,5.75-4.66,11.24-6.34,16.51-2.5,7.86-4.05,15.21-4.7,22.09-3.04,32.34,13.9,54.34,45.55,70.72,1.07.55,2.2,1.02,3.29,1.55,23.13,11.32,46.82,21.62,69.24,34.25,22.25,12.54,27.59,35.88,15.54,58.68-3.34,6.33-7.28,12.32-10.95,18.47,34.24-15.46,59.87-39.36,72.63-75.47,1.35-3.82,2.32-7.45,2.92-10.91,55.82,19.73,115.79,30.44,178.22,30.44,73.3,0,143.21-14.78,206.98-41.54-.69,5.92-.09,12.53,1.75,19.95,9.24,37.2,32.46,63.52,65.06,82.28-3.06-6.48-6.41-12.84-9.13-19.47-9.81-23.87-2.26-46.58,21.08-56.86,23.52-10.36,48.09-18.28,72.2-27.26,1.13-.43,2.3-.78,3.42-1.23,44.81-17.85,63.73-48.64,44.81-105.39-2.82-8.45-6.65-16.41-11.33-23.79-.88-1.41-1.8-2.79-2.76-4.15-2.18-2.47-4.16-5.07-5.94-7.8-8.79-13.36-12.97-29.7-13.69-48.24-.6-15.41,1.77-30.31,11.76-42.65,3.32-4.11,8.16-6.96,12.3-10.38.56.68,1.11,1.36,1.67,2.04-.71,1.45-1.53,2.87-2.11,4.38-4.55,11.88-1.94,23.8,5.8,26.7,8.96,3.35,17.67-3.1,21.11-17.01,2.34-9.43,2.78-19.34,4.6-28.92,5.23-27.61,18.84-47.95,47.14-55.62,6.06-1.65,12.06-4.04,17.6-7.03,2.96-1.59,5.54-3.44,7.68-5.52v-130.3c-19.04,17.85-42.6,20.4-70.52,12.26-1.11-.32-2.18-.74-3.28-1.1-23.31-7.42-46.28-16.01-70.02-21.93-23.56-5.89-43.34,8.2-51.13,33.93-2.17,7.14-3.7,14.44-5.53,21.67-12.12-35.53-12.62-71.53,3.95-107.9,11.09-24.33,26.81-32.55,50.47-27.22,12.95,2.92,25.54,7.18,38.51,10,23.72,5.15,47.73,7.33,71.86-4.23,27.6-13.23,34.91-39.17,17.09-65.88-1.34,20.98-9.26,35.75-26.66,45.88.48-2.79.72-4.25.98-5.72,3.28-18.13.92-23.09-13.62-31.18-7.03-3.9-13.97-8.12-20.29-13.12-10.27-8.1-14.67-19.44-12.26-34.02,1.02-6.19,3.47-9.29,9.74-10.22ZM147.57,164.53c-5.11,1.45-11.15-.05-16.91-2.23,9.61-3.25,19.17-6.68,28.86-9.72,11.46-3.59,21.6-.6,31.42,11.58-16.08-5.65-29.7-3.51-43.37.38Zm46.05,160.96c-10.18,11.09-27.35,12.51-44.3,2.69,31.36-.73,44.95-17.97,34.79-41.23-2.76,5.11-5.76,10.65-8.75,16.19-.77-.39-1.53-.77-2.3-1.17.68-17.95-5.79-33.47-17.16-47.27,11.66-4.84,33.32,10.33,40.94,25.11,8.72,16.93,7.91,33.55-3.22,45.68Zm619.41-45.68c7.61-14.79,29.27-29.96,40.94-25.11-11.38,13.8-17.84,29.32-17.17,47.27-.76.4-1.52.78-2.29,1.17-3-5.53-5.99-11.08-8.75-16.19-10.16,23.25,3.43,40.5,34.79,41.23-16.95,9.82-34.12,8.4-44.31-2.69-11.13-12.13-11.94-28.75-3.21-45.68Zm49.27-115.28c-13.67-3.89-27.29-6.02-43.37-.38,9.82-12.18,19.95-15.17,31.42-11.58,9.69,3.04,19.24,6.47,28.86,9.72-5.76,2.18-11.81,3.69-16.91,2.23Z"/>
    <path class="cls-4" d="m892.58,582.4c-2.18-2.43-4.16-4.99-5.94-7.68,2.09,2.47,4.08,5.03,5.94,7.68Z"/>
    <path class="cls-4" d="m895.93,585.87c-.19.21-.38.41-.59.62-.88-1.39-1.8-2.75-2.76-4.09,1.07,1.19,2.18,2.35,3.35,3.47Z"/>
    <path class="cls-2" d="m892.58,582.4c-2.18-2.43-4.16-4.99-5.94-7.68,2.09,2.47,4.08,5.03,5.94,7.68Z"/>
    <path class="cls-1" d="m892.58,582.4c-2.18-2.43-4.16-4.99-5.94-7.68,2.09,2.47,4.08,5.03,5.94,7.68Z"/>
  </g>
  <g id="Layer_3" data-name="Layer 3">
    <g>
      <path class="cls-3" d="m28.78,499.09c1.46.89,3.03,1.43,4.54,2.12-2.6,3.51-10.35,4.27-14.03,1.37-3.83-3.01-5.97-10.14-4.54-15.38.46-1.69,1.28-3.18,1.74-4.86.4-1.43.53-3,.8-4.71,4.57,1.48,5.74,3.45,5.04,8.79-.65,4.97,1.76,9.8,6.45,12.67Z"/>
      <path class="cls-3" d="m955.3,556.71c-2.42,1.23-4.69,2.13-6.68,3.45-2.35,1.56-4.33,3.66-6.68,5.21-4.64,3.06-10.73,3.85-15.93,2.58-3-.72-5.71-2.13-7.66-4.18-.48-.51-.93-1.09-1.33-1.74-3.92-6.27-4.19-18.52-.12-24.11,1.39,2.42,2.57,5.02,4.22,7.26,1.61,2.18,3.42,3.9,5.37,5.16,1.81,1.18,3.74,1.95,5.71,2.3,2.96.53,6.03.13,9.01-1.25,7.64-3.53,10.81-2.27,14.09,5.32Z"/>
      <path class="cls-3" d="m983.99,487.2c1.44,5.24-.71,12.37-4.53,15.38-3.69,2.9-11.44,2.14-14.04-1.37,1.52-.69,3.09-1.23,4.54-2.12,4.7-2.87,7.1-7.7,6.45-12.67-.69-5.34.47-7.31,5.04-8.79.28,1.71.4,3.28.8,4.71.47,1.68,1.28,3.17,1.74,4.86Z"/>
      <path class="cls-3" d="m253.16,787.72c-5.17,17.25-17.44,27.72-34.51,28.08-15.61.34-29.81-10.56-35.97-28.76,24.64,21.14,47.19,19.07,55.68-3.37-5.71,1.49-11.9,3.1-18.09,4.71-.31-.79-.63-1.57-.94-2.36,13.11-11.45,19.01-26.2,19.94-43.2,12.38,4.83,18.39,29.83,13.89,44.9Z"/>
      <path class="cls-1" d="m122.17,603.29c-.58,1.21-1.28,2.26-2.08,3.1-5.35,5.6-16.29,6.42-23.6,1.61-2.35-1.55-4.33-3.66-6.68-5.22-1.98-1.32-4.25-2.22-6.68-3.45,3.28-7.59,6.45-8.85,14.09-5.32,4.95,2.29,10.15,1.89,14.66-1.01,1.97-1.26,3.8-3,5.43-5.2,1.66-2.24,2.83-4.83,4.22-7.26,3.79,5.21,3.82,16.21.64,22.75Z"/>
      <path class="cls-3" d="m919.79,59.65c23.09-3.39,44.27,1.4,64.13,11.34,5.97,2.99,11.51,6.71,16.58,11.07V.5H.5v90.33c7.24-8.22,15.78-15,25.44-19.83,19.87-9.94,41.05-14.73,64.14-11.34,6.26.92,8.71,4.02,9.74,10.22,2.41,14.58-2,25.92-12.26,34.02-6.32,5-13.27,9.22-20.29,13.12-14.54,8.08-16.9,13.05-13.62,31.18.26,1.46.5,2.92.98,5.72-17.4-10.13-25.33-24.9-26.66-45.88-17.82,26.71-10.51,52.64,17.08,65.88,24.13,11.57,48.15,9.38,71.87,4.23,12.97-2.82,25.56-7.08,38.51-10,23.66-5.33,39.38,2.88,50.46,27.22,16.57,36.37,16.07,72.36,3.96,107.9-1.83-7.23-3.37-14.53-5.53-21.67-7.79-25.73-27.58-39.82-51.14-33.93-23.74,5.92-46.71,14.51-70.01,21.93-1.1.36-2.18.77-3.28,1.1-32.42,9.45-58.96,4.5-79.39-22.1v169.44c5.46-7.58,13.7-13.41,24.18-15.96-2.9,7.03-6.37,13.79-8.49,20.96-3.79,12.89.86,23.19,11.61,30.42,5.23,3.51,10.97,6.5,16.85,8.73,27.43,10.42,39.03,32.01,41.6,60,.89,9.73.38,19.62,1.8,29.24,2.1,14.2,10.16,21.47,19.39,19.02,7.98-2.11,11.72-13.73,8.32-26-.43-1.56-1.11-3.05-1.67-4.57.61-.62,1.23-1.25,1.85-1.87,3.8,3.82,8.33,7.13,11.25,11.55,8.09,12.23,9.5,26,8.06,40.04-.06.1-.1.21-.15.31-2.55,5.75-4.66,11.24-6.34,16.51-2.5,7.86-4.05,15.21-4.7,22.09-3.04,32.34,13.9,54.34,45.55,70.72,1.07.55,2.2,1.02,3.29,1.55,23.13,11.32,46.82,21.62,69.24,34.25,22.25,12.54,27.59,35.88,15.54,58.68-3.34,6.33-7.28,12.32-10.95,18.47,34.24-15.46,59.87-39.36,72.63-75.47,1.35-3.82,2.32-7.45,2.92-10.91,55.82,19.73,115.79,30.44,178.22,30.44,73.3,0,143.21-14.78,206.98-41.54-.69,5.92-.09,12.53,1.75,19.95,9.24,37.2,32.46,63.52,65.06,82.28-3.06-6.48-6.41-12.84-9.13-19.47-9.81-23.87-2.26-46.58,21.08-56.86,23.52-10.36,48.09-18.28,72.2-27.26,1.13-.43,2.3-.78,3.42-1.23,44.81-17.85,63.73-48.64,44.81-105.39-2.82-8.45-6.65-16.41-11.33-23.79-.88-1.41-1.8-2.79-2.76-4.15-2.18-2.47-4.16-5.07-5.94-7.8-8.79-13.36-12.97-29.7-13.69-48.24-.6-15.41,1.77-30.31,11.76-42.65,3.32-4.11,8.16-6.96,12.3-10.38.56.68,1.11,1.36,1.67,2.04-.71,1.45-1.53,2.87-2.11,4.38-4.55,11.88-1.94,23.8,5.8,26.7,8.96,3.35,17.67-3.1,21.11-17.01,2.34-9.43,2.78-19.34,4.6-28.92,5.23-27.61,18.84-47.95,47.14-55.62,6.06-1.65,12.06-4.04,17.6-7.03,2.96-1.59,5.54-3.44,7.68-5.52v-130.3c-19.04,17.85-42.6,20.4-70.52,12.26-1.11-.32-2.18-.74-3.28-1.1-23.31-7.42-46.28-16.01-70.02-21.93-23.56-5.89-43.34,8.2-51.13,33.93-2.17,7.14-3.7,14.44-5.53,21.67-12.12-35.53-12.62-71.53,3.95-107.9,11.09-24.33,26.81-32.55,50.47-27.22,12.95,2.92,25.54,7.18,38.51,10,23.72,5.15,47.73,7.33,71.86-4.23,27.6-13.23,34.91-39.17,17.09-65.88-1.34,20.98-9.26,35.75-26.66,45.88.48-2.79.72-4.25.98-5.72,3.28-18.13.92-23.09-13.62-31.18-7.03-3.9-13.97-8.12-20.29-13.12-10.27-8.1-14.67-19.44-12.26-34.02,1.02-6.19,3.47-9.29,9.74-10.22ZM147.57,164.53c-5.11,1.45-11.15-.05-16.91-2.23,9.61-3.25,19.17-6.68,28.86-9.72,11.46-3.59,21.6-.6,31.42,11.58-16.08-5.65-29.7-3.51-43.37.38Zm46.05,160.96c-10.18,11.09-27.35,12.51-44.3,2.69,31.36-.73,44.95-17.97,34.79-41.23-2.76,5.11-5.76,10.65-8.75,16.19-.77-.39-1.53-.77-2.3-1.17.68-17.95-5.79-33.47-17.16-47.27,11.66-4.84,33.32,10.33,40.94,25.11,8.72,16.93,7.91,33.55-3.22,45.68Zm619.41-45.68c7.61-14.79,29.27-29.96,40.94-25.11-11.38,13.8-17.84,29.32-17.17,47.27-.76.4-1.52.78-2.29,1.17-3-5.53-5.99-11.08-8.75-16.19-10.16,23.25,3.43,40.5,34.79,41.23-16.95,9.82-34.12,8.4-44.31-2.69-11.13-12.13-11.94-28.75-3.21-45.68Zm49.27-115.28c-13.67-3.89-27.29-6.02-43.37-.38,9.82-12.18,19.95-15.17,31.42-11.58,9.69,3.04,19.24,6.47,28.86,9.72-5.76,2.18-11.81,3.69-16.91,2.23Z"/>
    </g>
  </g>
</svg>