<?xml version="1.0" encoding="UTF-8"?>
<svg id="layout" xmlns="http://www.w3.org/2000/svg" viewBox="0 0 1000 1000">
  <defs>
    <style>
      .cls-1, .cls-2 {
        stroke-width: 0px;
      }

      .cls-2 {
        fill: #fff;
      }
    </style>
  </defs>
  <g>
    <path class="cls-2" d="m184.39,406.32c-5.62,3.95-11.26,7.89-16.9,11.82,5.66-3.93,11.35-7.87,17.01-11.85-.04,0-.07,0-.11.03Z"/>
    <path class="cls-1" d="m274.33,464.83h.01s0,0,0,0h-.01Zm-.82-.14s-.01.01-.01.01h.43c-.14-.01-.28-.01-.42-.01Zm-85.2,20.36h0s.01,0,.01,0h-.01Zm86.02-20.22h.01s0,0,0,0h-.01Zm-.82-.14c-.06,0-.11,0-.17.01h.59c-.14-.01-.28-.01-.42-.01Zm-1.27.11h-.02s-.03.01-.05.01c-.08.01-.15.03-.23.06.07-.02.14-.03.21-.04.05,0,.1-.02.16-.03h.01s.03-.01.05-.01c-.04,0-.09,0-.13.01Zm2.1.04h-.01s.01,0,.01,0Zm-1-.14h.59c-.14-.01-.28-.01-.42-.01-.06,0-.11,0-.17.01Zm-1.12.1s-.03.01-.05.01c-.08.01-.15.03-.23.06.07-.02.14-.03.21-.04.05,0,.1-.02.16-.03h.01s.03-.01.05-.01c.01-.01.03-.01.04-.01-.06,0-.11.01-.17.02h-.02Zm-1.42.48s-.1.06-.15.1c.09-.06.18-.11.29-.16-.02,0-.03.01-.04.01-.03.02-.07.04-.1.05Zm622.86-97.57c-39.62-8.78-79.19-13.96-119.51-6.17-13.64,2.6-28.31,1.07-42.01-1.97-26.59-5.94-52.87-13.94-79.17-21.7-11.57-3.4-22.8-8.42-34.25-12.42-6.09-2.14-12.28-4.11-18.5-5.52-21.21-4.82-42.5-9.02-63.67-14.17-6.31-1.57-10.67-5.73-13.08-15.5-5.37-21.88-13.03-42.86-20.25-65.81-1.24,7.71-2.21,13.71-3.65,22.6-.84-9-1.4-14.79-2.31-24.36-6.66,21.64-13.32,38.89-17.2,57.12-3.77,17.74-11.62,26.99-25.48,29.45-2.13.37-4.23,1.19-6.31,1.84-31.26,9.82-63.85,9.96-94.64,24.36-19.04,8.91-39.93,11.79-60.16,16.29-19.06,4.27-38.25,8.74-57.51,10.06-14.99,1.02-30.28-4.8-45.26-3.81-28.39,1.89-56.69,6.14-84.95,10.09-14.4,2-28.66,5.54-43,8.39-.32,1.67-.63,3.35-.96,5.05,8.96,6.11,17.42,15.24,26.96,17.77,18.96,4.99,38.45,7.26,57.82,8.83,12.54,1.01,25.2-1.04,37.82-1.81-5.62,3.95-11.26,7.89-16.9,11.82-6.76,4.74-13.55,9.46-20.34,14.18.09.76.16,1.53.25,2.3h52.69c.04.74.09,1.47.13,2.22-12.97,9.16-25.92,18.32-41.22,29.12h22.05c-12.89,24.3-25.29,46.73-46.98,57.95,15.25,1.26,29.94,1.7,44.59.93,3.43-.16,7.01-3.97,10.03-6.91,8.82-8.67,17.4-17.71,26.08-26.63.63.77,1.28,1.51,1.91,2.28-1.3,5.51-2.58,11.02-4.21,17.96,15.51-.49,30.49,1.04,39.21-18.51,6.68,29.92-14.29,39.57-26.93,60.14,14.09-4.99,24.87-9.16,35.82-12.62,10.93-3.45,23.43-2.71,30.26-19.25.36,6.09.71,12.15,1.29,21.77,10.05-10.55,18.68-19.63,27.59-28.98.31,12.15,5.31,8.8,11.13,2.22.75,1.01,1.49,2.03,2.25,3.04-4.33,16.4-8.7,32.81-13.06,49.2,7.86-7.26,14.88-15.05,18.72-24.84,4.77-12.12,11.62-6.48,17.5-5.32,1.54.3,2.15,9.02,3.04,13.93.58,3.15.87,6.41,1.3,9.65,1.09.25,2.19.52,3.27.76,5.55-20.64,11.09-41.29,16.62-61.89,5.55,10.91,9.97,19.64,15.29,30.06,7.21-14.67,14.12-28.66,21.03-42.67.52.36,1.06.74,1.61,1.1-.72,5.21-1.46,10.39-2.46,17.38,10.22-10.28,11.13-28.82,27.17-29.94,6.41-.45,15.75-9.57,17.47-24.16,1.15-9.82,7.93-18.6,12.96-29.48,3.17,30.46-1.47,57.12-19.14,74.83-15.6,15.63-23.62,35.52-30.8,57.24,12.34-1.59,12.3-1.59,11.82,15.69-.18,6.63-.02,13.26-.02,21.08,4.34-3.15,8.21-5.98,13.68-9.95v43.05c7.31-5.79,13.84-10.94,18.99-15.02,8.9,12.83,17.47,25.17,27.55,39.7.65-5.51,1.02-7.21,1.04-8.91.15-17.36.09-34.71.5-52.05.04-2.33,2.23-4.61,3.43-6.88.73,2.19,1.86,4.3,2.13,6.61.36,3.12.08,6.36.08,9.56v48.24c1.13.39,2.25.74,3.38,1.13,8.56-12.51,17.13-25.01,25.73-37.58,5.67,4.53,12.16,9.71,19.49,15.58v-42.88c5.64,3.95,9.26,6.49,14.33,10.06-.48-8.23-.78-14.45-1.19-20.65-1.22-18.29-1.04-18.54,11.95-16.75-7.13-21.75-15.36-41.5-30.84-57.19-17.29-17.43-22.4-43.41-18.73-75.35,5.76,14.28,11.66,24.9,14.41,36.72,3,12.88,14.79,20.16,18.26,19.2,10.53-2.96,10.82,6.72,14.51,12.36,3.11,4.75,5.77,9.95,8.61,14.95.5-.31,1-.63,1.48-.93-1.02-5.6-2.06-11.17-3.08-16.76.63-.28,1.26-.55,1.88-.85,7.03,14.39,14.03,28.79,21.3,43.66,5.4-10.81,9.81-19.61,15.22-30.44,5.71,21.17,11.21,41.68,16.75,62.19q5.94-18.34,17.63-29.45c4.12,6.28,8.24,12.59,12.4,18.87,4.1,6.14,8.24,12.23,12.39,18.34-.68-18.81-13.04-32.44-8.32-53.2,6.86,9.66,9.01,2.66,10.33-2.82,8.78,9.11,17.37,17.99,27.48,28.46.54-9.71.84-15.35,1.19-21.77,13.14,14.34,13.16,14.21,33.18,20.21,6.31,1.87,12.45,4.66,18.69,6.91,3.5,1.26,7.06,2.3,10.61,3.43-5.4-10.73-13.32-17.25-17.98-26.41-4.56-9-5.79-20.71-8.35-30.66,8.67,5.73,15.66,12.75,23.49,15.03,17.17,5.02,17.73,3.59,14.57-20.16,10,10.23,18.48,19.01,27.06,27.62,2.79,2.8,5.73,7.23,8.7,7.37,15.27.77,30.56.36,45.84.36-21.24-12.69-33.52-34.94-46.36-59.51h20.43c-13.55-10.33-26.35-20.1-39.12-29.86h53.28c.05-1.43.06-2.85.11-4.31-6.5-3.75-13.14-7.18-19.47-11.37-6.25-4.12-12.18-8.97-20.13-14.89,33.44,6.08,63.84,4.54,94.06-3.9,11.77-3.29,22.07-9.98,30.23-24.43-15.58-3.1-30.11-5.74-44.55-8.94Zm-745.75,7.41h0c-.09.26-.19.52-.28.79-.38,1.08-.75,2.29-1.12,3.44-.19.58-.37,1.15-.57,1.69-.14.41-.28.81-.43,1.17-.03.12-.09.24-.14.36-.33.81-.67,1.49-1.02,1.92-.05.06-.1.12-.15.16-.2.21-.4.32-.6.33-2.34.11-4.68.2-7.03.27-.8.03-1.61.05-2.42.07-.29,0-.59,0-.89.02-.61.01-1.21.03-1.81.04-1.7.03-3.39.06-5.07.08-1.74.03-3.47.04-5.2.04-5.48.03-10.96,0-16.43-.01t-.02,0s-.01.01-.02,0c-.08.01-.17.01-.25,0-3.67-.02-7.34-.04-11.01-.04.11-.39.21-.78.32-1.18,5.96-1.72,11.91-3.46,17.86-5.19,1.98-.57,3.97-1.15,5.96-1.71,3.97-1.14,7.94-2.26,11.92-3.36,3.97-1.1,7.96-2.17,11.94-3.2.73-.2,1.54.07,2.37.55.26.13.52.31.79.49.26.18.53.38.79.58.14.09.27.2.41.3.8.6,1.6,1.23,2.38,1.67-.05.12-.1.24-.14.36-.05.11-.09.23-.13.36h-.01Zm40.28,110.23s-.02.04-.03.06c-.03.07-.07.14-.12.2-.06.09-.25.02-.43-.03-.07-.02-.14-.04-.2-.06.21-.11.42-.22.63-.33.09-.05.18-.1.27-.14h0c-.03.11-.07.21-.12.3Zm.57-.63s0,.02-.01.02c-.02.04-.04.07-.06.12h-.03c-.06.03-.12.07-.17.1-.06.03-.11.06-.17.08.06-.15.11-.3.17-.45h0s.07-.04.1-.07c.11-.06.23-.13.34-.2-.01.06-.03.11-.05.16-.04.09-.08.17-.12.24Zm38.46-28.55c-.07.57-.19,1.1-.35,1.62,0,0-.01.01-.01.02-.08.27-.17.53-.28.78-.09.26-.2.52-.34.76-.11.25-.24.48-.38.72h-.01c-.14.25-.29.49-.46.71-.13.21-.28.4-.44.6-.56.71-1.23,1.38-2.01,2.01-.16.14-.32.26-.48.38-.29.23-.59.45-.91.66-.17.12-.35.24-.54.36-.48.3-.99.6-1.52.89-1.98,1.07-3.94,2.19-5.89,3.33-.98.57-1.95,1.14-2.93,1.73-.96.58-1.93,1.17-2.9,1.76-.97.59-1.93,1.19-2.9,1.8-.96.59-1.93,1.2-2.89,1.81-1.94,1.2-3.84,2.44-5.77,3.65-1.28.81-2.57,1.62-3.86,2.43-1.13.71-2.25,1.42-3.38,2.09.03-.08.08-.16.11-.24.52-1.07,1.01-2.16,1.49-3.28.16-.38.33-.75.48-1.13.23-.52.45-1.06.67-1.59.51-1.24,1.02-2.49,1.56-3.7.45-1.04.9-2.07,1.37-3.07.13-.28.27-.56.4-.83.35-.72.71-1.42,1.08-2.09.16-.31.33-.61.51-.91.26-.47.54-.91.83-1.36.07-.1.14-.2.21-.31.42-.62.83-1.21,1.28-1.77t0-.01c.15-.18.3-.37.46-.55.07-.1.15-.19.22-.27.11-.14.24-.27.36-.39.11-.13.23-.26.37-.38.25-.25.5-.5.75-.74h0s.01-.01.01-.01c.51-.5,1.03-.97,1.55-1.42.26-.22.53-.45.8-.68,1.62-1.33,3.3-2.55,5.04-3.72.19-.14.39-.26.58-.38.39-.25.78-.51,1.17-.75.59-.37,1.18-.74,1.78-1.1.6-.36,1.2-.72,1.8-1.08,1.08-.63,2.17-1.25,3.26-1.87,2.72-1.57,5.47-3.13,8.16-4.86.01,0,.01-.01.02-.01,1.7,4.05,2.37,7.48,1.93,10.39Zm51.65,48.92c-.07.35-.15.69-.25,1.01-.22.74-.5,1.39-.84,2-.44.76-.98,1.46-1.66,2.14-1.63,1.64-4.04,3.22-7.59,5.5,0-9.7,0-19.54,0-29.42,0-2.9-.01-5.81-.02-8.73,0-.45-.01-.92-.03-1.4-.03-.95-.08-1.93-.11-2.89-.06-1.53-.06-3.02.17-4.31.02-.07.03-.14.04-.21.07-.33.15-.66.25-.96.12-.35.26-.69.42-.99.05-.09.1-.18.16-.26.1-.14.2-.29.32-.43h.01c.07-.09.14-.16.21-.22.03-.04.07-.08.11-.11.03-.03.06-.06.09-.08.07-.06.15-.12.23-.18.01-.01.02-.01.03-.02h0c.05-.05.1-.08.16-.11.02-.01.03-.02.05-.03.01-.01.02-.01.03-.01.09-.06.18-.11.29-.16,0,0,0-.01.01-.01.01,0,.03,0,.04-.02,0,0,0-.01.01-.01.03-.01.06-.02.09-.03.04-.03.09-.04.13-.06.02,0,.04-.02.06-.02.02-.01.05-.02.08-.03.03-.03.08-.04.12-.05.03-.02.07-.03.1-.03.09-.03.18-.06.27-.08.02,0,.03-.01.05-.01t.02-.01h.01s.01.01.01.01c.07-.02.14-.03.21-.04.05,0,.1-.02.16-.03h.01s.03-.01.05-.01c.01-.01.03-.01.04-.01h.01s.02-.02.03-.02c0,0,.01,0,.02,0h.01s0,0,.01,0c.01,0,.01-.02.02,0,.01-.01.02-.01.03-.01.02-.01.04-.01.06-.01.09-.01.17-.01.26-.02.15-.02.32-.02.48-.02h.59s.06,0,.09,0c.01,0,.03,0,.05.01s.04.01.07.02c.03.01.06.02.09.04.02,0,.05.01.08.04h.02s.01.02.01.02c0,0,0-.01,0,0,.04.02.08.05.13.09.02,0,.03.02.05.03,0,0,0,0,.02.02.01,0,.02.01.03.02.06.05.13.11.2.18.09.1.17.2.25.31.1.12.19.25.28.38.12.18.25.38.36.6.12.21.24.44.36.68.35.72.7,1.56,1.01,2.45.05.13.09.26.14.39.08.23.15.46.23.69.04.12.08.24.12.36,0,.05.03.1.04.14t.01.01c.02.07.04.15.07.23.03.1.06.21.09.32.01.05.03.09.04.13.03.1.06.19.08.28,0,0,.01.01.01.02.04.11.07.22.1.32.02.09.04.17.07.26.01.05.02.1.03.14.02.04.03.08.03.11.05.2.1.4.15.59h.01c.03.14.06.26.09.39.05.21.1.42.14.63.05.24.1.47.15.7.03.17.06.34.09.5.06.36.11.72.17,1.09.1.72.18,1.44.23,2.17,0,.02.01.04,0,.04.09,1.09.14,2.18.17,3.28.01.04.01.07,0,.1.02.8.02,1.6.02,2.41s0,1.6-.01,2.41c-.02,1.61-.04,3.22,0,4.83.11,6.24.17,10.13-.44,12.95Zm198.24-2.41c0,.34-.01.69-.02,1.02-.01.34-.03.66-.05.98,0,.16-.02.3-.03.45-.01.24-.03.47-.05.7-.01.13-.02.25-.04.38-.04.5-.1.99-.16,1.47-.04.27-.07.54-.12.81-.04.3-.1.6-.15.9-.06.34-.13.69-.21,1.02-.08.38-.17.76-.27,1.12-.03.1-.05.19-.08.29-.05.17-.09.34-.15.51-.05.18-.11.35-.17.53-.04.12-.07.23-.12.34-.11.3-.21.6-.33.9-.16.38-.32.75-.49,1.11-.35.73-.73,1.42-1.16,2.08-.1.16-.21.32-.33.48-.11.16-.22.32-.34.48-.15.19-.3.39-.44.57-.59.71-1.25,1.39-1.96,2.03-.28.23-.56.48-.85.7-.4.31-.8.61-1.23.89-.21.15-.44.29-.67.43-.49.31-1.02.61-1.56.89-.55.28-1.13.57-1.71.83-.9.4-1.85.77-2.85,1.1-.33.12-.68.24-1.02.35-2.55.79-5.43,1.46-8.7,2.03,1.04-1.25,2.07-2.49,3.12-3.74,1.04-1.25,2.09-2.5,3.12-3.76,2.09-2.51,4.17-5.01,6.28-7.53,2.09-2.52,4.2-5.04,6.3-7.58,2.11-2.54,4.23-5.08,6.37-7.63.02.47.05.94.06,1.39.03,1.2.04,2.35.01,3.46Zm11.94,74.5c-.08.56-.16,1.11-.23,1.66-.1.68-.2,1.35-.29,2.01-.09.57-.17,1.14-.25,1.7-.2,1.39-.39,2.73-.58,4.04-.09.66-.19,1.3-.28,1.95-.64,4.5-1.23,8.66-1.82,12.73-.16,1.17-.33,2.32-.49,3.48h-.01c-.44.05-.88.1-1.32.15-.44.05-.88.1-1.33.15-1-9.1-2.22-18.17-2.61-27.3,0-.04,0-.09.04-.13.01-.02.02-.06.05-.1.02-.02.05-.05.08-.08.21-.21.62-.42,1.15-.65.17-.06.35-.14.55-.21.37-.16.8-.3,1.25-.46.48-.16.98-.35,1.5-.52.08-.03.16-.06.24-.09.18-.06.37-.13.56-.19.55-.19,1.11-.38,1.67-.57.15-.05.3-.11.44-.17.14-.05.29-.1.43-.15.43-.16.86-.32,1.29-.48.15-.07.3-.12.45-.18-.16,1.16-.33,2.3-.49,3.41Zm31.44,6.78c-.03.85-.09,1.71-.18,2.56-.04.45-.09.91-.14,1.36-.05.39-.09.8-.15,1.2-.06.43-.12.85-.19,1.28-.1.66-.21,1.31-.33,1.97-.11.62-.23,1.23-.35,1.85-.32,1.69-.67,3.4-1.04,5.09-.35,1.69-.7,3.39-1.01,5.09h0c-.27-.06-.54-.14-.81-.2-.29-.08-.58-.15-.87-.22-.24-.06-.49-.12-.75-.18h0c-.33-2.51-.73-5-1.11-7.49-.09-.58-.18-1.17-.26-1.75-.1-.66-.19-1.32-.29-1.99-.1-.83-.21-1.66-.31-2.49h0c-.1-.83-.18-1.67-.27-2.5-.07-.83-.13-1.67-.18-2.51-.01-.42-.03-.84-.05-1.26,0-.05-.01-.11-.01-.17,0-.17.01-.34.03-.51.02-.19.03-.36.07-.53.03-.15.05-.3.09-.45,0-.03.01-.07.03-.09.04-.18.09-.35.14-.52.22-.71.53-1.41.87-2.12.17-.35.35-.71.53-1.06.37-.71.74-1.42,1.08-2.14.17-.34.32-.69.47-1.04.05.08.1.17.17.26.17.27.36.54.55.82.13.18.26.36.39.54.02.03.04.06.05.08.12.16.24.31.36.48.15.2.3.39.45.6.15.21.32.42.47.64.48.63.93,1.26,1.32,1.88.07.1.13.2.18.3.1.14.17.27.24.41.1.18.19.36.27.54.13.27.24.53.32.81.05.18.1.35.13.53.07.31.1.62.09.92h0Zm6.03-81.59c3.21,3.79,6.36,7.49,9.46,11.14l6.17,7.26c2.05,2.4,4.08,4.81,6.11,7.2h-.01c-.46-.08-.92-.16-1.36-.24-.24-.04-.47-.08-.7-.13-.31-.05-.61-.1-.91-.17-.08-.01-.15-.03-.23-.04-.07-.02-.15-.03-.23-.05-.21-.04-.42-.09-.63-.13-.22-.05-.45-.1-.67-.15-.27-.05-.55-.12-.81-.19-.8-.19-1.56-.39-2.3-.61-.43-.12-.87-.25-1.29-.39-.38-.11-.74-.24-1.1-.37-.21-.07-.42-.15-.62-.23-.28-.1-.54-.2-.79-.31-.16-.06-.31-.12-.46-.19-.02,0-.04,0-.06-.03-.15-.05-.31-.13-.46-.19-.04-.02-.07-.03-.11-.05-.14-.07-.28-.13-.42-.19-.2-.09-.4-.19-.59-.29-.19-.09-.38-.19-.56-.29-.2-.1-.39-.2-.58-.32-.19-.1-.37-.21-.54-.32-.01.01-.02,0-.03-.01-.2-.11-.41-.25-.61-.38-.58-.38-1.13-.77-1.64-1.18-.11-.08-.22-.17-.32-.27-.05-.03-.1-.07-.14-.11-.15-.12-.29-.26-.44-.39-.08-.07-.15-.14-.22-.21-.23-.2-.47-.44-.67-.65-.24-.26-.48-.52-.7-.79-.22-.25-.42-.52-.62-.78-.3-.41-.58-.81-.84-1.25,0,0,0-.01,0-.01-.13-.19-.24-.39-.35-.6,0,0-.01,0-.02-.02-.15-.27-.29-.54-.42-.81-.02-.04-.05-.1-.07-.14-.16-.33-.31-.66-.44-.99-.16-.35-.28-.69-.41-1.05-.01-.02-.01-.04-.02-.05-.13-.34-.24-.69-.34-1.06-.11-.37-.22-.75-.31-1.14-.21-.78-.37-1.59-.5-2.44-.14-.85-.24-1.72-.32-2.64-.03-.46-.07-.92-.1-1.4-.11-1.9-.11-3.95,0-6.15t0,.02c.27.31.54.63.81.94.82.95,1.62,1.9,2.42,2.84Zm205.53-3.09c-.02,2.86-.05,5.71-.07,8.56-.02,2.84-.04,5.68-.04,8.52-.22-.09-.44-.19-.66-.29-.14-.06-.29-.12-.43-.19-.26-.12-.5-.25-.75-.38-.11-.06-.24-.12-.37-.2-.24-.12-.49-.27-.72-.41-.26-.16-.5-.31-.75-.47-.09-.06-.18-.12-.26-.18-.2-.14-.4-.28-.59-.44-.3-.22-.6-.46-.89-.71-.27-.23-.52-.47-.76-.71s-.49-.49-.73-.75c0-.01-.01-.01-.01-.02-.24-.26-.47-.54-.69-.82-.15-.19-.3-.39-.45-.59-.29-.4-.57-.82-.82-1.26-.14-.22-.27-.45-.38-.67-.09-.17-.18-.33-.26-.5-.12-.25-.24-.51-.36-.77s-.23-.53-.33-.8c-.09-.21-.17-.41-.24-.63-.09-.26-.18-.54-.26-.81-.1-.31-.19-.62-.27-.95-.08-.25-.14-.52-.19-.8-.1-.4-.19-.83-.25-1.26-.07-.42-.13-.85-.19-1.28-.03-.32-.07-.64-.1-.99-.04-.57-.08-1.17-.1-1.77-.05-1.9.05-3.94.32-6.13.24-1.96.36-3.95.44-5.95.04-1,.07-2.01.09-3,.03-1,.05-2,.08-3.01.02-.8.06-1.6.1-2.39.1-1.59.22-3.17.44-4.74.03-.19.05-.37.1-.55.02-.12.04-.23.08-.33.03-.12.05-.23.09-.35.06-.19.12-.37.18-.55.06-.15.12-.31.18-.46.14-.34.29-.66.47-.99.25-.52.54-1.03.84-1.54.22-.38.46-.77.69-1.15.23-.38.47-.77.69-1.15.1-.15.18-.32.27-.47.16-.27.3-.54.44-.82h.01c.26.4.55.81.85,1.22h0c.27.37.55.73.84,1.08.28.37.58.74.88,1.1.2.25.4.5.6.75.43.55.85,1.1,1.23,1.66.14.2.26.41.39.62.12.18.23.36.33.55.11.22.23.45.33.69.07.15.14.3.19.46.06.16.12.32.16.48,0,.02.01.03.01.04.04.14.08.28.1.41.07.27.1.54.11.83.42,8.4.44,16.84.39,25.26Zm69.29-35.34c.2.19.4.38.59.58.57.56,1.12,1.14,1.65,1.74.33.36.65.75.96,1.13.08.09.15.18.22.27.28.35.56.7.83,1.08.16.21.33.44.48.67.21.29.41.58.6.87.18.27.35.54.51.81.2.31.39.62.58.95.11.2.23.41.34.61.12.21.24.41.34.62.16.3.32.61.47.92.14.29.29.59.42.89.16.34.31.67.45,1.02.11.24.22.5.32.76.08.21.16.42.25.62.17.43.32.87.48,1.33.11.33.23.67.34,1.02.13.4.25.81.37,1.22.06.24.14.47.2.72.07.24.14.49.2.74.09.35.18.71.26,1.07.22.9.41,1.84.59,2.81h0c-1.7-1.12-3.39-2.21-5.05-3.3-1.46-.94-2.91-1.87-4.34-2.8-3.22-2.07-6.39-4.1-9.49-6.14-1.04-.67-2.07-1.35-3.09-2.03-1.17-.78-2.33-1.56-3.48-2.33-.57-.39-1.15-.78-1.72-1.18-.78-.54-1.55-1.07-2.32-1.61-.77-.54-1.53-1.08-2.29-1.63-.36-.26-.72-.52-1.09-.79-.37-.26-.73-.54-1.09-.81-1.3-.95-2.59-1.92-3.87-2.91-.32-.26-.58-.65-.78-1.16-.02-.08-.06-.18-.09-.26-.03-.09-.05-.18-.08-.27-.05-.17-.11-.35-.14-.55-.04-.17-.08-.35-.1-.53-.02-.12-.05-.25-.07-.38-.02-.13-.03-.27-.05-.4-.03-.18-.05-.35-.07-.53-.04-.37-.07-.77-.1-1.19-.01-.18-.02-.37-.03-.56-.01-.17-.02-.33-.03-.5-.03-.71-.06-1.45-.09-2.24-.01-.26-.02-.54-.03-.82-.01-.48-.02-.97-.04-1.46-.01-.25-.02-.5-.03-.76-.04-1.53-.11-3.14-.22-4.8-.03-.57-.08-1.13-.13-1.7-.02-.28-.05-.56-.07-.84.29.34.6.67.91,1,.69.73,1.4,1.44,2.11,2.11.33.3.65.6.99.9.19.17.39.35.59.52.33.3.68.59,1.02.88.03,0,.05.04.07.06.49.4.98.8,1.48,1.18,1.23.97,2.49,1.87,3.75,2.74.51.35,1,.7,1.51,1.03.51.35,1.01.68,1.51,1.01,1.77,1.17,3.53,2.29,5.26,3.43.39.25.77.52,1.16.78.35.24.68.46,1.03.7.48.33.96.67,1.44,1.01.47.35.93.69,1.4,1.04h.01c.46.36.92.72,1.38,1.09.29.24.58.47.87.72.27.23.55.47.82.71.42.36.82.73,1.22,1.12Zm81.01-78.54c-2.43,0-4.86,0-7.28-.04-2.6-.03-5.19-.06-7.78-.13-.97-.02-1.93-.05-2.9-.07-.42-.01-.83-.02-1.24-.04-.7-.02-1.41-.05-2.11-.07-.11,0-.22-.01-.32-.01-.17,0-.35-.01-.52-.02-.46-.02-.91-.04-1.37-.06-.94-.03-1.88-.08-2.82-.12-.04,0-.07-.01-.11-.02-.02,0-.04-.01-.06-.02-.11-.05-.23-.16-.34-.3-.05-.06-.09-.12-.12-.18-.06-.07-.09-.14-.13-.21-.12-.2-.22-.44-.33-.71-.03-.09-.07-.18-.11-.28-.02-.05-.04-.11-.06-.16-.04-.13-.09-.26-.14-.4-.04-.14-.09-.3-.14-.46-.04-.08-.06-.17-.08-.25-.1-.34-.2-.69-.3-1.06-.15-.51-.28-1.05-.42-1.6-.15-.6-.3-1.21-.46-1.82-.08-.34-.16-.69-.25-1.02-.29-1.09-.56-2.14-.85-3.02.12-.05.26-.11.39-.16.12-.06.25-.12.38-.18.24-.13.49-.26.75-.4.25-.14.51-.28.77-.43.25-.14.5-.29.76-.42.04-.02.09-.04.13-.07.21-.1.43-.21.64-.31.25-.12.5-.23.74-.32.13-.04.25-.09.37-.12.13-.04.25-.07.36-.09.12-.02.23-.04.34-.05.04-.01.06-.01.08-.01h.01s.01,0,.02,0h.01c.31-.03.61,0,.91.06,2,.53,4,1.05,6.01,1.6,4,1.06,7.98,2.16,11.98,3.28,2,.55,3.99,1.12,5.98,1.69,4,1.13,7.98,2.26,11.97,3.4,3.98,1.14,7.97,2.29,11.96,3.42.14.24.27.49.41.73.08.14.15.28.22.42-8.33,0-16.64.06-24.95.03Zm-611.45,79.83s-.07.04-.1.05c-.05.03-.1.06-.15.1.09-.06.18-.11.29-.16-.02,0-.03.01-.04.01Zm1.34-.43h-.02s-.03.01-.05.01c-.08.01-.15.03-.23.06.07-.02.14-.03.21-.04.05,0,.1-.02.16-.03h.01s.03-.01.05-.01c-.04,0-.09,0-.13.01Zm1.27-.11c-.06,0-.11,0-.17.01h.59c-.14-.01-.28-.01-.42-.01Zm.82.14h.01s0,0,0,0h-.01Zm-.82-.14s-.01.01-.01.01h.43c-.14-.01-.28-.01-.42-.01Zm.82.14h.01s0,0,0,0h-.01Z"/>
    <path class="cls-2" d="m188.93,484.32s.02,0,.03-.03c-.02.06-.05.12-.08.18h0c-.04.09-.07.17-.12.24,0,0,0,.02,0,.02-.02.05-.04.08-.06.13h0c-.04-.05-.19-.27-.19-.27.04-.02.07-.05.11-.07.11-.06.23-.14.34-.2Z"/>
    <path class="cls-2" d="m188.97,484.28c1.13-.69,2.26-1.39,3.38-2.08-1.13.71-2.26,1.41-3.4,2.1t0-.02h0Z"/>
    <path class="cls-2" d="m197.67,465.78s0,0,0,0c-.07.1-.14.2-.21.31.07-.1.14-.2.2-.3Z"/>
    <path class="cls-2" d="m198.96,464c-.44.56-.86,1.15-1.28,1.78.4-.62.82-1.22,1.28-1.78Z"/>
    <path class="cls-2" d="m198.96,463.99c.22-.29.45-.56.69-.82-.07.08-.15.17-.23.27-.15.18-.31.37-.46.55Z"/>
    <path class="cls-2" d="m200.37,462.39c1-1.01,2.04-1.95,3.12-2.83-1.07.9-2.12,1.84-3.12,2.84h0Z"/>
    <path class="cls-2" d="m203.48,459.55c1.61-1.35,3.3-2.57,5.04-3.72-1.74,1.17-3.42,2.39-5.04,3.72Z"/>
    <path class="cls-2" d="m772.81,441.91c.03.28.05.56.07.84-.03-.28-.05-.56-.08-.85h0Z"/>
    <path class="cls-2" d="m268.83,467.82c.11-.35.25-.69.43-.99-.16.3-.31.63-.43.99Z"/>
    <path class="cls-2" d="m273.92,464.69c.27,0,.56.19.86.5-.29-.3-.58-.47-.85-.48-2.03-.09-3.34.46-4.18,1.42.83-.97,2.15-1.52,4.18-1.44Z"/>
    <path class="cls-2" d="m278.9,476.9c-.05-.36-.11-.72-.17-1.09-.32-1.81-.94-4.15-1.68-6.21.75,2.06,1.38,4.41,1.69,6.22.06.35.12.72.16,1.08Z"/>
    <path class="cls-2" d="m279.3,482.39c-.03-1.1-.08-2.19-.16-3.28.09,1.09.14,2.18.16,3.28Z"/>
    <path class="cls-2" d="m279.31,487.31c0-1.61.03-3.22,0-4.82.04,1.6.03,3.21,0,4.82Z"/>
    <path class="cls-2" d="m732.05,499.28c-.04,5.71-.1,11.41-.1,17.08h0c0-5.67.07-11.38.11-17.08Z"/>
    <path class="cls-2" d="m856.01,384.84c3.76.17,7.52.3,11.28.39-3.76-.08-7.52-.2-11.28-.38-.04,0-.07,0-.12-.03.04,0,.07.02.11.02Z"/>
    <path class="cls-2" d="m907.32,385.37h-.02c-.07-.14-.14-.28-.22-.42.08.14.15.28.24.42Z"/>
    <path class="cls-2" d="m93.45,385.45c3.67,0,7.34.02,11,.04-3.67,0-7.34-.03-11-.03h0Z"/>
    <path class="cls-2" d="m111.63,379.08c-5.95,1.73-11.9,3.47-17.86,5.19v-.02c5.95-1.71,11.9-3.45,17.86-5.17Z"/>
    <path class="cls-2" d="m121.18,385.5c-5.48.03-10.95,0-16.43-.02,5.47.02,10.95.05,16.43.02Z"/>
    <path class="cls-2" d="m148.2,374.4c-.19.46-.38.97-.57,1.51.19-.54.37-1.05.56-1.51h0Z"/>
    <path class="cls-2" d="m451.85,528.07c3.26-.57,6.15-1.24,8.69-2.04-2.55.82-5.44,1.49-8.7,2.05h0s0,0,0,0Z"/>
    <path class="cls-2" d="m523.29,498.57c1.09,1.28,2.16,2.54,3.22,3.8-1.07-1.25-2.15-2.52-3.22-3.79v-.02Z"/>
    <path class="cls-2" d="m545.28,527.43c-.15-.03-.31-.06-.46-.09-.44-.09-.88-.18-1.3-.28.58.14,1.16.26,1.77.37Z"/>
    <path class="cls-2" d="m482.45,605.05c.89-.11,1.77-.19,2.65-.3h0c-.88.11-1.77.2-2.65.3Z"/>
    <path class="cls-2" d="m481.16,576.79c1.4-.61,3.76-1.33,6.21-2.21-.14.06-.3.12-.44.17-.56.19-1.12.38-1.67.57-.28.08-.54.19-.81.27-.52.17-1.01.36-1.49.53-.45.16-.89.3-1.26.46-.2.07-.37.14-.54.21Z"/>
    <path class="cls-2" d="m512.2,583.77c.02.42.04.83.05,1.26-.03-.42-.05-.83-.06-1.25v-.18c0,.05,0,.12,0,.17Z"/>
    <path class="cls-2" d="m515.51,575.12c.05.09.11.18.16.27-.06-.08-.12-.17-.17-.25,0,0,0,0,0-.02Z"/>
    <path class="cls-2" d="m517.1,604.36c.31-1.7.66-3.4,1.01-5.09-.34,1.69-.7,3.4-1.01,5.09h0Z"/>
    <path class="cls-2" d="m185.06,406.27c-.2-.35-.4-.71-.59-1.06.11.24.22.47.38.76.06.05.21.3.21.3Z"/>
    <path class="cls-2" d="m799.86,435.35l-.04-.51s-.24.72-.25.72c-.01,0,.29-.21.29-.21Z"/>
    <path class="cls-2" d="m188.49,484.59c-.14.35-.24.75-.44,1.02-.09.12-.41-.05-.63-.09.42-.22.84-.44,1.27-.65,0,0-.19-.28-.19-.28Z"/>
  </g>
  <g>
    <path class="cls-1" d="m268.47,82.72c-6.2-8.43-11.47-10.2-20.38-7.78-3.38.91-7.13.32-10.7.63-3.46.29-7.34-.01-10.28,1.49-6.61,3.36-12.91,7.44-19.04,11.67-4.43,3.06-5.57,9.38-2.92,12.72,3.17,3.97,11.61,4.77,15,1.03,1.11-1.24.94-3.67,1.37-5.56-1.51.71-3.04,1.4-4.52,2.18-.48.25-.85.75-1.91,1.73-.91-1.36-2.46-2.7-2.26-3.66.24-1.12,1.85-2.26,3.11-2.79,3.27-1.39,7-3.1,9.43,1.12,2.31,3.97.73,8.34-2.57,10.09-5.26,2.76-11.19,4.84-17,5.5-2.11.24-5.26-4.08-7.03-6.91-3.05-4.89-4.24-5.19-7.77-.52-.59.79-1.16,1.87-1.96,2.18-11.37,4.3-22.31,9.89-34.99,9.69-5.34-.07-10.73,1.89-16.07,3.04-3.31.72-6.56,1.65-11.24,2.83,5.45-4.38,9.2-7.86,13.44-10.59,1.72-1.11,4.51-1.01,6.72-.72,10.85,1.44,21.62,2.5,31.64-3.46,5.24-3.13,9.58-6.45,12.14-13.09,1.76-4.56,8.07-7.43,12.62-10.65,3.16-2.24,7.45-3.11,10-5.82,2.92-3.1,6.42-7.51.26-11.46-.45-.29-.84-.98-.89-1.51-.96-9.27-6.1-12.95-15-13.67-2.19-.18-4.84-5.49-5.72-8.87-1.54-5.82-4.94-8.82-10.2-7.42-10.9,2.91-22.07,5.81-29.51,16.12-3.79-4.11-6.54-1.38-7.09,2.46-.47,3.39.19,8.01,2.24,10.43,2.02,2.39,6.52,3.97,9.71,3.66,6.08-.62,7.45-4.9,4.26-11.18-1.34,1.57-2.58,3.02-4.4,5.14,0-1.65-.31-2.78.06-3.61,2.28-5.2,6-8.99,11.87-7.92,4.84.88,11.08-.29,13.21,6.79,3.1,10.27,1.74,12.51-3.36,18.39-12.48,14.46-28.49,18.32-46.19,18.85-2.74.08-5.88,1.47-8.06,3.26-7.29,6.02-15.22,6.83-23.89,3.54h11.8c-.01-.35-.02-.7-.04-1.06h-8.09c-.1-.41-.18-.81-.27-1.21,1.85-.42,3.74-.73,5.58-1.28,2.23-.68,5.14-.89,6.51-2.46,4.95-5.64,11.24-7.81,18.2-8.86,1.35-.2,3.13-.49,3.82-1.42,2.09-2.87,4.35-5.9,5.21-9.24.25-.98-3.91-3.16-6.32-5.01.48-.4,1.91-1.35,3.03-2.59.74-.81,1.72-2.58,1.41-3-6.13-8.29,2.41-15.1,1.4-24.33-2.5.44-6.03.06-8.17,1.65-4.71,3.47-8.39,2.36-11.15-1.76-4.68-7.01-11.3-10.22-18.99-12.15-5.43-1.35-9.75-.67-12.42,5.81,4.49,3.19,8.96,6.68,13.73,9.66,6.95,4.32,10.25,17.47,4.96,23.77-3.86,4.62-9.04,8.07-13.58,12.12-1.14,1.02-1.95,2.45-3.1,3.46-2.5,2.15-5.12,4.14-7.69,6.19-.27-.41-.54-.82-.82-1.22,6.11-7.36,12.51-14.47,18.23-22.13,6.91-9.23,4.05-16.22-7.21-19.42-3.87-1.1-6.83-2.72-7.46-7.97-.33-2.75-3.82-6.53-6.54-7.25-4.55-1.2-10-1.53-14.4-.06-7.42,2.45-14.51,6.23-21.32,10.2-2.39,1.4-4.75,4.9-5,7.65-.4,4.48-2.08,5.17-5.91,5.26-5.98.17-9.91,5.21-7.98,9.93.73,1.78,2.69,3.41,4.47,4.16.75.32,2.63-1.73,3.73-2.95,1.1-1.22,1.88-2.75,3.64-4.35-.71,8.64,4.28,11.49,11.11,12.6-.17.68-.36,1.37-.55,2.06-3.37-.45-6.75-.91-10.88-1.48,0,0,0,0,0,.03-2.02,5.06-11.65,6.34-19.16,2.54-8.7-4.42-11.13-8.87-6.91-14.61,3.12-4.24,7.62-7.42,11.62-10.93.51-.45,1.78.18,2.55-.11,2.59-1,5.97-1.5,7.46-3.46,2.36-3.12,3.45-7.26,4.94-10.66-.63-.69-.84-.98-.89-.96-6.95,3.4-14.55,2.13-21.78,3.39-3.89.67-8.26,1.93-8.57,7.64-.04.77-2.14,2.18-3.12,2.04-2.28-.32-4.13-.15-5.67.4v82.29c.4-.06.79-.13,1.18-.19,5.77-.95,10.01-3.68,13.29-8.94,1.26-1.99,5.15-2.83,7.96-3.14,6.38-.72,12.92-.32,19.25-1.29,4.78-.72,9.31-3.03,14.02-4.35,5.19-1.45,8.63-4.47,10.07-9.9.43-1.6,1.6-2.99,2.96-5.45,2.99,6.27-.06,9.93-2.93,12.3-8.74,7.16-18.31,13.01-30.03,13.23-4.5.08-9.03-.57-13.52-.37-2.1.1-4.68.87-6.12,2.31-4.83,4.78-9.77,9-16.13,10.44v24.98c4.59-.66,9.15-2.02,13.9-4.55,18.1-9.67,37.45-9.86,56.13.25,17.8,9.63,36.13,10.02,54.82,3.11,12.48-4.62,24.84-8.58,38.53-4.77,4.17,1.16,9.22-.64,13.79-1.49,2.89-.53,5.57-2.24,8.44-2.62,2.33-.32,5.63-.26,6.95,1.16,1.1,1.17.43,4.73-.33,6.93-1.97,5.78-.76,8.88,4.75,11.67,3.64,1.84,7,4.25,10.52,6.33,1.18.69,2.46,1.57,3.75,1.66,10.98.73,21.62-.97,31.41-6.17,3.56-1.89,6.08-5.22,4.94-10.01-1.34-5.69-5.96-7.77-10.59-8.14-3.45-.27-7.28,1.55-10.52,3.27-.88.46-.94,5.35-.21,5.72,2.11,1.02,4.81.78,7.66,1.07-.11-.22.24.14.23.47-.18,6.71-5.42,9.82-15.64,9.32-8.5-.41-11.76-3.4-11.3-10.33.79-11.8,10.28-18.69,21.43-15.88,4.09,1.03,8.39,1.18,12.44,1.72,1.95-5.17-.21-8.04-3.7-8.78-3.86-.81-8.1-.59-12.05.01-3.77.57-5.85.13-5.46-4.27-4.52-4.1-9.4-7.43-15.83-6.02-3.24.7-6.61,1.5-9.44,3.12-4.55,2.58-8.18,7.04-14.39,5.38-1.33-.36-3.52.77-4.71,1.89-4.35,4.12-9.49,4.78-14.91,3.78-8.51-1.59-16.96-3.51-25.34-5.27-5.42,5.35-11.31,11.38-17.48,17.06-1.28,1.16-3.7,1.61-5.52,1.45-14.5-1.28-29.09-2.24-41.72-11.11-1.66-1.15-4.08-1.28-6.18-1.62-7.97-1.27-15.97-2.42-23.95-3.62.02-.52.05-1.03.08-1.54,3.31.21,6.62.35,9.93.65,7.25.66,14.55.96,21.7,2.21,5.56.96,11.05,2.74,16.32,4.85,12.43,4.95,24.23,6.04,34.23-4.97,9.59-10.58,20.03-11.82,33.07-6.44,9.86,4.05,20.05,1.06,29.09-5.18,3.09-2.12,6.87-3.23,10.39-4.64,2.35-.93,5.24-.99,7.13-2.46,6.37-4.93,12.72-4.9,19.21-.72,5.81,3.74,11.91,3.79,18.19,1.94,2.05-.61,4.39-1.3,5.85-2.74,7.15-7.04,14.42-14.03,20.89-21.69,5.07-6.01,5.3-13.35,1.97-17.89Zm-203.32-4.01c4.72-.84,9.55-1.69,15.17-2.68-7.55,8.33-9.08,8.53-15.17,2.68Zm154.74,57.57v.02s.03.04.04.05l-.04-.07ZM39.58,73.36c.44-.33.13-.25,0,0h0Z"/>
    <path class="cls-1" d="m442.83,172.24c-8.17,3.51-16.32.15-24.21-2.01-10.01-2.75-19.43-7.57-30.31-6.91-6.54.4-12.4,1.61-17.57,5.84-1.98,1.64-4.1,3.16-6.32,4.43-10.73,6.1-16.33,4.04-20.36-7.38-2.56-7.25-9.83-10.14-19.23-7.67-6.54,1.73-7.86.83-8.42-5.72-.68-8.02-1.22-8.58-8.94-9.23,5.72-2.97,7.4-2.3,13.98,6.61,3.16-6.47,6.87-12.02,8.55-18.17,1.35-4.88-3.37-7.67-7.51-8.16-4.13-.48-8.61.15-12.64,1.36-3.58,1.08-5.16.68-6.85-2.91-5.39-11.41-6.14-10.97-18.19-7.86-7.67,1.99-15.93,1.68-23.93,2.31-2.24.17-4.49.02-8.9.02,3.41,5.79,5.56,10.18,8.4,14.03,3.91,5.29,4.94,10.88,1.66,16.77-2.24,4.01-5.35,7.52-7.59,11.53-.89,1.56-.79,3.91-.62,5.85.55,5.74-1.63,9.55-6.65,12.25-1.96,1.07-3.19,3.57-4.75,5.42,2.17,1.47,4.19,3.38,6.57,4.3,3.64,1.4,7.61,1.89,11.29,3.21,12.5,4.48,25.99-.18,32.99-11.73.91-1.49,1.72-3.26,1.91-4.97.83-7.44,3.75-9.53,11.48-9.12,2.81.16,5.72-1.49,9.38-1.38-3.12,2.25-6.24,4.51-10.14,7.31,5.3.5,10.02,1.08,14.76,1.36,5.19.31,8.96,1.91,10.42,7.79,1.8,7.3,8.2,7.71,13.81,7.55,7.62-.2,15.2-1.56,22.82-2.36,1.27-.13,2.57.11,3.93.19-.15.78-.2,1.46-.28,1.47-11.47.8-22.71,5.13-34.41,2.13-4.35-1.11-7.58-3.26-8.5-8.09-.88-4.69-4.13-5.39-8.24-6.02-16.33-2.49-27.17,5.69-35.99,18.37-.66.93-1.8,1.52-2.54,2.11,3.58,10.04,2.25,16.27-3.92,18.26-4.55,1.47-8.98.72-10.98-4.22-1.53-3.75-1.93-7.99-3.22-13.77-5.71,8.38-11.06,15.41-15.43,23.04-2.27,3.96,1.5,5.4,4.77,6.3,19.18,5.38,36.02-1.38,52.33-10.63,3.7-2.11,5.19-4.85,2.96-9.48-3.68-7.65-2.57-11.41,3.27-14.92,5-2.99,9.77-1.27,14.82,4.08,1.92,2.03,5.42,3.47,8.2,3.48,8.81.04,17.66-.3,26.39-1.35,4.87-.6,10.97-1.46,14.08-4.66,10.61-11.01,23.01-12.11,36.96-10.92,9.27.79,18.77-.3,28.07-1.39,10.85-1.27,21.61-3.46,33.63-5.46-11.06-4.38-20.72-5.2-30.79-.88Zm-46.68,3.11c-6,.48-11.88,2.56-16.98,3.75,4.36-7.35,26.65-10.18,37.4-2.81-7.66-.42-14.1-1.45-20.42-.94Z"/>
    <path class="cls-1" d="m219.93,136.35s.06-.05.08-.06c-.05-.01-.08-.01-.13-.01l.05.07Z"/>
    <path class="cls-1" d="m260.67,136.04c-2.29-5.52-6.94-5.77-11.91-5.28-3.92.4-7.94,1.14-11.8.64-6.49-.84-11.96.85-16.94,4.89,1.88.1,3.77.18,5.66.34,5.01.39,10.07.54,15.05,1.28,4.7.7,6.89,3.68,6.95,8.82.07,5.79,3.27,7.27,8.12,4.27,4.31-2.66,6.87-10.17,4.87-14.97Z"/>
    <path class="cls-1" d="m246.34,196.7c-3.14-.31-6.55,2.08-9.85,3.28,1.39,2.01,2.78,4.03,4.35,6.31-3.33,1.91-7.49,2.48-11.15-.76-3.2-2.84-3.1-6.55-1.17-10.46.72-1.45,1.03-4.15.2-5.11-1.04-1.21-3.66-2.05-5.15-1.55-1.7.56-3.91,2.6-4.11,4.24-.52,4.1-.24,8.36.2,12.51.12,1.05,2.36,2.92,3.01,2.67,3.76-1.4,5.53,1.14,8.04,3.1,6.45,5.03,16.11,1.71,18.92-6.16,1.35-3.79.66-7.66-3.3-8.07Z"/>
    <path class="cls-1" d="m172.68,59.05c-1.95,1.05-4.73,1.6-5.71,3.27-2.88,4.88-2.6,5.05-15.83,10.34,6.71,6.51.38,10.38-2.55,15.09,14.38-1.66,24.7-8.8,26.53-22.73.25-1.84-1.58-3.97-2.45-5.97Z"/>
    <path class="cls-1" d="m70.05,20.6c-6.03-2.74-18.6-1.13-22.55,3.82-1.31,1.65-.58,5.01-.79,7.6,1.94.07,4.18.82,5.76.07,3.17-1.49,5.96-3.79,8.91-5.75,2.81-1.88,5.64-3.74,8.68-5.75Z"/>
    <path class="cls-1" d="m34.34,73.17c-5.35-3.62-11.49-5.28-12.69-12.78-.07-.46-2.01-1.19-2.33-.91-.93.84-1.93,2.05-2.13,3.24-.73,4.34,3.94,9.43,9.66,10.38,2.43.4,4.99.06,7.49.06Z"/>
    <path class="cls-1" d="m217.7,157.13c-.97-.02-1.94-.04-2.9-.06-.3,3.41-1.74,7.31-.6,10.12,1.83,4.55,6.3,3.56,11.38,2.25-3.72-3.92-10.55-5.06-7.88-12.31Z"/>
    <path class="cls-1" d="m146.25,86.06c-.24-.59-.47-1.2-.72-1.8-3.19,1.36-6.38,2.71-9.59,4.08.18.63.37,1.26.54,1.89,3.25-1.39,6.51-2.77,9.76-4.16Z"/>
  </g>
  <g>
    <path class="cls-1" d="m998.53,780.26c-.25-.57-.62-1.13-1.08-1.64-.92-1.04-2.17-1.9-3.34-2.38-.75-.31-2.61,1.67-3.69,2.85-1.09,1.18-1.86,2.65-3.6,4.2.7-8.35-4.23-11.09-10.99-12.17.18-.65.36-1.32.55-1.99,3.33.44,6.67.88,10.75,1.43,0-.01.01-.01.01-.02,1.26-3.07,5.49-4.71,10.31-4.58v-38.74c-4.16.15-8.34.2-12.43.81-4.72.7-9.2,2.94-13.86,4.21-5.13,1.4-8.53,4.31-9.96,9.56-.42,1.54-1.58,2.89-2.92,5.26-2.96-6.06.06-9.58,2.9-11.87,8.63-6.92,18.1-12.57,29.68-12.78,2.19-.04,4.39.09,6.59.21v-26.28c-13.36,3.07-27.08,1.21-40.46-5.85-17.6-9.31-35.72-9.68-54.2-3.01-12.34,4.47-24.56,8.29-38.09,4.61-4.13-1.13-9.12.62-13.64,1.43-2.85.52-5.5,2.17-8.34,2.54-2.31.3-5.57.25-6.88-1.12-1.08-1.14-.42-4.57.33-6.7,1.95-5.57.75-8.56-4.7-11.26-3.6-1.78-6.91-4.11-10.4-6.12-1.17-.66-2.43-1.51-3.7-1.6-10.86-.7-21.38.94-31.06,5.96-3.52,1.83-6.01,5.04-4.89,9.67,1.33,5.49,5.9,7.5,10.47,7.85,3.41.27,7.2-1.49,10.4-3.15.88-.45.94-5.17.21-5.52-2.08-.99-4.75-.76-7.57-1.04.11.21-.23-.13-.22-.46.17-6.47,5.35-9.47,15.46-8.99,8.4.39,11.63,3.28,11.17,9.98-.78,11.39-10.17,18.04-21.19,15.33-4.04-1-8.29-1.15-12.3-1.66-1.93,4.99.21,7.76,3.66,8.47,3.82.78,8.01.57,11.92-.01,3.72-.55,5.78-.12,5.4,4.12,4.46,3.97,9.29,7.18,15.64,5.82,3.21-.67,6.54-1.44,9.34-3.01,4.5-2.49,8.09-6.8,14.22-5.2,1.32.35,3.48-.74,4.67-1.82,4.3-3.98,9.38-4.62,14.73-3.65,8.42,1.53,16.77,3.39,25.06,5.08,5.36-5.16,11.18-10.98,17.28-16.46,1.26-1.12,3.66-1.56,5.46-1.4,14.34,1.23,28.76,2.16,41.25,10.72,1.64,1.11,4.03,1.24,6.11,1.57,7.88,1.23,15.79,2.34,23.68,3.49-.03.51-.05,1-.08,1.49-3.28-.2-6.55-.34-9.82-.63-7.16-.63-14.39-.93-21.46-2.13-5.49-.94-10.92-2.65-16.13-4.69-12.29-4.78-23.96-5.83-33.85,4.81-9.48,10.21-19.79,11.4-32.7,6.21-9.74-3.91-19.82-1.03-28.76,5.01-3.05,2.04-6.78,3.12-10.27,4.47-2.32.9-5.17.96-7.04,2.37-6.3,4.77-12.58,4.74-18.99.7-5.75-3.61-11.78-3.65-17.99-1.87-2.03.59-4.35,1.25-5.78,2.65-7.07,6.8-14.26,13.54-20.66,20.94-5.02,5.81-5.24,12.89-1.94,17.27,6.12,8.14,11.33,9.85,20.14,7.51,3.34-.87,7.05-.3,10.58-.6,3.42-.28,7.26.01,10.17-1.44,6.53-3.25,12.76-7.19,18.82-11.27,4.38-2.95,5.51-9.05,2.89-12.28-3.13-3.83-11.48-4.6-14.83-.99-1.1,1.19-.94,3.54-1.36,5.36,1.5-.69,3.01-1.35,4.47-2.1.48-.25.84-.73,1.89-1.67.9,1.31,2.43,2.6,2.23,3.53-.23,1.08-1.82,2.18-3.07,2.7-3.24,1.34-6.92,2.99-9.33-1.09-2.28-3.83-.72-8.05,2.55-9.74,5.2-2.66,11.06-4.67,16.81-5.31,2.08-.24,5.2,3.94,6.95,6.67,3.01,4.72,4.18,5.01,7.68.5.58-.76,1.14-1.8,1.94-2.1,11.24-4.15,22.05-9.55,34.59-9.36,5.28.07,10.61-1.82,15.89-2.94,3.27-.68,6.49-1.58,11.11-2.73-5.38,4.23-9.1,7.6-13.28,10.23-1.71,1.07-4.47.98-6.65.7-10.73-1.39-21.38-2.42-31.29,3.34-5.17,3.01-9.46,6.23-12,12.63-1.74,4.41-7.98,7.18-12.48,10.29-3.12,2.16-7.36,3-9.89,5.62-2.88,2.99-6.34,7.25-.25,11.06.44.28.83.95.89,1.46.94,8.96,6.03,12.51,14.83,13.2,2.16.17,4.78,5.3,5.65,8.56,1.52,5.62,4.89,8.52,10.09,7.17,10.77-2.81,21.81-5.61,29.17-15.57,3.75,3.97,6.47,1.33,7.01-2.37.46-3.27-.19-7.74-2.21-10.07-2-2.31-6.45-3.84-9.61-3.53-6,.59-7.36,4.73-4.2,10.79,1.32-1.51,2.54-2.92,4.34-4.96,0,1.59.31,2.69-.06,3.48-2.25,5.03-5.93,8.68-11.73,7.65-4.79-.85-10.96.29-13.06-6.55-3.07-9.92-1.72-12.08,3.32-17.76,12.34-13.97,28.17-17.7,45.66-18.2,2.72-.08,5.82-1.43,7.97-3.15,7.21-5.81,15.06-6.6,23.62-3.42h-11.66c.01.34.02.68.03,1.02h8.01c.09.4.17.78.27,1.17-1.84.41-3.71.71-5.52,1.24-2.21.65-5.08.86-6.44,2.37-4.89,5.45-11.11,7.55-17.99,8.55-1.34.2-3.1.48-3.78,1.38-2.07,2.77-4.3,5.69-5.15,8.92-.25.95,3.87,3.05,6.25,4.84-.48.38-1.89,1.31-3,2.5-.73.78-1.7,2.49-1.39,2.9,6.06,8-2.39,14.58-1.38,23.49,2.46-.43,5.96-.06,8.07-1.59,4.65-3.36,8.3-2.28,11.02,1.69,4.63,6.78,11.17,9.88,18.78,11.73,5.37,1.31,9.64.66,12.28-5.61-4.44-3.07-8.85-6.45-13.57-9.32-6.88-4.17-10.14-16.86-4.91-22.95,3.82-4.47,8.94-7.8,13.42-11.7,1.14-.99,1.93-2.37,3.08-3.34,2.46-2.08,5.06-4,7.59-5.99.27.4.54.8.82,1.18-6.04,7.11-12.37,13.98-18.03,21.38-6.82,8.9-4,15.66,7.13,18.74,3.83,1.07,6.75,2.63,7.37,7.7.33,2.66,3.79,6.3,6.48,7,4.5,1.16,9.88,1.48,14.23.06,7.34-2.37,14.35-6.02,21.08-9.85,2.36-1.36,4.7-4.73,4.95-7.39.39-4.32,2.05-4.99,5.84-5.08,2.91-.08,5.33-1.3,6.81-3.06,1.52-1.81,2.04-4.2,1.08-6.52Zm-51.71-12.25c7.46-8.04,8.97-8.24,15-2.58-4.67.81-9.44,1.62-15,2.58Zm44.72,28.18c-2.34,3.01-3.41,7.01-4.89,10.29.62.67.83.95.88.93,3.19-1.54,6.53-2.08,9.92-2.36v-11.72c-2.25.7-4.71,1.31-5.91,2.86Zm-4.41-25.63s-.01.02-.01.02c.01,0,.02,0,.04-.02h-.03Zm-.03.03c-.43.32-.13.24,0,0h0Zm-178.32-60.82l.05.07v-.03s-.04-.03-.05-.04Zm178.32,60.82c-.43.32-.13.24,0,0h0Zm.03-.03s-.01.02-.01.02c.01,0,.02,0,.04-.02h-.03Z"/>
    <path class="cls-1" d="m780.04,660.92c-3.6-1.36-7.52-1.82-11.16-3.1-12.36-4.32-25.7.18-32.61,11.33-.9,1.43-1.71,3.14-1.9,4.8-.81,7.18-3.7,9.2-11.34,8.8-2.79-.15-5.66,1.44-9.28,1.33,3.08-2.17,6.17-4.35,10.02-7.06-5.23-.48-9.91-1.04-14.59-1.31-5.13-.3-8.86-1.84-10.3-7.52-1.79-7.05-8.11-7.45-13.66-7.29-7.52.2-15.03,1.5-22.55,2.28-1.27.12-2.55-.11-3.89-.18.15-.76.19-1.41.28-1.43,11.33-.77,22.45-4.95,34.01-2.05,4.3,1.07,7.5,3.15,8.41,7.82.87,4.52,4.09,5.2,8.14,5.8,16.15,2.41,26.87-5.49,35.59-17.74.65-.9,1.78-1.46,2.51-2.03-3.54-9.7-2.22-15.71,3.88-17.63,4.5-1.42,8.88-.69,10.85,4.07,1.51,3.63,1.91,7.72,3.18,13.3,5.65-8.09,10.94-14.88,15.27-22.25,2.24-3.82-1.49-5.21-4.73-6.09-18.96-5.18-35.6,1.34-51.73,10.28-3.66,2.03-5.13,4.67-2.93,9.15,3.64,7.38,2.54,11.02-3.23,14.41-4.94,2.88-9.66,1.22-14.65-3.94-1.91-1.97-5.37-3.36-8.11-3.37-8.71-.03-17.46.29-26.1,1.31-4.81.57-10.84,1.4-13.92,4.5-10.49,10.62-22.75,11.69-36.54,10.54-9.16-.76-18.56.29-27.75,1.34-10.73,1.23-21.37,3.35-33.25,5.28,10.94,4.23,20.49,5.02,30.44.85,8.08-3.39,16.14-.15,23.93,1.94,9.9,2.65,19.22,7.3,29.98,6.67,6.46-.38,12.26-1.55,17.37-5.64,1.96-1.58,4.05-3.05,6.25-4.28,10.61-5.89,16.14-3.9,20.12,7.13,2.54,7,9.72,9.79,19.01,7.41,6.48-1.67,7.78-.81,8.34,5.51.66,7.75,1.2,8.29,8.83,8.92-5.65,2.86-7.31,2.22-13.82-6.38-3.12,6.24-6.79,11.6-8.45,17.54-1.33,4.71,3.33,7.41,7.42,7.88,4.09.46,8.52-.14,12.5-1.31,3.54-1.04,5.1-.66,6.77,2.8,5.33,11.02,6.08,10.6,17.98,7.6,7.59-1.93,15.76-1.63,23.67-2.23,2.21-.17,4.44-.03,8.8-.03-3.38-5.58-5.51-9.83-8.31-13.54-3.87-5.11-4.89-10.51-1.64-16.2,2.21-3.87,5.28-7.26,7.51-11.12.87-1.51.78-3.78.6-5.66-.53-5.54,1.62-9.22,6.58-11.83,1.94-1.02,3.16-3.44,4.7-5.23-2.15-1.42-4.15-3.26-6.5-4.15Zm-165.67,10.28c7.57.41,13.94,1.41,20.18.92,5.94-.47,11.74-2.48,16.79-3.63-4.31,7.1-26.35,9.83-36.97,2.71Z"/>
    <path class="cls-1" d="m808.78,709.77s-.06.05-.08.06c.05.01.08.01.13.01l-.05-.07Z"/>
    <path class="cls-1" d="m768.51,710.07c2.27,5.33,6.86,5.57,11.78,5.1,3.88-.39,7.85-1.1,11.66-.62,6.42.81,11.83-.82,16.75-4.72-1.86-.09-3.73-.18-5.6-.33-4.95-.37-9.96-.53-14.88-1.24-4.65-.68-6.81-3.55-6.87-8.52-.07-5.59-3.24-7.02-8.03-4.13-4.27,2.57-6.79,9.82-4.81,14.46Z"/>
    <path class="cls-1" d="m782.67,651.5c3.11.3,6.47-2.01,9.73-3.17-1.38-1.94-2.75-3.89-4.3-6.09,3.3-1.85,7.41-2.4,11.02.74,3.17,2.75,3.06,6.32,1.16,10.1-.71,1.4-1.02,4.01-.2,4.93,1.03,1.17,3.62,1.97,5.1,1.5,1.68-.54,3.87-2.51,4.07-4.09.51-3.96.23-8.08-.2-12.08-.12-1.02-2.34-2.82-2.98-2.58-3.72,1.36-5.47-1.1-7.95-2.99-6.38-4.86-15.93-1.65-18.71,5.95-1.33,3.66-.65,7.4,3.26,7.79Z"/>
    <path class="cls-1" d="m855.5,784.41c1.93-1.02,4.67-1.54,5.64-3.16,2.85-4.71,2.57-4.87,15.65-9.98-6.64-6.29-.37-10.03,2.52-14.57-14.22,1.6-24.42,8.5-26.24,21.95-.25,1.78,1.57,3.83,2.42,5.76Z"/>
    <path class="cls-1" d="m956.97,821.53c5.96,2.64,18.39,1.09,22.3-3.69,1.3-1.59.57-4.84.78-7.34-1.92-.07-4.14-.79-5.69-.07-3.13,1.44-5.89,3.66-8.81,5.55-2.78,1.81-5.57,3.61-8.58,5.55Z"/>
    <path class="cls-1" d="m997.45,770.65v3.17c-1.68-.99-3.47-1.92-5.18-3.05,1.72,0,3.47-.16,5.18-.12Z"/>
    <path class="cls-1" d="m810.99,689.7c.96.02,1.92.04,2.86.06.29-3.3,1.72-7.06.6-9.77-1.81-4.39-6.23-3.44-11.25-2.17,3.68,3.79,10.44,4.88,7.79,11.88Z"/>
    <path class="cls-1" d="m881.63,758.32c.23.57.47,1.16.71,1.74,3.16-1.31,6.31-2.62,9.48-3.94-.18-.61-.36-1.22-.54-1.82-3.21,1.34-6.44,2.68-9.65,4.02Z"/>
  </g>
  <g>
    <path class="cls-1" d="m984.09,72.71c-2.22,2.88-7.46,4.61-11.39,4.74-11.3.39-22.77.69-33.88-.88-8.69-1.25-17.04-5.16-25.41-8.25-6.73-2.48-12.1-2.02-16.88,4.16-3.01,3.92-13.37,4.57-16.42,1.35-3.64-3.85-6.18-8.15-2.76-13.93,5.72-9.69.76-19.06-10.68-20.05-12.35-1.08-25.21-5.84-36.49,3.84-.45.38-1.46.07-2.03.4-2.56,1.46-5,3.13-7.6,4.52-5.24,2.82-10.67,8.01-15.83,7.8-18.43-.78-31.05,10.93-45.41,18.84-4.18,2.3-6.35,7.5-3.37,11.64,2.04,2.85,6.64,3.88,10.15,5.67,2.49,1.26,6.33,1.77,7.34,3.76,2.72,5.4,6.85,6.59,12.19,6.53,4-.04,8.03.71,12.01.47,5.74-.35,11.51-.94,17.14-2.06,5.76-1.14,11.36-3.06,17.03-4.63.24.91.46,1.83.69,2.73-10.62,2.23-21.17,5.02-31.88,6.47-5.72.76-11.73-.98-17.61-1.22-5.23-.21-9.68-1.12-12.41-6.42-.75-1.45-3.34-2.44-5.23-2.72-8.59-1.27-12.56-4.43-13.9-12.49-1.2-7.22,3.1-11.26,9-14.38,11.1-5.87,22.07-11.97,32.97-17.91-4.63-5.45-29.09-6.42-35.79-.49-6.28,5.56-13.17,6.55-21.27,5.54-7.41-.93-15.08-.89-22.54-.18-8.02.76-16.25,8.57-16.96,15.01-1.14,10.52,1.48,19.55,8.3,28.24,10.86,13.82,23.15,22.67,41.64,18.9.87-.18,1.88.03,2.8.2,10.21,1.91,18.93-1.04,26.9-7.52,1.44-1.17,5.16-1.44,6.62-.42,9.17,6.44,18.87,8.96,30.08,6.92,3.25-.6,7.03,1.44,10.51,2.45,4.4,1.3,8.73,2.92,13.15,4.13,2.11.56,4.41.48,6.61.69-.75,2.34-.98,5.06-2.38,6.92-4.3,5.7-5.76,11.89-1.62,17.69,3.54,4.98,7.93,10.62,13.23,12.79,6.99,2.83,15.22,3.23,22.95,3.49,15.58.51,22.46-4.8,26.23-18.89.37-1.36.37-2.83.82-4.17,1.12-3.38,2.41-6.72,4.18-11.59,1.83,4.7-2.65,10.94,5.03,10.09,7.96-.88,13.59-12.56,8.95-19.02-3.9-5.46-5.19-10.85-.5-16.07,4.53-5.04,10.06-5.2,16.09-2.05,7.33,3.83,15.03,3.24,22.67.66,8.64-2.92,17.09-6.62,25.92-8.6,4.56-1.02,8.65-2.48,12.4-4.61v-28.24c-4.96,1.99-9.51,5.12-13.36,10.15Zm-168.26,10.88c-1.44-.63-4.19-1.58-4.19-1.79.97-3.57,2.29-7.03,3.53-10.52,1.32.44,2.63.88,3.95,1.32-1.09,3.66-2.2,7.33-3.29,10.99Zm-79.94,11c-5.74-8.42-4.67-12.55,5.3-19.6,1.46,6.68-9.85,12.13-2.51,18.42,4.52,3.9,10.92,5.63,15.53,7.85-4.1,2.78-13.63.22-18.32-6.67Zm104.47-22.35c-5.42-.56-11.04-1.16-16.67-1.75-.23-.37-.46-.74-.68-1.11,6.45-1.94,12.91-3.87,19.93-5.98-1.09,3.77-1.99,6.83-2.58,8.84Zm24.87,70.63c-2.77-6.26-1.38-12.3,4.09-17.46-1.37,5.88-2.78,11.84-4.09,17.46Zm16.63,7.87c-3.27.95-6.91.6-10.4.78.06-.49.12-.98.17-1.46,4.11-1.35,8.23-2.68,13.02-4.24-.74,1.42-1.38,4.51-2.79,4.92Z"/>
    <path class="cls-1" d="m997.45,102.41v15.37c-4.55.93-9.18,1.98-11.14,7.57-2.34,6.69-5.41,13.04.61,19.75,2.67,2.96,3.32,6.71-.86,10.43-2.39,2.14-2.75,6.55-4.13,10.21-7.97-7.46-8.85-13.82-3.2-20.47-6.6-5.44-13.71-6.75-22.26-5.15-5.52,1.04-11.64-.17-17.27-1.37-1.7-.37-2.69-4.11-4.24-6.68,14.15,0,26.61.41,39-.31,2.91-.17,6.23-3.84,8.1-6.72.76-1.18-1.26-5.06-2.98-6.76-3.33-3.35-8.12-5.97-5.24-11.66,2.99-5.94,9.08-7.92,14.5-5.75,3.22,1.28,6.2,1.68,9.11,1.54Z"/>
    <path class="cls-1" d="m957.53,148.53c-3.09,4.45-4.37,7.49-8.66,2.89-2.18-2.31-6.34-2.78-11.31-4.76,8.97-6.85,12.99,2.08,19.98,1.87Z"/>
  </g>
  <g>
    <path class="cls-1" d="m269.42,665.99c-.68-6.1-8.47-13.51-16.08-14.23-7.08-.68-14.35-.72-21.38.17-7.68.96-14.22.01-20.17-5.26-6.36-5.62-29.56-4.7-33.95.47,10.34,5.64,20.74,11.42,31.27,16.99,5.6,2.95,9.67,6.79,8.54,13.63-1.28,7.65-5.04,10.65-13.19,11.85-1.79.26-4.25,1.21-4.96,2.58-2.58,5.03-6.81,5.89-11.77,6.09-5.58.23-11.28,1.88-16.7,1.15-10.16-1.37-20.17-4.02-30.24-6.13.22-.86.43-1.73.66-2.59,5.38,1.49,10.69,3.31,16.15,4.4,5.34,1.06,10.81,1.61,16.26,1.94,3.77.23,7.59-.48,11.39-.44,5.06.06,8.98-1.07,11.56-6.2.95-1.88,4.6-2.36,6.96-3.56,3.32-1.69,7.69-2.68,9.63-5.38,2.82-3.92.77-8.86-3.2-11.04-13.62-7.5-25.59-18.61-43.07-17.87-4.89.2-10.04-4.72-15.02-7.39-2.46-1.32-4.77-2.91-7.2-4.29-.54-.31-1.49-.02-1.93-.38-10.7-9.18-22.89-4.66-34.6-3.64-10.86.94-15.56,9.83-10.13,19.01,3.24,5.49.83,9.56-2.62,13.22-2.89,3.05-12.72,2.43-15.57-1.28-4.53-5.86-9.63-6.31-16.02-3.95-7.93,2.93-15.85,6.64-24.09,7.82-10.54,1.5-21.42,1.21-32.14.84-2.45-.08-5.45-.82-7.81-2.11v20.13c6.98,1.97,13.77,4.83,20.68,7.17,7.25,2.45,14.55,3,21.5-.63,5.73-2.98,10.97-2.84,15.26,1.95,4.45,4.95,3.23,10.06-.47,15.24-4.4,6.13.94,17.21,8.49,18.04,7.28.81,3.03-5.11,4.77-9.57,1.68,4.62,2.9,7.78,3.97,11,.43,1.26.43,2.66.78,3.95,3.57,13.36,10.09,18.39,24.87,17.91,7.33-.24,15.14-.62,21.77-3.31,5.03-2.06,9.18-7.41,12.54-12.13,3.93-5.5,2.55-11.37-1.53-16.78-1.33-1.76-1.54-4.34-2.26-6.56,2.09-.2,4.27-.12,6.27-.66,4.19-1.14,8.29-2.67,12.48-3.91,3.29-.96,6.88-2.89,9.96-2.33,10.64,1.94,19.83-.45,28.53-6.56,1.39-.97,4.91-.71,6.28.4,7.56,6.15,15.83,8.95,25.51,7.13.87-.16,1.83-.36,2.66-.19,17.53,3.58,29.19-4.81,39.49-17.92,6.47-8.24,8.96-16.81,7.87-26.79Zm-112.2.68c1.17,3.3,2.42,6.59,3.35,9.97,0,.21-2.61,1.11-3.98,1.7-1.03-3.47-2.08-6.95-3.12-10.42,1.25-.42,2.5-.84,3.75-1.25Zm-63.25,75.36c-1.34-.39-1.94-3.32-2.64-4.66,4.54,1.47,8.44,2.74,12.34,4.02.05.45.11.91.16,1.38-3.31-.17-6.76.16-9.86-.74Zm15.78-7.46c-1.25-5.34-2.58-10.99-3.89-16.57,5.19,4.9,6.51,10.63,3.89,16.57Zm23.58-66.99c-.56-1.91-1.41-4.81-2.45-8.39,6.66,2,12.79,3.83,18.91,5.68-.22.35-.43.69-.65,1.04-5.33.57-10.67,1.13-15.81,1.67Zm99.08,21.19c-4.45,6.54-13.48,8.97-17.37,6.34,4.37-2.12,10.44-3.76,14.72-7.45,6.97-5.97-3.76-11.14-2.38-17.47,9.46,6.68,10.48,10.6,5.03,18.58Z"/>
    <path class="cls-1" d="m1.76,711.24c-.59.59-1.23,1.45-1.76,2.37v-19.28c2.74.8,5.18,2.76,6.74,5.86,2.73,5.39-1.82,7.88-4.98,11.05Z"/>
    <path class="cls-1" d="m43.61,724.32c-1.47,2.44-2.41,5.99-4.02,6.34-5.34,1.14-11.15,2.28-16.38,1.3-8.11-1.52-14.86-.28-21.11,4.88,5.12,6.04,4.58,11.82-2.1,18.51v-36.2c1.81,2.36,4.35,4.75,6.62,4.88,11.75.68,23.57.29,36.99.29Z"/>
    <path class="cls-1" d="m22.2,739.93c2.93,4.22,4.14,7.1,8.22,2.74,2.07-2.19,6.01-2.64,10.73-4.52-8.51-6.49-12.32,1.98-18.95,1.77Z"/>
  </g>
</svg>