<?xml version="1.0" encoding="UTF-8"?>
<svg id="Layer_1" data-name="Layer 1" xmlns="http://www.w3.org/2000/svg" viewBox="0 0 981.82 817">
  <defs>
    <style>
      .cls-1, .cls-2 {
        stroke-width: 0px;
      }

      .cls-2 {
        fill: #fff;
      }
    </style>
  </defs>
  <g id="Layer_2" data-name="Layer 2">
    <g>
      <path class="cls-1" d="m980.02,429.7l-.76,1.22c-21.57-.46-42.55-3.18-62.09-12.5-26.72-12.72-40.81-35.98-29.52-65.25.14-.35-.12-.84-.28-1.72-1.26,1.81-2.37,3.34-3.4,4.9-15.03,22.64-31.52,44.04-51.23,62.73-51.28,48.66-110.45,79.54-178.94,88.55-51.54,6.79-102.51,1.91-153.05-4.04-49.19-5.77-97.71-15.68-146.73-22.67-30.48-4.35-61.26-4.9-92.32,1.98-58.58,12.96-92.8,50.01-100.97,110.56-.63,4.65-1.12,9.31-1.67,13.97-.84-.1-1.69-.21-2.53-.31,2.49-15.77,4.98-31.53,7.39-46.85-.52.85-1.37,2.29-2.28,3.67-18.03,27.49-42.82,37.14-72.58,27.76-21.84-6.9-39.51-20.41-54.92-36.97-7.31-7.86-13.76-16.59-20.6-24.91.4-.6.79-1.19,1.2-1.78,15.54,3.42,29.88-1.3,43.65-8.59,8.99-4.75,17.5-10.49,26.46-15.25,12.07-6.42,24.06-13.33,36.68-18.21,15.64-6.03,29.4-2.33,40.48,10.27,12.63,14.33,11.34,31.18,6.64,48.49-.85,3.12-4.53,6.97-7.55,7.9-21.41,6.64-43.31,9.3-65.29,8.6-12.22-.4-24.33-2.14-36.22-3.25.21.16.65.72,1.23,1,1.43.7,2.88,1.35,4.4,1.87,32.5,11.34,65.15,7.71,97.72-4.26,2.79-1.02,5.08-4.62,6.97-7.44,6.36-9.54,11.45-20.13,18.82-28.75,27.96-32.66,63.57-48.07,104.6-50.2,51.29-2.65,101.56,4.22,151.95,9.94,59.15,6.72,118.48,11.54,178.57,4.88,38.34-4.24,74.71-15.74,107.91-37.74,26.79-17.75,49.64-39.96,69.93-65.14,23.99-29.77,45.9-60.81,60.69-96.38,20.93-50.29,28.75-102.67,30.93-156,1.82-44.2-2.27-87.35-10.52-129.78h45.39c.17,1.1.34,2.19.51,3.29,5.62,37,6.67,74.09,3.97,111.18-.28,3.85-.6,7.71-.96,11.56-.13,1.28-.25,2.57-.38,3.85-.13,1.29-.27,2.58-.4,3.88-.55,5.13-1.17,10.27-1.86,15.4v.02c-.34,2.57-.7,5.13-1.08,7.7-.19,1.28-.39,2.57-.58,3.86-.39,2.57-.8,5.14-1.23,7.7h0c-.21,1.3-.43,2.58-.65,3.86-1.55,9-3.29,17.98-5.22,26.97-1.83,8.49-3.85,16.95-6,25.38-2.15,8.44-4.42,16.85-6.75,25.27-.52,1.87-1.04,3.74-1.56,5.61-1.05,3.74-2.1,7.48-3.16,11.22-2.11,7.47-4.22,14.95-6.29,22.45,1.57-3.71,3.19-7.41,4.74-11.13.52-1.24,1.03-2.48,1.53-3.73.26-.64.51-1.28.77-1.91.51-1.28,1.02-2.56,1.53-3.84.5-1.28,1-2.57,1.48-3.86.49-1.29.96-2.58,1.41-3.87.23-.65.45-1.3.67-1.95,7.9-23.54,14.44-47.14,19.53-70.82.85-3.95,1.66-7.9,2.43-11.85,1.15-5.93,2.21-11.86,3.18-17.8.65-3.96,1.25-7.91,1.81-11.87.28-1.98.55-3.97.81-5.95,1.04-7.92,1.91-15.86,2.61-23.81,2.01-22.72,2.61-45.51,1.72-68.38,0-.12,0-.25-.02-.38-.2-5.13-.47-10.25-.83-15.39-.23-3.47-.51-6.94-.82-10.41-.46-5.21-1-10.43-1.62-15.64-.26-2.2-.53-4.41-.83-6.61h24.33c2.61,74.76-2.37,149.25-21.27,223.2-10.02,39.19-23.75,77.1-44.08,112.47-3.14,5.45-2.9,10.11-1.27,15.47,7.42,24.35,19.44,45.33,39.99,60.19.92.66,1.93,1.22,2.94,1.74.35.19.83.13.12.03-7.85-10.38-16.99-20.83-24.26-32.57-6.61-10.64-11.3-22.61-16.56-34.14-.84-1.85-1.02-4.79-.17-6.64,8.23-17.93,33.72-25.86,50.04-15.85,7.48,4.59,11.9,11.75,13.06,20.21,2.28,16.44,3.3,33.12,5.04,49.66,1.46,13.75,4.23,26.95,15.47,35.93Z"/>
      <path class="cls-1" d="m877.22,196.71c-11.58,66.58-41.21,124.27-88.59,172.97-36.19,37.19-76.39,67.8-126.17,82.04-50.21,14.34-98.29,12.94-142.24-14.98-6.75-4.28-11.26-4.58-18.12.84-15.04,11.92-39.59,13.51-52.1,4.49,17.34-2.53,26.82-16,37.17-28.14.83-.97,1.18-3.5.55-4.42-2.77-4.07-5.98-7.81-9.69-12.49-11.84,13.72-22.88,26.52-34.13,39.56-4.5-10.34-6.94-21.9-5.55-34.51,1.8-16.26,15.47-20.33,26.88-26.74-.96-2.75-1.61-4.71-2.34-6.64-21.57-56.51-15.45-110.73,21.95-161.29,51.07-69.04,141.16-80.41,198.98-38.8,55.22,39.73,61.39,138.85-6.36,184.06-28.58,19.07-73.79,27.93-106.02,2.3-20.13-16-30.6-36.97-24.83-64.43,4.87-23.16,19.75-37.95,41.24-45.5,19.52-6.83,34.7,1.56,47.74,14.63,12.63,12.67,13.11,30.56,1.83,46.34-10.48,14.67-29.19,20.38-44.02,13.3-1.94-.92-3.46-2.71-6.54-5.19,4.21-.26,6.25-.24,8.27-.53,12.36-1.8,21.69-14.08,17.93-23.49-3.07-7.66-14.99-14.31-24.44-13.64-9.16.66-17.03,6.45-19.98,15.79-5.42,17.17-1.02,32.03,10.63,43.88,21.2,21.54,61.72,20.28,87.76-2.09,32.55-27.98,37.88-78.68,11.47-112.66-20.32-26.18-48.6-36.5-80.96-37.9-50.36-2.19-96.63,28.9-114.74,78-16.7,45.35-9.85,87.17,14.84,125.68,1.41,2.22,3.22,4.18,4.7,6.06,29.73-13.87,46.34-15.24,53.93-6.48-7.37,4.19-16,7.55-22.7,13.3-12.36,10.6-11.45,16.04,2.07,23.7,34.16,19.33,70.66,23.88,109.23,11.14,92.08-30.42,151.79-94.51,183.01-187.23,16.82-50.02,22.07-101.25,19.95-153.09-1.33-32.36-5.32-63.89-12.17-94.55h33.03c3.57,19.17,6.94,38.38,9.84,57.69,6.89,45.83,6.8,92.43-1.31,139.02Z"/>
      <path class="cls-2" d="m902.8,274.34c.26-.64.51-1.28.77-1.91-.25.64-.51,1.27-.76,1.91-.5,1.25-1.02,2.49-1.54,3.73.52-1.24,1.03-2.48,1.53-3.73Z"/>
      <path class="cls-2" d="m920.28,199.27c2.2-10.27,4.17-20.54,5.88-30.82-1.7,10.28-3.67,20.55-5.87,30.82-3.65,16.98-8.09,33.82-12.75,50.65,4.66-16.83,9.09-33.67,12.74-50.65Z"/>
      <path class="cls-2" d="m932.65,114.47c-.37,5.14-.82,10.28-1.34,15.41.52-5.14.96-10.28,1.34-15.41Z"/>
      <path class="cls-1" d="m566.23,512.5c-9.46.55-19.05.12-28.38,1.8-61.26,11.06-96.88,79.9-69.23,134.53,14.52,28.67,38.78,43.33,71.23,42.28,28.8-.92,51.62-14.59,66.33-40.76,13.61-24.21,14.2-49.05.66-72.17-12.45-21.25-31.89-31.43-56.87-30.06-39.19,2.15-66.87,44.64-52.24,79.94,11.71,28.21,44.77,37.22,69.02,18.8,22.64-17.2,22.44-49.86-.4-64.6-2.46-1.58-4.96-3.09-7.44-4.63.26-.72.51-1.44.76-2.17,8.64-.71,16.3,1.92,22.69,7.78,24.74,22.61,20.06,65.21-9.26,85.32-34.17,23.43-80.6,11.45-98.46-25.39-23.94-49.37,4.44-108.97,59.47-124.1,10.43-2.86,21.32-3.68,32.13-6.56Z"/>
      <path class="cls-1" d="m184.16,602.4c-22.01,11.13-24.53,15.8-18.46,38.94,7.57,28.8,18.8,55.82,36.83,79.19.95,1.22,1.83,2.46,1.85,4.2-29.97-25.63-41.93-61-47.62-102.39-4.3,7.63-8.14,13.26-10.8,19.37-11.82,27.17-6.63,53.16,15.55,74.08,25.2,23.79,56.52,34.85,90.4,39.99.82.12,1.73-.23,3.51-.49-19.97-27.13-10.66-58.33-9.6-88.34.37-11.06,1.09-22.33-.3-33.14-4-31.26-32.99-45.76-61.36-31.42Z"/>
      <path class="cls-1" d="m307.35,480.11c-15.33.8-17.09,1.62-21.04,16.82-5.54,21.35-8.99,42.89-6.85,64.73.08.85-.2,1.74-.31,2.62-8.02-27-3.09-53.33,7.52-79.47-17.62,3.51-33.04,24.83-32.94,45.32.11,23.58,11.53,41.81,25.28,58.69,5.84,7.18,12.76,13.42,20.8,21.76-1.04-24.55,11.29-41.34,23.19-58.48,5.44-7.84,10.01-16.33,14.45-24.79,12.78-24.32-5-48.51-30.09-47.21Z"/>
      <path class="cls-1" d="m439.08,184c-6.61,20.53-24.2,21.4-39.26,26.54-8.66,2.95-17.51,5.17-26.1,8.34-13.88,5.14-24.01,14.41-27.17,29.72-2.98,14.5-5.38,29.12-7.99,43.41,17.24-6.69,33.17-12.08,48.44-19.09,11.01-5.05,22.05-11.08,31.48-18.77,20.85-16.98,28.61-44.54,20.59-70.15Z"/>
      <path class="cls-1" d="m342.08,131.36c5.74,14.75-2.79,23.78-9.8,33.31-6.09,8.28-12.73,16.21-18.12,24.92-7.45,12.04-5.94,29.07,3.4,38.55,8.67,8.79,17.61,17.12,20.91,30.5.86-2.34,1.48-4.81,2.63-7.01,5.83-11.17,10.71-23.07,17.92-33.26,20.98-29.61,18.88-60.04-6.76-80.61-2.59-2.07-5.64-3.56-10.19-6.39Z"/>
      <path class="cls-1" d="m766.94,497.61c-.82-.29-1.37-.69-1.62-.53-20.13,13.05-37.44,28.89-44.47,52.96-1.87,6.45-.6,13.93.16,20.8,1.32,12.08,3.82,23.99,4.98,36.09,1.09,11.34-1.37,21.8-12.96,28.02.25.89.49,1.76.75,2.65,5.41-1.26,11.19-1.63,16.2-3.92,24.7-11.26,43.49-50.45,33.98-74.58-1.86-4.72-2.92-9.78-4.44-14.67-4.4-14.15-2.28-27.83,4.6-41.2.95-1.83,1.86-3.71,2.82-5.64Z"/>
      <path class="cls-1" d="m828.52,94.95c-.69,2.13-1.47,4.07-1.9,6.05-3.38,15.66-12.16,27.3-25.7,35.45-2.65,1.59-5.21,3.28-7.86,4.87-24.46,14.7-37.6,44.64-31.61,72.09,2.17,9.97,7,16.99,15.19,21.17-6.74-18.86,6.17-28.84,17.45-39.23,5.93-5.48,12.48-10.35,19.15-14.87,12.61-8.53,18.97-20.67,20.95-35.17,2.17-15.91,1-31.57-3.23-46.78-.24-.9-.53-1.79-.93-2.61-.16-.32-.67-.45-1.49-.96Z"/>
      <path class="cls-1" d="m872.04,457.8c-11.35,1.19-21.88,9.76-25.08,20.43-2.74,9.16,1.68,19.46,9.2,21.43,5.73,1.5,9.13-1.72,7.92-7.5-2.12-10.2,4.66-17.04,14.74-14.47,7.98,2.04,12.7,7.67,14.61,15.79,4.89,20.91-13.29,42.3-36.88,43.38-28.51,1.32-50.64-21.59-51.41-53.16-.33-12.88,3.04-24.91,9.49-36.19,3.07-5.38,6.51-10.53,9.78-15.78-14.44,9.64-22.04,23.78-25.72,40.34-8.95,40.18,18.18,77.53,56.85,78.34,31.59.64,58.44-27.41,55.56-58.04-1.95-20.84-19.73-36.58-39.05-34.55Z"/>
      <path class="cls-1" d="m807.89,75.14c-20.5,17.94-43.63,21.97-67.55,11.46-29.58-12.98-39.54-51-20.95-77.7,2.37-3.4,5.08-6.38,8.04-8.9h50.97c8.16,8.89,9.91,22.95,3.41,32.66-4.41,6.63-12.05,10.38-17.98,8.12-2.18-.85-4.32-3.29-5.1-5.55-.41-1.2,1.76-4.06,3.37-5.36,6.01-4.79,6.87-11,1.62-16.13-5.13-4.99-11.25-6.6-18.4-4.05-11.44,4.08-19.98,16.65-20.01,29.53-.09,27.19,25.84,46.52,53.84,40.13,26.21-5.99,46.6-29.51,50.02-57.84.67-5.55.96-11.13,1.44-16.7.46.01.92.01,1.38.03.29.6.72,1.17.82,1.83,4.69,27.21-4.11,50.25-24.92,68.47Z"/>
      <path class="cls-1" d="m452.25,552.04c-20.78,6.62-42.54,12.71-57.81,32.36-5.65,7.27-7.43,15.33-6.07,24.14.65,4.15,1.01,8.38,1.35,12.59.87,10.77,1.97,21.6-7.05,31.03,24.95-1.57,44.45-16.59,50.08-37.09,1.96-7.1,2.8-14.52,5.05-21.52,4.38-13.67,9.42-27.16,14.45-41.5Z"/>
      <path class="cls-1" d="m741.42,430.14c-1.78.23-2.45.12-2.92.4-52.72,32.06-108.71,44.09-168.16,38.31-38.73-3.75-77.26-7.92-113.87-20.88-44.03-15.6-81.07-40.45-102.73-83.94-5.48-11.01-7.99-23.66-11.89-35.56-.52-1.61-1.16-3.18-1.74-4.78-.61.2-1.21.4-1.82.6,1.48,6.38,2.68,12.87,4.51,19.13,10.71,36.61,31.72,65.26,62.48,86.23,40.73,27.78,87.41,38.91,135.96,44.36,32.19,3.63,64.57,6.06,97.25.65,34.25-5.65,66.14-18.33,95.29-38.71,2.29-1.59,4.45-3.37,7.62-5.81Z"/>
      <path class="cls-1" d="m307.25,240.26c-3.6-.68-7.19-1.36-10.82-1.84-7.68-1-14.8-2.89-18.94-11.55-9.79,23.76.53,46.29,22.72,52.42,9.41,2.6,18.81,5.22,28.31,7.86,9.5-19.62-.81-42.99-21.27-46.89Z"/>
      <path class="cls-1" d="m412.02,308.55c.08,19.76-10.06,34.34-22.93,47.81-6.04,6.31-7.29,14.35-6.61,22.6,1.04,12.72,5.22,23.8,15.78,33.2.77-17.36,9.32-29.93,17.52-42.89,3.31-5.23,5.42-11.9,6.01-18.03,1.47-15.29-2.25-29.47-9.77-42.7Z"/>
      <path class="cls-1" d="m777.65,500.7c-8.61,8.27-10.83,31.2-2.72,42.86,3.33,4.82,7.86,8.84,12.21,12.81,11.31,10.3,11.96,12.62,5.55,29.32,8.83-6.17,13.12-13.11,14.98-21.45,4.04-18.17-2.07-32.81-13.77-45.41-5.51-5.95-10.83-12.08-16.24-18.13Z"/>
      <path class="cls-1" d="m818.43,90.83c-8.28,1.13-16.67,2.22-25.04,3.43-18.52,2.7-33.96,10.43-42.5,29.06-2.95,6.44-3.97,12.96-1.39,21.14,1.24-2.87,1.99-4.27,2.45-5.75,2.39-7.68,7.64-11.26,15.2-11.58,6-.26,12.02-.06,17.98-.78,17.22-2.08,32.21-18.6,33.3-35.54Z"/>
      <path class="cls-1" d="m443.34,614.64c-8.21,12.47-15.76,25.24-14.75,40.46.34,4.98,3.94,10.13,7.28,14.08,5.88,6.93,12.73,13,19.62,19.88,8.79-8.48,11.78-24.84,5.35-37.17-3.29-6.32-7.66-12.03-10.75-18.44-2.75-5.73-4.39-12.06-6.77-18.81Z"/>
      <path class="cls-1" d="m417.21,654.22c-8.98,4.73-18.13,10.32-27.82,14.49-10.13,4.36-16.11,11.43-15.76,22.19.28,8.6,2.69,17.04,4.16,25.55,1.13.01,2.29.02,3.42.03,1.18-10.49,8.13-15.8,16.04-20.68,15.01-9.23,21.99-24.93,19.95-41.58Z"/>
      <path class="cls-1" d="m782.4,474.72c-4.32-3-10.12-1.21-13.7,4.57-2.5,4.48-1.72,9.05,3.08,12.44,4.39,3.1,11.22,1.37,13.77-3.6,2.79-5.44,1.55-10.16-3.14-13.42Z"/>
      <path class="cls-1" d="m835.55,69.15c-4.28-2.53-10.41-.67-13.27,4.03-2.84,4.69-1.61,10.83,2.74,13.5,4.33,2.66,10.63,1.11,13.47-3.31,2.89-4.54,1.43-11.64-2.93-14.22Z"/>
      <path class="cls-1" d="m471.84,532.53c-4.39-2.66-8.76-1.66-12.15,2.81-2.34,5.1-1.71,9.58,2.76,12.36,4.6,2.88,9.06,1.23,11.83-3.53,2.58-4.46,1.86-9.03-2.44-11.64Z"/>
      <path class="cls-1" d="m491.68,516.08c-5.03,2.58-8.99,3.36-10.17,5.59-1.07,2.01.07,7.45,1.63,8.07,2.33.93,7.04-.09,8.58-2.03,1.46-1.85.14-5.95-.05-11.63Z"/>
      <path class="cls-1" d="m507.59,510.95c-1.72-.78-5.68.26-6.74,1.81-.96,1.42-.08,5.58,1.38,6.72,1.45,1.14,4.62.01,9.06-.24-1.69-4.12-2.07-7.53-3.7-8.29Z"/>
    </g>
  </g>
</svg>