<?xml version="1.0" encoding="UTF-8"?>
<svg id="layout" xmlns="http://www.w3.org/2000/svg" viewBox="0 0 1000 1000">
  <defs>
    <style>
      .cls-1, .cls-2 {
        stroke-width: 0px;
      }

      .cls-2 {
        fill: #fff;
      }
    </style>
  </defs>
  <path class="cls-1" d="m599.83,586.62c-4.55-4.4-8.5-9.32-12.17-14.28-22.92-30.94-34.36-64.27-26.76-100.61,3.93-18.76,11.08-37.03,15.57-55.71,1.44-5.93,1.95-14.95-2.15-18.41-18.96-16.04-39.24-31.05-59.98-45.53-11.36-7.96-25.17-7.02-36.61.11-21,13.11-41.14,27.19-61.57,40.91-8.36,5.63-8.36,11.2-3.08,19.4,6.96,10.82,15.04,23.05,15.09,34.67.17,30.84-2.37,61.8-6.47,92.47-3.11,23.37-15.4,43.95-37.52,59.93-3.22,2.33-4.77,9.09-3.25,12.64,7.46,17.13,18.59,32.74,36.62,43.62,4.18,2.52,13.39,3,17.77.85,14.52-7.09,28.9-14.83,41.45-24.1,18.47-13.71,16.86-29.55-2.18-42.83-2.03-1.41-3.47-3.44-5.2-5.17.51-1.16.99-2.33,1.47-3.49,5.34,1.11,11.41,1.27,15.88,3.58,7.51,3.88,13.36,5.77,21.39.22,3.61-2.54,10.51-1.8,15.93-2.54,1.24,1.74,2.49,3.48,3.73,5.24-3.96,1.91-8.65,3.2-11.7,5.84-11.02,9.49-13.39,20.39-2.82,29.43,13.59,11.58,29.55,21.52,45.77,30.54,3.92,2.19,15.05-.14,19.18-3.53,9.58-7.84,17.66-17.19,24.97-26.65,14.41-18.62,13.76-20.08-3.36-36.59Zm-138.47,28.14h-.01c-.1.24-.21.46-.33.69-.47.89-1.07,1.78-1.73,2.65-.33.43-.67.87-1.02,1.3h-.01c-1.06,1.31-2.16,2.61-3.08,3.92-.78-.05-1.56-.09-2.35-.13-.79-.05-1.58-.09-2.37-.14-.14-.35-.3-.69-.46-1.03-.15-.34-.32-.69-.49-1.03-.23-.46-.46-.91-.69-1.36-.47-.92-.93-1.84-1.32-2.74-.11-.24-.2-.46-.29-.69-.1-.23-.18-.46-.27-.7-.16-.45-.29-.89-.4-1.34-.11-.46-.19-.91-.22-1.36-.04-.29-.05-.57-.04-.86,0-.12.03-.26.08-.39.05-.19.15-.4.28-.62.05-.08.11-.16.17-.25.05-.07.12-.15.18-.24.07-.09.14-.17.21-.26.15-.16.31-.34.48-.5.17-.17.36-.35.55-.51.18-.16.37-.32.57-.46.19-.14.37-.28.56-.42.99-.7,2.07-1.27,3-1.57.16-.05.31-.09.46-.12.09-.03.17-.04.25-.05.29-.06.55-.07.78-.03.2.03.41.08.62.14.21.05.42.12.64.21.22.08.44.16.67.26.34.14.68.31,1.03.48.22.11.45.24.68.37.67.39,1.33.82,1.92,1.28.1.06.19.13.28.21.48.4.92.79,1.27,1.19.06.06.12.12.17.18.08.09.15.18.22.28.18.23.32.44.42.66.04.07.08.13.09.21.07.13.11.27.12.4.02.11.02.23.01.33-.11.7-.33,1.39-.63,2.06Zm80.56,7.1c-.07.01-.14.01-.22.01-.09,0-.19-.01-.3-.02-.1-.01-.21-.03-.33-.06-.11-.02-.23-.05-.36-.1-.12-.04-.24-.08-.37-.13-1.52-.6-3.43-1.98-4.81-3.38-.18-.17-.36-.37-.52-.55-.25-.28-.47-.54-.66-.81-.13-.17-.24-.34-.33-.5h-.01c-.09-.16-.17-.32-.22-.47-.03-.07-.06-.15-.08-.22-.07-.24-.09-.45-.04-.64.06-.21.13-.42.22-.63h0c.16-.43.37-.86.63-1.29.29-.48.62-.96.99-1.44.25-.32.52-.63.81-.93l.03-.03c.15-.16.3-.32.46-.46.28-.29.57-.55.88-.81.43-.37.88-.72,1.34-1.04.23-.16.47-.32.71-.46.21-.13.41-.26.62-.37.3-.16.61-.32.91-.46.22-.1.44-.19.65-.28.25-.09.49-.18.73-.26.25-.08.53-.09.85-.04.08.02.17.03.26.06.02,0,.03,0,.04.01.22.06.44.14.68.25.17.08.35.16.53.26.18.09.37.19.56.31.15.08.29.17.44.27.14.08.27.17.41.26.02.01.04.02.06.04.15.1.31.22.48.32.4.27.81.56,1.24.87.75.54,1.56,1.14,2.41,1.75.28.21.57.41.86.62.64.44,1.29.9,1.96,1.34.26.17.53.35.8.51.16.1.32.21.48.31-5.55,3.82-8.87,7.73-12.79,8.2Z"/>
  <path class="cls-1" d="m764.66,722.03c-14.97,27.75-30.4,55.44-48.11,82.01-3.36,5.04-17.66,6.94-26.95,7.04-69.13.57-138.27.31-207.4.31v2.1c-59.81,0-119.62-.02-179.43.02-15.85,0-28.87-4.66-35.94-16.78-13.53-23.19-27.21-46.4-38.9-70.24-8.28-16.95-.23-24.81,21.64-25.66,19.49-.78,33.28,4.61,41.3,20.39,6.39,12.55,13.42,25.28,23.11,36.06,6.78,7.53,17.66,14.43,28.34,17.21,29.78,7.72,60.77,9.11,91.76,5.58,17.32-1.98,31.59-8.76,43.54-19.84,14.97-13.87,21.5-13.04,35.65,1.13,16.47,16.53,40.12,20.64,63.57,20.53,26.53-.14,53.26-3.01,79.47-6.64,22.15-3.04,27.4-21.02,36.84-34.58,6.33-9.11,10.62-19.21,16.44-28.58,7.03-11.32,43.03-16.29,52.41-6.54,3.67,3.79,5.06,12.08,2.66,16.5Z"/>
  <path class="cls-1" d="m305.3,12.22c-16.3,13.98-33.45,27.33-48.65,42.09-18.59,18.06-35.99,37-53.06,56.07-12.35,13.82-14.13,29.47-12.15,46.75,1.16,10.43-3.22,22.53-9.21,32.09-13.7,21.89-28.17,43.24-32.24,68.24-.45,2.78-2.94,6.5-5.74,7.65-20.54,8.5-42.58,12.12-65.21,9.35-23.11-2.82-32.89-17.09-37.69-40.23-3.36-16.15,3.45-30.72,13.96-43.24,24.69-29.4,47.75-60.43,77.24-86.23,46.22-40.49,103.57-69.37,164.29-93.15,1.98-.78,4.29-.97,6.47-1.44.65.68,1.33,1.37,1.98,2.05Z"/>
  <path class="cls-1" d="m949.77,233.41c.37,31.57-22.74,47.69-60.15,42.61-.48-.07-.9-.26-1.38-.28-25.77-1.37-40.6-11.23-47.07-33.54-4.94-17.02-17.86-32.39-26.39-48.8-3.64-7.04-5.9-14.71-7.49-22.29-12.21-58.54-46.45-106.8-98.04-147.05-2.91-2.28-5.42-4.9-8.11-7.34.34-.42.68-.85,1.02-1.27,4.58,1.65,9.61,2.78,13.7,5.04,62.55,34.58,126.17,68.31,179.46,112.76,32.52,27.09,54.02,60.24,54.44,100.19Z"/>
  <path class="cls-1" d="m955.9,339.31c-4.07,17.63-8.16,35.33-13.87,52.61-7.4,22.48-21.13,41.55-46.81,53.32-5.79,2.66-13.73,6.47-7.03,13.65,5.79,6.19,10.65,1.25,16.67-1.37,6.19-2.66,14.3-2.21,21.56-3.13-.31,5.01,1.16,10.78-1.27,14.95-14.13,24.25-26.92,49.41-52.49,67.47-18.7,13.23-41.05,18.31-66.05,20.62-8.42-2.61-16.81-5.2-25.23-7.82,3.19-6.69,5.06-14.05,9.75-19.89,20.06-24.88,30.85-52.52,36.28-81.75,1.81-9.63,7.32-14.19,18.59-16.24,11.33-2.05,22.57-5.16,33.11-9.13,28.28-10.71,30.94-28.98,28.45-48.56-.88-7.13-5.74-15.84-17.01-13.39-5.2,1.13-8.96,8.14-12.21,13.02-.73,1.11,2.83,5.37,5.45,6.61,10.96,5.25,12.29,11.89,3.08,18.76-.68.52-1.38,1.2-2.2,1.44-10.68,2.87-21.39,5.67-32.09,8.5-.9-8.59-1.98-17.16-2.6-25.78-.23-3.08.54-6.24,1.16-9.32,3.28-16.29,13.14-27.73,32.72-33.36,17.32-4.94,33.85-11.75,51.16-16.69,6.13-1.74,14.95-2.19,19.89.33,2.99,1.53,2.18,10.1,1.02,15.16Z"/>
  <path class="cls-1" d="m188.85,555.24c-42.04-.42-73.34-16.76-94.76-46.4-7.97-11.02-14.35-22.79-21.73-34.11-4.63-7.06-5.42-14.81,3.08-18.57,4.83-2.14,13.36.89,19.95,2.38,3.84.87,7.15,3.34,11.64,5.58,6.44-12.41,3.98-23.4-9.07-27.99-38.82-13.68-47.04-42.63-53.62-72.06-2.85-12.83-1.44-26.32-1.7-39.5-.03-1.27,1.92-2.57,3.93-5.06,12.77,4.61,25.43,9.63,38.42,13.82,13.45,4.33,27.07,8.54,40.99,11.58,10.31,2.24,14.83,6.33,14.92,15.35.14,11.28,2.26,22.53,2.54,33.8.14,5.18-.2,13.51-3.62,14.95-9.3,3.91-20.17,3.53-28.11-4.03-8.31-7.93-7.18-15.11,2.83-20.88,8.33-4.83,8.31-11.18,3.25-17.28-5.65-6.85-14.58-10.59-22.74-4.52-5.68,4.24-11.24,11.86-10.96,17.75,1.19,24.67,5.23,36.84,37.52,42.14,32.15,5.27,44.44,20.9,51.79,45.24,7.29,24.1,19.52,47.17,29.98,70.6,6.1,13.65,3.59,17.4-14.52,17.21Z"/>
  <path class="cls-1" d="m813.7,664.33c-5.14,13.02-18.82,15.37-32.8,16.15-10.31.56-20.71.12-31.08.12-.03.24-.03.49-.06.73-14.97-.94-30-1.44-44.84-3.18-3.96-.47-10.14-4.61-10.37-7.37-1.13-12.74-1.27-25.61.03-38.32.34-3.34,6.72-8.05,11.16-8.78,4.29-.73,10.14,2.21,14.35,4.68,3.22,1.91,4.61,5.86,7.43,8.4,9.04,8.17,21.56,6.69,27.4-3.06,6.16-10.31-4.97-28.95-18.62-29.9-12.15-.85-25.79-3.04-36.3.49-10.54,3.55-18.45,13.11-26.73,20.64-7.85,7.18-14.18,15.51-22.23,22.5-2.46,2.14-10.34,3.3-12.21,1.81-2.94-2.35-5.51-8.85-3.73-10.88,14.18-16.29,16.73-39.1,38.87-50.49,9.63-4.97,21.3-7.7,32.46-9.89,32.63-6.38,65.38-2.47,97.92,1.11,4.12.45,9.55,5.44,10.82,9.16,8.53,25.35,8.42,50.89-1.5,76.06Z"/>
  <path class="cls-1" d="m573.98,249.6c-20.23-22.37-43.65-42.09-80.43-41.27-28.93.66-48.6,16.76-66.76,33.45-14.84,13.63-15.71,13.11,2.34,26.7,18.59,13.97,24.33,29.99,16.16,49.57-3.56,8.55-7.12,17.09-11.81,28.37,7.6-2.42,12.72-3.2,16.56-5.46,6.86-4.03,13.22-8.78,19.41-13.54,18.98-14.64,39.92-14.85,58.96-.7,10.71,7.95,21.84,15.51,32.77,23.25,1.25-.89,2.46-1.81,3.7-2.7-2.88-4.24-5.99-8.38-8.61-12.71-23.34-38.45-20.66-52.29,13.36-73.35,3.31-2.05,6.13-9.63,4.35-11.6Zm-38.32-1.66c0,.06,0,.13-.02.21-.02.13-.04.27-.07.41-.08.45-.21.93-.37,1.41-.05.14-.1.29-.16.44-.24.63-.55,1.23-.89,1.72-.15.23-.31.42-.48.58-.17.16-.34.3-.52.4-.19.11-.4.22-.62.31-.43.21-.9.38-1.41.51h-.01c-.25.08-.51.14-.78.19-.27.06-.54.11-.82.15-.17.03-.35.06-.53.07-.18.03-.37.05-.56.06-.06.01-.13.02-.19.02-.17.01-.35.02-.52.03-.79.04-1.57.02-2.31-.07-.26-.03-.51-.06-.76-.11-.43-.07-.83-.17-1.2-.31-.16-.05-.32-.11-.48-.18-.12-.05-.24-.1-.36-.16-.35-.16-.69-.35-1.02-.56-.15-.09-.29-.18-.44-.29-.29-.19-.56-.4-.84-.63-.13-.1-.27-.22-.4-.33-.13-.11-.27-.23-.4-.35-.13-.11-.26-.24-.4-.36-.51-.47-1.02-.95-1.53-1.44-.26-.25-.52-.49-.78-.74-.32-.3-.65-.6-.98-.87-.17-.14-.34-.29-.51-.42-.35-.28-.7-.54-1.05-.79-.35-.26-.7-.51-1.04-.75-.34-.25-.68-.47-1.02-.7-.68-.44-1.35-.85-2.02-1.23-.33-.18-.66-.37-.99-.53-.65-.35-1.3-.65-1.95-.92-2.59-1.08-5.12-1.61-7.66-1.61-.36,0-.72.01-1.08.03-.24.01-.47.03-.7.06-.1,0-.2.01-.3.03-.18.01-.36.04-.53.06-.42.06-.85.13-1.27.22-.16.04-.32.07-.47.11-.19.04-.38.08-.57.13-.3.08-.61.16-.91.26-.66.21-1.32.44-1.99.7-2.69,1.06-5.49,2.64-8.5,4.72-.24.16-.48.33-.73.48-.24.15-.47.31-.71.45-.38.24-.78.47-1.18.7-.43.25-.86.48-1.3.71-.16.09-.32.17-.48.25-.31.16-.62.32-.94.47-.15.06-.29.13-.44.21-.43.19-.88.4-1.32.58-.52.23-1.04.44-1.57.66-.3.12-.61.24-.91.35-1.22.47-2.46.9-3.72,1.31-.31.09-.62.19-.94.3-.31.1-.63.19-.94.29-.63.18-1.26.38-1.89.55s-1.25.35-1.88.51c-.06.01-.13.01-.21-.01-.04,0-.09-.02-.14-.04-.43-.16-1.06-.63-1.76-1.28-.13-.12-.27-.25-.4-.38-.14-.13-.27-.27-.41-.41-.18-.18-.35-.38-.52-.57-.04-.03-.07-.07-.1-.11-.34-.39-.68-.79-1-1.21-.17-.22-.33-.44-.48-.67-.22-.32-.42-.63-.59-.93-.05-.09-.11-.18-.15-.27-.13-.24-.25-.47-.35-.7-.05-.11-.09-.23-.13-.33-.08-.23-.14-.43-.18-.63-.07-.34-.08-.64-.02-.9.08-.4.25-.81.48-1.25.06-.11.12-.22.19-.33.06-.11.13-.24.22-.35.08-.11.16-.23.24-.34.08-.12.17-.24.27-.36.1-.14.22-.28.34-.42.36-.42.76-.84,1.2-1.28.4-.41.84-.82,1.31-1.23.13-.11.27-.24.4-.35.8-.69,1.68-1.4,2.64-2.11.28-.22.57-.42.85-.63.3-.22.59-.43.89-.64.43-.3.87-.61,1.32-.91.25-.17.5-.34.75-.5.26-.17.52-.34.78-.51.69-.45,1.41-.89,2.12-1.33.03-.02.05-.03.08-.05.59-.37,1.19-.74,1.81-1.1.87-.52,1.75-1.05,2.65-1.55.31-.17.61-.34.92-.5.43-.24.85-.47,1.28-.7.38-.21.77-.41,1.15-.62,2.24-1.18,4.5-2.3,6.68-3.29.55-.25,1.09-.49,1.62-.72.8-.36,1.6-.7,2.38-1.01.51-.22,1.02-.42,1.51-.61.75-.29,1.48-.56,2.18-.8.24-.09.47-.17.7-.24.45-.15.9-.3,1.33-.43.22-.07.43-.13.64-.18.41-.12.82-.23,1.21-.33.39-.1.76-.18,1.11-.26,0,0,.01,0,.01.01,6.08,4.03,12.18,8.02,18.24,12.07,1.9,1.26,3.79,2.53,5.67,3.81,1.32.89,2.64,1.79,3.95,2.69,2.43,1.66,4.85,3.34,7.25,5.06.37.27.73.53,1.1.79.12.08.2.23.27.42t0,.01c.03.09.05.19.07.31.02.17.03.37.01.57.01.1,0,.21-.02.32Z"/>
  <path class="cls-1" d="m357.85,649.78c-1.3,1.13-7.46-.12-9.86-1.84-5.99-4.24-11.27-9.23-16.56-14.12-9.41-8.69-17.6-18.5-28.14-26.06-15.28-10.95-33.48-7.74-50.66-3.04-12.18,3.34-14.41,12.29-14.75,21.92-.28,8.52,5.4,14.36,14.07,15.18,6.61.61,14.15-2.97,20.74-5.58,5.82-2.33,10.88-5.96,16.3-8.99,3.9,4.85,8,9.6,11.64,14.57,1.13,1.58,1.36,3.74,1.58,5.67,2.83,23.59-2.91,29.19-31.42,31-11.22.71-22.43,1.6-34.58,2.5-7.09-.66-15-1.46-22.91-2.14-21.67-1.88-34.1-12.9-38.51-29.57-5.4-20.39-1.5-40.35,8.93-59.39,9.04-16.5,28.62-13.42,43.23-12.76,27.83,1.27,56,4.97,82.84,11.18,30.29,6.99,44.78,27.87,51.84,52.21.82,2.8-1.24,7.11-3.79,9.25Z"/>
  <path class="cls-1" d="m258.4,293.17c-.54,18.55-13.7,28.62-35.77,29.33-37.29,1.15-70.57-9.63-103.46-22.83,14.1-8.12,29.5-13.18,37.52-22.62,8.33-9.77,11.47-23.54,13.42-35.95,2.54-16.2,13.08-28.27,24.24-40.28,2.18-2.35,8.42-3.53,12.43-3.08,27.6,3.04,47.97,20.03,50.01,42.65,1.58,17.54,2.09,35.19,1.61,52.78Z"/>
  <path class="cls-1" d="m881.42,298.24c-33,16.2-67.1,27.8-105.32,24.51-24.13-2.1-32.91-10.15-35.03-30.13-2.26-21.37-3.9-42.82-4.15-64.26-.06-4.57,5.65-10.97,10.82-13.49,13.31-6.47,27.72-11.44,41.87-16.62,8.16-2.99,15.31-1.01,18.36,6.1,6.92,16.05,15.4,31.99,19.1,48.63,6.58,29.31,13.98,37.48,48.96,44.37,1.81.35,3.62.59,5.4.89Z"/>
  <path class="cls-1" d="m744.51,488.84c-13.08.18-26.22.8-39.21,2.14-27.32,2.84-54.59,5.98-81.76,9.58-12.35,1.62-20.23,8.14-22.01,18.76-2.09,12.36-3.7,24.79-5.17,34.7.14,16.52,8.36,23.19,24.46,21.79,19.55-1.67,39.39-2.4,58.49-5.88,59.86-10.97,74.47-21.64,85.06-60.15,3.96-14.33-2.43-21.21-19.86-20.95Zm-40.71,49.55c-.24.19-.5.39-.76.56-.22.15-.46.3-.7.44-.07.04-.15.09-.23.13-.21.11-.42.23-.64.34-.92.46-1.9.83-2.89,1.15-.14.05-.29.09-.43.13-.25.08-.49.15-.73.22-.41.11-.81.23-1.2.32-1.54.37-2.97.64-4.06.86-.22.04-.42.09-.61.13-.1.02-.19.05-.28.06-.17.04-.33.08-.47.12-4.74,0-9.19.02-13.43.05-10.21.05-19.19.1-28.05-.14-.81-.02-1.62-.04-2.43-.07-3.65-.12-8.29-1.7-10.35-3.97h0c-.15-.16-.24-.4-.27-.69-.01-.1-.02-.19-.02-.31,0-.15.01-.31.04-.47.02-.17.06-.35.1-.53s.09-.37.16-.57c.06-.19.13-.39.21-.6.13-.33.28-.66.44-.97h0c.17-.34.36-.67.55-.98h0c.25-.41.52-.8.8-1.16.14-.17.29-.35.43-.51.15-.16.3-.32.45-.46.24-.24.48-.44.72-.61.45-.31.91-.62,1.37-.92.46-.31.92-.62,1.39-.92.47-.31.94-.61,1.42-.9.48-.31.96-.61,1.45-.89.97-.58,1.96-1.15,2.96-1.68.5-.27,1.01-.52,1.52-.77s1.02-.49,1.54-.72c.24-.1.48-.21.72-.3.35-.14.71-.29,1.07-.43.36-.13.72-.27,1.08-.39.97-.33,1.96-.62,2.95-.84.75-.17,1.5-.34,2.25-.51.75-.16,1.51-.33,2.28-.47.49-.1.98-.19,1.47-.29.65-.13,1.31-.26,1.96-.37.41-.08.82-.15,1.22-.22.75-.14,1.49-.27,2.24-.39.77-.12,1.54-.26,2.31-.38,7.71-1.23,15.52-2.16,23.25-3.31.39-.05.77-.1,1.15-.14.74-.08,1.47-.14,2.19-.17.3-.01.59-.02.89-.02.52-.01,1.03,0,1.54.03.1,0,.2,0,.3.02.22,0,.44.02.65.04.08,0,.15.01.23.02.3.02.6.06.9.11.16.02.32.04.48.07.29.05.58.1.86.16.18.04.36.08.54.12.35.09.69.19,1.02.31.17.05.33.11.5.17h0c.64.26,1.24.54,1.8.88h0c.56.33,1.07.72,1.53,1.16l.17.17s.11.09.16.16c.11.11.22.24.32.35.13.15.26.33.38.49.26.37.49.76.68,1.18.05.1.1.22.14.33.08.17.15.36.21.54.1.32.19.66.27,1.01.07.35.12.71.16,1.09.43,4.63-3.61,10.65-7.88,14.15Z"/>
  <path class="cls-1" d="m309.48,354.31c-17.12-3.18-33.96-7.56-50.68-12.03-4.32-1.15-7.74-4.71-13.5-8.38,33.34-12.36,35.77-33.66,30.34-57.84-2.2-9.93-3.28-20.08-4.29-30.18-.9-8.69,3.59-14.19,14.75-15.07,17.74-1.39,33.42,3.44,47.77,11.42,3.08,1.72,5.25,5.41,6.41,8.57,6.92,18.97,13.36,38.06,20.09,57.11,9.55,27.02-18.02,52.49-50.88,46.4Z"/>
  <path class="cls-1" d="m754.77,340.23c-23.68,4.78-47.29,9.86-71.08,14.22-23.93,4.38-49.44-11.44-49.27-32.09.14-13.3,5.28-26.55,8.28-39.81,1.98-8.76,3.7-17.56,6.44-26.15,1.19-3.67,3.79-8.62,7.35-9.91,16.75-6.03,33.9-11.42,51.31-15.91,2.71-.71,10.79,4.21,10.93,6.76.9,15.3,1.89,30.84-.28,45.97-4.77,33.26-4.94,34.13,30.77,49.95,1.86.82,3.42,2.14,5.11,3.22.14,1.25.31,2.5.45,3.74Z"/>
  <path class="cls-1" d="m827.15,396.61c-6.47,17.96-13.25,35.92-21.56,53.34-10.06,21.07-32.97,26.11-57.04,28.51-5.57.54-11.27.07-16.92.07-42.38-3.98-84.11-.66-125.41,7.63-8.93,1.81-13.28-1.74-14.13-8.92-5.14-44.33,3.73-60.26,54.44-80.27,7.63-3.01,15.51-5.79,23.62-7.53,3.67-.78,8.19,1.2,12.35,1.93-1.89,3.93-2.43,9.44-5.93,11.51-10.26,6.05-22.46,9.93-32.46,16.22-10.68,6.73-20.74,14.59-28.99,23.33-3.53,3.74-3.9,11.7-1.58,16.27,1.21,2.4,11.44,2.47,17.49,2.17,29.5-1.48,58.93-3.41,88.37-5.27,10.28-.64,20.71-.87,30.77-2.5,20.82-3.37,33.59-14.83,40.63-30.88,3.36-7.67,5.2-15.82,8.5-23.49,1.86-4.26,4.29-9.3,8.42-11.63,4.49-2.57,11.22-2.47,16.98-3.53.93,4.38,3.81,9.25,2.46,13.06Z"/>
  <path class="cls-1" d="m397.21,555.95c-.82-8.9-3.03-17.73-4.41-26.61-2.57-16.66-14.13-25.72-33.79-27.92-37.07-4.13-74.08-8.52-111.23-11.88-3.62-.33-10.79,5.25-11.7,8.9-4.86,19.42,16.31,55.65,42.89,59.82,14.24,2.24,28.39,4.75,42.61,6.97,17.46,2.71,34.94,5.24,46.5,6.99,25.48-.02,30.31-3.15,29.13-16.26Zm-40.11-16.46c-.13.68-.25,1.36-.38,2.05-.55.05-1.1.11-1.65.17-2.43.27-4.86.62-7.28.84-1.83.17-3.66.27-5.48.21-.76-.03-1.52-.05-2.28-.08-1.52-.04-3.05-.09-4.57-.13-3.82-.1-7.64-.21-11.44-.4-.76-.04-1.52-.08-2.28-.12-1.46-.08-2.92-.18-4.37-.32-2.5-.21-5-.48-7.47-.83-1.3-.18-2.58-.39-3.86-.63-.78-.14-1.56-.33-2.34-.54-1.45-.38-2.91-.86-4.35-1.44-.88-.36-1.76-.75-2.62-1.16-3.43-1.67-6.6-3.8-9.05-6.12-.3-.29-.6-.57-.88-.87h0c-3.91-4.1-3.16-9.32.2-12.66,2.45-2.45,6.31-3.91,10.76-3.18,9.68,1.58,18.97,3.97,27.83,7.15,1.9.68,3.78,1.4,5.64,2.15,1.24.49,2.47,1.02,3.68,1.55,1.22.53,2.44,1.09,3.64,1.66,1.2.56,2.39,1.14,3.57,1.74,1.18.61,2.35,1.22,3.51,1.85,1.75.94,3.47,1.93,5.16,2.96,2.27,1.35,4.49,2.78,6.67,4.27-.12.63-.25,1.25-.36,1.88Z"/>
  <path class="cls-1" d="m404.67,480.6c-2.03,9.39-11.78,5.98-18.51,5.13-16.16-2.02-32.01-5.81-48.2-7.16-19.35-1.62-39.07-3.01-58.37-1.72-56.36,3.81-87.44-12.03-106.6-56.45-2.54-5.91-5.06-11.79-7.66-17.68-3.02-6.8-4.94-13.28,6.75-15.54,11.78-2.28,21.47,2.59,23.87,10.9,2.94,10.19,6.1,20.43,10.62,30.18,8.11,17.44,25.51,23.73,46.62,25.47,39.07,3.25,78.12,6.73,117.13,10.5,12.29,1.18,15.88-1.72,13.59-12.26-4.21-19.66-23.53-25.96-41.98-32.44-19.61-6.87-28.7-17.89-22.97-33.73,26.78,12.66,54.7,22.22,74.36,41.12,15.85,15.25,15.45,34.75,11.33,53.67Z"/>
  <path class="cls-1" d="m800.11,354.12c-2.91,8.1-5.06,14.59-7.6,21-2.51,6.26-6.41,12.26-8.02,18.67-6.55,25.99-26.9,37.97-57.21,39.99-19.38,1.29-38.82,2.28-58.28,2.87-4.15.12-8.39-2.21-12.88-6.43,3.45-1.15,6.75-2.71,10.28-3.39,20.45-4,40.99-7.6,61.39-11.72,11.64-2.35,18.39-9.23,20.29-18.83.68-3.58-1.13-7.49-1.81-11.25-1.27-.19-2.54-.4-3.81-.59-3.14,3.13-5.68,7.06-9.61,9.23-5.45,3.01-13.28,7.6-17.66,6.19-5.28-1.67-9.66-8.52-11.47-13.84-3.87-11.46,2.23-17.84,16.81-20.1,21.13-3.25,41.95-7.93,62.97-11.7,4.32-.75,9.01-.09,16.61-.09Z"/>
  <path class="cls-1" d="m432.01,301.88c-2.68,22.79-14.72,42.44-33.56,57.93-5.93,4.9-20.88,2.5-31.7,2.42-1.07,0-4.55-8.55-2.85-10.17,24.01-23.16,17.12-47.81,6.22-72.81-2.54-5.86-5.34-11.68-7.6-17.63-4.44-11.84,2.03-17.87,16.33-14.31,6.89,1.74,14.1,5.01,19.04,9.3,15.12,12.97,33,24.81,34.13,45.27Z"/>
  <path class="cls-1" d="m632.24,359.56c-6.61,2.92-15,6.36-21.61,5.13-7.74-1.41-15.74-6.36-21.08-11.61-14.78-14.55-24.21-31.4-25.77-55.55,2.66-4.64,5.57-14.17,12.49-20.81,10.34-9.89,22.97-18.36,35.71-26.2,4.35-2.66,12.01-1.6,18.17-2.26.23,4.97,1.36,10.08.45,14.9-.76,4.07-3.81,7.89-5.93,11.79-13.31,24.29-13.7,48.05,3.45,71.44,2.83,3.91,5.28,12.62,4.12,13.16Z"/>
  <path class="cls-1" d="m336.44,432.04c-.76,1.39-1.55,2.75-2.32,4.14-35.23,1.01-71.05,2.24-102.24-15-21.53-11.89-30.26-30.98-31.76-52.35-.68-9.6,5.82-11.51,15.09-10.48,15.34,1.69,30.63,3.6,45.88,5.63,20.96,2.78,31.73,16.08,23.48,29.54-2.01,3.27-6.87,6.71-10.93,7.25-2.91.4-7.01-3.7-10.03-6.24-1.89-1.6-2.37-4.38-4.24-6.03-1.67-1.48-4.75-3.3-6.53-2.9-2.01.45-4.1,3.01-4.77,4.99-3.76,11.35,4.41,23,18.76,25.35,16.89,2.75,34.24,3.72,51.05,6.8,6.67,1.22,12.4,6.07,18.56,9.27Z"/>
  <path class="cls-1" d="m680.97,688.69c-4.44,16.78-7.49,32.58-13,47.76-5.74,15.89-31.78,23.66-50.06,16.01-8.5-3.55-12.37-10.99-6.72-16.41,12.35-11.86,10.31-25.31,10.34-38.84.03-17.33,31.64-34.65,49.95-26.06,5.4,2.54,6.44,11.49,9.49,17.54Z"/>
  <path class="cls-1" d="m588.79,703.73c-1.53,3.15-4.89,5.7-9.61,10.92-10.62-20.39-29.95-16.29-45.68-17.09-27.21-1.39-54.58-.33-81.9-.26-10.31.05-19.89,1.08-23.51,11.2-.57,1.6-4.1,4.1-4.66,3.84-5.88-2.78-12.91-5.16-16.67-9.44-3.67-4.19-5.37-10.52-4.92-15.75.14-1.95,8.76-4.85,13.53-4.87,50.37-.38,100.75-.26,151.12-.26,3.31,0,6.72-.54,9.86.07,6.27,1.22,16.95,2.28,17.6,4.85,1.27,5.11-2.51,11.32-5.17,16.78Z"/>
  <path class="cls-1" d="m378.9,745.99c-11.24,12.26-38.39,9.16-47.63-5.67-11.58-18.6-11.61-39.05-10.99-59.39.06-1.44,1.36-4.07,2.18-4.07,11.72-.31,23.48-.54,35.2-.19,8.9.28,9.86,5.79,9.72,11.77-.06,3.48.45,6.97.71,10.45-.82,12.88-1.84,25.64,11.87,35.5,2.18,1.6,1.44,8.9-1.05,11.61Z"/>
  <path class="cls-1" d="m528.55,663.6c-5.28.21-10.59.52-15.91.59-9.92.12-19.86.24-29.78.02-4.21-.09-8.42-1.04-12.6-1.58,1.64-2.94,2.54-6.52,5.09-8.73,15.34-13.3,33.28-11.21,53.2,9.7Z"/>
  <path class="cls-2" d="m551.47,611.5c-1.17-.83-2.27-1.64-3.27-2.37,1,.72,2.1,1.54,3.27,2.37Z"/>
  <path class="cls-2" d="m448.23,609.17c-.39.34-.73.69-1.03,1.02.29-.34.64-.68,1.03-1.02Z"/>
  <path class="cls-2" d="m455.18,623.32c.92-1.31,2.02-2.61,3.08-3.91-1.05,1.3-2.15,2.6-3.07,3.92-.79-.04-1.57-.09-2.36-.14.79.04,1.57.08,2.35.13Z"/>
  <path class="cls-2" d="m457.85,246.79c.08-.39.25-.8.49-1.24-.23.44-.4.85-.48,1.25-.06.27-.05.56.02.9-.07-.34-.09-.65-.03-.91Z"/>
  <path class="cls-2" d="m458.06,248.33c-.08-.22-.15-.43-.18-.63.04.19.1.4.18.63Z"/>
  <path class="cls-2" d="m460.8,242.47c-.44.44-.84.86-1.2,1.28.35-.42.75-.85,1.2-1.28Z"/>
  <path class="cls-2" d="m469.95,253.6c1.26-.41,2.5-.84,3.72-1.31-1.22.47-2.47.91-3.72,1.31Z"/>
  <path class="cls-2" d="m471.94,234.21s-.05.03-.08.05c1.47-.91,2.98-1.82,4.54-2.69-.9.5-1.78,1.03-2.65,1.55-.62.36-1.22.73-1.81,1.1Z"/>
  <path class="cls-2" d="m471.86,234.26c-.71.44-1.44.88-2.12,1.33.64-.42,1.32-.83,1.98-1.24.05-.03.1-.06.14-.09Z"/>
  <path class="cls-2" d="m507.23,242.72c.65.28,1.3.57,1.95.92-.66-.34-1.3-.65-1.95-.92Z"/>
  <path class="cls-2" d="m515.3,247.64c.17.13.34.28.51.42-.17-.14-.34-.28-.51-.41-.35-.28-.7-.54-1.05-.8.35.25.7.51,1.05.79Z"/>
  <path class="cls-2" d="m535.6,246.73c-.07-.19-.15-.34-.27-.42-.37-.26-.73-.52-1.1-.79.37.26.74.51,1.11.78.12.08.21.24.26.43Z"/>
  <path class="cls-2" d="m648.73,525.53c-1,.53-1.99,1.1-2.96,1.68.97-.6,1.96-1.16,2.96-1.68Z"/>
  <path class="cls-2" d="m657.59,522.07c.75-.17,1.51-.34,2.27-.5-.75.17-1.5.34-2.25.51-.99.23-1.98.51-2.95.84.96-.34,1.94-.63,2.93-.85Z"/>
  <path class="cls-2" d="m690.8,542.86c.14-.04.3-.08.47-.12-.17.05-.32.09-.46.13-4.75,0-9.2.02-13.44.04,4.24-.03,8.69-.05,13.43-.05Z"/>
  <path class="cls-2" d="m698.82,515.8c1.75-.03,3.43.12,4.96.46-1.54-.34-3.21-.48-4.96-.46Z"/>
  <path class="cls-2" d="m705.85,516.87c.64.25,1.24.53,1.8.88-.56-.34-1.16-.63-1.8-.88Z"/>
  <path class="cls-2" d="m356.72,541.55h0c-.55.06-1.1.11-1.65.17.55-.06,1.1-.12,1.65-.17Z"/>
</svg>