<?xml version="1.0" encoding="UTF-8"?>
<svg id="layout" xmlns="http://www.w3.org/2000/svg" viewBox="0 0 967.94 830.88">
  <defs>
    <style>
      .cls-1 {
        stroke-width: 0px;
      }
    </style>
  </defs>
  <path class="cls-1" d="m447.2,433.07c7.87-10.47,14.82-22.18,23.92-31,6.81-6.6,16.24-9.95,24.82-13.86,9.54-4.36,19.21-9.05,29.22-11.17,12.51-2.65,25.41-2.82,38.15-4.06-14.67,5.24-29.33,10.47-44,15.7.2,1.66.4,3.32.6,4.98,3.06.63,6.38,2.46,9.15,1.69,24.89-6.88,51.13-9.43,73.3-25.53,9.2-6.69,20.67-14.93,23.9-25.37,4.83-15.58,14.99-22.05,24.81-30.33,2.74-2.31,6.13-4.09,9.45-4.98,16.48-4.37,26.65-15.66,30.61-37.53-3.57,3.9-6.8,5.85-7.8,8.78-6.45,19.03-21.88,26.07-36.33,28.25-12.56,1.89-21.22,8.03-30.39,15.64-1.66,1.38-3.46,2.53-6.31,2.38,7.16-7.26,13.5-16.22,21.7-21.28,7.97-4.92,17.85-5.85,26.89-8.53-.22-1.48-.44-2.95-.67-4.43-4.67.58-9.34,1.16-14.21,1.76.17-1.68.35-3.46.62-6.08-5.99,2.04-11.7,3.98-17.41,5.92-.3-.8-.59-1.59-.89-2.39,3.8-2.1,7.6-5.99,11.39-5.99,22.62.02,34.37-20.09,49.94-33.35,14.87-12.66,18.33-32.11,23.91-50.07,3.43-11.03-1.88-20.24-15.87-26.64-9.15-4.19-13.7-11.87-17.41-20.5-1.03-2.4,2.46-8.26,4.94-11.46,3.69-4.76,8.33-8.56,11.73-13.77-19.59-1.1-35.43,18.68-27.94,33.56,4.78,9.49,13.6,16.29,20.3,24.61,3.36,4.17,8.69,9.23,8.47,13.57-.51,9.82-3.18,19.8-6.61,28.92-.95,2.53-7.66,2.25-13.82,3.77,2.33-3.52,3.07-5.33,3.54-5.25,13.86,2.48,11.29-11.42,14.07-19.07,3.42-9.4-3.99-12.77-9.3-17.22-3.11-2.61-5.29-6.62-8.15-9.68-2.73-2.91-5.61-5.74-8.76-8.02-5.76-4.17-12.23-7.27-17.43-12.15-2.15-2.02-3.47-8.39-2.3-11.27,9.38-23.03,22.09-40.78,46-47.41,15.51-4.3,32-9.95,43.91-24.79,2.5-3.11,7.79-3.1,11.51-5.2,14.55-8.25,29.7-15.52,43.24-25.57,11.21-8.32,10.33-10.83-.11-19.22,3.84-13.02,2.49-16.09-9.49-19.08-6.74-1.68-13.79-1.88-20.47-3.79-4.09-1.17-7.76-4.31-11.61-6.56,20.25,0,40.51,0,60.76,0,2.15,7.39,4.1,14.86,6.54,22.12.97,2.89,2.5,6.2,4.64,7.8,10.69,8.01,10.78,14.05.32,22.89-10.37,8.76-20.51,17.86-30.65,26.95-1.1.98-1.53,2.93-4.05,8.04,16.34-2.94,29.94-4.76,43.23-8.15,4-1.02,7.31-6.21,10.65-9.83,6.72-7.3,13.24-14.84,19.84-22.28-4.73,10.71-8.89,21.82-14.44,31.95-2.6,4.74-9.84,6.67-11.55,11.46-3.86,10.8-11.73,13.02-19.76,15.19-7.44,2.01-15.2,2.36-22.72,4.06-13.23,3-26.37,6.47-39.55,9.74-.91.23-1.81.49-3.71,1.01,1.68-3.08,2.83-5.18,4.16-7.61-14.59-.25-35.72,15.87-39.44,30.38-2.73,10.69-4.94,21.09,6.04,29.29,6.7,5.01,10.52,15.2,17.34,19.81,15.29,10.34,19.84,33.64,7.52,48.18-6.99,8.25-14.69,15.74-22.32,23.24-10.71,10.53-12.22,24.68-2.92,34.51,1.78,1.89,6.5,3.36,7.74,2.16,4.34-4.17,7.76-9.59,11.52-14.54-2.33-2.13-4.66-4.26-6.35-5.8-4.84-21.31,9.49-26.61,21.52-33.4,1.88-1.06,5.39,1.63,8.41,2.67,2.62-2.31,6.56-4.89,9.48-8.52,6.37-7.93,12.83-16.36,10.79-28.25-1.86-10.84-10.4-12.34-17.95-15.69-7.21-3.2-13.77-8.31-20.62-12.57l1.75-3.51c3.82,2.48,7.68,4.9,11.46,7.46,2.23,1.51,4.18,4.21,6.54,4.72,14.54,3.19,27.87,5.33,30,28.23,1.31,14.12-8.26,43.16-21.41,45.91-10.03,2.1-9.26,10.51-9.91,17.8-.66,7.48,3.69,12.38,10.14,12.19,16.64-.48,34.76,3.47,47.49-13.39,11.27-14.93,21.5-30.89,31.97-46.58,1.24-1.86,1.12-4.9,1.63-7.4-13.6-3.42-14.76-6.39-7.82-19.97,2.07-4.05,4.8-7.79,7.69-11.16,24.42-28.45,56.78-38.79,88.65-50.3,8.53-3.08,16.83-6.94,25.24-10.44v9.54c-6.31,2.13-12.62,4.26-18.94,6.38-16.56,5.55-33.97,9.01-49.42,17.25-14.18,7.56-26.46,19.93-39.07,30.93-3.16,2.75-4.36,8.41-6.59,12.99,5.91.64,9.44.76,12.8,1.69.46.13.81,4.79-.06,6.51-7.67,15.13-15.18,30.4-23.67,44.93-4.57,7.82-11.37,13.9-16.44,21.4-15.1,22.32-34.84,37.62-56.28,50.89-6.82,4.22-13.05,10.35-18.36,16.87-8.83,10.85-15.88,23.7-25.23,33.85-6.62,7.19-15.78,11.35-23.84,16.8-13.4,9.04-14.66,17.83-7.39,32.75,2.53,5.19,2.44,14.79-.19,19.83-4.06,7.77-11.15,13.62-17.32,19.8-11.1,11.11-22.67,21.64-33.58,32.98-2.26,2.34-3.16,7.09-3.55,10.89-.78,7.51,2.3,10.47,9.3,10.11,11.44-.58,24.08-3.45,34.17.87,24,10.27,41.81-6.65,61.42-14.53,13.22-5.32,25.68-14.12,37.29-23.31,9.19-7.27,16.99-17.06,24.48-26.68,2.12-2.73,2.32-9.52.84-13.04-1.01-2.39-6.51-3.21-9.99-3.19-11.21.08-19.84,5.85-26.39,16.37-3.61,5.8-8.26,10.75-12.44,16.09,4.74-14.08,10.95-26.5,17.33-38.8,17.96-34.64,47.27-49.54,79.98-54.53,16.39-2.5,30.53-9.23,45.26-15.86,24.85-11.19,34.99-37.84,48.01-60.73,8.15-14.32,12.07-31.77,17.89-47.81v50.11c-3.73,4.93-7.9,9.51-11.11,14.84-11.03,18.29-21.81,36.69-41.96,43.58-2.31.79-4.98,1.79-6.51,3.7-13.98,17.59-33.61,20.76-52.13,23.58-11.11,1.69-21.98,2.25-31.54,8.99-5.16,3.64-9.51,8.97-13.67,14.12-1.62,2-3.1,7.03-2.2,8.17,1.75,2.22,5.18,2.92,8.03,3.73,1.2.34,2.68-.89,4.04-.94,4.55-.16,9.1-.1,13.65-.12-1.28,5.79-.95,13.38-4.12,17.07-13.22,15.39-27.44,29.66-41.4,44.2-3.06,3.19-7.48,5.12-9.72,8.84-9.21,15.26-23.04,21.34-37.71,25.73-22.33,6.68-44.69,13.28-67.19,19.12-9.01,2.34-18.82,1.1-27.58,4.09-13.84,4.72-27.51,10.65-40.52,17.81-38.13,20.98-74.04,64.73-67.91,123.46,1.73,16.63,10.42,28.26,20.17,39.19,5.02,5.63,10.89,10.26,18.12,16.96v-11.27c13.53,11.36,26.47,22.37,39.62,33.05,1.67,1.35,4.47.83,6.73,1.33,3.72.83,7.4,1.84,11.12,2.68,2.21.5,5.63,2.05,6.5.99,7.88-9.65,18.09-4.99,27.25-6.29,7.13-1.01,12.66,1.25,16.19,9.49,3.31,7.72,11.22,8.02,14.85,1.51,1.45-2.59,3.48-4.76,5.25-7.12,2.51,2.53,7.01,4.92,7.16,7.63.44,8.01,4.96,6.74,9.38,7.73,14.93,3.32,29.78,7.17,47.48,11.52h-239.7l-.4,3.73c4.33,1.62,8.66,3.24,12.99,4.86-.12.84-.24,1.67-.36,2.51-11.22-1.85-22.63-2.82-33.63-5.73-25.26-6.68-50.76-7.56-76.4-5.53-4.06.32-7.74,6.29-11.83,6.73-12.27,1.32-24.76,2.58-36.96,1.29-16.83-1.78-33.46-6.01-50.22-8.93-2.25-.39-5.86-.27-6.87,1.28-11.05,16.93-26.62,15.72-41.97,13.26-16.15-2.59-30.54,4.7-45.61,8.28-3.4.8-6.85,2.19-10.23,2.01-23.47-1.26-46.92-2.86-70.27-4.34,6.79-10.29,24.95-5.24,27.23-22.61-61.06-1.84-121.52-3.66-183.96-5.54,9.55-5.16,17.11-9.64,24.95-13.4,18.43-8.85,30.75-24.72,40.11-44.16.5-1.04.74-2.49,1.5-3.1,18.24-14.57,24.78-39.62,39.61-57.17,8.24-9.75,19.35-8.85,30.15-8.83,6.06.02,13.34,1.12,17.94-2.16,10.9-7.77,22.58-13.62,31.66-25.85,8.98-12.1,23.54-18.65,34.91-28.72,5.42-4.8,10.09-11.52,13.34-18.45,4.25-9.07,7.85-17.36,15.66-24.25,7.07-6.23,11.16-17.51,15.29-27.27,12.62-29.8,33.47-48.69,60.03-60.04,20.34-8.69,41.16-15.65,59.99-28.82,7.99-5.59,18.18-7.08,28.27-7.83-10.3,4.63-20.59,9.26-30.89,13.89l1.34,4.54c9.64-2.9,19.29-5.79,28.93-8.69-6.26,4.73-12.51,9.51-18.81,14.17-1.09.81-2.5,1.69-3.69,1.57-14.49-1.39-31.06,18.47-29.13,34.19.87,7.1.41,14.58-.42,21.74-1.47,12.67-3.69,25.23-5.6,37.84,4.08-4.88,7.36-10.62,9.14-16.9,3.4-11.99,5.15-24.63,9.11-36.34,2.55-7.54,7.8-13.89,12.02-21.07-2.18-.13-4-.24-5.83-.35-.25-1.09-.5-2.17-.76-3.26,12.03-5.87,24.85-10.28,35.88-18,11.41-7.99,21.11-19.17,31.53-29q24.32-22.93,24.74-34.07c-8.61,8.86-16.2,16.67-23.78,24.48Zm41.36,68.1c5.16-5.21,9.74-13.3,13.23-12.73,12.75,2.07,18.27-8.63,22.44-16.92,6.35-12.62,15.18-16.26,26.32-18,6.49-1.02,13.11-2.39,19.12-5.16,2.73-1.26,4.12-6.28,6.12-9.6-2.99-1.51-6.66-5.12-8.87-4.2-18.12,7.56-36.44,14.88-53.71,24.57-9.11,5.11-16.45,14.53-24.16,22.55-3.69,3.84-6.59,8.76-9.46,13.49-3.39,5.61-4.04,10.93-2.65,18.52,1.17,6.39-2.9,15.95-7.26,21.41-19.64,24.55-19.45,52.81-14.48,82.7,1.19,7.18.8,14.81.42,22.19-.31,5.98-2.63,11.94-2.39,17.82.38,9.47,1.59,19,3.45,28.25,1.77,8.8,4.35,17.49,7.56,25.73,1.11,2.85,5.63,6.3,7.78,5.7,2.39-.67,5.88-6.24,5.35-8.65-2.15-9.57-4.32-19.77-9.04-27.79-5.72-9.7-9.93-27.09-4.17-34.31,9.67-12.11,8.44-24.05,3.18-37.78-2.18-5.69-1.14-13.12-1.05-19.75.06-4.33,1.03-8.65,1.6-12.97-1.3-.28-2.59-.56-3.89-.85-2.25,10.89-4.51,21.79-6.74,32.58-1.5-17.65,1.8-33.78,12.1-49.51,1.49,3.83,2.29,5.88,3.82,9.8,1.56-5.88,2.21-9.78,3.62-13.28,1.39-3.45,3.56-6.5,4.9-8.87-3.33,14-6.79,28.3-10.06,42.66-.41,1.81-.18,4.04.33,5.86,3.26,11.64,7.08,23.09,9.9,34.86,2.04,8.54,6.26,10.97,13.74,8.86,17.73-5.02,25.24-25.05,40.14-34.38,4.72-2.96,7.36-10.39-.75-16.26-2.15-1.55-2.54-11.11-.52-14.49,14.69-24.5,29.01-49.38,53.26-63.98,16.21-9.76,31.83-20.94,47.13-32.48,7.12-5.37,14.16-12.88,11.51-24.27-1.45-6.23-16.88-7.98-26.27-4.28-5.56,2.19-11.17,4.79-16.93,5.6-19.11,2.69-38.37,4.17-57.42,7.25-4.56.74-8.78,5.56-12.78,9.06-8.36,7.32-16.08,15.64-24.81,22.3-5.06,3.86-11.55,5.27-19.6,8.74Zm-200.26,83.1c-6.94,10.75-19.69,10.07-22.06,22.98,12.33-6.14,25.89-11.3,34.87-21.63,15.29-17.6,28.27-37.98,40.97-58.22,3.83-6.1,4.51-15.54,4.82-23.54.45-11.66-4.56-15.9-13.67-10.3-11.17,6.87-21.11,16.38-31.42,25-1.56,1.3-2.19,3.98-3.4,5.9-3.93,6.26-6.9,14.06-12.09,18.4-20.36,17.03-29.76,43.51-44.82,65.04-1.04,1.49-1.44,3.6-2,5.48-3.5,11.75-9.78,20.65-19.23,27.23-4.53,3.16-7.84,8.59-11.71,13,.66,1.11,1.33,2.22,1.99,3.33,3.14-.89,7.13-.71,9.28-2.88,7.21-7.29,14.22-14.99,20.46-23.35,7.59-10.15,13.27-22.44,21.77-31.32,6.36-6.65,15.88-9.4,26.24-15.12Zm162.67-88.46c16.62-16.12,31.69-31.39,47.42-45.69,7.8-7.09,16.3-13.94,25.45-18.2,14.77-6.88,30.14-12.47,45.66-16.74,8.09-2.22,17.55-2.54,25.48-.01,13.39,4.26,26.43,3.44,38.11-2.74,10.79-5.7,22.03-11.4,23.1-30.65.68-12.16,10.98-23.77,17.44-35.28,2.96-5.28,7.33-9.5,10.5-14.66,1.15-1.88,1.65-5.89.66-7.43-1.08-1.67-4.28-2.34-6.49-2.17-8.74.66-22.59,14.5-25.8,23.81-2.35,6.81-5.5,13.56-9.47,19.28-9.97,14.36-21.55,26.28-36.74,34.08-10.59,5.45-20.58,9.61-32.05,6.35-14.59-4.15-27.54-.35-39.49,9.58-2.46,2.04-5.91,5.19-8.12,4.51-10.63-3.27-17.13,4.69-24.15,10.64-12.8,10.84-25.13,22.42-37.76,33.53-8.83,7.77-12.7,18.11-13.75,31.81Zm-217.14,162.41c-.52-.38-1.05-.75-1.57-1.13-14.29,8.39-28.04,18.44-43.01,24.71-15.82,6.63-30.86,13.16-39.61,30.68-1.62,3.23-1.23,7.76-1.77,11.69,3.6.42,7.25,1.44,10.77,1.04,2.18-.24,4.2-2.6,6.26-4.06,6.68-4.75,14.32-14.62,19.83-13.26,12.84,3.18,14.51-6.21,18.77-14.36,2.08-3.98,4.61-7.81,7.51-11.04,7.44-8.29,15.2-16.2,22.83-24.27Zm287.02,62.38c2.14-.18,4.28-.36,6.41-.53.76-7.85,3.5-16.27,1.9-23.43-5.17-23.13,5.2-42.34,9.98-63.02.94-4.05.47-8.52.64-12.79-3.53,1.89-8.54,2.68-10.36,5.85-11.2,19.49-18.94,40.47-15.18,64.51,1.55,9.94,4.36,19.62,6.6,29.42Zm-144.83-181.17c-3.54,9.43-8.74,18.99-10.64,29.33-3.05,16.66-7.4,31.89-17.41,45.07-2.89,3.81-2.6,10.78-3.53,16.35-.02.12,3.87,1.76,4.26,1.19,3.49-5.07,6.72-10.39,9.71-15.86.56-1.03-.92-3.48-.37-4.56,3.67-7.17,7.07-14.67,11.65-21.04,4.64-6.45,11.2-11.14,15.61-17.74,2.11-3.16,2.55-9.53,1.3-13.42-1.94-6.04-5.97-11.21-10.58-19.31Zm94.63-98.41c-.93-2.03-1.87-4.05-2.8-6.08-5.11,2.34-11.05,3.49-15.19,7.22-14.73,13.29-29.21,27-42.97,41.57-4.33,4.59-6.09,12.34-8.68,17.92,14.1-10.24,27.95-20.29,41.8-30.33l-1.47-3.05c-2.2.37-4.41.75-6.61,1.12,5.47-6.2,11.82-10.02,17.89-14.36,6.16-4.4,12.03-9.32,18.03-14.01Zm-22.64,197.46c-10.2,20.96-9.81,56.22,0,66.36,9.09-21.76-.23-43.46,0-66.36Zm-134.87-1.58c14.6-2.5,35.99-27.86,35.58-46.43-5.02,5.26-9.36,8.91-12.71,13.48-7.97,10.89-15.47,22.22-22.87,32.95Zm136.71-21.68c-1.07-.36-2.14-.71-3.21-1.07-8.39,8.25-10.92,17.86-6.18,27.26,3.35-9.33,6.37-17.76,9.39-26.19Z"/>
</svg>